<?xml version="1.0" standalone="no"?>
<!DOCTYPE svg PUBLIC "-//W3C//DTD SVG 1.1//EN" "http://www.w3.org/Graphics/SVG/1.1/DTD/svg11.dtd" >
<svg>
<metadata>
Created by FontForge 20090914 at Sat Jul 22 21:03:35 2017
 By www-data
Copyright (c) Alexandra Gophmann, 2006. All rights reserved.
</metadata>
<defs>
<font id="Agatha-Modern" horiz-adv-x="1622" >
  <font-face 
    font-family="Agatha-Modern"
    font-weight="400"
    font-stretch="normal"
    units-per-em="4096"
    panose-1="2 11 114 0 0 0 0 0 0 0"
    ascent="3276"
    descent="-820"
    x-height="1765"
    cap-height="2446"
    bbox="-708.999 -1360 6979.08 3309"
    underline-thickness="40"
    underline-position="-80"
    unicode-range="U+0020-U+F002"
  />
<missing-glyph horiz-adv-x="3072" 
d="M512 0v2560h2048v-2560h-2048zM2494 66v2428h-1916v-2428h1916z" />
    <glyph glyph-name=".notdef" horiz-adv-x="3072" 
d="M512 0v2560h2048v-2560h-2048zM2494 66v2428h-1916v-2428h1916z" />
    <glyph glyph-name="space" unicode=" " horiz-adv-x="1024" 
 />
    <glyph glyph-name="exclam" unicode="!" horiz-adv-x="668" 
d="M496 2556l-50 -2052c0 -22 -2.66699 -42.667 -8 -62c0 -5.33301 -4 -14.666 -12 -27.999c-22 60 -63 102.333 -123 127c-24.667 10.667 -37 24.334 -37 41.001l-61 1802c0 43.333 41 102 123 176c48.667 44 88 66 118 66c33.333 0 50 -23.333 50 -70zM516 85.998
c0 -46.667 -16.332 -86.333 -48.999 -119s-72.334 -49 -119.001 -49c-40.667 0 -83 20.667 -127 62c-46 38 -69 76 -69 114c0 41.333 17.667 77 53 107c32.667 27.333 73.667 41 123 41c52 0 97 -13.667 135 -41c35.333 -30 53 -68.333 53 -115z" />
    <glyph glyph-name="quotedbl" unicode="&#x22;" horiz-adv-x="1147" 
d="M1032 2470c0 -79.333 -33.999 -169.333 -101.999 -270c-71.333 -101.333 -122 -152 -152 -152c-5.33301 8 -8 13.333 -8 16c-5.33301 11.333 -8 21 -8 29c0 22 28.667 64.333 86 127c30 32.667 45 64 45 94c-14 22 -23.667 33 -29 33
c-48.667 0 -92.334 16.333 -131.001 49c-40.667 30 -61 71 -61 123c0 95.333 56 143 168 143c128 0 192 -64 192 -192zM451.001 2458c0 -74 -37.001 -158.667 -111.001 -254c-74 -98.667 -123 -148 -147 -148c-11.333 22 -17 34.333 -17 37c0 27.333 23.333 61.333 70 102
c46 41.333 69 81 69 119c-13.333 22 -22.666 33 -27.999 33c-49.333 0 -94.5 16.333 -135.5 49s-61.5 73.667 -61.5 123c0 40.667 17.667 74.667 53 102c36 27.333 75.667 41 119 41c54.667 0 99.667 -19 135 -57c36 -38 54 -87 54 -147z" />
    <glyph glyph-name="numbersign" unicode="#" horiz-adv-x="2195" 
d="M1937 1634l-24 -168h-467l-45 -319h467l-25 -164h-467l-106 -733h-168l102 733h-340l-110 -733h-164l98 733h-471l33 164h463l49 319h-479l32 168h471l91 676h172l-95 -676h340l99 676h172l-95 -676h467zM1278 1466h-348l-45 -319h340z" />
    <glyph glyph-name="dollar" unicode="$" horiz-adv-x="1831" 
d="M1753 651c0 -174.667 -66.9961 -323.331 -200.996 -445.998c-144.667 -134 -334.334 -201 -569.001 -201v-311c0 -22 -5.33301 -42.667 -16 -62c-36 57.333 -85.333 97 -148 119c-24.667 8 -41 23 -49 45v213c-204.667 0 -371.334 58.667 -500.001 176
c-128 117.333 -192 267.666 -192 450.999c0 155.333 54.667 289 164 401s248.333 168 417 168c142 0 271.833 -47.667 389.5 -143s176.5 -207.333 176.5 -336c0 -84.667 -38.333 -169.334 -115 -254.001c-65.333 -70.667 -116 -106 -152 -106
c-21.333 0 -51.333 21.667 -90 65c-40.667 41.333 -62.334 75.333 -65.001 102l20 25c106.667 0 160 64.333 160 193c0 84.667 -26 151.334 -78 200.001c-54.667 46.667 -127 70 -217 70c-117.333 0 -217 -39.667 -299 -119s-123 -168 -123 -266
c0 -126 60 -232.667 180 -320c120.667 -90 276.334 -135 467.001 -135c178 0 324.333 48 439 144c112 95.333 168 201.666 168 318.999c0 147.333 -112 285.333 -336 414l-631 327c-226.667 145.333 -340 306.666 -340 483.999c0 144.667 49 263.334 147 356.001
c96 92.667 231.333 157 406 193v94c0 30 26 79 78 147c49.333 66 84.666 99 105.999 99c8.66699 0 17 -8.33301 25 -25c5.33301 -10.667 8 -25.667 8 -45v-250c112 0 226.667 -26 344 -78c117.333 -54.667 176 -110.667 176 -168c0 -46 -9.33301 -103.333 -28 -172
c-19.333 -70.667 -37.333 -106 -54 -106c-54.667 98 -113.334 171.667 -176.001 221c-87.333 65.333 -198 98 -332 98c-114.667 0 -219.667 -38.167 -315 -114.5s-143 -159.5 -143 -249.5c0 -139.333 112 -266.333 336 -381l622 -307c226.667 -144.667 340 -321 340 -529z
" />
    <glyph glyph-name="percent" unicode="%" horiz-adv-x="2556" 
d="M1278 1827c0 -169.333 -49.332 -307.334 -147.999 -414.001c-98 -109.333 -234.333 -164 -409 -164c-169.333 0 -299 54.667 -389 164c-92.667 106.667 -139 250 -139 430c0 166.667 49 304.667 147 414.001c95.333 106.667 227.666 160 396.999 160
s301.833 -53.333 397.5 -160s143.5 -250 143.5 -430zM2138 2466l-1556 -2462h-205l1560 2462h201zM2339 646.999c0 -174.667 -45.001 -315.334 -135.001 -422.001c-93.333 -109.333 -228.666 -164 -405.999 -164c-172 0 -304.333 53.333 -397 160
c-96 104 -144 248.667 -144 434c0 166.667 49.167 303.334 147.5 410.001s230.833 160 397.5 160c169.333 0 302 -50.667 398 -152c92.667 -103.333 139 -245.333 139 -426zM1114 1831c0 128 -28.667 227.668 -86 299.001c-65.333 82 -162.333 123 -291 123
c-112 0 -203.333 -37 -274 -111c-74 -76 -111 -175.667 -111 -299c0 -130.667 30 -234.334 90 -311.001c60 -79.333 154.333 -119 283 -119c120 0 215.667 38.333 287 115c68 73.333 102 174.333 102 303zM2183 651c0 123.333 -31.3311 223 -93.998 299
c-62.667 74 -158.334 111 -287.001 111c-114.667 0 -206 -35.667 -274 -107c-71.333 -73.333 -107 -174.333 -107 -303c0 -136.667 30 -243 90 -319c57.333 -76.667 151.666 -115 282.999 -115c122.667 0 218.167 38.167 286.5 114.5s102.5 182.833 102.5 319.5z" />
    <glyph glyph-name="ampersand" unicode="&#x26;" horiz-adv-x="2241" 
d="M2089 12l-201 0.000976562l-270 332c-82 -117.333 -177.667 -207.333 -287 -270c-112 -62.667 -241.667 -94 -389 -94c-191.333 0 -355 55.667 -491 167c-136.667 112 -205 255.667 -205 431c0 120 32.667 226.333 98 319c90 125.333 252.333 263.333 487 414
c-133.333 158 -217.833 271.167 -253.5 339.5s-53.5 142.166 -53.5 221.499c0 136.667 50.667 247.334 152 332.001c98 82 219.333 123 364 123c142 0 263.667 -41 365 -123c98 -84.667 147 -195.334 147 -332.001c0 -95.333 -27.333 -180 -82 -254
c-65.333 -84.667 -196.333 -200.667 -393 -348l504 -623c22 96 35.667 157.333 41 184c5.33301 27.333 8 75.333 8 144h164c0 -191.333 -32.667 -352.333 -98 -483zM1380 1876c0 87.333 -30 158.334 -90 213.001s-143.333 82 -250 82c-103.333 0 -188 -24.667 -254 -74
c-68 -49.333 -102 -123 -102 -221c0 -68 24.667 -140.333 74 -217c46 -76.667 118.333 -164 217 -262c164 98 273.333 178.333 328 241c51.333 63.333 77 142.666 77 237.999zM1507 475.002l-569 705c-186 -98.667 -321.333 -193 -406 -283c-84 -92.667 -126 -191 -126 -295
c0 -136.667 51.667 -248.667 155 -336c101.333 -90 229.666 -135 384.999 -135c114.667 0 219.834 30 315.501 90s177.5 144.667 245.5 254z" />
    <glyph glyph-name="quotesingle" unicode="'" horiz-adv-x="582" 
d="M471 2458c0 -63.333 -34.001 -145.333 -102.001 -246c-71.333 -104 -123.333 -156 -156 -156l-16 45c2.66699 11.333 35.334 53.666 98.001 127c27.333 32.667 41 61.334 41 86c0 8.66699 -4 17 -12 25c-6 2.66699 -10.333 5.33398 -13 8c-52 0 -97 16.333 -135 49
c-40.667 30 -61 71 -61 123c0 49.333 17.667 86.333 53 111c35.333 21.333 76.333 32 123 32c57.333 0 102.333 -19 135 -57c30 -40.667 45 -89.667 45 -147z" />
    <glyph glyph-name="parenleft" unicode="(" horiz-adv-x="668" 
d="M569 -815c0 -27.333 -25.668 -73.666 -77.001 -138.999c-36 -44 -62 -85 -78 -123c-5.33301 0 -32.666 94 -81.999 282c-62.667 238 -113.334 471.667 -152.001 701c-54.667 324.667 -82 616.667 -82 876c0 338.667 39.667 729.167 119 1171.5s142.333 663.5 189 663.5
c21.333 0 54 -30 98 -90c40.667 -62.667 62.334 -107.667 65.001 -135c-2.66699 0 -21.667 -82 -57 -246c-46.667 -212.667 -83.667 -416 -111 -610c-40.667 -292 -61 -548.667 -61 -770c0 -308.667 23.333 -599.334 70 -872.001z" />
    <glyph glyph-name="parenright" unicode=")" horiz-adv-x="668" 
d="M569 778c0 -259.333 -27.333 -551.334 -82 -876.001c-38 -221.333 -88.333 -453.666 -151 -696.999c-49.333 -190.667 -76.666 -286 -81.999 -286c-22 46 -46.667 87 -74 123c-54.667 70.667 -82 117 -82 139c60 210 113.333 451.5 160 724.5s70 558.5 70 856.5
c0 240 -19.333 496.667 -58 770c-24.667 182.667 -61.334 384.667 -110.001 606c-36 166.667 -56.667 250 -62 250c5.33301 30 28.5 75 69.5 135s72.5 90 94.5 90c44 0 107 -223.667 189 -671c78.667 -448 118 -836 118 -1164z" />
    <glyph glyph-name="asterisk" unicode="*" horiz-adv-x="1061" 
d="M954 2343l-286 -102l192 -234l-131 -94l-201 241l-200 -249l-127 102l188 234l-291 102l54 151l294 -106v299h164v-299l291 106z" />
    <glyph glyph-name="plus" unicode="+" horiz-adv-x="2081" 
d="M1831 1225h-705v-631h-172v631h-708v168h708v630h172v-630h705v-168z" />
    <glyph glyph-name="comma" unicode="," horiz-adv-x="582" 
d="M471 37c0 -62.667 -34.001 -144.668 -102.001 -246.001c-71.333 -104 -123.333 -156 -156 -156l-16 46c2.66699 10.667 35.334 52.667 98.001 126c27.333 33.333 41 62.333 41 87c0 8 -4 16 -12 24c-6 2.66699 -10.333 5.33398 -13 8.00098c-52 0 -97 16.333 -135 49
c-40.667 30 -61 71 -61 123c0 49.333 17.667 86.333 53 111c35.333 22 76.333 33 123 33c57.333 0 102.333 -19.333 135 -58c30 -40.667 45 -89.667 45 -147z" />
    <glyph glyph-name="hyphen" unicode="-" horiz-adv-x="1118" 
d="M991 852h-823v156h823v-156z" />
    <glyph glyph-name="period" unicode="." horiz-adv-x="582" 
d="M471 86c0 -44 -15 -82.333 -45 -115c-32.667 -35.333 -71 -53 -115 -53c-52 0 -97 20.667 -135 62c-40.667 38 -61 76 -61 114c0 98.667 56 148 168 148c54.667 0 99.667 -15 135 -45s53 -67 53 -111z" />
    <glyph glyph-name="slash" unicode="/" horiz-adv-x="1307" 
d="M1384 2888c0 -27.333 -4 -52 -12 -74c-10.667 -22 -24.334 -41 -41.001 -57c-259.333 -464.667 -481.666 -975.334 -666.999 -1532c-186 -560 -279 -1010.67 -279 -1352c0 -92.667 -34 -139 -102 -139c-44 0 -85 15 -123 45c-41.333 30 -62 71 -62 123
c0 158 43.667 379 131 663c68.667 218.667 180.667 531.334 336 938.001l447 1143l73 246c27.333 62.667 75.333 94 144 94c43.333 0 80 -6.83301 110 -20.5s45 -39.5 45 -77.5z" />
    <glyph glyph-name="zero" unicode="0" horiz-adv-x="1909" 
d="M1798 1253c0 -357.333 -73.668 -649.335 -221.001 -876.002s-348 -340 -602 -340c-251.333 0 -457.666 114.667 -618.999 344c-163.333 226.667 -245 517.334 -245 872.001c0 347.333 79 638.333 237 873c158.667 232 367.667 348 627 348
c242.667 0 440.5 -114.667 593.5 -344s229.5 -521.666 229.5 -876.999zM1597 1266c0 242.667 -62.667 472 -188 688c-128 215.333 -275.333 323 -442 323s-315.667 -106.333 -447 -319c-134 -213.333 -201 -444 -201 -692c0 -246 64.333 -475.333 193 -688
c125.333 -216 277 -324 455 -324c163.333 0 309.333 105 438 315c128 208 192 440.333 192 697z" />
    <glyph glyph-name="one" unicode="1" horiz-adv-x="1909" 
d="M1274 -33h-590c0 82 26 159.833 78 233.5s78 139.167 78 196.5v1540c0 14 -34.333 41.333 -103 82c-70.667 41.333 -106 73 -106 95c0 38 62.667 117 188 237c123.333 117.333 209.333 176 258 176c19.333 0 29 -42.333 29 -127v-2040c0 -48.667 28.667 -106 86 -172
c54.667 -68 82 -141.667 82 -221z" />
    <glyph glyph-name="two" unicode="2" horiz-adv-x="1909" 
d="M1679 176c0 -87.333 -38.167 -144.67 -114.5 -172.003s-203.166 -41 -380.499 -41h-979c8 101.333 34 179.333 78 234c70.667 68 129.334 126.667 176.001 176l704 717c74 70.667 143.667 173 209 307c62.667 130.667 94 248 94 352
c0 122.667 -49.167 237.334 -147.5 344.001s-215.5 160 -351.5 160c-284 0 -463 -180.333 -537 -541c-16 0 -44.667 28.667 -86 86c-40.667 54.667 -61 105.334 -61 152.001c0 84.667 84.667 192.334 254 323.001c169.333 128.667 316.666 193 441.999 193
c216 0 384 -64.333 504 -193c120 -128 180 -312.333 180 -553c0 -133.333 -17.667 -261.666 -53 -384.999c-36 -122.667 -81 -215.334 -135 -278.001l-615 -623c-24.667 -24.667 -46.334 -49.334 -65.001 -74.001c-19.333 -27.333 -29 -47.666 -29 -60.999
c0 -22 12.333 -41.167 37 -57.5s54.667 -24.5 90 -24.5h274c96 0 168.333 8.33301 217 25c49.333 13.333 90.333 46 123 98c76.667 -32.667 124.5 -58.667 143.5 -78s28.5 -48 28.5 -86z" />
    <glyph glyph-name="three" unicode="3" horiz-adv-x="1909" 
d="M1642 475c0 -281.333 -78.998 -503.998 -236.998 -667.998c-144.667 -147.333 -325 -221 -541 -221c-122.667 0 -237.334 27.333 -344.001 82c-109.333 54.667 -191.333 130 -246 226c0 24 31.667 63.333 95 118c60 54.667 105 82 135 82l20 -8l-8 -29
c0 -48.667 34 -99 102 -151c68.667 -54.667 150.667 -82 246 -82c144.667 0 267.667 62.667 369 188c100.667 126 151 280.333 151 463c0 150 -38 282.333 -114 397c-84.667 126 -191.334 189 -320.001 189c-54.667 0 -116 -15 -184 -45c-22 -8 -52 -24.333 -90 -49v270
c144.667 68 273 173 385 315c112 139.333 168 278.666 168 417.999c0 210.667 -87.333 316 -262 316c-87.333 0 -166.666 -33 -237.999 -99c-74 -68 -127.333 -156.667 -160 -266c-35.333 35.333 -61 62.666 -77 81.999c-54.667 62.667 -82 110.334 -82 143
c0 60 68 136.667 204 230c136.667 90 254.334 135 353.001 135c155.333 0 276.666 -45 363.999 -135c84.667 -93.333 127 -220.333 127 -381c0 -194 -47.667 -364.667 -143 -512c-68.667 -106.667 -142.334 -179 -221.001 -217c224 -98.667 378 -227 462 -385
c57.333 -106.667 86 -242 86 -406z" />
    <glyph glyph-name="four" unicode="4" horiz-adv-x="1909" 
d="M1606 549h-234.001v-991c0 -63.333 -2.66699 -107.166 -8 -131.499s-10.666 -43.5 -15.999 -57.5l-111 94c-74 68.667 -111 114 -111 136c0 18.667 6.83301 41.667 20.5 69s20.5 49.333 20.5 66v815h-839c-38.667 0 -58 26 -58 78c0 13.333 3 29.666 9 48.999
c0 5.33301 4 15 12 29c177.333 232 309.666 432.667 396.999 602c114.667 223.333 263.667 593.333 447 1110c5.33301 16 42 39 110 69c68.667 30 120.667 45 156 45c16 0 27 -9.33301 33 -28c-196.667 -530 -336 -883.667 -418 -1061
c-84.667 -180.667 -205 -378.667 -361 -594c0 -16.667 8.33301 -33.167 25 -49.5s40 -24.5 70 -24.5h417v647c8.66699 41.333 33.334 78.333 74.001 111l131 102v-860h234v-225z" />
    <glyph glyph-name="five" unicode="5" horiz-adv-x="1909" 
d="M1606 2175l-9 -15.998h-667c-14 -11.333 -42.667 -108.333 -86 -291l-131 -574c60 11.333 101 17 123 17c182.667 0 350.334 -75.333 503.001 -226c150.667 -152.667 226 -338.334 226 -557.001c0 -308 -71 -560.333 -213 -757
c-150.667 -208 -354.334 -312 -611.001 -312c-122.667 0 -242.667 26 -360 78c-117.333 49.333 -176 102.666 -176 159.999c0 16 30 55.667 90 119c57.333 60 101 95.333 131 106l8 -8l-16 -41c0 -35.333 36.667 -70.666 110 -105.999c74 -36 139.667 -54 197 -54
c169.333 0 310 75.167 422 225.5s168 346.833 168 589.5c0 150.667 -50.667 277.667 -152 381c-109.333 112 -255.333 168 -438 168c-35.333 0 -72.333 -6.66699 -111 -20l-122 -49c-22 0 -45.333 15 -70 45c-8 8 -17.667 24.333 -29 49l139 610
c44 191.333 108.333 419.333 193 683.999h709c24 0 51.333 -16.333 82 -49c46 -52 76 -109.333 90 -172z" />
    <glyph glyph-name="six" unicode="6" horiz-adv-x="1909" 
d="M1622 827c0 -218 -48.998 -402.333 -146.998 -553c-118 -180 -286 -270 -504 -270c-196.667 0 -358 80.667 -484 242c-128 158 -192 346.333 -192 565c0 382 101 741 303 1077c188.667 311.333 456.334 588.666 803.001 832c13.333 -22 25.666 -80.667 36.999 -176
l12 -136c-152.667 -48.667 -304.334 -159 -455.001 -331c-139.333 -158.667 -209 -281.667 -209 -369c33.333 16.667 58 27.667 74 33c60 24.667 103.667 37 131 37c161.333 0 307.666 -91.667 438.999 -275c128 -182.667 192 -408 192 -676zM1409 782
c0 194 -45 370.333 -135 529c-90 155.333 -199.333 233 -328 233c-117.333 0 -217 -67 -299 -201c-84.667 -136 -127 -302.333 -127 -499c0 -186 38.333 -335 115 -447s183 -168 319 -168c139.333 0 250 50.5 332 151.5s123 234.833 123 401.5z" />
    <glyph glyph-name="seven" unicode="7" horiz-adv-x="1909" 
d="M1581 2384c0 -27.333 -37.002 -128.332 -111.002 -302.999c-95.333 -226.667 -181.333 -499.667 -258 -819c-117.333 -494.667 -218.333 -1106.33 -303 -1835l-28 -58c-19.333 0 -52.333 53.333 -99 160c-46 106.667 -71.667 175 -77 205c70.667 546 151 1010 241 1392
c60 246 127 464.667 201 656c54.667 139.333 82 217 82 233c0 30 -2.66699 50.667 -8 62c-11.333 18.667 -34.666 28 -69.999 28h-668c-21.333 0 -41.666 -8 -60.999 -24c-5.33301 -5.33301 -12.333 -13.666 -21 -25l-8 37c0 60 12.333 129.667 37 209
c24.667 76.667 54.667 115 90 115h979c54.667 0 82 -11 82 -33z" />
    <glyph glyph-name="eight" unicode="8" horiz-adv-x="1909" 
d="M1647 741c0 -207.333 -65.667 -383.33 -197 -527.997s-302 -217 -512 -217c-182.667 0 -334.334 76.333 -455.001 229c-120 153.333 -180 336.333 -180 549c0 71.333 24.667 154.666 74 249.999c46 95.333 118.333 215.333 217 360
c-71.333 54.667 -124.666 128.667 -159.999 222c-35.333 90 -53 192.333 -53 307c0 191.333 53.333 347 160 467c103.333 117.333 246.666 176 429.999 176c185.333 0 334 -49.333 446 -148c112 -100.667 168 -254.667 168 -462c0 -144.667 -15 -251.334 -45 -320.001
c-32.667 -70.667 -94 -151.334 -184 -242.001c84.667 -120 151.334 -231.667 200.001 -335c60.667 -126 91 -228.667 91 -308zM1401 1962c0 114.667 -35.666 203.333 -106.999 266c-73.333 62.667 -192 94 -356 94c-92.667 0 -176 -42.333 -250 -127
c-76.667 -87.333 -115 -181.333 -115 -282c0 -101.333 37 -193 111 -275c71.333 -81.333 167 -122 287 -122c95.333 0 186.666 36.667 273.999 110c104 87.333 156 199.333 156 336zM1434 713.002c0 139.333 -41.001 259.333 -123.001 360c-82 98.667 -192.667 148 -332 148
c-122.667 0 -230.667 -38.333 -324 -115c-108.667 -90 -163 -211.667 -163 -365c0 -142 47.667 -262 143 -360c92.667 -101.333 211.334 -152 356.001 -152c114.667 0 217 45.333 307 136c90.667 90 136 206 136 348z" />
    <glyph glyph-name="nine" unicode="9" horiz-adv-x="1909" 
d="M1642 1593c0 -357.333 -75.001 -675.332 -225.001 -953.999c-169.333 -314 -458.666 -632 -867.999 -954c-8 8 -13.667 16 -17 24c-30 52 -45 132.667 -45 242l9 53c144.667 44 294.667 157.333 450 340c139.333 164 209 280 209 348c-13.333 0 -32.333 -5.33301 -57 -16
c-62.667 -27.333 -101 -41 -115 -41c-182.667 0 -337 97 -463 291c-128 194 -192 405.667 -192 635c0 250.667 57.333 454 172 610c114.667 152.667 271.667 229 471 229c202 0 364.333 -76.333 487 -229s184 -345.334 184 -578.001zM1421 1552
c0 180.667 -38 329.667 -114 447c-76.667 114.667 -184.667 172 -324 172c-142 0 -252.667 -49.333 -332 -148c-79.333 -98 -119 -235.667 -119 -413c0 -191.333 45.333 -362 136 -512c90 -153.333 202 -230 336 -230c117.333 0 217 68.333 299 205
c78.667 134 118 293.667 118 479z" />
    <glyph glyph-name="colon" unicode=":" horiz-adv-x="668" 
d="M512 1642c0 -43.333 -15 -81.333 -45 -114c-32.667 -35.333 -71 -53 -115 -53c-52 0 -97 20.333 -135 61c-40.667 38 -61 76.333 -61 115c0 98 56 147 168 147c54.667 0 99.667 -15 135 -45s53 -67 53 -111zM512 86c0 -44 -15 -82.333 -45 -115
c-32.667 -35.333 -71 -53 -115 -53c-52 0 -97 20.667 -135 62c-40.667 38 -61 76 -61 114c0 98.667 56 148 168 148c54.667 0 99.667 -15 135 -45s53 -67 53 -111z" />
    <glyph glyph-name="semicolon" unicode=";" horiz-adv-x="668" 
d="M508 1647c0 -44 -15.001 -82.333 -45.001 -115c-32.667 -35.333 -71 -53 -115 -53c-52 0 -97 20.333 -135 61c-40.667 38 -61 76.333 -61 115c0 98 55.667 147 167 147c54.667 0 99.834 -15 135.501 -45s53.5 -66.667 53.5 -110zM511.999 33
c0 -62.667 -34.001 -144.667 -102.001 -246c-71.333 -104 -123.333 -156 -156 -156l-16 45c2.66699 11.333 35.334 53.666 98.001 126.999c27.333 33.333 41 62 41 86c0 8.66699 -4 17 -12 25c-6 2.66699 -10.333 5.33398 -13 8.00098c-52 0 -97 16.333 -135 49
c-40.667 30 -61 71 -61 123c0 49.333 17.667 86.333 53 111c35.333 22 76.333 33 123 33c57.333 0 102.333 -19.333 135 -58c30 -40.667 45 -89.667 45 -147z" />
    <glyph glyph-name="less" unicode="&#x3c;" horiz-adv-x="2036" 
d="M1810 594l-1589 676v139l1589 668v-185l-1318 -553l1318 -561v-184z" />
    <glyph glyph-name="equal" unicode="=" horiz-adv-x="1991" 
d="M1790 1454h-1585v160h1585v-160zM1790 1004h-1585v167h1585v-167z" />
    <glyph glyph-name="greater" unicode="&#x3e;" horiz-adv-x="1991" 
d="M1823 1270l-1590 -676v184l1319 561l-1319 553v185l1590 -668v-139z" />
    <glyph glyph-name="question" unicode="?" horiz-adv-x="1249" 
d="M1176 1962c0 -95.333 -12.3359 -189.668 -37.0029 -283.001c-27.333 -92.667 -63 -160.667 -107 -204l-446 -529c-57.333 -73.333 -86 -166 -86 -278c0 -36 5.33301 -71.667 16 -107c8 -35.333 12 -54.333 12 -57c0 -46.667 -35.333 -70 -106 -70
c-65.333 0 -109 17.667 -131 53c-24.667 36 -37 114 -37 234c0 60 17.667 128.333 53 205c32.667 73.333 68.334 133.333 107.001 180l327 393c68.667 90 124.667 180 168 270c41.333 88 62 167.333 62 238c0 156 -112 234 -336 234c-87.333 0 -165.333 -31.667 -234 -95
c-70.667 -65.333 -119.667 -152.666 -147 -261.999l-8 -8c-14 0 -45.5 30 -94.5 90s-74.833 106.333 -77.5 139c18.667 60 81.334 129.667 188.001 209c128.667 96 253 144 373 144c174.667 0 308.334 -41 401.001 -123c93.333 -82 140 -206.333 140 -373zM593.997 85.998
c0 -40.667 -17.666 -79 -52.999 -115c-36 -35.333 -73 -53 -111 -53c-46.667 0 -90.334 20.667 -131.001 62c-44 38 -66 73.333 -66 106c0 40.667 18 77.667 54 111c32.667 30 72.334 45 119.001 45c57.333 0 103.666 -13.667 138.999 -41c32.667 -30 49 -68.333 49 -115z
" />
    <glyph glyph-name="at" unicode="@" horiz-adv-x="2265" 
d="M2105 1237c0 -246 -65.333 -443.994 -196 -593.994c-114.667 -131.333 -244.334 -197 -389.001 -197c-68.667 0 -118 19.333 -148 58c-30 35.333 -49 96.666 -57 183.999c-71.333 -90 -135.666 -154.167 -192.999 -192.5s-118.666 -57.5 -183.999 -57.5
c-74 0 -136.667 31.333 -188 94c-54.667 60.667 -82 142.667 -82 246c0 147.333 65.333 308.666 196 483.999c131.333 174.667 257 262 377 262c57.333 0 146 -50.667 266 -152c8.66699 2.66699 14.334 4 17.001 4c35.333 11.333 55.666 17 60.999 17
c22 0 46.667 -5.66699 74 -17c27.333 -13.333 41 -32.333 41 -57c-60 -101.333 -112 -212 -156 -332c-52 -136.667 -78 -262.334 -78 -377.001c0 -60 23.333 -90 70 -90c87.333 0 169.333 50.667 246 152c95.333 128 143 300 143 516
c0 245.333 -58.667 448.666 -176 609.999s-270.333 242 -459 242c-262 0 -472.333 -113.333 -631 -340c-160.667 -226.667 -241 -512 -241 -856c0 -278.667 62.667 -505.334 188 -680.001c123.333 -177.333 279 -266 467 -266c60 0 132.333 13.667 217 41l254 77
c54.667 0 82 -23 82 -69c0 -27.333 -46.333 -57.333 -139 -90c-96 -36 -202.667 -54 -320 -54c-270 0 -496.667 104 -680 312c-185.333 207.333 -278 466.666 -278 777.999c0 366 106.333 667.667 319 905c205.333 226.667 452.666 340 741.999 340
c234.667 0 432.5 -86 593.5 -258s241.5 -386.333 241.5 -643zM1446 1270.01c0 70.667 -41 105.999 -123 105.999c-114.667 0 -224 -82 -328 -246c-106 -163.333 -159 -314.666 -159 -453.999c0 -114.667 47.667 -172 143 -172c90 0 191 97 303 291
c109.333 190.667 164 349 164 475z" />
    <glyph glyph-name="A" unicode="A" 
d="M1544 0l-377 -0.00195312c0 44 13.667 93 41 147c24.667 54.667 37 91.667 37 111v434c0 49.333 -11 91.666 -33 126.999c-16 22 -37.667 33 -65 33c-11.333 0 -23.666 -1.33301 -36.999 -4l-668 -197c-18.667 -68 -55.334 -244 -110.001 -528
c-44 -229.333 -94.667 -432.666 -152 -609.999c-79.333 -246 -176.333 -460.333 -291 -643c-43.333 26.667 -87 108.334 -131 245.001c-13.333 44 -31 111 -53 201c92.667 16.667 172 106.667 238 270c57.333 144.667 110.333 362 159 652c38.667 232 81 548.667 127 950
c0 374 61.667 682.667 185 926c114.667 229.333 251 344 409 344c147.333 0 277 -82 389 -246s168 -348.333 168 -553l78 -1401c0 -13.333 19.333 -59.666 58 -138.999c18.667 -41.333 28 -81 28 -119zM1167 1401c0 234.667 -27.333 431.333 -82 590
c-54 155.333 -129 233 -225 233c-120 0 -221 -113.333 -303 -340c-84.667 -229.333 -127 -497 -127 -803c0 -32.667 1.33301 -64 4 -94c0 -32.667 4 -65.334 12 -98.001c66 19.333 120.667 34.333 164 45c254 76.667 431.667 147.667 533 213
c2.66699 10.667 4 20.334 4 29.001c13.333 73.333 20 148.333 20 225z" />
    <glyph glyph-name="B" unicode="B" horiz-adv-x="1745" 
d="M1655 598c0 -207.333 -93.001 -357.667 -279.001 -451c-188 -95.333 -482.667 -143 -884 -143l-377 -8c0 40.667 17.667 100.667 53 180c16.667 35.333 25 62.666 25 81.999v1933c0 22 -8.33301 46.667 -25 74c-52 87.333 -78 132.333 -78 135
c2.66699 11.333 5.33398 18.333 8.00098 21c11.333 13.333 25 20 41 20c2.66699 0 73.667 -11 213 -33c71.333 -10.667 115 -16 131 -16c286.667 0 521.667 -56 705 -168c180 -114.667 270 -269 270 -463c0 -100.667 -19 -184 -57 -250
c-46.667 -81.333 -124.667 -149.333 -234 -204c325.333 -191.333 488 -427.666 488 -708.999zM1372 597.999c0 174.667 -68.332 315.331 -204.999 421.998c-139.333 104 -319.333 156 -540 156c-44 0 -79.667 -1.66699 -107 -5c-8 0 -17.333 -1.33301 -28 -4
c0 16.667 -1.66699 48.334 -5 95.001c-2.66699 46 -4 81.333 -4 106c0 79.333 7 119 21 119c16 -16.667 32.333 -31.667 49 -45c38 -32.667 95.333 -49 172 -49c114.667 0 219.667 31.333 315 94c109.333 70.667 164 159.334 164 266.001c0 122.667 -71 223.667 -213 303
c-142 76.667 -314 115 -516 115c-43.333 0 -66.333 -13.667 -69 -41v-1811c0 -26.667 25.667 -45.667 77 -57c49.333 -13.333 106.666 -20 171.999 -20c221.333 0 389.333 24.333 504 73c142 60.667 213 155 213 283z" />
    <glyph glyph-name="C" unicode="C" horiz-adv-x="1491" 
d="M1831 -971c0 -54.667 -17.668 -130.999 -53.001 -228.999c-36 -101.333 -63.333 -154.666 -82 -159.999c-68.667 207.333 -247.667 458.666 -537 753.999c-401.333 409.333 -641.666 668.666 -720.999 777.999c-240 328 -360 664 -360 1008c0 390 76.333 704 229 942
c153.333 237.333 352.666 356 597.999 356c117.333 0 228 -43.667 332 -131s156 -178.666 156 -274c0 -36 -26 -82.667 -78 -140c-52 -60 -97 -91.333 -135 -94l-9 12v78c0 66 -27.167 131.667 -81.5 197s-121.166 98 -200.499 98c-150 0 -286.667 -97 -410 -291
c-125.333 -194 -188 -426 -188 -696c0 -333.333 132.333 -672 397 -1016c156 -202 403.333 -453 742 -753c267.333 -238 401 -384.333 401 -439z" />
    <glyph glyph-name="D" unicode="D" horiz-adv-x="1831" 
d="M1729 1044c0 -349.333 -98.332 -610 -294.999 -782s-505.334 -258 -926.001 -258l-369 -8c0 52 12.333 105.333 37 160c22 51.333 33 85.333 33 102v1933c0 19.333 -11 44 -33 74c-52 71.333 -78 124.666 -78 159.999c0 16 11 24 33 24c2.66699 0 64 -17.667 184 -53
c54.667 -16 93 -24 115 -24c322 0 619.667 -139.333 893 -418c270.667 -281.333 406 -584.666 406 -909.999zM1458 1044c0 246 -99.6689 477 -299.002 693c-202 212.667 -397.333 319 -586 319c-95.333 0 -143 -45 -143 -135v-1479c0 -40.667 27.333 -74.667 82 -102
c54.667 -30 128.334 -45 221.001 -45c196.667 0 367.334 71 512.001 213c142 139.333 213 318 213 536z" />
    <glyph glyph-name="E" unicode="E" 
d="M1540 426c0 -40.667 -21.666 -121.333 -64.999 -242c-14 -38 -37.333 -95.333 -70 -172h-1286c0 24.667 6.66699 50.667 20 78c32.667 65.333 49 121.333 49 168v1933c0 63.333 -8.16699 114 -24.5 152l-44.5 106h1179c30 -76 52 -133.333 66 -172
c44 -117.333 66 -181.333 66 -192l-17 -12c-24.667 32.667 -46.334 57 -65.001 73c-60.667 52 -119.667 78 -177 78h-692c-32.667 0 -51.667 -5.33301 -57 -16c-8 -16.667 -12 -64.667 -12 -144v-581c0 -128.667 23 -193 69 -193c27.333 0 135.166 42.333 323.499 127
s297.5 127 327.5 127c22 0 33 -15 33 -45v-328c0 -38 -11 -57 -33 -57c-2.66699 0 -16.167 15 -40.5 45s-65.166 45 -122.499 45c-79.333 0 -191.333 -35.333 -336 -106c-147.333 -74 -221 -139.667 -221 -197v-528c0 -96 31.333 -144 94 -144h745
c44 0 90.667 19.333 140 58z" />
    <glyph glyph-name="F" unicode="F" horiz-adv-x="1495" 
d="M1417 2085l-16.0039 -12c-27.333 32.667 -50.666 57 -69.999 73c-65.333 52 -137.666 78 -216.999 78h-647c-27.333 0 -45 -5.33301 -53 -16c-11.333 -16.667 -17 -60.334 -17 -131v-889c0 -128.667 23.333 -193 70 -193c40.667 0 155.334 41 344.001 123
c186 79.333 287 119 303 119c24.667 0 37 -11 37 -33v-327c0 -38.667 -11 -58 -33 -58c-22 24.667 -45 46.667 -69 66c-27.333 18.667 -61.666 28 -102.999 28c-65.333 0 -165 -31.333 -299 -94c-166.667 -79.333 -250 -164 -250 -254v-1388c0 -30 7 -60 21 -90
c13.333 -33.333 27 -62 41 -86c-14 -22 -31.667 -33 -53 -33c-38.667 0 -97.667 49 -177 147c-78.667 98.667 -118 165.667 -118 201c0 13.333 13.667 53 41 119c16 38 24 73.333 24 106v2650c0 54.667 -6.83301 101.167 -20.5 139.5s-28.5 77.833 -44.5 118.5h1171
c30 -73.333 52 -129.333 66 -168c43.333 -114.667 66.333 -180 69 -196z" />
    <glyph glyph-name="G" unicode="G" horiz-adv-x="1786" 
d="M1708 1229c0 -62.667 -13.667 -120 -41 -172c-30 -52 -45 -82 -45 -90v-1475c-40.667 35.333 -210 118.666 -508 249.999c-297.333 128 -515.666 266 -654.999 414c-216 226.667 -324 514.667 -324 864c0 406.667 108 760.334 324 1061c202 281.333 456 465.666 762 553
l114 -168c79.333 -120 120.333 -187 123 -201c-8 5.33301 -16 8 -24 8c-49.333 14 -100 21 -152 21c-246 0 -453.667 -117.333 -623 -352c-177.333 -246 -266 -553.333 -266 -922c0 -281.333 98.333 -528.333 295 -741c188.667 -205.333 392 -308 610 -308
c33.333 0 56.666 3 69.999 9c22 8 35.667 24.333 41 49v938c0 16 -12.333 51.333 -37 106c-27.333 54.667 -41 106.667 -41 156h377z" />
    <glyph glyph-name="H" unicode="H" 
d="M1520 4l-365 0.000976562c0 52 12.333 105.333 37 160c22 54.667 33 88.667 33 102v848c0 22 -12.333 33 -37 33l-86 -21l-610 -249c-66 -27.333 -99 -72.666 -99 -135.999v-938c0 -218 -42.333 -425.333 -127 -622s-176 -315.667 -274 -357c-22 0 -48 49.333 -78 148
c-19.333 60 -29 106.333 -29 139l9 49c92.667 19.333 162 74 208 164c44 87.333 66 247 66 479v2376c0 24.667 -9.66699 68.334 -29 131c-22 60 -33 105 -33 135h365c0 -40.667 -12.333 -91 -37 -151c-27.333 -60 -41 -98.333 -41 -115v-1016
c0 -18.667 2.66699 -36.334 8 -53.001c0 -5.33301 3 -12 9 -20c16 0 35 4 57 12c5.33301 2.66699 27 12 65 28l607 246c35.333 14 58.333 26.333 69 37c11.333 11.333 17 23.666 17 36.999v872c38 49.333 66.667 85 86 107c65.333 74 110.333 111 135 111v-2274
c0 -16 12.333 -50 37 -102s37 -105.333 37 -160z" />
    <glyph glyph-name="I" unicode="I" horiz-adv-x="795" 
d="M602 0h-377c0 46.667 13.667 97.334 41 152.001c24.667 54 37 89.333 37 106v1933c0 22 -12.333 57.667 -37 107c-27.333 49.333 -41 98.333 -41 147h377c0 -54.667 -13.667 -106.5 -41 -155.5s-41 -81.833 -41 -98.5v-1933c0 -16.667 17.667 -64.334 53 -143.001
c19.333 -44 29 -82.333 29 -115z" />
    <glyph glyph-name="J" unicode="J" horiz-adv-x="1081" 
d="M774 2441c0 -43.333 -12.333 -93.666 -37 -151c-27.333 -57.333 -41 -94.333 -41 -111v-2109c0 -265.333 -157 -531.666 -471 -798.999c-286.667 -246 -531 -369 -733 -369c-54.667 0 -98.334 27.333 -131.001 82c-32.667 52 -49 128.667 -49 230
c0 27.333 5.33301 49 16 65c2.66699 5.33301 8.33398 10.666 17.001 15.999l57 -24c46.667 -16.667 85 -25 115 -25c185.333 0 391.333 94.333 618 283s340 369 340 541v2109c0 8 -15 53 -45 135c-16 46.667 -24 89 -24 127h368z" />
    <glyph glyph-name="K" unicode="K" horiz-adv-x="1704" 
d="M1884 -1077c-40.667 0 -124.002 36.6689 -250.002 110.002c-125.333 74 -190.666 124.667 -195.999 152c0 237.333 -67 602 -201 1094c-147.333 543.333 -293.333 899.666 -438 1069c-19.333 0 -71.333 -56 -156 -168s-165.334 -226.667 -242.001 -344v-578
c0 -16.667 13.667 -52 41 -106c24.667 -54.667 37 -105.334 37 -152.001h-364c0 46.667 5.33301 85 16 115c32.667 87.333 49 135 49 143v1819c0 8 -11 25.667 -33 53c-21.333 27.333 -32 47.666 -32 61c0 11.333 23 40 69 86c106.667 109.333 176.334 164 209.001 164
l17 -16v-1041c0 -78.667 15 -118 45 -118c21.333 0 41.666 13.667 60.999 41l344 454c232 308.667 356.333 479.334 373 512c-27.333 16.667 -46.333 30.334 -57 41c-38.667 38.667 -58 81 -58 127h516c-5.33301 -52 -14.666 -83.333 -27.999 -94
c-49.333 -35.333 -87.666 -70.666 -114.999 -105.999l-496 -648c142 -278 271.667 -631.667 389 -1061l242 -958c82 -316.667 165.333 -524.334 250 -623.001z" />
    <glyph glyph-name="L" unicode="L" horiz-adv-x="1208" 
d="M1987 -631c0 -73.333 -22 -136.002 -66 -188.002s-104 -78 -180 -78c-57.333 0 -188.333 77.667 -393 233c-290 221.333 -485.333 365 -586 431c-246 158 -441.333 237 -586 237l-61 -8c-16.667 10.667 -25 21.667 -25 33c0 30 17.667 79 53 147
c19.333 38 38.666 65.333 57.999 82v1933c0 19.333 -12.333 53.666 -37 103c-27.333 48.667 -41 99 -41 151h377c0 -62.667 -13.667 -118.667 -41 -168c-30 -48.667 -45 -77.334 -45 -86v-1933c224 -79.333 437 -192.666 639 -339.999l434 -340
c144.667 -114.667 263.334 -172 356.001 -172c24.667 0 48 1.33301 70 4c19.333 2.66699 38.333 6.66699 57 12c5.33301 -8 8 -13.333 8 -16c6 -13.333 9 -25.666 9 -36.999z" />
    <glyph glyph-name="M" unicode="M" horiz-adv-x="2654" 
d="M2806 -1008c-68.667 0 -150.667 29.999 -246 89.999c-95.333 58 -146 104.667 -152 140c0 297.333 -31.333 696 -94 1196c-62.667 496.667 -143 918.334 -241 1265c-118 415.333 -238.333 623 -361 623c-79.333 0 -143.333 -35.333 -192 -106
c-49.333 -74 -74 -167 -74 -279v-1647c0 -18.667 13.667 -54 41 -106s41 -102.667 41 -152h-373c0 49.333 13.667 101.333 41 156c24.667 54.667 37 88.667 37 102v1647c0 95.333 -24.667 184 -74 266c-52 79.333 -116 119 -192 119c-101.333 0 -213.333 -203.333 -336 -610
c-109.333 -358 -205 -789.667 -287 -1295c-82 -507.333 -123 -907.333 -123 -1200c0 -24.667 -65.333 -65.667 -196 -123c-109.333 -48.667 -187.333 -73 -234 -73c-8 0 -14.667 1.33301 -20 4c98 139.333 200.333 527 307 1163c136.667 822 237.667 1349 303 1581
c147.333 530 331.666 795 552.999 795c95.333 0 171.666 -20.667 228.999 -62c36 -24.667 89.333 -82 160 -172c32.667 66 80.334 119.333 143.001 160c74 49.333 163 74 267 74c220.667 0 400.667 -250 540.001 -750c68.667 -245.333 159 -757.333 271 -1536
c92.667 -647.333 180 -1058.33 262 -1233v-37z" />
    <glyph glyph-name="N" unicode="N" horiz-adv-x="1659" 
d="M1651 2347c-90 0 -180.336 -47.667 -271.003 -143c-92.667 -98.667 -139 -199.667 -139 -303v-1721c0 -117.333 -17.667 -176 -53 -176c-49.333 0 -121.666 140.667 -216.999 422l-283 827c-112 292.667 -207.667 439 -287 439c-8 -33.333 -12 -55.333 -12 -66v-2564
c0 -22 -36.833 -56.167 -110.5 -102.5s-128.167 -69.5 -163.5 -69.5c0 19.333 10.667 49.333 32 90c22 41.333 33 77 33 107v3113c0 24 -8 59.333 -24 106l-50 135l17 8c62.667 -43.333 143.334 -80 242.001 -110c70.667 -22 111.334 -44 122.001 -66l480 -1212
c13.333 -38 25.666 -65.333 36.999 -82c10.667 -19.333 21.334 -29 32.001 -29c8.66699 0 15.667 12.333 21 37s8 46.667 8 66v848c0 138.667 32.667 271 98 397c66 125.333 152 223.666 258 295c22 0 65.667 -34.333 131 -103c63.333 -70.667 96.333 -118.334 99 -143z" />
    <glyph glyph-name="O" unicode="O" horiz-adv-x="1659" 
d="M1589 1229c0 -352.667 -66.832 -643.668 -200.499 -873.001s-315.167 -344 -544.5 -344c-226.667 0 -412.334 114.667 -557.001 344s-217 520.333 -217 873c0 349.333 72.333 640 217 872c142 232 327.667 348 557 348c221.333 0 401.333 -113.333 540 -340
c136.667 -229.333 205 -522.666 205 -879.999zM1384 1237c0 286.667 -47.6689 521.499 -143.002 704.499s-227.666 274.5 -396.999 274.5c-172 0 -312.667 -93 -422 -279c-109.333 -185.333 -164 -418.666 -164 -699.999c0 -284 54.667 -516 164 -696
c106.667 -183.333 247.334 -275 422.001 -275c164 0 295 88.667 393 266c98 178 147 413 147 705z" />
    <glyph glyph-name="P" unicode="P" 
d="M1516 1651c0 -208 -99.666 -415.666 -298.999 -622.999c-90.667 -92.667 -275 -245.667 -553 -459c-202.667 -152.667 -304 -263 -304 -331v-1078c0 -16 -36.667 -48.667 -110 -98c-74 -52 -127.333 -78 -160 -78c0 22 5.33301 44 16 66c27.333 57.333 41 105 41 143
v3056c0 21.333 -17.667 51.333 -53 90c-18.667 22 -28 37 -28 45c0 22 36.667 37 110 45c71.333 8 130 12 176 12h303c265.333 0 475.666 -66.667 630.999 -200c153.333 -136.667 230 -333.334 230 -590.001zM1311 1634c0 180.667 -67 323.999 -201 429.999
c-134 106.667 -308.667 160 -524 160c-90 0 -150 -4 -180 -12c-30.667 -11.333 -46 -27.666 -46 -48.999v-1352c0 -35.333 12.333 -53 37 -53c123.333 0 302.333 105 537 315c251.333 224 377 411 377 561z" />
    <glyph glyph-name="Q" unicode="Q" horiz-adv-x="1831" 
d="M1724 1274c0 -344 -76.335 -636.332 -229.002 -876.999c-164 -256.667 -371.667 -385 -623 -385l-53 8l-82 -233c14 5.33301 25 8 33 8c24.667 5.33301 43.667 8 57 8c158.667 0 295.334 -46.333 410.001 -139c112 -92.667 168 -218.334 168 -377.001
c0 -82 -15 -151.667 -45 -209s-83.333 -116 -160 -176l-168 185c46.667 51.333 82.334 92 107.001 122c46 57.333 69 97 69 119c0 82 -38 150.333 -114 205c-79.333 54.667 -175 82 -287 82c-38 0 -87.333 -13.667 -148 -41c-62.667 -27.333 -105 -52 -127 -74
c-13.333 5.33301 -33.666 24.666 -60.999 57.999c-30 30 -47.667 51.667 -53 65c43.333 57.333 74.666 105.333 93.999 144c62.667 114.667 94 218.334 94 311.001c-82 0 -181.667 107.667 -299 323c-134 248.667 -201 500 -201 754c0 385.333 78 699.333 234 942
c155.333 240.667 356 361 602 361s438.667 -105.333 578 -316c136 -212.667 204 -502 204 -868zM1491 1266c0 284 -42.333 509.332 -127 675.999c-92.667 185.333 -228 278 -406 278c-193.333 0 -342 -92.833 -446 -278.5s-156 -431.5 -156 -737.5
c0 -196.667 35.667 -400 107 -610c70.667 -213.333 151.334 -320 242.001 -320c24 79.333 41.667 141 53 185c35.333 133.333 53 227.333 53 282c32.667 0 75 -25.667 127 -77c49.333 -54.667 74 -93 74 -115l-103 -311c169.333 0 308.666 98 417.999 294
c109.333 196.667 164 441.334 164 734.001z" />
    <glyph glyph-name="R" unicode="R" horiz-adv-x="1663" 
d="M1982 -1122c-32.667 0 -130.664 48.998 -293.997 146.998l-242 152c-2.66699 48.667 -5.33398 91 -8.00098 127c-16.667 106 -48.334 220.667 -95.001 344l-471 1179c-27.333 60.667 -61.333 107.334 -102 140.001c-40.667 30 -95.334 45 -164.001 45
c-46 0 -93.667 -8.33301 -143 -25c10.667 30 18.667 56 24 78c19.333 76.667 29 154.334 29 233.001l-8 107c65.333 -41.333 132.333 -81 201 -119c65.333 -38 114.333 -57 147 -57c324.667 0 487 140.667 487 422c0 166.667 -84.333 304.334 -253 413.001
c-169.333 106.667 -370.333 160 -603 160c-46 0 -71.667 -1.33301 -77 -4c-16.667 -8 -25 -25.667 -25 -53v-1909c0 -22 13.667 -57.333 41 -106c24.667 -49.333 37 -100 37 -152h-369c0 44 11 90.333 33 139c22 49.333 33 89 33 119v1933c0 22 -5.66699 48 -17 78
c-32.667 90 -49 150 -49 180l369 -8c306 0 562.667 -69.667 770 -209c204.667 -142 307 -330.333 307 -565c0 -188.667 -56 -330.667 -168 -426c-16 -13.333 -141.667 -84.333 -377 -213c63.333 -106.667 164.333 -326.334 303 -659.001l361 -856
c134 -306 239 -509.667 315 -611z" />
    <glyph glyph-name="S" unicode="S" horiz-adv-x="1577" 
d="M1491 348c0 -289.333 -165.333 -557 -496 -803l-983 -643c-16 -18.667 -26.667 -28 -32 -28c-44 0 -92 45 -144 135c-54.667 90 -82 154 -82 192c0 41.333 15 62 45 62c14 -2.66699 26.333 -5.33398 37 -8.00098c24.667 -6 49.334 -9 74.001 -9
c232 0 499.667 112 803 336c338.667 248.667 508 509.667 508 783c0 232 -95.667 406.667 -287 524l-533 278c-190.667 139.333 -286 351 -286 635c0 186 57.333 340.333 172 463s256.667 184 426 184c136.667 0 265 -39.5 385 -118.5s180 -160.833 180 -245.5
c0 -22 -24.667 -63 -74 -123c-52 -62.667 -90 -94 -114 -94c-8.66699 0 -13 5.33301 -13 16c0 2.66699 1.33301 8.33398 4 17.001c0 76 -41 148.333 -123 217c-84.667 65.333 -166.334 98 -245.001 98c-104 0 -191.333 -38.333 -262 -115
c-71.333 -76 -107 -175.667 -107 -299c0 -232 98.333 -405.333 295 -520l553 -274c199.333 -142 299 -362 299 -660z" />
    <glyph glyph-name="T" unicode="T" horiz-adv-x="1495" 
d="M1417 2114c-52 35.333 -120.332 62.333 -204.999 81c-84.667 19.333 -170.667 29 -258 29c-82 0 -123 -43.667 -123 -131v-2519c0 -57.333 22 -108 66 -152l94 -81l-28 -17c-36 0 -71.667 -5.33301 -107 -16c-142 -44 -260.667 -143.667 -356 -299l-8 82
c0 82 23 148.667 69 200c44 49.333 66 85 66 107v2695c0 87.333 -41 131 -123 131c-161.333 0 -302 -36.667 -422 -110c46.667 46 91.667 117 135 213c35.333 76 62.666 114 81.999 114h938c16.667 0 48 -56 94 -168c27.333 -68 56 -121 86 -159z" />
    <glyph glyph-name="U" unicode="U" horiz-adv-x="1745" 
d="M1659 20c-8 -5.33301 -13.667 -9.33398 -17 -12.001c-13.333 -8 -31 -12 -53 -12l-229 16h-569c-186 0 -350 73.667 -492 221c-142 148 -213 317.333 -213 508c0 153.333 62.667 351.333 188 594c126 243.333 189 396.333 189 459c0 125.333 -57.333 245.333 -172 360
c5.33301 36 30 81.333 74 136c40.667 54.667 73.334 82 98.001 82c43.333 0 91 -60.333 143 -181c52 -120 78 -230.333 78 -331c0 -126 -38.333 -281.667 -115 -467c-166.667 -407.333 -250 -624.666 -250 -651.999c0 -122.667 39.667 -227.667 119 -315
c117.333 -131.333 301.666 -197 552.999 -197c96 0 172.667 3 230 9c54.667 5.33301 103.667 12 147 20v1913c0 22 -19 71 -57 147c-19.333 38.667 -29 77 -29 115h377c0 -57.333 -12.333 -110.666 -37 -159.999c-27.333 -48.667 -41 -82.667 -41 -102v-2060
c0 -8.66699 13.667 -22.334 41 -41.001c24.667 -22 37 -38.667 37 -50z" />
    <glyph glyph-name="V" unicode="V" horiz-adv-x="2195" 
d="M2318 2478c-305.333 -98 -519.666 -364.334 -642.999 -799.001l-217 -1118c-92.667 -376.667 -264.667 -565 -516 -565c-98 0 -200.333 47.667 -307 143c-117.333 106.667 -187 228.334 -209 365.001l-258 1687c-2.66699 22 -13.667 60.333 -33 115
c-19.333 52 -29 98.333 -29 139h365c0 -60 -19 -118.667 -57 -176c-14 -22 -21 -42.333 -21 -61v-17l246 -1687c10.667 -71.333 49 -134.333 115 -189c62.667 -57.333 128 -86 196 -86c139.333 0 237.666 155.667 294.999 467c123.333 661.333 186.333 996 189 1004
c125.333 423.333 334 734.666 626 934c24.667 0 74 -19.333 148 -58c73.333 -40.667 110 -73.334 110 -98z" />
    <glyph glyph-name="W" unicode="W" horiz-adv-x="2990" 
d="M3080 2478c-302.667 -95.333 -517 -360.333 -643 -795l-229 -1118c-98.667 -379.333 -269.334 -569 -512.001 -569c-106.667 0 -202.334 34 -287.001 102c-27.333 22 -58.666 57.667 -93.999 107c-32.667 -46.667 -62.667 -81 -90 -103
c-87.333 -70.667 -194 -106 -320 -106c-109.333 0 -214.333 46.333 -315 139c-109.333 101.333 -175 224.333 -197 369l-250 1687c-2.66699 16.667 -15 51 -37 103c-24 48.667 -36 99 -36 151h376c0 -43.333 -16.333 -88.333 -49 -135c-27.333 -40.667 -41 -74.667 -41 -102
v-17l258 -1687c14 -87.333 45.667 -154.333 95 -201c48.667 -49.333 116.667 -74 204 -74c183.333 0 275 91.667 275 275v1687c0 19.333 -12.333 53.666 -37 103c-27.333 48.667 -41 99 -41 151h381c0 -62.667 -13.667 -118.667 -41 -168c-30 -48.667 -45 -77.334 -45 -86
v-1687c0 -79.333 28.667 -145 86 -197s131 -78 221 -78c136.667 0 236.334 164 299.001 492c122.667 644.667 189.667 986 201 1024c128 426 331.333 722.333 610 889c30 0 80.667 -18 152 -54c70.667 -35.333 106 -69.333 106 -102z" />
    <glyph glyph-name="X" unicode="X" horiz-adv-x="1827" 
d="M1712 0h-368.998c0 54.667 15.333 106.667 46 156c21.333 32.667 32 60 32 82c0 8 -2.66699 14.667 -8 20l-471 762l-471 -901c-174.667 -322.667 -329 -576.667 -463 -762c-166.667 -232 -334.667 -412.333 -504 -541c-32.667 0 -76.334 28.667 -131.001 86
s-82 113.333 -82 168c0 16.667 19.333 25 58 25c152.667 0 349.167 173.333 589.5 520s533.833 882 880.5 1606l-590 970c-21.333 36 -37.666 74.333 -48.999 115c-13.333 40.667 -20 87 -20 139h372c0 -52 -15 -98.333 -45 -139s-45 -66.667 -45 -78
c0 -8 4.33301 -20.333 13 -37l471 -778c204.667 325.333 341 578 409 758c46.667 120 70 230.667 70 332v65c27.333 -65.333 56 -120 86 -164c27.333 -43.333 62.666 -89.666 105.999 -139c0 -60 -27 -143.333 -81 -250c-68.667 -136.667 -224.334 -407 -467.001 -811
l577 -946c35.333 -57.333 56 -92.666 62 -105.999c16 -38.667 24 -89.334 24 -152.001z" />
    <glyph glyph-name="Y" unicode="Y" horiz-adv-x="2081" 
d="M2044 2384l-56.9971 0.000976562c-120.667 0 -253.334 -112 -398.001 -336c-114.667 -174.667 -225.334 -398.667 -332.001 -672c-87.333 -221.333 -143 -392 -167 -512v-606c0 -2.66699 20.333 -45 61 -127c19.333 -38 29 -81.667 29 -131h-373
c0 52 5.33301 91.667 16 119c32.667 79.333 49 125.666 49 138.999v594l-667 1339c-30 63.333 -47.667 101.666 -53 114.999c-14 46.667 -21 93 -21 139h373c0 -43.333 -26 -102 -78 -176c-10.667 -13.333 -16 -28.333 -16 -45c0 -10.667 2.66699 -21.667 8 -33l446 -909
c16.667 -35.333 36 -68 58 -98c5.33301 -8.66699 14.666 -21 27.999 -37l119 295c98.667 242.667 195.667 447.334 291 614.001c142 248.667 281.333 422 418 520c24.667 0 75 -25.667 151 -77c76.667 -54.667 115 -93 115 -115z" />
    <glyph glyph-name="Z" unicode="Z" horiz-adv-x="1745" 
d="M1638 172c0 -62.667 -13.6641 -102.333 -40.9971 -119c-43.333 -27.333 -136 -41 -278 -41h-1172c-10.667 0 -24.334 2.66699 -41.001 8c-5.33301 0 -13.333 3 -24 9c0 16 15 51.333 45 106l90 160l975 1786c30 52 45 84.667 45 98c0 27.333 -49 41 -147 41h-500
c-54.667 0 -112 -24.667 -172 -74c-38.667 -35.333 -66 -58.333 -82 -69c-5.33301 24.667 -8 42.334 -8 53c-8.66699 52 -13 83.333 -13 94c0 98.667 18 160 54 184c35.333 22 133.666 33 294.999 33h843c66 0 99 -13.667 99 -41c0 -24.667 -18 -72.334 -54 -143l-61 -111
l-930 -1798c-10.667 -22 -16 -39.667 -16 -53c0 -32.667 62.667 -49 188 -49h598c71.333 0 124.666 11 159.999 33c46.667 38 93 72 139 102z" />
    <glyph glyph-name="bracketleft" unicode="[" horiz-adv-x="1151" 
d="M1061 2753c0 -96 -64.3311 -144 -192.998 -144l-180 12c-52 0 -78 -23 -78 -69c0 -38.667 1.33301 -86.667 4 -144c0 -57.333 3 -124 9 -200c0 -456 -16.667 -898.333 -50 -1327c-21.333 -295.333 -51.333 -597.333 -90 -906c-38 -308 -57 -473 -57 -495
c0 -44 39.667 -66 119 -66c30 0 80.333 5.66699 151 17c71.333 10.667 115 16 131 16c49.333 0 74 -23.333 74 -70c0 -95.333 -42.333 -143 -127 -143l-266 12l-238 -12c-30 0 -54.5 6.83301 -73.5 20.5s-28.5 35.5 -28.5 65.5c0 38 17.667 141.667 53 311
c49.333 232.667 85 465 107 697c38 393.333 57 846.666 57 1360c0 256.667 -8.33301 451.667 -25 585.001l-65 353c0 43.333 26 84 78 122c48.667 38.667 91 58 127 58c21.333 0 56.666 -2.83301 105.999 -8.5s78 -8.5 86 -8.5c49.333 0 98.666 3 147.999 9
c48.667 2.66699 95 6.66699 139 12c54.667 0 82 -19 82 -57z" />
    <glyph glyph-name="backslash" unicode="\" horiz-adv-x="1446" 
d="M1339 -98c0 -52 -17.667 -92.999 -53 -122.999s-79 -45 -131 -45c-68 0 -102 46.333 -102 139c0 366 -86 804.333 -258 1315c-120.667 357.333 -280.667 743.666 -480 1159l-262 541c0 27.333 15 50.333 45 69c30 19.333 67 29 111 29c57.333 0 94 -6.66699 110 -20
c16.667 -14 25 -37.333 25 -70c0 -41.333 86 -279 258 -713c224 -568 383.667 -988.333 479 -1261c172 -494.667 258 -834.667 258 -1020z" />
    <glyph glyph-name="bracketright" unicode="]" horiz-adv-x="1151" 
d="M975 2720c0 -38.667 -17.667 -142.669 -53 -312.002c-49.333 -232 -85 -464 -107 -696c-38 -393.333 -57 -846.666 -57 -1360c0 -256.667 8 -451.667 24 -585l66 -353c0 -43.333 -24.667 -84.333 -74 -123c-52 -38 -95.667 -57 -131 -57c-22 0 -57.5 2.66699 -106.5 8
s-77.5 8 -85.5 8c-49.333 0 -98.666 -1.33301 -147.999 -4c-52 -5.33301 -98.333 -10.666 -139 -15.999c-54.667 0 -82 19 -82 57c0 96 64 144 192 144l181 -13c51.333 0 77 23.333 77 70c0 38 -1.33301 85.667 -4 143s-5.33398 124.333 -8.00098 201
c0 456 16.333 898.333 49 1327c22 295.333 52 597 90 905c38.667 308.667 58 474 58 496c0 44 -39.667 66 -119 66c-30 0 -80.667 -5.66699 -152 -17c-70.667 -10.667 -114.334 -16 -131.001 -16c-48.667 0 -73 23 -73 69c0 96 42.333 144 127 144l266 -13l237 13
c30.667 0 55.334 -7 74.001 -21c19.333 -13.333 29 -35 29 -65z" />
    <glyph glyph-name="asciicircum" unicode="^" horiz-adv-x="2179" 
d="M2019 1577h-229l-705 1065l-700 -1065h-221l799 1216h254z" />
    <glyph glyph-name="underscore" unicode="_" horiz-adv-x="1638" 
d="M1638 -573h-1638v163h1638v-163z" />
    <glyph glyph-name="grave" unicode="`" horiz-adv-x="1704" 
d="M1102 1974c0 -40.667 -17.666 -61 -52.999 -61c-82 0 -187.333 68.333 -316 205c-130.667 133.333 -196 233 -196 299c0 18.667 23 41.667 69 69c46.667 24.667 87.667 37 123 37c41.333 0 79.666 -42.333 114.999 -127c54.667 -128 103.667 -222 147 -282
c5.33301 -8.66699 31.333 -34.667 78 -78c22 -22 33 -42.667 33 -62z" />
    <glyph glyph-name="a" unicode="a" horiz-adv-x="1266" 
d="M1237 37l-24.998 -25.001h-577c-158.667 0 -288.334 39.667 -389.001 119c-104 79.333 -156 183 -156 311c0 186 143.333 362.333 430 529c284 164 426 289.667 426 377c0 48.667 -19 92.334 -57 131.001c-41.333 35.333 -82.333 53 -123 53h-328
c-46 0 -88.333 -28.667 -127 -86c-5.33301 -8 -13.333 -23 -24 -45l-33 258v29c-2.66699 27.333 2.66602 47.666 15.999 60.999c16.667 13.333 59 20 127 20h496c65.333 0 124 -28.667 176 -86c49.333 -60 74 -137.667 74 -233v-1171c0 -30.667 9.33301 -65 28 -103
c44 -87.333 66 -133.666 66 -138.999zM946.002 249.999v655.001l-37 8c-98 0 -225 -53 -381 -159c-155.333 -109.333 -233 -210.333 -233 -303c0 -84.667 47.667 -150.334 143 -197.001c79.333 -38 171 -57 275 -57c65.333 0 121.333 5.33301 168 16
c43.333 8 65 20.333 65 37z" />
    <glyph glyph-name="b" unicode="b" horiz-adv-x="1413" 
d="M1319 590c0 -174.667 -55.999 -315.333 -167.999 -422c-114.667 -109.333 -280 -164 -496 -164l-503 -8v2019c0 24.667 -9.66699 49.334 -29 74.001c-22 22 -33 35.667 -33 41c0 22 37 71 111 147c73.333 76.667 123.666 115 150.999 115c24.667 0 37 -12.333 37 -37
v-626c0 -60.667 79.333 -148.334 238 -263.001c229.333 -166 379.333 -286 450 -360c161.333 -166.667 242 -338.667 242 -516zM1135 582.001c0 106 -94.3311 251.833 -282.998 437.5s-334.667 278.5 -438 278.5c-30 0 -45 -15 -45 -45v-979c0 -13.333 19 -25.333 57 -36
c35.333 -11.333 77.666 -17 126.999 -17c169.333 0 308.666 30 417.999 90s164 150.333 164 271z" />
    <glyph glyph-name="c" unicode="c" horiz-adv-x="1323" 
d="M1274 467c0 -90 -69.6699 -189.667 -209.003 -299s-274.666 -164 -405.999 -164c-172 0 -315.333 82 -430 246c-117.333 164 -176 377 -176 639c0 251.333 60 461.666 180 630.999c120.667 166 279.334 249 476.001 249c136 0 251.833 -47.667 347.5 -143
s143.5 -221 143.5 -377c0 -150 -30 -268.667 -90 -356c-60 -90 -144.667 -135 -254 -135c-79.333 0 -151.666 20.333 -216.999 61c-65.333 41.333 -98 81 -98 119l41 119c32.667 82 55.667 123 69 123c14 0 38.667 -28.667 74 -86c32.667 -60 69.667 -90 111 -90
c60 0 105 20.333 135 61c27.333 40.667 41 92.667 41 156c0 108.667 -31.333 190.334 -94 245.001c-63.333 52 -133 78 -209 78c-139.333 0 -246 -65.333 -320 -196c-76.667 -134 -115 -294 -115 -480c0 -169.333 37 -315.333 111 -438c74 -125.333 158.667 -188 254 -188
c106.667 0 199.667 42.333 279 127c76 82 114 176 114 282l17 25c27.333 0 72.333 -28.667 135 -86c60 -60 90 -101 90 -123z" />
    <glyph glyph-name="d" unicode="d" horiz-adv-x="1368" 
d="M1245 -4l-504 7.99902c-207.333 0 -368.333 52 -483 156c-117.333 100.667 -176 244 -176 430c0 130.667 47.667 260.334 143 389.001c71.333 95.333 189 214 353 356c275.333 240.667 421.333 367.667 438 381v348c0 8.66699 -8.33301 18.334 -25 29
c-18.667 10.667 -28 23 -28 37l282 278v-2412zM1032 265.999v987c0 30 -17.667 45 -53 45c-90 0 -230.667 -92.833 -422 -278.5s-287 -331.5 -287 -437.5c0 -106.667 53.333 -192.667 160 -258c104 -68.667 240.667 -103 410 -103c54.667 0 101 4 139 12
c35.333 8.66699 53 19.667 53 33z" />
    <glyph glyph-name="e" unicode="e" horiz-adv-x="1454" 
d="M1364 524c0 -87.333 -62.6689 -189.669 -188.002 -307.002c-145.333 -136.667 -299.666 -205 -462.999 -205c-213.333 0 -377.333 68.333 -492 205s-172 348.334 -172 635.001c0 276 57.333 500 172 672c112 169.333 276 254 492 254
c152.667 0 297.334 -65.667 434.001 -197c134 -134 201 -272 201 -414c-6 -13.333 -95 -78.666 -267 -195.999l-471 -312l-250 -167c0 -44 34.333 -90.667 103 -140c65.333 -48.667 140.333 -73 225 -73c144.667 0 252.667 35.333 324 106
c70.667 71.333 115.667 175 135 311l20 29c16.667 0 53.667 -30 111 -90s86 -97 86 -111zM1073 1188c0 52 -39.667 122.999 -119 212.999c-78.667 87.333 -155 131 -229 131c-144.667 0 -260.667 -57.333 -348 -172c-87.333 -117.333 -131 -269 -131 -455
c0 -65.333 5.33301 -118.666 16 -159.999c8 -40.667 21.667 -61 41 -61z" />
    <glyph glyph-name="f" unicode="f" horiz-adv-x="1290" 
d="M1319 2216c-16.667 16.667 -30.333 27.668 -41 33.001c-38 24.667 -80.333 37 -127 37c-114.667 0 -225.334 -42.333 -332.001 -127c-109.333 -87.333 -164 -190 -164 -308c0 -30 1.33301 -47.667 4 -53c11.333 -19.333 44.333 -29 99 -29h250
c46 0 85.333 -6.66699 118 -20c33.333 -16.667 50 -41.334 50 -74.001v-274c-3.33301 13.333 -11.666 25.666 -24.999 36.999c-27.333 18.667 -64.333 28 -111 28h-254c-87.333 0 -131 -20.333 -131 -61v-1888c0 -134 -35.333 -281.667 -106 -443
c-74 -160.667 -141 -241 -201 -241c-134 114.667 -201 193.667 -201 237c71.333 44 137 102.667 197 176c57.333 74 86 172.333 86 295v1864c0 40.667 -23.333 61 -70 61h-233l-16 111c0 68 1.33301 114.333 4 139s6.66699 42.334 12 53.001h242c40.667 0 61 26 61 78v74
c0 147.333 84.667 301.666 254 463c158.667 150 294 225 406 225c10.667 0 40.667 -38.333 90 -115c46 -78.667 92.333 -171.334 139 -278z" />
    <glyph glyph-name="g" unicode="g" horiz-adv-x="1495" 
d="M1413 938c0 -234.667 -59.999 -429.998 -179.999 -585.998c-120 -155.333 -279.667 -233 -479 -233c-8.66699 -49.333 -14.334 -87.666 -17.001 -114.999c-10.667 -82 -16 -136.667 -16 -164c152.667 0 275.667 -42.333 369 -127c90 -84.667 135 -211.667 135 -381
c0 -166.667 -75.333 -304.334 -226 -413.001c-122.667 -90.667 -251 -136 -385 -136h-57v254h82c101.333 0 183.333 24.667 246 74c73.333 57.333 110 139.333 110 246c0 194 -169.333 291 -508 291l-110 -8c40.667 70.667 76 155.334 106 254.001
c27.333 95.333 41 182.666 41 261.999c-125.333 24.667 -225 99.667 -299 225c-73.333 125.333 -110 290.666 -110 495.999c0 220.667 57.333 422.667 172 606c114.667 180 255.334 270 422.001 270c38 0 70.667 -4 98 -12c8 -2.66699 17.667 -6.66699 29 -12l69 401
c5.33301 22 17.666 33 36.999 33c38 0 87.167 -23.333 147.5 -70s90.5 -90.334 90.5 -131.001c0 -19.333 -15 -59 -45 -119l-95 -184c118 -84.667 204 -172 258 -262c76.667 -126 115 -279 115 -459zM1180 922.002c0 120 -21.999 230.334 -65.999 331.001
c-46.667 101.333 -104 160.333 -172 177c-19.333 -46.667 -33 -82.334 -41 -107.001c-32.667 -76.667 -54.334 -121.667 -65.001 -135c-30 2.66699 -60.333 6.66699 -91 12c-32.667 5.33301 -58.334 15 -77.001 29c8 5.33301 24.333 49 49 131l37 123l-54 8
c-117.333 0 -208.666 -54.667 -273.999 -164s-98 -259.333 -98 -450c0 -161.333 23 -287 69 -377c44 -90 108.333 -135 193 -135l41 237c8 38 25.667 57 53 57c30 0 67 -10.667 111 -32c40.667 -22 61 -42.667 61 -62l-49 -246c112 0 202 53.333 270 160
c68.667 104 103 251.667 103 443z" />
    <glyph glyph-name="h" unicode="h" horiz-adv-x="1413" 
d="M1352 1044c0 -177.333 -41 -367 -123 -569l-242 -594c-87.333 -254 -131 -503.667 -131 -749c0 -8.66699 -4 -18.334 -12 -29.001l-8 -8c-27.333 0 -68.333 56 -123 168c-36 70.667 -54 129.334 -54 176.001c0 147.333 39.667 323.333 119 528l226 557
c76 196.667 114 370 114 520c0 161.333 -23 285.666 -69 372.999c-46.667 84.667 -117.667 127 -213 127c-145.333 0 -263 -46.333 -353 -139s-135 -210 -135 -352v-795c0 -24.667 15 -61.667 45 -111c27.333 -48.667 41 -97.667 41 -147h-373
c0 62.667 16.667 125.334 50 188.001c16 30 24 53.333 24 70v1819c0 16 -12.333 35 -37 57s-37 41 -37 57c0 14 42.333 60.667 127 140c82 76 132.667 114 152 114c5.33301 -8 8 -13.333 8 -16c5.33301 -14 8 -29 8 -45v-840c117.333 156 266.333 234 447 234
c174.667 0 309.667 -68.333 405 -205c96 -136.667 144 -313 144 -529z" />
    <glyph glyph-name="i" unicode="i" horiz-adv-x="827" 
d="M614 2261c0 -52 -16.335 -97 -49.002 -135c-35.333 -41.333 -85.666 -62 -150.999 -62c-52 0 -98.667 19.333 -140 58c-40.667 38 -61 84.333 -61 139c0 52 19 98.333 57 139c36 38.667 84 58 144 58c54.667 0 102.334 -16.667 143.001 -50
c38 -35.333 57 -84.333 57 -147zM609.998 0l-377 0.000976562c0 52 18 112 54 180c18.667 35.333 28 61.333 28 78v1241c0 22 -8 49.333 -24 82c-38.667 76.667 -58 138 -58 184h377c0 -60 -17.667 -121.333 -53 -184c-19.333 -32.667 -29 -60 -29 -82v-1241
c0 -24.667 8.33301 -53.334 25 -86.001c38 -76.667 57 -134 57 -172z" />
    <glyph glyph-name="j" unicode="j" horiz-adv-x="872" 
d="M664 2261c0 -52 -18.001 -97 -54.001 -135c-38 -41.333 -87 -62 -147 -62c-57.333 0 -105.333 19.333 -144 58c-38 38 -57 84.333 -57 139c0 52 19 98.333 57 139c36 38.667 84 58 144 58c54.667 0 102.334 -16.667 143.001 -50c38.667 -32.667 58 -81.667 58 -147z
M658.999 1765c0 -60 -19.001 -122.666 -57.001 -187.999c-19.333 -32.667 -29 -58.667 -29 -78v-1765c0 -166.667 -43.667 -314.334 -131 -443.001c-18.667 -27.333 -194.667 -191 -528 -491l-242 262c180.667 90 336.334 183 467.001 279c144.667 106 217 237 217 393v1765
c0 8 -13.667 53 -41 135c-16 49.333 -24 93 -24 131h368z" />
    <glyph glyph-name="k" unicode="k" horiz-adv-x="1454" 
d="M1511 -709l-16.001 -20.002c-35.333 0 -95.333 16.333 -180 49s-132.667 61.334 -144 86.001c-180 560 -283.667 871.333 -311 934c-79.333 185.333 -175 347.666 -287 486.999c-35.333 0 -73.333 -20.333 -114 -61c-22 -22 -56.333 -65.667 -103 -131v-377
c0 -24.667 13.667 -60 41 -106c24.667 -46.667 37 -97.334 37 -152.001h-364c0 49.333 5.33301 89 16 119c32.667 87.333 49 133.666 49 138.999v1819c0 13.333 -11 32.333 -33 57c-21.333 24.667 -32 43.667 -32 57c0 8.66699 23 37.334 69 86.001
c106.667 109.333 176.334 164 209.001 164c11.333 -18.667 17 -33.667 17 -45v-1282c0 -35.333 4 -62.666 12 -81.999c8 -18.667 19 -28 33 -28c13.333 0 33.666 13.333 60.999 40l524 549c-27.333 16.667 -46.333 30.334 -57 41.001c-38 38.667 -57 83.667 -57 135h499v-86
c-24.667 -8 -77.667 -55.667 -159 -143l-492 -528c128.667 -202 247.334 -439.667 356.001 -713l226 -614c73.333 -205.333 140 -336.666 200 -393.999z" />
    <glyph glyph-name="l" unicode="l" horiz-adv-x="709" 
d="M565 0l-377.001 0.000976562c0 49.333 8.33301 91.666 25 126.999c35.333 76.667 53 120.334 53 131.001v1819c0 18.667 -12.333 39 -37 61c-27.333 19.333 -41 37 -41 53c0 22 53.333 80.667 160 176c54.667 49.333 90.334 74 107.001 74c16 0 24 -15 24 -45v-2138
c0 -24.667 15 -60 45 -106c27.333 -46.667 41 -97.334 41 -152.001z" />
    <glyph glyph-name="m" unicode="m" horiz-adv-x="2576" 
d="M2494 12l-405.002 0.000976562c0 49.333 11 90.333 33 123c5.33301 11.333 17.666 23.666 37 36.999c0 262 -53.333 547.333 -160 856c-120 349.333 -249.667 524 -389 524c-96 0 -160.333 -21.833 -193 -65.5s-49 -124.167 -49 -241.5v-987
c0 -10.667 19 -55.667 57 -135c19.333 -38 29 -79 29 -123h-377c0 44 8.33301 85 25 123c35.333 82 53 127 53 135v987c0 114.667 -17.667 195.334 -53 242.001c-35.333 43.333 -94 65 -176 65c-128.667 0 -238 -158.333 -328 -475
c-57.333 -204.667 -112 -506.334 -164 -905.001c22 -8 37 -16.333 45 -25c30 -30 45 -75 45 -135h-438c0 68.667 4 113.667 12 135c5.33301 14 23.333 33.333 54 58c78.667 384.667 152.334 691.667 221.001 921c128 428.667 308 643 540 643
c120.667 0 212.334 -20.333 275.001 -61c19.333 -13.333 39.666 -35.333 60.999 -66c11.333 16.667 22.333 29 33 37c74 60 191.333 90 352 90c128.667 0 246.334 -80.333 353.001 -241c90 -139.333 174.667 -336 254 -590c46 -152.667 108.667 -397 188 -733
c16.667 -32.667 31.667 -65.667 45 -99c13.333 -32.667 20 -64 20 -94z" />
    <glyph glyph-name="n" unicode="n" horiz-adv-x="1413" 
d="M1323 1044c0 -232 -35.333 -444.669 -106 -638.002l-201 -480c-68.667 -169.333 -103 -359 -103 -569c-2.66699 -8 -4 -13.333 -4 -16c-5.33301 -11.333 -12 -17 -20 -17c-30 0 -69.667 32.667 -119 98c-52 63.333 -78 114 -78 152c0 120 90.333 405.333 271 856
c87.333 218.667 131 423.334 131 614.001c0 131.333 -39.667 243.333 -119 336c-92.667 109.333 -218.334 164 -377.001 164c-79.333 0 -131.333 -1.33301 -156 -4c-24 -2.66699 -43 -8 -57 -16v-1266c0 -22 8.33301 -48 25 -78c40.667 -73.333 61 -133.333 61 -180h-377
c0 54.667 16.333 116 49 184c16.667 36 25 60.667 25 74v1409c0 10.667 -13.667 25.667 -41 45s-41 33 -41 41c0 10.667 12.333 18.834 37 24.501s54.667 8.5 90 8.5l147 -8h299c180.667 0 336.334 -74 467.001 -222c131.333 -147.333 197 -318 197 -512z" />
    <glyph glyph-name="o" unicode="o" horiz-adv-x="1413" 
d="M1319 897c0 -256.667 -53.333 -468.332 -160 -634.999c-109.333 -166.667 -254 -250 -434 -250c-191.333 0 -344.333 83.333 -459 250c-117.333 166.667 -176 378.334 -176 635.001c0 251.333 57.333 461.666 172 630.999c114.667 166.667 269 250 463 250
c174.667 0 318 -82 430 -246c109.333 -166.667 164 -378.334 164 -635.001zM1106 905.002c0 188.667 -33.999 343 -101.999 463c-71.333 117.333 -164.333 176 -279 176c-122.667 0 -219.667 -60 -291 -180c-73.333 -122.667 -110 -275.667 -110 -459
c0 -180 35.333 -331.333 106 -454c71.333 -123.333 169.666 -185 294.999 -185c112 0 203.333 60 274 180c71.333 118 107 271 107 459z" />
    <glyph glyph-name="p" unicode="p" horiz-adv-x="1368" 
d="M1290 1188c0 -246 -80.333 -464.669 -241 -656.002c-79.333 -92.667 -228.333 -223.667 -447 -393c-164 -125.333 -246 -227.666 -246 -306.999v-684c0 -19.333 -41 -53.333 -123 -102c-81.333 -52 -140 -78 -176 -78c0 24.667 7 50.667 21 78
c32.667 68 49 111.667 49 131v2400c0 24.667 -20.333 56 -61 94c-19.333 19.333 -29 34.333 -29 45c0 41.333 97 62 291 62h303c158 0 308 -57.333 450 -172c139.333 -117.333 209 -256.666 209 -417.999zM1102 1176c0 114.667 -60 206 -180 274
c-123.333 68 -271 102 -443 102c-38 0 -70.667 -4 -98 -12c-8 -2.66699 -20.333 -8 -37 -16v-1073c0 -74 27.333 -111 82 -111c120 0 259.333 88.667 418 266c172 191.333 258 381.333 258 570z" />
    <glyph glyph-name="q" unicode="q" horiz-adv-x="1323" 
d="M1241 1716c0 -18.667 -13.667 -41.668 -41 -69.001c-30 -30 -45 -58.667 -45 -86v-2384c0 -41.333 15 -88 45 -140c16.667 -30 25 -54.333 25 -73c-52 0 -120.333 31.333 -205 94c-52 38 -78 68 -78 90v840c0 46 -73.667 117 -221 213
c-191.333 122.667 -328 234.667 -410 336c-150 182.667 -225 399.667 -225 651c0 166.667 53.333 307.334 160 422.001c103.333 112 238.333 168 405 168h299c194 0 291 -20.667 291 -62zM942 450.999v1073c-16 5.33301 -29.667 9.33301 -41 12c-38 10.667 -68 16 -90 16
c-147.333 0 -273 -34 -377 -102c-106.667 -68 -160 -159.333 -160 -274c0 -178 71 -351.667 213 -521c142 -172 273.333 -258 394 -258c40.667 0 61 18 61 54z" />
    <glyph glyph-name="r" unicode="r" horiz-adv-x="1217" 
d="M356 258c-0.666992 -20.667 14.3301 -56.333 44.9971 -107c30 -49.333 45 -99.666 45 -150.999h-376c0 57.333 12 110.666 36 159.999c24.667 48.667 37 81.334 37 98.001v1409c0 10 -17.667 27.667 -53 53c-19.333 14 -29 25 -29 33c0 22 30.333 33 91 33l118 -8l124 3
c15.333 0 27.333 -0.666992 36 -2s15.334 -3.33301 20.001 -6s7.5 -6.16699 8.5 -10.5s1.5 -9.16602 1.5 -14.499c0 -8 -9.66699 -19 -29 -33c-8.66699 -6 -17 -10.833 -25 -14.5s-15.167 -6.66699 -21.5 -9s-11.333 -4.5 -15 -6.5s-5.5 -4.33301 -5.5 -7l-2 -321
c30.667 44.667 64.834 89.834 102.501 135.501s78 87.667 121 126s88 70.666 135 96.999s95.333 42.666 145 48.999s100 0.333008 151 -18s101.5 -52.833 151.5 -103.5v-314c-61.333 43.333 -120.666 73.166 -177.999 89.499s-112 22.833 -164 19.5s-101 -14.833 -147 -34.5
s-88.667 -44 -128 -73s-75 -61 -107 -96s-59.667 -69.167 -83 -102.5z" />
    <glyph glyph-name="s" unicode="s" horiz-adv-x="1454" 
d="M1401 557c0 -128 -68.3311 -253.666 -204.998 -376.999c-136.667 -122.667 -288.334 -184 -455.001 -184c-169.333 0 -318 53.333 -446 160c-131.333 106 -197 239.667 -197 401c0 98.667 35.667 188.667 107 270c68 79.333 158 119 270 119
c68.667 0 115 -9.33301 139 -28c38.667 -30.667 58 -86.667 58 -168c0 -57.333 -1.33301 -90.333 -4 -99c-6 -18.667 -17 -29.667 -33 -33c-16.667 19.333 -29 33 -37 41c-32.667 30.667 -65.334 46 -98.001 46c-36 0 -70.333 -18 -103 -54
c-35.333 -38 -53 -77.667 -53 -119c0 -70.667 41 -133.334 123 -188.001c79.333 -57.333 161.333 -86 246 -86c92.667 0 192.334 32.667 299.001 98c103.333 66 155 138.333 155 217c0 128.667 -167.667 246.334 -503 353.001c-338.667 103.333 -508 241 -508 413
c0 131.333 57.333 238 172 320c112 79.333 255.333 119 430 119c117.333 0 230.666 -26 339.999 -78c106 -52 159 -110.667 159 -176c0 -54.667 -10.667 -108 -32 -160c-22 -54.667 -44 -84.667 -66 -90c-38 76.667 -84.333 136.667 -139 180c-74 60 -161.333 90 -262 90
c-82 0 -162.667 -20.333 -242 -61c-79.333 -44 -119 -92 -119 -144c0 -51.333 86 -107.333 258 -168c240.667 -84.667 402 -151.334 484 -200.001c174.667 -106.667 262 -244.667 262 -414z" />
    <glyph glyph-name="t" unicode="t" horiz-adv-x="872" 
d="M803 1401c-62.667 52 -124.334 88.668 -185.001 110.001c-60 22 -135 33 -225 33c-32.667 0 -49 -9.33301 -49 -28v-959c0 -74 38.167 -143.667 114.5 -209s151.5 -98 225.5 -98l25 8l12 -29c0 -30 -16.333 -76.333 -49 -139s-62.667 -94 -90 -94
c-71.333 0 -164.333 57.333 -279 172c-131.333 131.333 -197 261 -197 389v1622c0 30 29 82 87 156c54 70.667 93.333 106 118 106c8.66699 -8 14.334 -13.333 17.001 -16c10.667 -14 16 -25 16 -33v-569c0 -30 13.667 -45 41 -45l254 -4c35.333 0 72.333 -5.66699 111 -17
c13.333 -2.66699 31 -9.33398 53 -20.001v-336z" />
    <glyph glyph-name="u" unicode="u" horiz-adv-x="1368" 
d="M1274 20c-30 -16 -49 -23.999 -57 -23.999c-6 0 -37.667 2.66699 -95 8s-106.333 8 -147 8h-254c-196.667 0 -355 46.667 -475 140c-128.667 100.667 -193 235.667 -193 405c0 95.333 22 189.666 66 282.999c98 207.333 147 328.666 147 363.999
c0 90 -32.667 191 -98 303l74 115c54.667 76.667 92.667 115 114 115c38.667 0 70.167 -53.333 94.5 -160s36.5 -207.667 36.5 -303c0 -101.333 -20.333 -209.333 -61 -324l-143 -393c0 -210 169.333 -315 508 -315c65.333 0 111.666 2.66699 138.999 8
c24.667 2.66699 42.334 6.66699 53.001 12v1237c0 16.667 -12.333 53.667 -37 111c-27.333 57.333 -41 109 -41 155h369c0 -38 -11 -85.667 -33 -143s-33 -98.333 -33 -123v-1388c0 -6 7 -17 21 -33c13.333 -19.333 28.333 -38.666 45 -57.999z" />
    <glyph glyph-name="v" unicode="v" horiz-adv-x="1495" 
d="M1421 1769c0 -60 -2.66895 -99.332 -8.00195 -117.999c-5.33301 -16.667 -23 -44 -53 -82c-117.333 -1043.33 -316.666 -1565 -597.999 -1565c-177.333 0 -308.333 116 -393 348c-41.333 114.667 -88 341.334 -140 680.001c-40.667 268 -91 421 -151 459l241 201
c36 -24.667 67.667 -165.334 95 -422.001c38 -366 66.667 -592.667 86 -680c52 -240.667 128.333 -361 229 -361c122.667 0 214.334 120.333 275.001 361c60 237.333 90 563.666 90 978.999v0c0 10.667 -11 31 -33 61c-27.333 32.667 -41 79 -41 139h401z" />
    <glyph glyph-name="w" unicode="w" horiz-adv-x="2404" 
d="M2339 1769c0 -62.667 -2.66699 -105.001 -8 -127.001c-6 -21.333 -24 -48.333 -54 -81c-87.333 -432 -144.666 -702.333 -171.999 -811c-65.333 -254 -135 -438.333 -209 -553c-87.333 -134 -196.333 -201 -327 -201c-101.333 0 -195.666 32.667 -282.999 98
c-27.333 22 -61.333 56.333 -102 103c-36 -44 -69 -75.667 -99 -95c-95.333 -65.333 -207 -98 -335 -98c-178 0 -309.333 112 -394 336c-40.667 109.333 -87 333.333 -139 672c-40.667 267.333 -91 427 -151 479l237 201c27.333 -6 58.666 -133 93.999 -381
c49.333 -336 90.333 -567 123 -693c62.667 -245.333 142 -368 238 -368c87.333 0 163.666 27.333 228.999 82c62.667 52 94 116 94 192v983c0 6 -13.667 48.333 -41 127c-16 46.667 -24 91.667 -24 135h364c0 -62.667 -13.667 -117 -41 -163
c-30 -46.667 -45 -79.667 -45 -99v-983c0 -68 27.333 -130.667 82 -188s119 -86 193 -86c117.333 0 222.333 174.667 315 524c79.333 298 119 565.667 119 803c-14 16.667 -26.333 34.334 -37 53.001c-27.333 44 -41 90.333 -41 139h414z" />
    <glyph glyph-name="x" unicode="x" horiz-adv-x="1470" 
d="M1319 8h-373c0 35.333 7 62.666 21 81.999c2.66699 5.33301 10.667 12.333 24 21c0 27.333 -9.33301 56 -28 86l-299 508l-312 -517c-13.333 -18.667 -20 -41.667 -20 -69c0 -11.333 6.66699 -25 20 -41c11.333 -19.333 17 -42.666 17 -69.999h-365
c0 44 15 79.667 45 107s52 51.666 66 72.999l430 709l-205 348c-35.333 60 -84.333 108 -147 144c-38.667 16 -75.667 32.333 -111 49c0 24.667 34 71 102 139c66 68 112.667 103.333 140 106c18.667 -2.66699 52.667 -53 102 -151c152.667 -292 229 -439.333 229 -442
l299 495c6 8 9 21.667 9 41c0 10.667 -12.333 28.334 -37 53.001c-27.333 22 -41 42.667 -41 62l8 24h364c0 -54.667 -8 -92.667 -24 -114l-57 -66l-402 -680l430 -708c5.33301 -8.66699 30 -36 74 -82c27.333 -30 41 -65.667 41 -107z" />
    <glyph glyph-name="y" unicode="y" horiz-adv-x="1413" 
d="M1356 1765c0 -38 -12.332 -74.665 -36.999 -109.998s-38.334 -58.666 -41.001 -69.999l-381 -1294l-111 -463c-40.667 -128.667 -85.667 -228.334 -135 -299.001c-52 -74 -149 -167 -291 -279c-60 -46 -110.333 -106 -151 -180l-238 185
c11.333 38 120.666 119.667 327.999 245c191.333 114.667 287 299 287 553c0 76.667 -11 152 -33 226l-336 966c-13.333 38.667 -38 77 -74 115c-35.333 38 -66.666 61.333 -93.999 70c0 35.333 48 96.666 144 183.999c46 43.333 77.333 66.333 94 69l463 -1302l294 1204
c3.33301 5.33301 5 11 5 17c0 21.333 -9.66699 43 -29 65c-27.333 27.333 -41 54.666 -41 81.999l12 16h365z" />
    <glyph glyph-name="z" unicode="z" horiz-adv-x="1323" 
d="M1266 1708c0 -35.333 -34.3311 -113.001 -102.998 -233.001l-647 -1127l-29 -69c0 -33.333 63 -50 189 -50c125.333 0 234.666 24.667 327.999 74c30 16.667 65.333 42.667 106 78l8 -225c0 -57.333 -15 -93 -45 -107c-52 -24.667 -177.667 -37 -377 -37h-602
c-22 0 -33 8.33301 -33 25c0 5.33301 5.5 19 16.5 41s22.167 42.333 33.5 61l823 1344c0 22 -12.333 38.333 -37 49c-27.333 8 -86 12 -176 12c-136.667 0 -244.667 -15 -324 -45c-52 -19.333 -101 -54.666 -147 -105.999l-8 168c0 78.667 12.167 133 36.5 163
s76.166 45 155.499 45h746c57.333 0 86 -20.333 86 -61z" />
    <glyph glyph-name="uni001D" unicode="{" horiz-adv-x="7119" 
d="M6496 1401c194 -147.333 291 -344.003 291 -590.003c0 -166.667 -43 -323 -129 -469s-186.334 -239.667 -301 -281c-87.334 -40.667 -214.334 -61 -381 -61c-144.666 0 -507.166 34.167 -1087.5 102.5s-1067.17 102.5 -1460.5 102.5c-442 0 -855.667 -37 -1241 -111
c-289.333 -54.667 -502.333 -82 -639 -82c-196.667 0 -389 41 -577 123c-101.333 41.333 -188.833 106.333 -262.5 195s-110.5 179.334 -110.5 272.001s38.333 176 115 250c30 22 61.333 33 94 33c54.667 0 103.167 -24.667 145.5 -74s63.5 -101.333 63.5 -156
c0 -73.333 -42.333 -110 -127 -110c-49.333 0 -108 13.667 -176 41c-19.333 -19.333 -29 -41.333 -29 -66c0 -60 57.333 -131 172 -213c92.667 -65.333 170.667 -107.666 234 -126.999c122.667 -38 264.667 -57 426 -57c106 0 254.667 9.66699 446 29l1024 139
c32.667 2.66699 98.334 2.66699 197 0c122.667 -8 210 -12 262 -12c207.333 0 335.666 30 385 90c-93.333 18.667 -176.833 73.834 -250.5 165.501s-110.5 186.5 -110.5 284.5c0 98.667 42.333 176.667 127 234c14 2.66699 29 4 45 4c44 0 83 -15 117 -45
s51 -64.333 51 -103c0 -48.667 -27.333 -89.667 -82 -123c-13.333 -13.333 -25.666 -20 -37 -20c-10.667 0 -26.167 8.16699 -46.5 24.5s-37.5 24.5 -51.5 24.5c-10.667 0 -21.667 -4 -33 -12c-21.333 -38.667 -32 -74.334 -32 -107.001
c0 -117.333 128.333 -215.666 385 -294.999c185.334 -60 435 -109 749 -147l512 -57c352.666 -52 582 -78 688 -78c448 0 699.334 218.333 754 655c24.666 207.333 -50.334 394.333 -225 561c-164 156 -348.334 234 -553 234c-226.666 0 -382.333 -109.333 -467 -328
c-41.334 -106.667 -62 -205 -62 -295c0 -112 33 -217 99 -315l147 -197c-8 -38 -32.666 -57 -74 -57c-92.666 0 -233.166 82.5 -421.5 247.5s-335.834 335.167 -442.5 510.5c-114.666 190.667 -236 365.334 -364 524.001c-226.667 284 -408.334 426 -545 426
c-76.667 0 -136.667 -43.667 -180 -131c0 -2.66699 15.667 -23.834 47 -63.501s47 -71.834 47 -96.501c0 -30 -20.667 -49 -62 -57c-21.333 -16.667 -43 -25 -65 -25c-35.333 0 -64 19.833 -86 59.5s-33 79.834 -33 120.501c0 158.667 78 238 234 238
c73.333 0 171.333 -17.667 294 -53l242 -74c-147.333 226.667 -271.666 386.334 -373 479.001c-142 131.333 -294.667 197 -458 197c-134 0 -284.333 -42.333 -451 -127c0 49.333 1.33301 98.333 4 147c2.66699 66 12.334 111 29 135c19.333 52 61.666 89 127 111
c82 30 133.667 54.667 155 74c-166 120 -361 180 -585 180c-300.667 0 -588.834 -99 -864.501 -297s-444.834 -430.667 -507.501 -698c-19.333 -82 -29 -161.333 -29 -238c0 -363.333 158.333 -599.666 475 -708.999c19.333 -5.33301 94.333 -12 225 -20
c84.667 -2.66699 127 -30 127 -82c0 -24.667 -8 -56 -24 -94c-19.333 -46.667 -59.666 -85.667 -120.999 -117s-99 -62 -113 -92c150.667 -95.333 314.667 -143 492.001 -143c245.333 0 458.833 86 640.5 258s272.5 379.333 272.5 622c0 150.667 -43 286 -129 406
s-201.333 196.333 -346 229c-43.333 11.333 -111.666 17 -205 17c-226.667 0 -340 -44 -340 -132c0 -16 5.66699 -35 17 -57c16 2.66699 33.667 4 53 4c60 0 109.167 -18.333 147.5 -55s57.5 -79.667 57.5 -129c0 -65.333 -31.333 -121.333 -94 -168
c-41.333 -27.333 -79.666 -41 -115 -41c-112 0 -168 97 -168 291c0 109.333 19 191.333 57 246c84.667 117.333 194 176 328 176c177.333 0 355.5 -86 534.5 -258s271.167 -338.667 276.5 -500c10.667 -267.333 -87 -501.5 -293 -702.5s-443 -301.5 -711 -301.5
c-65.333 0 -129.333 7 -192 21c-246 84.667 -460.5 234.167 -643.5 448.5s-296.167 448.5 -339.5 702.5c-410 -270.667 -692.667 -406 -848 -406c-136.667 0 -203.667 84.667 -201 254c2.66699 232 50.667 348 144 348c43.333 0 84.833 -25.167 124.5 -75.5
s59.5 -101.5 59.5 -153.5c0 -40.667 -13.667 -73.334 -41 -98.001c-49.333 -41.333 -74 -75.666 -74 -102.999c0 -40.667 48 -61 144 -61c144.667 0 268.667 38.333 372 115c120.667 87.333 217.667 226.333 291 417l168 500c82 199.333 255.5 378.166 520.5 536.5
c265 158.333 513.5 230.833 745.5 217.5c275.333 -19.333 491 -57.666 647 -115c194 -73.333 373 -200.333 537 -381c130.667 -142 268.334 -325 413 -549l365 -581c13.334 21.333 20 51.333 20 90c0 43.333 -13 115.5 -39 216.5s-39 168.167 -39 201.5
c3.33398 190.667 59.334 376.334 168 557.001c49.334 82 117.667 172 205 270c126 142 224.334 213 295 213c27.334 0 49.334 -11 66 -33c-14 16.667 -104.334 -102 -271 -356s-258 -411 -274 -471c-44 -153.333 -66 -302.333 -66 -447c0 -220.667 56 -373.334 168 -458.001
c0 422.667 108 798 324 1126c248.666 376.667 573.666 565 975 565c38 0 77.334 -2.66699 118 -8c114.666 0 238.333 -50.5 371 -151.5c132.666 -101 199 -206.167 199 -315.5c0 -82 -45 -153 -135 -213c-19.334 -13.333 -42.667 -20 -70 -20
c-49.334 0 -95.167 18.333 -137.5 55c-42.334 36.667 -60.834 77 -55.5 121c6 38 30.666 74.667 74 110l103 82c-104 139.333 -242 209 -414 209c-199.334 0 -417.667 -84.667 -655 -254c-210.666 -150 -362.333 -307 -455 -471c-131.334 -232 -197 -502.333 -197 -811
c0 -420.667 146.334 -673.334 439 -758.001c-118 164 -177 380 -177 648c0 202 37 369.667 111 503c14 -204.667 29 -409.334 45 -614.001c41.334 -398.667 98.667 -598 172 -598c11.334 0 22.334 4 33 12c-54.666 164 -82 302 -82 414c0 224 105 403 315 537
c74 48.667 160 73 258 73c213.334 0 438.667 -91.333 676 -274z" />
    <glyph glyph-name="bar" unicode="|" horiz-adv-x="4481" 
d="M4276 1597c0 -2.66699 -6.16016 -16.8301 -18.4941 -42.4971s-30.834 -53.834 -55.5 -84.501c-185.333 -226.667 -415.166 -426.667 -689.5 -600c-274.333 -173.333 -676.5 -260 -1206.5 -260c-360.667 0 -680.834 62.167 -960.501 186.5s-512.5 261.5 -698.5 411.5
c-24.667 -35.333 -42.334 -76.166 -53.001 -122.499s-16 -92.833 -16 -139.5c0 -177.333 71.667 -331.5 215 -462.5s343.333 -196.5 600 -196.5c169.333 0 308.5 13 417.5 39s211.5 60.667 307.5 104c30 19.333 52.5 31.666 67.5 36.999s23.833 5.33301 26.5 0
c2.66699 0 1.33398 -4.83301 -4 -14.5c-5.33301 -9.66699 -17.666 -19.834 -37 -30.501c-2.66699 0 -5.33398 -0.666992 -8.00098 -2s-5.66699 -3.33301 -9 -6c-13.333 -8.66699 -27.5 -15.667 -42.5 -21s-29.5 -12 -43.5 -20c-90 -38.667 -186.833 -68.167 -290.5 -88.5
s-244.167 -30.5 -421.5 -30.5h-33h-33c-194 13.333 -370.833 77.333 -530.5 192s-239.5 281.334 -239.5 500.001c0 60 6.16699 116 18.5 168s28.166 101.333 47.499 148c-14 10.667 -27.167 21.5 -39.5 32.5s-23.833 21.833 -34.5 32.5
c-54.667 49.333 -103.834 97.833 -147.501 145.5s-79.167 89.167 -106.5 124.5c-27.333 36 -43.666 60.167 -48.999 72.5s-6.66602 19.833 -3.99902 22.5c5.33301 5.33301 14.166 3.83301 26.499 -4.5s32.166 -28.833 59.499 -61.5c52 -60 105.167 -116 159.5 -168
s108.833 -101 163.5 -147c76.667 136.667 188.667 242.5 336 317.5s301.666 117.833 462.999 128.5c14 2.66699 27.833 4 41.5 4h40.5c164 0 314.167 -25.167 450.5 -75.5s266.166 -106.833 389.5 -169.5l128.5 -64l125.5 -59c78.667 -36 158.334 -65.5 239 -88.5
c80.667 -23 163.334 -34.5 248 -34.5c194 0 368.833 30.667 524.5 92s296.167 139.666 421.5 234.999c19.333 14 35.166 25 47.5 33c12.333 8 19.833 9.33301 22.5 4c0 -2.66699 -2 -8 -6 -16s-10.333 -17.667 -19 -29l-14 -14c-4 -4 -8.66699 -7.33301 -14 -10
c-142 -134 -305.833 -243.333 -491.5 -328s-408.5 -127 -668.5 -127c-120 0 -233.167 19.167 -339.5 57.5s-211.5 81.833 -315.5 130.5l-40.5 19c-13.667 6.66699 -27.5 12.667 -41.5 18c-117.333 57.333 -238.166 110 -362.499 158s-261.5 72 -411.5 72
s-285.167 -26 -405.5 -78s-214.5 -124.333 -282.5 -217c104 -76.667 209.167 -142.334 315.5 -197.001s214.166 -101 323.499 -139c185.333 -65.333 368.833 -109 550.5 -131s353.167 -33 514.5 -33c379.333 0 709 54 989 162s541.333 294.333 784 559
c44 49.333 74.166 79.333 90.5 90s25.834 16 28.5 16z" />
    <glyph glyph-name="braceright" unicode="}" horiz-adv-x="7119" 
d="M495 1395c237.333 182.667 462.668 274 676.001 274c98 0 184 -24.333 258 -73c210 -134 315 -313 315 -537c0 -112 -27.333 -250 -82 -414c11.333 -8 22.333 -12 33 -12c74 0 131.333 199.333 172 598c16.667 204.667 31.667 409.334 45 614.001
c74 -133.333 111 -301 111 -503c0 -268 -58.667 -484 -176 -648c292 84.667 438 337.334 438 758.001c0 308.667 -65.667 579 -197 811c-92.667 164 -244 321 -454 471c-238 169.333 -456.667 254 -656 254c-172 0 -309.667 -69.667 -413 -209l102 -82
c43.333 -35.333 68 -72 74 -110c5.33301 -44 -13.167 -84.333 -55.5 -121s-88.166 -55 -137.499 -55c-27.333 0 -50.333 6.66699 -69 20c-90.667 60 -136 131 -136 213c0 109.333 68.333 216 205 320c128.667 98 250.334 147 365.001 147c40.667 5.33301 80 8 118 8
c402 0 727 -188.333 975 -565c216 -328 324 -703.333 324 -1126c112 84.667 168 237.334 168 458.001c0 144.667 -22 293.667 -66 447.001c-16 60 -107.333 217 -274 471s-256.667 372.667 -270 356c16 22 37.667 33 65 33c71.333 0 169.666 -71 294.999 -213
c87.333 -98 155.666 -188 205 -270c109.333 -180.667 165.333 -366.334 168 -557c0 -33.333 -13 -100.5 -39 -201.5s-39 -173.167 -39 -216.5c0 -38.667 6.66699 -68.667 20 -90l365 581c144.667 224 282.667 407 414 549c163.333 180.667 342 307.667 536 381
c156 57.333 371.666 95.666 647 115c232.666 13.333 481.333 -59.167 746 -217.5c264.666 -158.333 438 -337.166 520 -536.499l168 -500c74 -190.667 171 -329.667 291 -417c103.334 -76.667 227.667 -115 373 -115c95.334 0 143 20.333 143 61
c0 27.333 -24.666 61.666 -74 102.999c-27.334 24.667 -41 57.334 -41 98.001c0 52 19.834 103.167 59.5 153.5s81.5 75.5 125.5 75.5c92.666 0 140.333 -116 143 -348c2.66602 -169.333 -64.334 -254 -201 -254c-155.334 0 -438 135.333 -848 406
c-43.334 -254 -156.5 -488.167 -339.5 -702.5s-397.5 -363.833 -643.5 -448.5c-62.666 -14 -126.666 -21 -192 -21c-268 0 -505 100.5 -711 301.5s-303.667 435.167 -293 702.5c5.33301 161.333 97.5 328 276.5 500s357.166 258 534.5 258c134 0 243.334 -58.667 328 -176
c38 -54.667 57 -136.667 57 -246c0 -194 -56 -291 -168 -291c-35.334 0 -73.334 13.667 -114 41c-63.334 46.667 -95 102.667 -95 168c0 49.333 19.166 92.333 57.5 129s87.5 55 147.5 55c19.334 0 37 -1.33301 53 -4c11.334 22 17 41 17 57c0 88 -113.334 132 -340 132
c-92.666 0 -161 -5.66699 -205 -17c-144.667 -32.667 -260 -109 -346 -229s-129 -255.333 -129 -406c0 -242.667 90.833 -450 272.5 -622c181.666 -172 395.166 -258 640.5 -258c178 0 342 47.667 492 143c-14 30 -51.666 60.667 -113 92s-101.667 70.333 -121 117
c-16 38 -24 69.333 -24 94c0 52 42.334 79.333 127 82c130.666 8 205.666 14.667 225 20c316.666 109.333 475 345.666 475 708.999c0 76.667 -9.33398 156 -28 238c-63.334 267.333 -232.834 500 -508.5 698s-563.833 297 -864.5 297c-223.334 0 -418.334 -60 -585 -180
c21.333 -19.333 73 -44 155 -74c66 -22 108.333 -59 127 -111c16.666 -24 26.333 -69 29 -135c2.66602 -48.667 4 -97.667 4 -147c-166.667 84.667 -316.667 127 -450 127c-164 0 -317 -65.667 -459 -197c-101.333 -92.667 -225.666 -252.334 -373 -479.001l242 74
c122.667 35.333 221 53 295 53c155.333 0 233 -79.333 233 -238c0 -40.667 -10.833 -80.834 -32.5 -120.501s-50.5 -59.5 -86.5 -59.5c-21.333 0 -43 8.33301 -65 25c-41.333 8 -62 27 -62 57c0 24.667 15.833 56.834 47.5 96.501s47.5 60.834 47.5 63.501
c-44 87.333 -104.333 131 -181 131c-136.667 0 -318 -142 -544 -426c-128.667 -158.667 -250.334 -333.334 -365.001 -524.001c-106.667 -175.333 -254.167 -345.5 -442.5 -510.5s-328.833 -247.5 -421.5 -247.5c-41.333 0 -66 19 -74 57l147 197c66 98 99 203 99 315
c0 90 -20.667 188.333 -62 295c-84.667 218.667 -240.334 328 -467.001 328c-204.667 0 -389 -78 -553 -234c-174.667 -166.667 -249.667 -353.667 -225 -561c54.667 -436.667 306 -655 754 -655c106.667 0 336 26 688 78l512 57c314 38 563.667 87 749 147
c257.333 79.333 386 177.666 386 294.999c0 32.667 -11 68.334 -33 107.001c-11.333 8 -22.333 12 -33 12c-14 0 -31.167 -8.16699 -51.5 -24.5s-35.833 -24.5 -46.5 -24.5c-11.333 0 -23.666 6.66699 -37 20c-54.667 33.333 -82 74.333 -82 123c0 38.667 17 73 51 103
s73 45 117 45c16 0 31 -1.33301 45 -4c84.667 -57.333 127 -135.333 127 -234c0 -98 -36.833 -192.833 -110.5 -284.5s-157.167 -146.834 -250.5 -165.501c49.333 -60 177.666 -90 385 -90c52 0 139.667 4 263 12c98 2.66699 163.333 2.66699 196 0l1024 -139
c191.334 -19.333 340.334 -29 447 -29c160.666 0 302.666 19 426 57c62.666 19.333 140.333 61.666 233 126.999c114.666 82 172 153 172 213c0 24.667 -9.66602 46.667 -29 66c-68 -27.333 -126.666 -41 -176 -41c-84.666 0 -127 36.667 -127 110
c0 54.667 21.166 106.667 63.5 156s90.834 74 145.5 74c32.666 0 64 -11 94 -33c76.666 -74 115 -157.333 115 -250s-36.834 -183.334 -110.5 -272.001s-161.166 -153.667 -262.5 -195c-188 -82 -380.334 -123 -577 -123c-136.666 0 -349.666 27.333 -639 82
c-385.333 74 -799 111 -1241 111c-393.333 0 -880.166 -34.167 -1460.5 -102.5c-580.333 -68.333 -942.833 -102.5 -1087.5 -102.5c-166.667 0 -293.667 20.333 -381 61c-114.667 41.333 -215 135 -301 281s-129 302.333 -129 469c0 246 97 442.667 291 590z" />
    <glyph glyph-name="asciitilde" unicode="~" horiz-adv-x="4481" 
d="M200 1597c2.66699 0 12.165 -5.33691 28.498 -16.0039s46.5 -40.667 90.5 -90c242.667 -264.667 504 -451 784 -559s609.667 -162 989 -162c161.333 0 332.833 11 514.5 33s365.167 65.667 550.5 131c109.333 38 217.166 84.333 323.5 139
c106.333 54.667 211.5 120.334 315.5 197.001c-68 92.667 -162.167 165 -282.5 217s-255.5 78 -405.5 78s-287.167 -24 -411.5 -72s-245.166 -100.667 -362.499 -158c-14 -5.33301 -27.833 -11.333 -41.5 -18l-40.5 -19c-104 -48.667 -209.167 -92.167 -315.5 -130.5
s-219.5 -57.5 -339.5 -57.5c-260 0 -482.833 42.333 -668.5 127s-349.5 194 -491.5 328c-5.33301 2.66699 -10 6 -14 10l-14 14c-8.66699 11.333 -15 21 -19 29s-6 13.333 -6 16c2.66699 5.33301 10.167 4 22.5 -4s28.166 -19 47.499 -33
c125.333 -95.333 265.833 -173.666 421.5 -234.999s330.5 -92 524.5 -92c84.667 0 167.334 11.5 248.001 34.5s160.334 52.5 239.001 88.5l125.5 59l128.5 64c123.333 62.667 253.166 119.167 389.5 169.5c136.333 50.333 286.5 75.5 450.5 75.5h40.5
c13.667 0 27.5 -1.33301 41.5 -4c161.333 -10.667 315.666 -53.5 463 -128.5c147.333 -75 259.333 -180.833 336 -317.5c54.667 46 109.167 95 163.5 147s107.5 108 159.5 168c27.334 32.667 47.167 53.167 59.5 61.5c12.334 8.33301 21.167 9.83301 26.5 4.5
c2.66602 -2.66699 1.33301 -10.167 -4 -22.5c-5.33398 -12.333 -21.667 -36.5 -49 -72.5c-27.334 -35.333 -62.834 -76.833 -106.5 -124.5c-43.667 -47.667 -92.834 -96.167 -147.5 -145.5c-10.667 -10.667 -22.167 -21.5 -34.5 -32.5s-25.5 -21.833 -39.5 -32.5
c19.333 -46.667 35.166 -96 47.5 -148c12.333 -52 18.5 -108 18.5 -168c0 -218.667 -79.833 -385.334 -239.5 -500.001s-336.5 -178.667 -530.5 -192h-33h-33c-177.333 0 -317.833 10.167 -421.5 30.5s-200.5 49.833 -290.5 88.5c-14 8 -28.5 14.667 -43.5 20
s-29.167 12.333 -42.5 21c-3.33301 2.66699 -6.33301 4.66699 -9 6s-5.33398 2 -8 2c-19.333 10.667 -31.666 20.834 -37 30.501c-5.33301 9.66699 -6.66602 14.5 -4 14.5c2.66699 5.33301 11.5 5.33301 26.5 0s37.5 -17.666 67.5 -36.999c96 -43.333 198.5 -78 307.5 -104
s248.167 -39 417.5 -39c256.667 0 456.667 65.5 600 196.5s215 285.167 215 462.5c0 46.667 -5.33301 93.167 -16 139.5s-28.334 87.166 -53 122.499c-186 -150 -418.833 -287.167 -698.5 -411.5s-599.834 -186.5 -960.501 -186.5c-530 0 -932.167 86.667 -1206.5 260
s-504.166 373.333 -689.499 600c-24.667 30.667 -43.167 58.834 -55.5 84.501s-18.5 39.834 -18.5 42.501z" />
    <glyph glyph-name="nonbreakingspace" unicode="&#xa0;" horiz-adv-x="1024" 
 />
    <glyph glyph-name="exclamdown" unicode="&#xa1;" horiz-adv-x="668" 
d="M463 2404c0 -40.667 -16.333 -74.667 -49 -102c-36 -30 -78.333 -45 -127 -45c-52 0 -95.667 15 -131 45c-38.667 27.333 -58 64.333 -58 111c0 46 16.333 85.333 49 118c33.333 32.667 73 49 119 49c41.333 0 85 -19 131 -57c44 -40.667 66 -80.334 66 -119zM410 115
c0 -44 -41 -102.666 -123 -175.999c-49.333 -44 -89 -66 -119 -66c-32.667 0 -49 23.333 -49 70l49 2052c0 22 2.66699 42.333 8 61c0 5.33301 4 15 12 29c22 -60 63 -102.333 123 -127c24.667 -10.667 37 -24.334 37 -41.001z" />
    <glyph glyph-name="cent" unicode="&#xa2;" horiz-adv-x="1401" 
d="M1200 946c0 -68 -45.001 -140.334 -135.001 -217.001c-92.667 -79.333 -191 -127 -295 -143l-8 -389c-16.667 13.333 -37.334 21.333 -62.001 24c-24 0 -43 7 -57 21l-12 344c-123.333 24.667 -221.666 99.667 -294.999 225c-76.667 125.333 -115 283.666 -115 474.999
c0 147.333 37 289.333 111 426c73.333 134 167.333 218.667 282 254v160c0 27.333 24.667 68.333 74 123c46.667 52 86.334 78 119.001 78v-345c98 -13.333 174.333 -50 229 -110c68.667 -74 103 -177.667 103 -311c0 -109.333 -23.333 -199.666 -70 -270.999
c-49.333 -70.667 -117.666 -106 -204.999 -106c-70.667 0 -129.334 16.333 -176.001 49c-46.667 30 -72.667 60 -78 90c14 44 23.667 75.333 29 94c24.667 66 43.667 99 57 99c11.333 0 32 -23.333 62 -70s60 -70 90 -70c52 0 88.667 18 110 54c22 35.333 33 76 33 122
c0 71.333 -20.5 131.5 -61.5 180.5s-100.833 73.5 -179.5 73.5c-120.667 0 -208.334 -49 -263.001 -147c-57.333 -101.333 -86 -231 -86 -389c0 -139.333 28.667 -256.666 86 -351.999c54.667 -98.667 127.334 -148 218.001 -148c100.667 0 175.667 35.667 225 107l90 237
c24.667 0 60 -21.667 106 -65c44 -46.667 68.667 -81 74 -103z" />
    <glyph glyph-name="sterling" unicode="&#xa3;" horiz-adv-x="1819" 
d="M1794 135c0 -46 -29.998 -93.668 -89.998 -143.001c-62.667 -52 -125.334 -78 -188.001 -78c-134 57.333 -262.667 108 -386 152c-122.667 43.333 -230.334 65 -323.001 65c-71.333 0 -165.666 -23.333 -282.999 -70l-360 -143c-22 0 -41.333 8.33301 -58 25
c-18.667 16 -28 35 -28 57c180 147.333 305.667 288 377 422c60 114.667 90 236 90 364v78c0 52 -5.66699 94.333 -17 127h-172c-54.667 -2.66699 -105 -4 -151 -4c-126 0 -189 11 -189 33c0 32.667 43.667 60 131 82c84.667 22 202.334 33 353.001 33
c-44 240 -67.333 368.333 -70 385c-22 130.667 -33 230.334 -33 299.001c0 172 42.333 331.667 127 479c82 147.333 181.667 221 299 221c169.333 0 337.333 -67 504 -201c210 -169.333 315 -389 315 -659c0 -35.333 -10.833 -65.333 -32.5 -90s-48.834 -37 -81.501 -37
c-44 0 -79.667 16.333 -107 49s-41 73.667 -41 123c0 240 -25.667 410.667 -77 512c-52 98 -132.667 147 -242 147c-112 0 -202 -56 -270 -168c-68.667 -114.667 -103 -263.334 -103 -446.001c0 -112 12.333 -266.333 37 -463c2.66699 -35.333 9.33398 -83 20.001 -143
c407.333 0 611 -26 611 -78c0 -30 -79.333 -49 -238 -57c-158 -8.66699 -279.333 -13 -364 -13c0 -177.333 -30 -333 -90 -467c-60.667 -133.333 -160.334 -269.666 -299.001 -408.999c92.667 38 167.667 65.333 225 82c177.333 57.333 319.333 86 426 86
c73.333 0 163.333 -13.667 270 -41l324 -82c21.333 0 43 2.66699 65 8c19.333 2.66699 42.666 6.66699 69.999 12c32.667 0 49 -16.333 49 -49z" />
    <glyph glyph-name="currency" unicode="&#xa4;" horiz-adv-x="2003" 
d="M2040 2277c0 -35.333 -65.665 -99.334 -196.998 -192.001c-98 -68.667 -192 -178 -282 -328c81.333 -150 122 -323.333 122 -520s-49 -363.334 -147 -500.001c98 -120 199 -214 303 -282c131.333 -87.333 197 -140.666 197 -159.999s-15 -41.333 -45 -66
c-30 -24 -61.667 -36 -95 -36c-78.667 0 -179.667 51.667 -303 155c-98 82 -174.333 160 -229 234c-22 -11.333 -39.667 -19.666 -53 -24.999c-98.667 -43.333 -205.334 -65 -320.001 -65c-109.333 0 -213 16.333 -311 49c-32.667 10.667 -71 27 -115 49
c-98 -54.667 -177 -121.667 -237 -201c-101.333 -130.667 -172.333 -196 -213 -196c-36 0 -54 23 -54 69c0 46.667 42.333 113.667 127 201s179 154.333 283 201c-139.333 138.667 -209 307.667 -209 507c0 202.667 68.333 396.667 205 582
c-169.333 114.667 -282.666 210.334 -339.999 287.001c-46.667 60 -70 124 -70 192c0 36 9.66699 66 29 90c16.667 24.667 40 37 70 37c13.333 0 78.666 -68.333 195.999 -205c82 -95.333 173.667 -173 275 -233c60 35.333 113 61.333 159 78
c46.667 13.333 105.667 20 177 20c81.333 0 141.166 -19 179.499 -57s88.833 -57 151.5 -57c36 0 69 -4.33301 99 -13c30 -10.667 55.667 -25.667 77 -45c93.333 153.333 189 277.666 287 372.999c98.667 95.333 176.667 143 234 143c32.667 0 49 -28.667 49 -86zM1548 1147
c0 161.333 -29.998 307.334 -89.998 438.001c-62.667 131.333 -136.334 197 -221.001 197c-27.333 0 -67 8 -119 24c-52 16.667 -83.333 25 -94 25c-114.667 0 -225.334 -73.667 -332.001 -221c-109.333 -150.667 -164 -313.334 -164 -488.001
c0 -155.333 46.667 -282.333 140 -381c90 -100.667 215.333 -151 376 -151c158.667 0 283 51.667 373 155c87.333 101.333 131 235.333 131 402z" />
    <glyph glyph-name="yen" unicode="&#xa5;" horiz-adv-x="2081" 
d="M1901 2236l-53.998 0.00292969c-125.333 0 -266 -133.667 -422 -401c-114.667 -196.667 -218.334 -434.334 -311.001 -713.001h471v-147h-516l-29 -111v-139h545v-152h-545v-258c0 -18.667 8.33301 -40.334 25 -65.001c38 -60 57 -116 57 -168h-336
c0 43.333 5.66699 78.666 17 105.999c27.333 68.667 41 111 41 127v258h-549v152h549v127l-62 123h-487v147h434l-483 938c-32.667 62.667 -50.334 97 -53.001 103c-8.66699 30 -13 72.333 -13 127h336c0 -46.667 -16.333 -89 -49 -127c-22 -30 -33 -56 -33 -78
c0 -8 1.33301 -16.333 4 -25l402 -819c18.667 -38 40.334 -73.333 65.001 -106c2.66699 -6 7 -11.667 13 -17l106 266c87.333 216 174.666 402 261.999 558c126 223.333 250.333 378.666 373 466c22 0 68.333 -23 139 -69c68.667 -49.333 103 -83.666 103 -103z" />
    <glyph glyph-name="brokenbar" unicode="&#xa6;" horiz-adv-x="1196" 
d="M692 1184l-164 -172v1417h164v-1245zM692 -553h-164v1270l164 172v-1442z" />
    <glyph glyph-name="section" unicode="&#xa7;" horiz-adv-x="2081" 
d="M1933 524c0 -112 -47.666 -211.661 -142.999 -298.994c-98.667 -90 -272 -181.333 -520 -274c169.333 -49.333 284 -101.333 344 -156s90 -121.667 90 -201c0 -160.667 -72.333 -294.334 -217 -401.001s-322.334 -160 -533.001 -160c-172 0 -324.667 52 -458 156
c-136.667 101.333 -205 224.333 -205 369c0 46 13.667 91 41 135c24.667 43.333 58.667 65 102 65c52 0 80.667 -21.667 86 -65c0 -22 -17.667 -49.333 -53 -82c-38 -35.333 -57 -79 -57 -131c0 -90 42.333 -165 127 -225c84.667 -63.333 181.334 -95 290.001 -95
c161.333 0 300.666 43.667 417.999 131s176 196.666 176 327.999c0 112 -109 211.667 -327 299l-615 234c-224 111.333 -336 251.666 -336 420.999c0 109.333 39.667 201 119 275c90 82 266.333 176 529 282c-136.667 63.333 -248.667 146.666 -336 249.999
c-87.333 104 -131 213.333 -131 328c0 191.333 56 375.666 168 552.999c108.667 174.667 227.334 262 356.001 262c311.333 0 555.666 -106.333 732.999 -319c164 -196.667 246 -438.334 246 -725.001c0 -44 -16.333 -81 -49 -111c-36 -32.667 -82.667 -49 -140 -49
c-32.667 0 -61.334 13.667 -86.001 41c-24 27.333 -36 60 -36 98c0 256.667 -38.333 473.667 -115 651c-79.333 175.333 -184.666 263 -315.999 263c-114.667 0 -217 -79.333 -307 -238c-90 -161.333 -135 -326.666 -135 -495.999c0 -202 110.667 -368.333 332 -499
l622 -271c224 -100.667 336 -215.334 336 -344.001zM1630 471.006c0 95.333 -38 181.333 -114 258c-79.333 74 -289.666 192.667 -630.999 356c-142 -65.333 -254 -139 -336 -221c-82 -84.667 -123 -176 -123 -274c0 -122.667 50.667 -230.667 152 -324
c117.333 -106.667 304.333 -198 561 -274c155.333 49.333 276.666 113.333 363.999 192c84.667 79.333 127 175 127 287z" />
    <glyph glyph-name="dieresis" unicode="&#xa8;" horiz-adv-x="1651" 
d="M1335 2249c0 -54.667 -17.667 -108 -53 -160s-80.333 -78 -135 -78s-102.5 23.167 -143.5 69.5s-61.5 98.166 -61.5 155.5c0 60.667 19 115.334 57 164c38.667 49.333 88 74 148 74c49.333 0 93 -24.667 131 -74c38 -48.667 57 -99 57 -151zM696 2249
c0 -63.333 -16.333 -118 -49 -164c-32.667 -49.333 -79 -74 -139 -74c-52 0 -98.333 23.333 -139 70c-44 43.333 -66 95 -66 155c0 57.333 22 112 66 164c40.667 49.333 87 74 139 74s97 -22 135 -66c35.333 -46 53 -99 53 -159z" />
    <glyph glyph-name="copyright" unicode="&#xa9;" horiz-adv-x="2494" 
d="M2429 1147c0 -319.333 -113.332 -592.333 -339.999 -819s-499.667 -340 -819 -340c-316.667 0 -588.334 113.333 -815.001 340s-340 499.667 -340 819s113.333 592.333 340 819c224 224 495.667 336 815 336s592.333 -112 819 -336s340 -497 340 -819zM2273 1147
c0 276 -97 512 -291 708c-196 194 -433.333 291 -712 291s-515 -97 -709 -291c-194 -193.333 -291 -429.333 -291 -708c0 -276 97 -512.333 291 -709s430.333 -295 709 -295c275.333 0 511.333 98.333 708 295s295 433 295 709zM1802 520
c0 -35.333 -13.667 -67.999 -41 -97.999c-27.333 -32.667 -50.333 -50.334 -69 -53.001c-2.66699 5.33301 -99.667 20.333 -291 45c-194 21.333 -345.667 69 -455 143c-166.667 112 -250 288 -250 528c0 265.333 52 478.333 156 639c104 161.333 239 242 405 242
c76.667 0 152 -30 226 -90c70.667 -60 106 -121.333 106 -184c0 -24.667 -17.667 -56.334 -53 -95.001c-35.333 -38 -66.666 -59.667 -93.999 -65l-4 61c0 46.667 -18 92 -54 136c-38 43.333 -84.333 65 -139 65c-100.667 0 -193.334 -65.667 -278.001 -197
c-84.667 -133.333 -127 -290.333 -127 -471c0 -305.333 159.667 -482.666 479 -531.999z" />
    <glyph glyph-name="ordfeminine" unicode="&#xaa;" horiz-adv-x="1511" 
d="M1229 1618c0 -41.333 -30.001 -62 -90.001 -62c-41.333 0 -77 15.333 -107 46c-38 38 -70.667 104.667 -98 200c-84.667 -196.667 -183 -295 -295 -295c-82 0 -151.667 45 -209 135c-57.333 90.667 -86 200 -86 328c0 139.333 45 282.666 135 430
c87.333 147.333 164 221 230 221c18.667 0 47.334 -12 86.001 -36l168 -99c10.667 8.66699 18.667 14.334 24 17c19.333 10.667 35.666 16 48.999 16c30 0 58.667 -17.667 86 -53c2.66699 -5.33301 8.33398 -15 17.001 -29c-16.667 -76.667 -29 -138 -37 -184
c-27.333 -150 -41 -263.333 -41 -340c0 -112 8 -188.667 24 -230c14 -40.667 33.333 -61 58 -61c10.667 0 21.667 5.33301 33 16c10.667 11.333 18.667 17 24 17c19.333 0 29 -12.333 29 -37zM1413 1188h-1253v123h1253v-123zM933.999 2339c0 40.667 -7 72 -21 94
c-21.333 35.333 -54 53 -98 53c-84.667 0 -157 -68.333 -217 -205c-60 -138.667 -90 -283.334 -90 -434.001c0 -73.333 13.667 -138.666 41 -195.999s67 -86 119 -86c76 0 140 75 192 225c49.333 150 74 333 74 549z" />
    <glyph glyph-name="guillemotleft" unicode="&#xab;" horiz-adv-x="1499" 
d="M1389 1270c0 -74 -43.999 -149.332 -131.999 -225.999c-90 -78.667 -210 -152.334 -360 -221.001c112 -76 206.333 -155 283 -237c73.333 -84.667 110 -160 110 -226c0 -43.333 -6.83301 -77.333 -20.5 -102s-38.167 -37 -73.5 -37c-16.667 0 -33 7 -49 21
c-16.667 10.667 -34.334 33.667 -53.001 69c-49.333 87.333 -156 191.333 -320 312c-68 48.667 -102 82.667 -102 102c0 40.667 98.333 130.667 295 270c108.667 76.667 185 150.667 229 222c10.667 16 31 35 61 57c27.333 22 53.333 33 78 33c36 0 54 -12.333 54 -37z
M803.001 1270c0 -74 -43.666 -149.332 -130.999 -225.999c-90 -78.667 -210.333 -152.334 -361 -221.001c112 -76 206.333 -155 283 -237c74 -84.667 111 -160 111 -226c0 -43.333 -7 -77.333 -21 -102c-13.333 -24.667 -38 -37 -74 -37c-16 0 -32.333 7 -49 21
c-16 10.667 -33.667 33.667 -53 69c-49.333 87.333 -156 191.333 -320 312c-68 48.667 -102 82.667 -102 102c0 40.667 98.333 130.667 295 270c109.333 76.667 185.666 150.667 228.999 222c11.333 16 32 35 62 57c27.333 22 53.333 33 78 33c35.333 0 53 -12.333 53 -37z
" />
    <glyph glyph-name="logicalnot" unicode="&#xac;" horiz-adv-x="4915" 
d="M4760 -340h-4600v3133h4600v-3133zM4370 1044v74.001h-77c-60.666 0 -99 11 -115 33c-16.666 19.333 -25 54.666 -25 105.999v50v966c0 153.333 6.83398 245 20.5 275s52.166 45 115.5 45h81v73h-655v-73h86c60 0 97 -15 111 -45c13.333 -32.667 20 -121.667 20 -267
v-974c0 -74 -4 -119.333 -12 -136c-19.333 -35.333 -64.333 -53 -135 -53h-70v-74h655zM4674 111.001c0 92.667 -34.334 159.336 -103 200.003c-43.334 27.333 -115.667 50.666 -217 69.999c-104 19.333 -177.666 39.666 -221 60.999c-65.333 33.333 -98 81.333 -98 144
c0 60 20.333 106.333 61 139c40.666 32.667 92.666 49 156 49c43.334 0 87 -11 131 -33c40.666 -24 76 -52.667 106 -86l17 -57c2.66602 -22 4 -50.667 4 -86h69c0 54.667 3 102.334 9 143.001c2.66602 38.667 6.66602 84 12 136c-120 35.333 -228 53 -324 53
c-136.666 0 -240.333 -30 -311 -90c-74 -63.333 -111 -145.333 -111 -246c0 -98.667 41 -171 123 -217c60 -32.667 164 -61.334 312 -86.001c133.334 -30 200 -91.667 200 -185c0 -60 -23.166 -110.5 -69.5 -151.5s-107.834 -61.5 -184.5 -61.5
c-57.334 0 -112 9.66699 -164 29c-54 19.333 -92 45.333 -114 78c-11.333 16.667 -17 53.667 -17 111v73h-65v-49l-12 -176c-3.33301 -22 -5 -37 -5 -45c0 -32.667 7 -50.334 21 -53.001c125.333 -30 230.333 -45 315 -45c131.334 0 244.667 34 340 102
c93.334 68 140 161 140 279zM3854 754.003l-352 -0.00195312c0 70.667 1.33301 141.667 4 213c2.66699 68 8.33398 128 17 180c163.333 134 245 280 245 438c0 251.333 -163.667 377 -491 377c-169.333 0 -286.666 24.667 -352 74c-66 46 -99 122.333 -99 229
c0 101.333 35.667 182 107 242c68 57.333 160.667 86 278 86c71.333 0 139.666 -12.333 205 -37c62.667 -24.667 106.334 -46.667 131 -66c14 -27.333 21 -71 21 -131v-94h73c0 128.667 12.333 238 37 328c-150 57.333 -301.333 86 -454 86
c-180.667 0 -325.667 -43.667 -435 -131c-112 -90 -168 -213 -168 -369c0 -158 60.333 -270 181 -336c84.667 -46 204.667 -69 360 -69c152.667 0 262 -33 328 -99c52 -52 78 -120.333 78 -205c0 -100.667 -39.667 -183.667 -119 -249c-82 -68.667 -190 -103 -324 -103
c-84.667 0 -165 15 -241 45c-76.667 27.333 -124.667 63 -144 107l-4 139v57h-78v-106c0 -101.333 -4 -184.666 -12 -249.999c71.333 -30 145 -52 221 -66c74 -13.333 145 -20 213 -20c82 0 151.667 9.66699 209 29c14 -117.333 21 -217 21 -299
c-52 -30 -113.667 -56 -185 -78v-49h185v-643c0 -93.333 23 -159 69 -197c46.667 -38 111 -57 193 -57c21.333 0 41.666 1.33301 61 4c38 10.667 66.667 17.334 86 20.001l111 140l-33 45c-38 -41.333 -81.667 -62 -131 -62c-57.333 0 -97 16.333 -119 49
c-30 46.667 -45 139.667 -45 279v438l283 4l45 -4zM3285 -245.999v69.999h-86c-40.667 0 -66.667 9.66699 -78 29c-10.667 16 -16 51.333 -16 106v115v377c0 152.667 -42.333 260.334 -127 323.001c-62.667 46.667 -147.334 70 -254 70
c-87.333 0 -177.333 -35.667 -270 -107c-30.667 -21.333 -67.667 -58 -111 -110v147c0 11.333 -2.66699 26.333 -8 45c0 5.33301 -2.66699 13.666 -8 24.999c-139.333 -60 -266.333 -90 -381 -90v-70h82c73.333 0 110 -22 110 -66v-704c0 -38 -8 -62.667 -24 -74
c-19.333 -10.667 -48 -16 -86 -16h-82v-70h589v70h-77c-76.667 0 -115 30 -115 90v131v152v200c0 66 5.33301 116.667 16 152c8.66699 32.667 40.167 65.334 94.5 98.001s115.833 49 184.5 49c106.667 0 177.667 -28.667 213 -86c35.333 -60 53 -146 53 -258v-106v-74v-61
v-54c0 -125.333 -5.33301 -226.333 -16 -303h397zM2785 2593l-0.000976562 73.001h-487v-73c46 0 92.333 -2.66699 139 -8c44 -6 66 -21 66 -45l-13 -50c-21.333 -100.667 -33.333 -158 -36 -172l-62 -225l-213 -717l-283 774l-188 529h-57l-242 -631l-262 -659l-164 729
l-78 372c-10.667 22 -16 35.667 -16 41c0 41.333 45 62 135 62h70v73h-586v-73h45c43.333 0 73.333 -8.33301 90 -25c14 -18.667 30.333 -67.667 49 -147l197 -852l24 -123c-43.333 0 -84 -11 -122 -33c-38.667 -24.667 -92 -72.334 -160 -143.001
c-71.333 -71.333 -120.666 -134.333 -147.999 -189c-18.667 -48.667 -28 -108.667 -28 -180v-147l-164 -86v-41l164 16v-430v-98c0 -32.667 1.33301 -64.334 4 -95.001c0 -73.333 -8.33301 -123.666 -25 -150.999c-16 -30 -50 -45 -102 -45h-78v-70h635v70h-94
c-60 0 -98.333 12.333 -115 37c-19.333 22 -29 67 -29 135v102c0 36 1.33301 74.333 4 115v430l152 4l139 -4l21 102l-9 9h-303v147c0 166.667 12.333 271.834 37 315.501s72.667 65.5 144 65.5c46 0 85.333 -12.333 118 -37l45 -221h119c68.667 202 161.667 456 279 762
l221 512l188 -512l238 -639l33 -123h123c68 281.333 167.667 637.666 299 1069c87.333 289.333 143 450.333 167 483c8.66699 2.66699 17 7 25 13c8 2.66699 19 4 33 4h61zM1995 328.001c0 152.667 -48.001 276.667 -144.001 372c-95.333 96 -223.666 144 -384.999 144
c-172 0 -312.667 -50.667 -422 -152c-108.667 -100.667 -163 -231.667 -163 -393c0 -169.333 47.667 -306 143 -410c92.667 -106 217 -159 373 -159c172 0 315.333 56 430 168c112 108.667 168 252 168 430zM1778 229.001c0 -136 -27.334 -239.668 -82.001 -311.001
c-54.667 -74 -130 -111 -226 -111c-108.667 0 -196 54.667 -262 164c-68 106.667 -102 242 -102 406c0 120 28.667 217 86 291c54.667 70.667 128.334 106 221.001 106c106.667 0 194 -46.333 262 -139c68.667 -95.333 103 -230.666 103 -405.999z" />
    <glyph glyph-name="minus" unicode="&#xad;" horiz-adv-x="1991" 
d="M1753 1294h-1249v140h1249v-140z" />
    <glyph glyph-name="registered" unicode="&#xae;" horiz-adv-x="2523" 
d="M2429 1147c0 -319.333 -113.332 -592.333 -339.999 -819s-499.667 -340 -819 -340c-316.667 0 -588.334 113.333 -815.001 340s-340 499.667 -340 819s113.333 592.333 340 819c224 224 495.667 336 815 336s592.333 -112 819 -336s340 -497 340 -819zM2273 1147
c0 276 -97 512 -291 708c-196 194 -433.333 291 -712 291s-515 -97 -709 -291c-194 -193.333 -291 -429.333 -291 -708c0 -276 97 -512.333 291 -709s430.333 -295 709 -295c275.333 0 511.333 98.333 708 295s295 433 295 709zM1806 389l-241.001 8.00195
c0 32.667 -3 71 -9 115c-5.33301 40.667 -24.333 102 -57 184l-164 242c-35.333 76.667 -91.333 115 -168 115l-90 -13c5.33301 8.66699 8 17 8 25c16.667 54.667 25 112 25 172l-4 66l122.5 -74c41 -24.667 72.5 -37 94.5 -37c207.333 0 311 88.667 311 266
c0 104 -53 191.333 -159 262c-109.333 68.667 -237.666 103 -384.999 103c-41.333 0 -62 -12.333 -62 -37v-1208c0 -14 8.16699 -36 24.5 -66s24.5 -62.667 24.5 -98h-233c0 30 6.66699 60 20 90c14 30 21 54.667 21 74v1224c0 11.333 -7 34.666 -21 69.999
c-13.333 35.333 -20 66.666 -20 93.999l233 -4c191.333 0 352.5 -45 483.5 -135s196.5 -209 196.5 -357c0 -138.667 -51.667 -241 -155 -307l-189 -98z" />
    <glyph glyph-name="macron" unicode="&#xaf;" horiz-adv-x="2179" 
d="M1597 1974c0 -62.667 -38 -111.667 -114 -147c-60 -27.333 -136.667 -41 -230 -41h-258c-18.667 0 -54 -7 -106 -21c-52 -13.333 -91.667 -20 -119 -20s-41 16.333 -41 49c0 60 34 105 102 135c68.667 30 145.334 45 230.001 45h291c30 0 69.333 7 118 21
c49.333 13.333 79.666 20 90.999 20c24 0 36 -13.667 36 -41z" />
    <glyph glyph-name="degree" unicode="&#xb0;" horiz-adv-x="1704" 
d="M1442 2179c0 -152.667 -56 -286.332 -168 -400.999c-114.667 -117.333 -256.667 -176 -426 -176c-156 0 -292.667 54.333 -410 163c-117.333 109.333 -176 244.666 -176 405.999c0 169.333 57.333 311.333 172 426c112 112 252.667 168 422 168
c156 0 292.667 -56 410 -168s176 -251.333 176 -418zM1315 2179c0 128.667 -43.667 238.001 -131 328.001s-199.333 135 -336 135c-126 0 -234 -43.667 -324 -131c-92.667 -90 -139 -202 -139 -336c0 -120 45 -225 135 -315c87.333 -93.333 195.333 -140 324 -140
c128 0 238.5 43.667 331.5 131s139.5 196.666 139.5 327.999z" />
    <glyph glyph-name="plusminus" unicode="&#xb1;" horiz-adv-x="2003" 
d="M1810 1376h-708v-631h-168v631h-713v168h713v627h168v-627h708v-168zM1810 324h-1589v168h1589v-168z" />
    <glyph glyph-name="twosuperior" unicode="&#xb2;" horiz-adv-x="975" 
d="M840 1630c0 -43.333 -19.332 -72 -57.999 -86c-38 -16 -100.667 -24 -188 -24h-492c6 48.667 19.667 88 41 118c36 36 64.667 66.333 86 91l353 356c38 35.333 73.333 85.666 106 151c30 66 45 126.333 45 181c0 62.667 -24.667 120 -74 172
c-48.667 51.333 -107.334 77 -176.001 77c-139.333 0 -228 -90 -266 -270c-16 16.667 -28.333 29 -37 37c-24.667 30 -37 57.333 -37 82c0 43.333 42.333 98 127 164c82 62.667 156 94 222 94c226 0 339 -124.333 339 -373c0 -147.333 -31.333 -258 -94 -332l-307 -311
c-10.667 -10.667 -20.334 -23 -29.001 -37c-2.66699 -5.33301 -8 -14.666 -16 -27.999c0 -27.333 20.333 -41 61 -41h140c48.667 0 85.334 4 110.001 12c22 5.33301 41.333 21.666 58 48.999c38 -16 61 -28.333 69 -37c11.333 -10.667 17 -25.667 17 -45z" />
    <glyph glyph-name="threesuperior" unicode="&#xb3;" horiz-adv-x="975" 
d="M823 1778c0 -142 -36.666 -251.333 -109.999 -328c-76.667 -79.333 -169.667 -119 -279 -119c-62.667 0 -120 15 -172 45c-54.667 27.333 -95.667 64.333 -123 111c0 10.667 16.333 31 49 61c30 27.333 52 41 66 41l4 -20c0 -24.667 17.667 -50.667 53 -78
c32.667 -27.333 73.667 -41 123 -41c74 0 135.333 31.333 184 94c49.333 62.667 74 140.667 74 234c0 78.667 -19 148.334 -57 209.001c-38 57.333 -91.333 86 -160 86c-27.333 0 -62.666 -11 -105.999 -33c-6 -2.66699 -15.667 -8.33398 -29 -17.001v136
c74 35.333 138 88.333 192 159c54.667 68.667 82 138.334 82 209c0 104 -43.667 156 -131 156c-92.667 0 -158 -60 -196 -180c-19.333 18.667 -33 32.334 -41 41c-27.333 30 -41 53 -41 69c0 32.667 34 72.334 102 119c66 44 124.667 66 176 66c164 0 246 -86 246 -258
c0 -101.333 -23.333 -187.666 -70 -259c-32.667 -48.667 -69.334 -84 -110.001 -106c109.333 -49.333 185.666 -113.666 228.999 -193c30 -57.333 45 -125.333 45 -204z" />
    <glyph glyph-name="acute" unicode="&#xb4;" horiz-adv-x="1835" 
d="M1286 2486c0 -60 -77.668 -150 -233.001 -270c-158.667 -122.667 -274.667 -184 -348 -184c-33.333 0 -50 13.667 -50 41c0 13.333 12.333 35 37 65c79.333 60 149 142 209 246c95.333 164 158.333 246 189 246c35.333 0 76 -15 122 -45
c46.667 -33.333 71.334 -66.333 74.001 -99z" />
    <glyph glyph-name="mu" unicode="&#xb5;" horiz-adv-x="1413" 
d="M1298 20l-12.001 -11.999c-13.333 -8 -28.333 -12 -45 -12c-46.667 0 -90.334 2.66699 -131.001 8s-76 8 -106 8h-259c-160.667 0 -302.667 38.333 -426 115l-36 -418c0 -30 -11 -56 -33 -78c-22 -21.333 -49.333 -32 -82 -32c-41.333 0 -79.666 9.33301 -114.999 28
c-35.333 19.333 -53 48 -53 86c24.667 106.667 46.667 214.667 66 324c16 109.333 24 243 24 401l-12 119c0 87.333 35.333 202 106 344c71.333 142 107 243 107 303c0 96 -31.333 197 -94 303c24 44 58 93.333 102 148c40.667 54.667 69.334 82 86.001 82
c32.667 0 62.667 -54.667 90 -164s41 -209 41 -299c0 -109.333 -34.167 -246 -102.5 -410s-102.5 -273 -102.5 -327c0 -98.667 54.667 -175.334 164 -230.001c87.333 -43.333 177.333 -65 270 -65c57.333 0 108 1.33301 152 4s82.333 6.66699 115 12v1241
c0 19.333 -12.333 56.333 -37 111c-27.333 54.667 -41 106.334 -41 155.001h364c0 -57.333 -10.833 -110.5 -32.5 -159.5s-32.5 -84.5 -32.5 -106.5v-1388c0 -8.66699 11 -25.334 33 -50.001c21.333 -24 32 -37.667 32 -41z" />
    <glyph glyph-name="paragraph" unicode="&#xb6;" horiz-adv-x="2179" 
d="M2298 2716c0 -66 -52.0029 -130.331 -156.003 -192.998c-103.333 -65.333 -199 -98 -287 -98l-126 8c16 -10.667 26.667 -19 32 -25c22 -18.667 33 -36.334 33 -53c0 -8 -2.66699 -19 -8 -33c0 -2.66699 -2.66699 -9.33398 -8 -20.001
c-57.333 -147.333 -104 -449 -140 -905c-35.333 -456 -53 -860.333 -53 -1213c0 -322 8.33301 -547.333 25 -676c2.66699 -18.667 19 -91 49 -217c-14 -16 -26.333 -28 -37 -36c-35.333 -24.667 -81.666 -37 -138.999 -37c-74 0 -119 25.667 -135 77
c-16.667 49.333 -25 193 -25 431v315c0 611.333 23.333 1154.67 70 1630c38 385.333 74.667 613.333 110 684l-12 82l53 41l-409 123c-142 40.667 -263.667 61 -365 61c-196.667 0 -355 -54.333 -475 -163c-122.667 -112 -184 -259.667 -184 -443
c0 -172 57.333 -318 172 -438s263.334 -180 446.001 -180l90 921l-8 82c10.667 11.333 19 18.333 25 21c21.333 13.333 43 20 65 20c57.333 0 106.666 -12.333 147.999 -37c38 -27.333 59.667 -60 65 -98c-49.333 -84.667 -84.666 -211.667 -105.999 -381
c-24.667 -172 -37 -335.667 -37 -491c43.333 8 80 23 110 45l86 65c24.667 0 37 -17.667 37 -53c0 -74 -82 -137 -246 -189c-35.333 -338 -53 -724.333 -53 -1159c0 -352 9.66699 -597.667 29 -737c5.33301 -32.667 19 -83.334 41 -152.001c0 -16 -19 -32.333 -57 -49
c-38.667 -18.667 -77 -28 -115 -28c-71.333 0 -115 34 -131 102c-19.333 68 -29 225 -29 471v299c0 240.667 5.33301 438.667 16 594c8.66699 152.667 26.667 364.334 54 635.001c-199.333 0 -366 69.667 -500 209s-201 310 -201 512c0 224 86 420.667 258 590
c169.333 166 374.333 249 615 249c122.667 0 327.334 -47.667 614.001 -143c284 -98 454.667 -147 512 -147s112 28.667 164 86s79.333 86 82 86c27.333 0 41 -15 41 -45z" />
    <glyph glyph-name="periodcentered" unicode="&#xb7;" horiz-adv-x="1008" 
d="M754 918c0 -63.333 -20.667 -115.333 -62 -156c-43.333 -44 -96.666 -66 -159.999 -66c-62.667 0 -114.334 22 -155.001 66c-44 40.667 -66 92.667 -66 156c0 62.667 22 115.667 66 159c40.667 41.333 92.334 62 155.001 62c63.333 0 116.666 -20.667 159.999 -62
c41.333 -43.333 62 -96.333 62 -159z" />
    <glyph glyph-name="cedilla" unicode="&#xb8;" horiz-adv-x="2179" 
d="M1458 -655c0 -112 -46.333 -210.335 -139 -295.002s-200.667 -127 -324 -127c-57.333 0 -122.666 17.667 -195.999 53c-74 32.667 -111 68 -111 106c0 52 27.333 78 82 78l114.5 -98c35.667 -30 72.5 -45 110.5 -45c52 0 105.333 24.5 160 73.5s82 105.167 82 168.5
c0 40.667 -15 76 -45 106c-32.667 30 -73.667 45 -123 45c-32.667 0 -64 -6.66699 -94 -20c-11.333 -5.33301 -25 -8 -41 -8c-10.667 0 -24.334 13.333 -41.001 40c-19.333 24.667 -29 45.334 -29 62.001c0 22 16.333 57.333 49 106c30 46.667 69.667 97.334 119 152.001
h135l-90 -152l86 9c82 0 151.667 -22 209 -66c57.333 -43.333 86 -106 86 -188z" />
    <glyph glyph-name="onesuperior" unicode="&#xb9;" horiz-adv-x="975" 
d="M623 1573h-295.001c0 43.333 13.667 84.333 41 123c24.667 38 37 69.333 37 94v770c0 8 -18 21.667 -54 41c-35.333 19.333 -53 34.333 -53 45c0 24.667 42.333 73.667 127 147c46.667 41.333 79.334 62 98.001 62c8.66699 -24.667 13 -46.667 13 -66v-1020
c0 -16 19 -51.333 57 -106c19.333 -27.333 29 -57.333 29 -90z" />
    <glyph glyph-name="ordmasculine" unicode="&#xba;" horiz-adv-x="1511" 
d="M1147 2089c0 -152.667 -35.666 -283.667 -106.999 -393c-70.667 -109.333 -162 -164 -274 -164c-114.667 0 -203.334 46.333 -266.001 139s-94 211.667 -94 357c0 152.667 31.333 296 94 430c60 133.333 129.667 200 209 200c5.33301 0 50.333 -17.667 135 -53
c46 -19.333 84 -29 114 -29c46.667 0 90.667 -42.333 132 -127c38 -84.667 57 -204.667 57 -360zM1380 1188h-1249v123h1249v-123zM1040 2028c0 95.333 -15 197.666 -45 307c-30 106 -60 159 -90 159c-18.667 0 -37.667 7 -57 21c-22 10.667 -39.667 16 -53 16
c-52 0 -100 -47.667 -144 -143c-54.667 -117.333 -82 -269 -82 -455c0 -103.333 16.333 -185 49 -245c33.333 -63.333 85.333 -95 156 -95c74 0 137 41 189 123c51.333 79.333 77 183.333 77 312z" />
    <glyph glyph-name="guillemotright" unicode="&#xbb;" horiz-adv-x="1499" 
d="M1421 803c0 -41.333 -98.334 -131.669 -295.001 -271.002c-108.667 -76 -185 -149.667 -229 -221c-10.667 -16 -29.667 -35 -57 -57c-30 -22 -57.333 -33 -82 -33c-35.333 0 -53 12.333 -53 37c0 74 45 150.333 135 229c87.333 76.667 206 149.334 356 218.001
c-112 76 -204.667 156.333 -278 241c-76.667 82 -115 155.667 -115 221c0 44 6.66699 78.333 20 103c14 24.667 38.667 37 74 37c16.667 0 33 -5.66699 49 -17c16.667 -13.333 34.334 -37.666 53.001 -72.999c49.333 -88 156 -192 320 -312c68 -49.333 102 -83.333 102 -102
zM839.999 798.997c0 -41.333 -98.333 -131.668 -295 -271.001c-109.333 -76 -186 -149.667 -230 -221c-10.667 -16 -29.667 -35 -57 -57c-30 -22 -57.333 -33 -82 -33c-35.333 0 -53 12.333 -53 37c0 74 45 150.333 135 229c87.333 76.667 206 149 356 217
c-112 76.667 -204.667 157.334 -278 242.001c-76.667 82 -115 155.667 -115 221c0 44 6.83301 78.333 20.5 103s38.167 37 73.5 37c16.667 0 33.334 -5.66699 50.001 -17c16 -13.333 33.667 -38 53 -74c49.333 -87.333 155.666 -191 318.999 -311
c68.667 -49.333 103 -83.333 103 -102z" />
    <glyph glyph-name="onequarter" unicode="&#xbc;" horiz-adv-x="1970" 
d="M623 1573h-295.001c0 43.333 13.667 84.333 41 123c24.667 38 37 69.333 37 94v770c0 8 -18 21.667 -54 41c-35.333 19.333 -53 34.333 -53 45c0 24.667 42.333 73.667 127 147c46.667 41.333 79.334 62 98.001 62c8.66699 -24.667 13 -46.667 13 -66v-1020
c0 -16 19 -51.333 57 -106c19.333 -27.333 29 -57.333 29 -90zM1589 381l-118.997 0.00195312v-496c0 -32.667 -4 -64 -12 -94c-24.667 19.333 -42.334 34.333 -53.001 45c-38 35.333 -57 58.666 -57 69.999c0 10.667 2.66699 23 8 37c8 18.667 12 29.334 12 32.001v406
h-418c-18.667 0 -28 15 -28 45l8 33c95.333 125.333 162 226.333 200 303c54.667 109.333 128.667 293.666 222 552.999c2.66699 5.33301 23 16.333 61 33c35.333 16 60 24 74 24c5.33301 0 10.666 -2.66699 15.999 -8c-95.333 -262 -165 -438 -209 -528
c-43.333 -93.333 -103.333 -193 -180 -299c0 -24.667 15 -37 45 -37h209v323c5.33301 22 17.666 41.333 36.999 58c19.333 13.333 41 29.666 65 48.999v-430h119v-119zM1782 2753c-423.333 -686 -764.665 -1292.33 -1024 -1819c-234.667 -478 -376.667 -840 -426 -1086
c-8.66699 -10.667 -14.334 -18.667 -17.001 -24c-13.333 -16.667 -25.333 -25 -36 -25c-63.333 0 -95 38.333 -95 115c0 101.333 119 388 357 860c163.333 328 388.666 752.667 675.999 1274c259.333 472.667 394.333 721 405 745c8 36 31.333 54 70 54
c18.667 0 37.667 -8.33301 57 -25c19.333 -19.333 30.333 -42.333 33 -69z" />
    <glyph glyph-name="onehalf" unicode="&#xbd;" horiz-adv-x="2093" 
d="M623 1573h-295.001c0 43.333 13.667 84.333 41 123c24.667 38 37 69.333 37 94v770c0 8 -18 21.667 -54 41c-35.333 19.333 -53 34.333 -53 45c0 24.667 42.333 73.667 127 147c46.667 41.333 79.334 62 98.001 62c8.66699 -24.667 13 -46.667 13 -66v-1020
c0 -16 19 -51.333 57 -106c19.333 -27.333 29 -57.333 29 -90zM1855 90c0 -43.333 -19 -71.999 -57 -85.999c-38 -16 -100.667 -24 -188 -24h-492c5.33301 48.667 19 88 41 118l86 90l352 357c38.667 35.333 74.334 85.666 107.001 150.999c30 66 45 126.333 45 181
c0 62.667 -24.667 120 -74 172c-48.667 51.333 -107.334 77 -176.001 77c-139.333 0 -228 -90 -266 -270l-37 37c-24.667 30 -37 57.333 -37 82c0 43.333 42.333 98 127 164c82 62.667 155.667 94 221 94c226.667 0 340 -124.333 340 -373c0 -147.333 -31.333 -258 -94 -332
l-307 -311c-10.667 -10.667 -20.334 -23 -29.001 -37c-2.66699 -5.33301 -8 -14.666 -16 -27.999c0 -27.333 20.333 -41 61 -41h140c48.667 0 85.334 4 110.001 12c22 5.33301 41 21.666 57 48.999c38.667 -16.667 62 -29 70 -37c10.667 -10.667 16 -25.667 16 -45z
M1782 2753c-423.333 -686 -764.665 -1292.33 -1024 -1819c-234.667 -478 -376.667 -840 -426 -1086c-8.66699 -10.667 -14.334 -18.667 -17.001 -24c-13.333 -16.667 -25.333 -25 -36 -25c-63.333 0 -95 38.333 -95 115c0 101.333 119 388 357 860
c163.333 328 388.666 752.667 675.999 1274c259.333 472.667 394.333 721 405 745c8 36 31.333 54 70 54c18.667 0 37.667 -8.33301 57 -25c19.333 -19.333 30.333 -42.333 33 -69z" />
    <glyph glyph-name="threequarters" unicode="&#xbe;" horiz-adv-x="2093" 
d="M823 1778c0 -142 -36.666 -251.333 -109.999 -328c-76.667 -79.333 -169.667 -119 -279 -119c-62.667 0 -120 15 -172 45c-54.667 27.333 -95.667 64.333 -123 111c0 10.667 16.333 31 49 61c30 27.333 52 41 66 41l4 -20c0 -24.667 17.667 -50.667 53 -78
c32.667 -27.333 73.667 -41 123 -41c74 0 135.333 31.333 184 94c49.333 62.667 74 140.667 74 234c0 78.667 -19 148.334 -57 209.001c-38 57.333 -91.333 86 -160 86c-27.333 0 -62.666 -11 -105.999 -33c-6 -2.66699 -15.667 -8.33398 -29 -17.001v136
c74 35.333 138 88.333 192 159c54.667 68.667 82 138.334 82 209c0 104 -43.667 156 -131 156c-92.667 0 -158 -60 -196 -180c-19.333 18.667 -33 32.334 -41 41c-27.333 30 -41 53 -41 69c0 32.667 34 72.334 102 119c66 44 124.667 66 176 66c164 0 246 -86 246 -258
c0 -101.333 -23.333 -187.666 -70 -259c-32.667 -48.667 -69.334 -84 -110.001 -106c109.333 -49.333 185.666 -113.666 228.999 -193c30 -57.333 45 -125.333 45 -204zM1659 471l-119 0.00195312v-496c0 -32.667 -4 -64 -12 -94c-24.667 19.333 -42.334 34.333 -53.001 45
c-38.667 36 -58 59.333 -58 70s2.66699 23 8 37c8.66699 18.667 13 29.667 13 33v405h-418c-19.333 0 -29 15 -29 45l8 33c96 125.333 163 226.333 201 303c54.667 109.333 128.334 293.666 221.001 552.999c2.66699 5.33301 23.334 16.333 62.001 33
c35.333 16 59.666 24 72.999 24c6 0 11.667 -2.66699 17 -8c-95.333 -262 -165 -438 -209 -528c-44 -93.333 -104 -193 -180 -299c0 -24.667 15 -37 45 -37h209v323c5.33301 22 17.666 41.333 36.999 58c18.667 13.333 40.334 29.666 65.001 48.999v-430h119v-119z
M1855 2769c-422.667 -685.333 -763.998 -1291.67 -1024 -1819c-234.667 -478 -376.334 -839.667 -425.001 -1085c-8.66699 -11.333 -14.334 -19.666 -17.001 -24.999c-13.333 -16 -25.666 -24 -36.999 -24c-62.667 0 -94 38 -94 114c0 101.333 118.667 388.333 356 861
c164 327.333 389.333 751.666 676 1273c259.333 472.667 394.666 721.334 405.999 746c8 35.333 31 53 69 53c19.333 0 38.666 -8 57.999 -24c18.667 -19.333 29.334 -42.666 32.001 -70z" />
    <glyph glyph-name="questiondown" unicode="&#xbf;" horiz-adv-x="1249" 
d="M938 2257c0 -41.333 -16.333 -77 -49 -107c-35.333 -32.667 -76.333 -49 -123 -49c-57.333 0 -102.333 15 -135 45c-35.333 27.333 -53 64.333 -53 111c0 40.667 17.667 78.834 53 114.5c35.333 35.667 72 53.5 110 53.5c46.667 0 92 -19.333 136 -58
c40.667 -40.667 61 -77.334 61 -110zM1098 238c-19.333 -60.667 -82.332 -130.331 -188.999 -208.998c-128 -96 -252 -144 -372 -144c-175.333 0 -309.333 41 -402 123s-139 206.333 -139 373c0 95.333 13.667 189.666 41 282.999c24.667 92.667 58.667 160.667 102 204
l447 529c57.333 73.333 86 166 86 278c0 36 -4.33301 71.667 -13 107c-10.667 35.333 -16 54.333 -16 57c0 46.667 35.667 70 107 70c65.333 0 110.333 -18 135 -54c22 -35.333 33 -113 33 -233c0 -60 -16.667 -127 -50 -201c-35.333 -76 -72 -137.333 -110 -184l-328 -393
c-68 -90 -122.667 -178.667 -164 -266c-43.333 -90.667 -65 -171.334 -65 -242.001c0 -156 112 -234 336 -234c87.333 0 166.333 33 237 99c68.667 62.667 116.667 148.667 144 258l8 8c13.333 0 44.666 -30 93.999 -90s75.333 -106.333 78 -139z" />
    <glyph glyph-name="Agrave" unicode="&#xc0;" 
d="M1544 0l-377 -0.00195312c0 44 13.667 93 41 147c24.667 54.667 37 91.667 37 111v434c0 49.333 -11 91.666 -33 126.999c-16 22 -37.667 33 -65 33c-11.333 0 -23.666 -1.33301 -36.999 -4l-668 -197c-18.667 -68 -55.334 -244 -110.001 -528
c-44 -229.333 -94.667 -432.666 -152 -609.999c-79.333 -246 -176.333 -460.333 -291 -643c-43.333 26.667 -87 108.334 -131 245.001c-13.333 44 -31 111 -53 201c92.667 16.667 172 106.667 238 270c57.333 144.667 110.333 362 159 652c38.667 232 81 548.667 127 950
c0 374 61.667 682.667 185 926c114.667 229.333 251 344 409 344c147.333 0 277 -82 389 -246s168 -348.333 168 -553l78 -1401c0 -13.333 19.333 -59.666 58 -138.999c18.667 -41.333 28 -81 28 -119zM1167 1401c0 234.667 -27.333 431.333 -82 590
c-54 155.333 -129 233 -225 233c-120 0 -221 -113.333 -303 -340c-84.667 -229.333 -127 -497 -127 -803c0 -32.667 1.33301 -64 4 -94c0 -32.667 4 -65.334 12 -98.001c66 19.333 120.667 34.333 164 45c254 76.667 431.667 147.667 533 213
c2.66699 10.667 4 20.334 4 29.001c13.333 73.333 20 148.333 20 225zM957 2679c0 -40.667 -17.666 -61 -52.999 -61c-82 0 -187.333 68.333 -316 205c-130.667 133.333 -196 233 -196 299c0 18.667 23 41.667 69 69c46.667 24.667 87.667 37 123 37
c41.333 0 79.666 -42.333 114.999 -127c54.667 -128 103.667 -222 147 -282c5.33301 -8.66699 31.333 -34.667 78 -78c22 -22 33 -42.667 33 -62z" />
    <glyph glyph-name="Aacute" unicode="&#xc1;" 
d="M1544 0l-377 -0.00195312c0 44 13.667 93 41 147c24.667 54.667 37 91.667 37 111v434c0 49.333 -11 91.666 -33 126.999c-16 22 -37.667 33 -65 33c-11.333 0 -23.666 -1.33301 -36.999 -4l-668 -197c-18.667 -68 -55.334 -244 -110.001 -528
c-44 -229.333 -94.667 -432.666 -152 -609.999c-79.333 -246 -176.333 -460.333 -291 -643c-43.333 26.667 -87 108.334 -131 245.001c-13.333 44 -31 111 -53 201c92.667 16.667 172 106.667 238 270c57.333 144.667 110.333 362 159 652c38.667 232 81 548.667 127 950
c0 374 61.667 682.667 185 926c114.667 229.333 251 344 409 344c147.333 0 277 -82 389 -246s168 -348.333 168 -553l78 -1401c0 -13.333 19.333 -59.666 58 -138.999c18.667 -41.333 28 -81 28 -119zM1167 1401c0 234.667 -27.333 431.333 -82 590
c-54 155.333 -129 233 -225 233c-120 0 -221 -113.333 -303 -340c-84.667 -229.333 -127 -497 -127 -803c0 -32.667 1.33301 -64 4 -94c0 -32.667 4 -65.334 12 -98.001c66 19.333 120.667 34.333 164 45c254 76.667 431.667 147.667 533 213
c2.66699 10.667 4 20.334 4 29.001c13.333 73.333 20 148.333 20 225zM1280 3096c0 -60 -77.668 -150 -233.001 -270c-158.667 -122.667 -274.667 -184 -348 -184c-33.333 0 -50 13.667 -50 41c0 13.333 12.333 35 37 65c79.333 60 149 142 209 246
c95.333 164 158.333 246 189 246c35.333 0 76 -15 122 -45c46.667 -33.333 71.334 -66.333 74.001 -99z" />
    <glyph glyph-name="Acircumflex" unicode="&#xc2;" 
d="M1544 0l-377 -0.00195312c0 44 13.667 93 41 147c24.667 54.667 37 91.667 37 111v434c0 49.333 -11 91.666 -33 126.999c-16 22 -37.667 33 -65 33c-11.333 0 -23.666 -1.33301 -36.999 -4l-668 -197c-18.667 -68 -55.334 -244 -110.001 -528
c-44 -229.333 -94.667 -432.666 -152 -609.999c-79.333 -246 -176.333 -460.333 -291 -643c-43.333 26.667 -87 108.334 -131 245.001c-13.333 44 -31 111 -53 201c92.667 16.667 172 106.667 238 270c57.333 144.667 110.333 362 159 652c38.667 232 81 548.667 127 950
c0 374 61.667 682.667 185 926c114.667 229.333 251 344 409 344c147.333 0 277 -82 389 -246s168 -348.333 168 -553l78 -1401c0 -13.333 19.333 -59.666 58 -138.999c18.667 -41.333 28 -81 28 -119zM1167 1401c0 234.667 -27.333 431.333 -82 590
c-54 155.333 -129 233 -225 233c-120 0 -221 -113.333 -303 -340c-84.667 -229.333 -127 -497 -127 -803c0 -32.667 1.33301 -64 4 -94c0 -32.667 4 -65.334 12 -98.001c66 19.333 120.667 34.333 164 45c254 76.667 431.667 147.667 533 213
c2.66699 10.667 4 20.334 4 29.001c13.333 73.333 20 148.333 20 225zM1341 2667c0 -24.667 -12.335 -46.668 -37.002 -66.001c-27.333 -19.333 -54.666 -29 -81.999 -29c-155.333 0 -291.666 130 -408.999 390c-57.333 -93.333 -124.333 -178 -201 -254
c-90 -90.667 -163.667 -136 -221 -136c-32.667 0 -49 15.333 -49 46c0 54 20.333 93.333 61 118c98 54.667 185.333 131.334 262 230.001c126 163.333 210.667 245 254 245c46.667 0 89 -65.5 127 -196.5s121.333 -227.833 250 -290.5c30 -16.667 45 -35.667 45 -57z" />
    <glyph glyph-name="Atilde" unicode="&#xc3;" 
d="M1544 0l-377 -0.00195312c0 44 13.667 93 41 147c24.667 54.667 37 91.667 37 111v434c0 49.333 -11 91.666 -33 126.999c-16 22 -37.667 33 -65 33c-11.333 0 -23.666 -1.33301 -36.999 -4l-668 -197c-18.667 -68 -55.334 -244 -110.001 -528
c-44 -229.333 -94.667 -432.666 -152 -609.999c-79.333 -246 -176.333 -460.333 -291 -643c-43.333 26.667 -87 108.334 -131 245.001c-13.333 44 -31 111 -53 201c92.667 16.667 172 106.667 238 270c57.333 144.667 110.333 362 159 652c38.667 232 81 548.667 127 950
c0 374 61.667 682.667 185 926c114.667 229.333 251 344 409 344c147.333 0 277 -82 389 -246s168 -348.333 168 -553l78 -1401c0 -13.333 19.333 -59.666 58 -138.999c18.667 -41.333 28 -81 28 -119zM1167 1401c0 234.667 -27.333 431.333 -82 590
c-54 155.333 -129 233 -225 233c-120 0 -221 -113.333 -303 -340c-84.667 -229.333 -127 -497 -127 -803c0 -32.667 1.33301 -64 4 -94c0 -32.667 4 -65.334 12 -98.001c66 19.333 120.667 34.333 164 45c254 76.667 431.667 147.667 533 213
c2.66699 10.667 4 20.334 4 29.001c13.333 73.333 20 148.333 20 225zM1341 3015c0 -82 -25.999 -158.667 -77.999 -230c-60 -82 -131 -123 -213 -123c-46 0 -96.333 16.333 -151 49c-126 74 -206.667 111 -242 111c-46.667 0 -90.334 -16.333 -131.001 -49l-123 -102
c-27.333 0 -41 13.333 -41 40c0 74 37 148 111 222c70.667 70.667 147 106 229 106c35.333 0 98 -26 188 -78c90.667 -51.333 151 -77 181 -77c51.333 0 97.5 28.667 138.5 86s71.167 86 90.5 86c27.333 0 41 -13.667 41 -41z" />
    <glyph glyph-name="Adieresis" unicode="&#xc4;" 
d="M1544 0l-377 -0.00195312c0 44 13.667 93 41 147c24.667 54.667 37 91.667 37 111v434c0 49.333 -11 91.666 -33 126.999c-16 22 -37.667 33 -65 33c-11.333 0 -23.666 -1.33301 -36.999 -4l-668 -197c-18.667 -68 -55.334 -244 -110.001 -528
c-44 -229.333 -94.667 -432.666 -152 -609.999c-79.333 -246 -176.333 -460.333 -291 -643c-43.333 26.667 -87 108.334 -131 245.001c-13.333 44 -31 111 -53 201c92.667 16.667 172 106.667 238 270c57.333 144.667 110.333 362 159 652c38.667 232 81 548.667 127 950
c0 374 61.667 682.667 185 926c114.667 229.333 251 344 409 344c147.333 0 277 -82 389 -246s168 -348.333 168 -553l78 -1401c0 -13.333 19.333 -59.666 58 -138.999c18.667 -41.333 28 -81 28 -119zM1167 1401c0 234.667 -27.333 431.333 -82 590
c-54 155.333 -129 233 -225 233c-120 0 -221 -113.333 -303 -340c-84.667 -229.333 -127 -497 -127 -803c0 -32.667 1.33301 -64 4 -94c0 -32.667 4 -65.334 12 -98.001c66 19.333 120.667 34.333 164 45c254 76.667 431.667 147.667 533 213
c2.66699 10.667 4 20.334 4 29.001c13.333 73.333 20 148.333 20 225zM1376 2908c0 -54.667 -17.667 -108.001 -53 -160.001s-80.333 -78 -135 -78s-102.5 23.167 -143.5 69.5s-61.5 98.166 -61.5 155.5c0 60.667 19 115.334 57 164.001c38.667 49.333 88 74 148 74
c49.333 0 93 -24.667 131 -74c38 -48.667 57 -99 57 -151zM737 2908c0 -63.333 -16.333 -118 -49 -164c-32.667 -49.333 -79 -74 -139 -74c-52 0 -98.333 23.333 -139 70c-44 43.333 -66 95 -66 155c0 57.333 22 112 66 164c40.667 49.333 87 74 139 74s97 -22 135 -66
c35.333 -46 53 -99 53 -159z" />
    <glyph glyph-name="Aring" unicode="&#xc5;" 
d="M1544 0l-377 -0.00195312c0 44 13.667 93 41 147c24.667 54.667 37 91.667 37 111v434c0 49.333 -11 91.666 -33 126.999c-16 22 -37.667 33 -65 33c-11.333 0 -23.666 -1.33301 -36.999 -4l-668 -197c-18.667 -68 -55.334 -244 -110.001 -528
c-44 -229.333 -94.667 -432.666 -152 -609.999c-79.333 -246 -176.333 -460.333 -291 -643c-43.333 26.667 -87 108.334 -131 245.001c-13.333 44 -31 111 -53 201c92.667 16.667 172 106.667 238 270c57.333 144.667 110.333 362 159 652c38.667 232 81 548.667 127 950
c0 374 61.667 682.667 185 926c114.667 229.333 251 344 409 344c147.333 0 277 -82 389 -246s168 -348.333 168 -553l78 -1401c0 -13.333 19.333 -59.666 58 -138.999c18.667 -41.333 28 -81 28 -119zM1167 1401c0 234.667 -27.333 431.333 -82 590
c-54 155.333 -129 233 -225 233c-120 0 -221 -113.333 -303 -340c-84.667 -229.333 -127 -497 -127 -803c0 -32.667 1.33301 -64 4 -94c0 -32.667 4 -65.334 12 -98.001c66 19.333 120.667 34.333 164 45c254 76.667 431.667 147.667 533 213
c2.66699 10.667 4 20.334 4 29.001c13.333 73.333 20 148.333 20 225zM1137 2891c0 -76 -21.998 -144 -65.998 -204c-46 -63.333 -108.667 -95 -188 -95c-100.667 0 -185.334 33 -254.001 99c-70.667 62.667 -106 146 -106 250c0 81.333 27.333 155 82 221
c51.333 62.667 116.666 94 195.999 94c104 0 186 -28.667 246 -86s90 -150.333 90 -279zM1039 2875c0 65.333 -12.333 120.001 -37 164.001c-24.667 40.667 -64.334 61 -119.001 61c-49.333 0 -91.666 -21.833 -126.999 -65.5s-53 -96.834 -53 -159.501
c0 -49.333 15 -93 45 -131c27.333 -38 67 -57 119 -57c40.667 0 80 20.333 118 61c36 38 54 80.333 54 127z" />
    <glyph glyph-name="AE" unicode="&#xc6;" horiz-adv-x="2769" 
d="M2605 426c0 -40.667 -21.665 -122.668 -64.998 -246.001c-14 -40.667 -37.333 -100.667 -70 -180h-1303c0 44 13.667 93 41 147c24.667 54.667 37 91.667 37 111v434c0 49.333 -11 91.666 -33 126.999c-16 22 -37.667 33 -65 33c-11.333 0 -23.666 -1.33301 -36.999 -4
l-668 -197c-18.667 -68 -55.334 -244 -110.001 -528c-44 -229.333 -94.667 -432.666 -152 -609.999c-79.333 -246 -176.333 -460.333 -291 -643c-43.333 26.667 -87 108.334 -131 245.001c-13.333 44 -31 111 -53 201c92.667 16.667 172 106.667 238 270
c57.333 144.667 110.333 362 159 652c38.667 232 81 548.667 127 950c0 374 61.667 682.667 185 926c114.667 229.333 251 344 409 344c87.333 0 170.666 -30.333 249.999 -91c76.667 -62.667 142.334 -148.667 197.001 -258v82c0 60 -9.66699 110.667 -29 152
c-22 38 -41 73.333 -57 106h1179c30 -76 52 -133.333 66 -172c43.333 -117.333 65 -181.333 65 -192l-16 -12c-24.667 32.667 -46.334 57 -65.001 73c-60.667 52 -119.667 78 -177 78h-692c-32.667 0 -51.667 -5.33301 -57 -16c-8 -16.667 -12 -64.667 -12 -144v-581
c0 -128.667 23 -193 69 -193c27.333 0 135.166 42.333 323.499 127s297.5 127 327.5 127c22 0 33 -15 33 -45v-328c0 -38 -11 -57 -33 -57c-2.66699 0 -16.334 15 -41 45c-24 30 -64.667 45 -122 45c-79.333 0 -191.333 -35.333 -336 -106
c-147.333 -74 -221 -139.667 -221 -197v-528c0 -96 31.333 -144 94 -144h745c44 0 90.667 19.333 140 58zM1167 1401c0 234.667 -27.333 431.333 -82 590c-54 155.333 -129 233 -225 233c-120 0 -221 -113.333 -303 -340c-84.667 -229.333 -127 -497 -127 -803
c0 -32.667 1.33301 -64 4 -94c0 -32.667 4 -65.334 12 -98.001c66 19.333 120.667 34.333 164 45c254 76.667 431.667 147.667 533 213c2.66699 10.667 4 20.334 4 29.001c13.333 73.333 20 148.333 20 225z" />
    <glyph glyph-name="Ccedilla" unicode="&#xc7;" horiz-adv-x="1491" 
d="M1831 -971c0 -54.667 -17.668 -130.999 -53.001 -228.999c-36 -101.333 -63.333 -154.666 -82 -159.999c-68.667 207.333 -247.667 458.666 -537 753.999c-401.333 409.333 -641.666 668.666 -720.999 777.999c-240 328 -360 664 -360 1008c0 390 76.333 704 229 942
c153.333 237.333 352.666 356 597.999 356c117.333 0 228 -43.667 332 -131s156 -178.666 156 -274c0 -36 -26 -82.667 -78 -140c-52 -60 -97 -91.333 -135 -94l-9 12v78c0 66 -27.167 131.667 -81.5 197s-121.166 98 -200.499 98c-150 0 -286.667 -97 -410 -291
c-125.333 -194 -188 -426 -188 -696c0 -333.333 132.333 -672 397 -1016c156 -202 403.333 -453 742 -753c267.333 -238 401 -384.333 401 -439zM1026 -656.999c0 -112 -46.333 -210.335 -139 -295.002s-200.667 -127 -324 -127c-57.333 0 -122.666 17.667 -195.999 53
c-74 32.667 -111 68 -111 106c0 52 27.333 78 82 78l114.5 -98c35.667 -30 72.5 -45 110.5 -45c52 0 105.333 24.5 160 73.5s82 105.167 82 168.5c0 40.667 -15 76 -45 106c-32.667 30 -73.667 45 -123 45c-32.667 0 -64 -6.66699 -94 -20c-11.333 -5.33301 -25 -8 -41 -8
c-10.667 0 -24.334 13.333 -41.001 40c-19.333 24.667 -29 45.334 -29 62.001c0 22 16.333 57.333 49 106c30 46.667 69.667 97.334 119 152.001h135l-90 -152l86 9c82 0 151.667 -22 209 -66c57.333 -43.333 86 -106 86 -188z" />
    <glyph glyph-name="Egrave" unicode="&#xc8;" 
d="M1540 426c0 -40.667 -21.666 -121.333 -64.999 -242c-14 -38 -37.333 -95.333 -70 -172h-1286c0 24.667 6.66699 50.667 20 78c32.667 65.333 49 121.333 49 168v1933c0 63.333 -8.16699 114 -24.5 152l-44.5 106h1179c30 -76 52 -133.333 66 -172
c44 -117.333 66 -181.333 66 -192l-17 -12c-24.667 32.667 -46.334 57 -65.001 73c-60.667 52 -119.667 78 -177 78h-692c-32.667 0 -51.667 -5.33301 -57 -16c-8 -16.667 -12 -64.667 -12 -144v-581c0 -128.667 23 -193 69 -193c27.333 0 135.166 42.333 323.499 127
s297.5 127 327.5 127c22 0 33 -15 33 -45v-328c0 -38 -11 -57 -33 -57c-2.66699 0 -16.167 15 -40.5 45s-65.166 45 -122.499 45c-79.333 0 -191.333 -35.333 -336 -106c-147.333 -74 -221 -139.667 -221 -197v-528c0 -96 31.333 -144 94 -144h745
c44 0 90.667 19.333 140 58zM969.001 2687c0 -40.667 -17.666 -61 -52.999 -61c-82 0 -187.333 68.333 -316 205c-130.667 133.333 -196 233 -196 299c0 18.667 23 41.667 69 69c46.667 24.667 87.667 37 123 37c41.333 0 79.666 -42.333 114.999 -127
c54.667 -128 103.667 -222 147 -282c5.33301 -8.66699 31.333 -34.667 78 -78c22 -22 33 -42.667 33 -62z" />
    <glyph glyph-name="Eacute" unicode="&#xc9;" 
d="M1540 426c0 -40.667 -21.666 -121.333 -64.999 -242c-14 -38 -37.333 -95.333 -70 -172h-1286c0 24.667 6.66699 50.667 20 78c32.667 65.333 49 121.333 49 168v1933c0 63.333 -8.16699 114 -24.5 152l-44.5 106h1179c30 -76 52 -133.333 66 -172
c44 -117.333 66 -181.333 66 -192l-17 -12c-24.667 32.667 -46.334 57 -65.001 73c-60.667 52 -119.667 78 -177 78h-692c-32.667 0 -51.667 -5.33301 -57 -16c-8 -16.667 -12 -64.667 -12 -144v-581c0 -128.667 23 -193 69 -193c27.333 0 135.166 42.333 323.499 127
s297.5 127 327.5 127c22 0 33 -15 33 -45v-328c0 -38 -11 -57 -33 -57c-2.66699 0 -16.167 15 -40.5 45s-65.166 45 -122.499 45c-79.333 0 -191.333 -35.333 -336 -106c-147.333 -74 -221 -139.667 -221 -197v-528c0 -96 31.333 -144 94 -144h745
c44 0 90.667 19.333 140 58zM1165 3068c0 -60 -77.668 -150 -233.001 -270c-158.667 -122.667 -274.667 -184 -348 -184c-33.333 0 -50 13.667 -50 41c0 13.333 12.333 35 37 65c79.333 60 149 142 209 246c95.333 164 158.333 246 189 246c35.333 0 76 -15 122 -45
c46.667 -33.333 71.334 -66.333 74.001 -99z" />
    <glyph glyph-name="Ecircumflex" unicode="&#xca;" 
d="M1540 426c0 -40.667 -21.666 -121.333 -64.999 -242c-14 -38 -37.333 -95.333 -70 -172h-1286c0 24.667 6.66699 50.667 20 78c32.667 65.333 49 121.333 49 168v1933c0 63.333 -8.16699 114 -24.5 152l-44.5 106h1179c30 -76 52 -133.333 66 -172
c44 -117.333 66 -181.333 66 -192l-17 -12c-24.667 32.667 -46.334 57 -65.001 73c-60.667 52 -119.667 78 -177 78h-692c-32.667 0 -51.667 -5.33301 -57 -16c-8 -16.667 -12 -64.667 -12 -144v-581c0 -128.667 23 -193 69 -193c27.333 0 135.166 42.333 323.499 127
s297.5 127 327.5 127c22 0 33 -15 33 -45v-328c0 -38 -11 -57 -33 -57c-2.66699 0 -16.167 15 -40.5 45s-65.166 45 -122.499 45c-79.333 0 -191.333 -35.333 -336 -106c-147.333 -74 -221 -139.667 -221 -197v-528c0 -96 31.333 -144 94 -144h745
c44 0 90.667 19.333 140 58zM1264 2712c0 -24.667 -12.335 -46.668 -37.002 -66.001c-27.333 -19.333 -54.666 -29 -81.999 -29c-155.333 0 -291.666 130 -408.999 390c-57.333 -93.333 -124.333 -178 -201 -254c-90 -90.667 -163.667 -136 -221 -136
c-32.667 0 -49 15.333 -49 46c0 54 20.333 93.333 61 118c98 54.667 185.333 131.334 262 230.001c126 163.333 210.667 245 254 245c46.667 0 89 -65.5 127 -196.5s121.333 -227.833 250 -290.5c30 -16.667 45 -35.667 45 -57z" />
    <glyph glyph-name="Edieresis" unicode="&#xcb;" 
d="M1540 426c0 -40.667 -21.666 -121.333 -64.999 -242c-14 -38 -37.333 -95.333 -70 -172h-1286c0 24.667 6.66699 50.667 20 78c32.667 65.333 49 121.333 49 168v1933c0 63.333 -8.16699 114 -24.5 152l-44.5 106h1179c30 -76 52 -133.333 66 -172
c44 -117.333 66 -181.333 66 -192l-17 -12c-24.667 32.667 -46.334 57 -65.001 73c-60.667 52 -119.667 78 -177 78h-692c-32.667 0 -51.667 -5.33301 -57 -16c-8 -16.667 -12 -64.667 -12 -144v-581c0 -128.667 23 -193 69 -193c27.333 0 135.166 42.333 323.499 127
s297.5 127 327.5 127c22 0 33 -15 33 -45v-328c0 -38 -11 -57 -33 -57c-2.66699 0 -16.167 15 -40.5 45s-65.166 45 -122.499 45c-79.333 0 -191.333 -35.333 -336 -106c-147.333 -74 -221 -139.667 -221 -197v-528c0 -96 31.333 -144 94 -144h745
c44 0 90.667 19.333 140 58zM1288 2884c0 -54.667 -17.667 -108.001 -53 -160.001s-80.333 -78 -135 -78s-102.5 23.167 -143.5 69.5s-61.5 98.166 -61.5 155.5c0 60.667 19 115.334 57 164.001c38.667 49.333 88 74 148 74c49.333 0 93 -24.667 131 -74
c38 -48.667 57 -99 57 -151zM649.001 2884c0 -63.333 -16.333 -118 -49 -164c-32.667 -49.333 -79 -74 -139 -74c-52 0 -98.333 23.333 -139 70c-44 43.333 -66 95 -66 155c0 57.333 22 112 66 164c40.667 49.333 87 74 139 74s97 -22 135 -66c35.333 -46 53 -99 53 -159z
" />
    <glyph glyph-name="Igrave" unicode="&#xcc;" horiz-adv-x="795" 
d="M602 0h-377c0 46.667 13.667 97.334 41 152.001c24.667 54 37 89.333 37 106v1933c0 22 -12.333 57.667 -37 107c-27.333 49.333 -41 98.333 -41 147h377c0 -54.667 -13.667 -106.5 -41 -155.5s-41 -81.833 -41 -98.5v-1933c0 -16.667 17.667 -64.334 53 -143.001
c19.333 -44 29 -82.333 29 -115zM539 2760c0 -40.667 -17.666 -61 -52.999 -61c-82 0 -187.333 68.333 -316 205c-130.667 133.333 -196 233 -196 299c0 18.667 23 41.667 69 69c46.667 24.667 87.667 37 123 37c41.333 0 79.666 -42.333 114.999 -127
c54.667 -128 103.667 -222 147 -282c5.33301 -8.66699 31.333 -34.667 78 -78c22 -22 33 -42.667 33 -62z" />
    <glyph glyph-name="Iacute" unicode="&#xcd;" horiz-adv-x="795" 
d="M602 0h-377c0 46.667 13.667 97.334 41 152.001c24.667 54 37 89.333 37 106v1933c0 22 -12.333 57.667 -37 107c-27.333 49.333 -41 98.333 -41 147h377c0 -54.667 -13.667 -106.5 -41 -155.5s-41 -81.833 -41 -98.5v-1933c0 -16.667 17.667 -64.334 53 -143.001
c19.333 -44 29 -82.333 29 -115zM882 3145c0 -60 -77.668 -150 -233.001 -270c-158.667 -122.667 -274.667 -184 -348 -184c-33.333 0 -50 13.667 -50 41c0 13.333 12.333 35 37 65c79.333 60 149 142 209 246c95.333 164 158.333 246 189 246c35.333 0 76 -15 122 -45
c46.667 -33.333 71.334 -66.333 74.001 -99z" />
    <glyph glyph-name="Icircumflex" unicode="&#xce;" horiz-adv-x="795" 
d="M602 0h-377c0 46.667 13.667 97.334 41 152.001c24.667 54 37 89.333 37 106v1933c0 22 -12.333 57.667 -37 107c-27.333 49.333 -41 98.333 -41 147h377c0 -54.667 -13.667 -106.5 -41 -155.5s-41 -81.833 -41 -98.5v-1933c0 -16.667 17.667 -64.334 53 -143.001
c19.333 -44 29 -82.333 29 -115zM915 2708c0 -24.667 -12.335 -46.667 -37.002 -66c-27.333 -19.333 -54.666 -29 -81.999 -29c-155.333 0 -291.666 130 -408.999 390c-57.333 -93.333 -124.333 -178 -201 -254c-90 -90.667 -163.667 -136 -221 -136
c-32.667 0 -49 15.333 -49 46c0 54 20.333 93.333 61 118c98 54.667 185.333 131.334 262 230c126 163.333 210.667 245 254 245c46.667 0 89 -65.5 127 -196.5s121.333 -227.833 250 -290.5c30 -16.667 45 -35.667 45 -57z" />
    <glyph glyph-name="Idieresis" unicode="&#xcf;" horiz-adv-x="795" 
d="M602 0h-377c0 46.667 13.667 97.334 41 152.001c24.667 54 37 89.333 37 106v1933c0 22 -12.333 57.667 -37 107c-27.333 49.333 -41 98.333 -41 147h377c0 -54.667 -13.667 -106.5 -41 -155.5s-41 -81.833 -41 -98.5v-1933c0 -16.667 17.667 -64.334 53 -143.001
c19.333 -44 29 -82.333 29 -115zM952 2880c0 -54.667 -17.667 -108 -53 -160s-80.333 -78 -135 -78s-102.5 23.167 -143.5 69.5s-61.5 98.166 -61.5 155.5c0 60.667 19 115.334 57 164c38.667 49.333 88 74 148 74c49.333 0 93 -24.667 131 -74c38 -48.667 57 -99 57 -151z
M313 2880c0 -63.333 -16.333 -118 -49 -164c-32.667 -49.333 -79 -74 -139 -74c-52 0 -98.333 23.333 -139 70c-44 43.333 -66 95 -66 155c0 57.333 22 112 66 164c40.667 49.333 87 74 139 74s97 -22 135 -66c35.333 -46 53 -99 53 -159z" />
    <glyph glyph-name="Eth" unicode="&#xd0;" horiz-adv-x="1831" 
d="M1729 1044c0 -349.333 -98.332 -610 -294.999 -782s-505.334 -258 -926.001 -258l-369 -8c0 52 12.333 105.333 37 160c22 51.333 33 85.333 33 102v922h-250v106h250v905c0 19.333 -11 44 -33 74c-52 71.333 -78 124.666 -78 159.999c0 16 11 24 33 24
c2.66699 0 64 -17.667 184 -53c54.667 -16 93 -24 115 -24c322 0 619.667 -139.333 893 -418c270.667 -281.333 406 -584.666 406 -909.999zM1458 1044c0 246 -99.6689 477 -299.002 693c-202 212.667 -397.333 319 -586 319c-95.333 0 -143 -45 -143 -135v-635h426v-106
h-426v-738c0 -40.667 27.333 -74.667 82 -102c54.667 -30 128.334 -45 221.001 -45c196.667 0 367.334 71 512.001 213c142 139.333 213 318 213 536z" />
    <glyph glyph-name="Ntilde" unicode="&#xd1;" horiz-adv-x="1659" 
d="M1651 2347c-90 0 -180.336 -47.667 -271.003 -143c-92.667 -98.667 -139 -199.667 -139 -303v-1721c0 -117.333 -17.667 -176 -53 -176c-49.333 0 -121.666 140.667 -216.999 422l-283 827c-112 292.667 -207.667 439 -287 439c-8 -33.333 -12 -55.333 -12 -66v-2564
c0 -22 -36.833 -56.167 -110.5 -102.5s-128.167 -69.5 -163.5 -69.5c0 19.333 10.667 49.333 32 90c22 41.333 33 77 33 107v3113c0 24 -8 59.333 -24 106l-50 135l17 8c62.667 -43.333 143.334 -80 242.001 -110c70.667 -22 111.334 -44 122.001 -66l480 -1212
c13.333 -38 25.666 -65.333 36.999 -82c10.667 -19.333 21.334 -29 32.001 -29c8.66699 0 15.667 12.333 21 37s8 46.667 8 66v848c0 138.667 32.667 271 98 397c66 125.333 152 223.666 258 295c22 0 65.667 -34.333 131 -103c63.333 -70.667 96.333 -118.334 99 -143z
M1243 2982c0 -82 -25.999 -158.667 -77.999 -230c-60 -82 -131 -123 -213 -123c-46 0 -96.333 16.333 -151 49c-126 74 -206.667 111 -242 111c-46.667 0 -90.334 -16.333 -131.001 -49l-123 -102c-27.333 0 -41 13.333 -41 40c0 74 37 148 111 222
c70.667 70.667 147 106 229 106c35.333 0 98 -26 188 -78c90.667 -51.333 151 -77 181 -77c51.333 0 97.5 28.667 138.5 86s71.167 86 90.5 86c27.333 0 41 -13.667 41 -41z" />
    <glyph glyph-name="Ograve" unicode="&#xd2;" horiz-adv-x="1659" 
d="M1589 1229c0 -352.667 -66.832 -643.668 -200.499 -873.001s-315.167 -344 -544.5 -344c-226.667 0 -412.334 114.667 -557.001 344s-217 520.333 -217 873c0 349.333 72.333 640 217 872c142 232 327.667 348 557 348c221.333 0 401.333 -113.333 540 -340
c136.667 -229.333 205 -522.666 205 -879.999zM1384 1237c0 286.667 -47.6689 521.499 -143.002 704.499s-227.666 274.5 -396.999 274.5c-172 0 -312.667 -93 -422 -279c-109.333 -185.333 -164 -418.666 -164 -699.999c0 -284 54.667 -516 164 -696
c106.667 -183.333 247.334 -275 422.001 -275c164 0 295 88.667 393 266c98 178 147 413 147 705zM976.999 2662c0 -40.667 -17.666 -61 -52.999 -61c-82 0 -187.333 68.333 -316 205c-130.667 133.333 -196 233 -196 299c0 18.667 23 41.667 69 69
c46.667 24.667 87.667 37 123 37c41.333 0 79.666 -42.333 114.999 -127c54.667 -128 103.667 -222 147 -282c5.33301 -8.66699 31.333 -34.667 78 -78c22 -22 33 -42.667 33 -62z" />
    <glyph glyph-name="Oacute" unicode="&#xd3;" horiz-adv-x="1659" 
d="M1589 1229c0 -352.667 -66.832 -643.668 -200.499 -873.001s-315.167 -344 -544.5 -344c-226.667 0 -412.334 114.667 -557.001 344s-217 520.333 -217 873c0 349.333 72.333 640 217 872c142 232 327.667 348 557 348c221.333 0 401.333 -113.333 540 -340
c136.667 -229.333 205 -522.666 205 -879.999zM1384 1237c0 286.667 -47.6689 521.499 -143.002 704.499s-227.666 274.5 -396.999 274.5c-172 0 -312.667 -93 -422 -279c-109.333 -185.333 -164 -418.666 -164 -699.999c0 -284 54.667 -516 164 -696
c106.667 -183.333 247.334 -275 422.001 -275c164 0 295 88.667 393 266c98 178 147 413 147 705zM1186 3096c0 -60 -77.668 -150 -233.001 -270c-158.667 -122.667 -274.667 -184 -348 -184c-33.333 0 -50 13.667 -50 41c0 13.333 12.333 35 37 65
c79.333 60 149 142 209 246c95.333 164 158.333 246 189 246c35.333 0 76 -15 122 -45c46.667 -33.333 71.334 -66.333 74.001 -99z" />
    <glyph glyph-name="Ocircumflex" unicode="&#xd4;" horiz-adv-x="1659" 
d="M1589 1229c0 -352.667 -66.832 -643.668 -200.499 -873.001s-315.167 -344 -544.5 -344c-226.667 0 -412.334 114.667 -557.001 344s-217 520.333 -217 873c0 349.333 72.333 640 217 872c142 232 327.667 348 557 348c221.333 0 401.333 -113.333 540 -340
c136.667 -229.333 205 -522.666 205 -879.999zM1384 1237c0 286.667 -47.6689 521.499 -143.002 704.499s-227.666 274.5 -396.999 274.5c-172 0 -312.667 -93 -422 -279c-109.333 -185.333 -164 -418.666 -164 -699.999c0 -284 54.667 -516 164 -696
c106.667 -183.333 247.334 -275 422.001 -275c164 0 295 88.667 393 266c98 178 147 413 147 705zM1350 2667c0 -24.667 -12.335 -46.667 -37.002 -66c-27.333 -19.333 -54.666 -29 -81.999 -29c-155.333 0 -291.666 130 -408.999 390
c-57.333 -93.333 -124.333 -178 -201 -254c-90 -90.667 -163.667 -136 -221 -136c-32.667 0 -49 15.333 -49 46c0 54 20.333 93.333 61 118c98 54.667 185.333 131.334 262 230c126 163.333 210.667 245 254 245c46.667 0 89 -65.5 127 -196.5s121.333 -227.833 250 -290.5
c30 -16.667 45 -35.667 45 -57z" />
    <glyph glyph-name="Otilde" unicode="&#xd5;" horiz-adv-x="1659" 
d="M1589 1229c0 -352.667 -66.832 -643.668 -200.499 -873.001s-315.167 -344 -544.5 -344c-226.667 0 -412.334 114.667 -557.001 344s-217 520.333 -217 873c0 349.333 72.333 640 217 872c142 232 327.667 348 557 348c221.333 0 401.333 -113.333 540 -340
c136.667 -229.333 205 -522.666 205 -879.999zM1384 1237c0 286.667 -47.6689 521.499 -143.002 704.499s-227.666 274.5 -396.999 274.5c-172 0 -312.667 -93 -422 -279c-109.333 -185.333 -164 -418.666 -164 -699.999c0 -284 54.667 -516 164 -696
c106.667 -183.333 247.334 -275 422.001 -275c164 0 295 88.667 393 266c98 178 147 413 147 705zM1341 2978c0 -82 -25.999 -158.667 -77.999 -230c-60 -82 -131 -123 -213 -123c-46 0 -96.333 16.333 -151 49c-126 74 -206.667 111 -242 111
c-46.667 0 -90.334 -16.333 -131.001 -49l-123 -102c-27.333 0 -41 13.333 -41 40c0 74 37 148 111 222c70.667 70.667 147 106 229 106c35.333 0 98 -26 188 -78c90.667 -51.333 151 -77 181 -77c51.333 0 97.5 28.667 138.5 86s71.167 86 90.5 86
c27.333 0 41 -13.667 41 -41z" />
    <glyph glyph-name="Odieresis" unicode="&#xd6;" horiz-adv-x="1659" 
d="M1589 1229c0 -352.667 -66.832 -643.668 -200.499 -873.001s-315.167 -344 -544.5 -344c-226.667 0 -412.334 114.667 -557.001 344s-217 520.333 -217 873c0 349.333 72.333 640 217 872c142 232 327.667 348 557 348c221.333 0 401.333 -113.333 540 -340
c136.667 -229.333 205 -522.666 205 -879.999zM1384 1237c0 286.667 -47.6689 521.499 -143.002 704.499s-227.666 274.5 -396.999 274.5c-172 0 -312.667 -93 -422 -279c-109.333 -185.333 -164 -418.666 -164 -699.999c0 -284 54.667 -516 164 -696
c106.667 -183.333 247.334 -275 422.001 -275c164 0 295 88.667 393 266c98 178 147 413 147 705zM1360 2843c0 -54.667 -17.667 -108 -53 -160s-80.333 -78 -135 -78s-102.5 23.167 -143.5 69.5s-61.5 98.166 -61.5 155.5c0 60.667 19 115.334 57 164
c38.667 49.333 88 74 148 74c49.333 0 93 -24.667 131 -74c38 -48.667 57 -99 57 -151zM720.999 2843c0 -63.333 -16.333 -118 -49 -164c-32.667 -49.333 -79 -74 -139 -74c-52 0 -98.333 23.333 -139 70c-44 43.333 -66 95 -66 155c0 57.333 22 112 66 164
c40.667 49.333 87 74 139 74s97 -22 135 -66c35.333 -46 53 -99 53 -159z" />
    <glyph glyph-name="multiply" unicode="&#xd7;" horiz-adv-x="1470" 
d="M1384 754l-372.003 0.00390625c0 30 9.33301 50.333 28 61c2.66699 0 8.33398 1.33301 17.001 4c0 19.333 -9.66699 38.666 -29 57.999l-299 327l-307 -332c-8 -8 -15 -18.667 -21 -32v-13c0 -8 5.66699 -17.333 17 -28c13.333 -14 20 -29 20 -45h-364
c0 27.333 16.333 51.666 49 72.999c30 19.333 50.333 34.333 61 45l426 459l-200 225c-33.333 38.667 -82.666 69 -147.999 91l-110 32c0 11.333 20.333 32 61 62c82 60 142 92.667 180 98c24.667 -2.66699 90.334 -76.334 197.001 -221.001
c60 -82 103.667 -136.667 131 -164l299 320c2.66699 2.66699 5.33398 12 8.00098 28c0 5.33301 -12.333 16.333 -37 33c-27.333 13.333 -41 27 -41 41l8 16h365c0 -38 -11 -63.667 -33 -77c-24.667 -16.667 -41 -30.334 -49 -41.001l-401 -439l430 -458
c5.33301 -6 29.666 -24 72.999 -54c27.333 -18.667 41 -41.667 41 -69z" />
    <glyph glyph-name="Oslash" unicode="&#xd8;" horiz-adv-x="1659" 
d="M1638 2626c-13.333 -27.333 -44.666 -80.666 -93.999 -159.999l-192 -295c73.333 -117.333 132 -259.333 176 -426c40.667 -169.333 61 -341.333 61 -516c0 -352.667 -65.333 -640.667 -196 -864c-139.333 -235.333 -322.333 -353 -549 -353
c-92.667 0 -178.667 20.667 -258 62c-82 38 -160 102 -234 192c-24.667 -48.667 -72.334 -204.334 -143.001 -467.001c-19.333 -73.333 -44 -110 -74 -110c-62.667 0 -94 38 -94 114c0 82 75 278.667 225 590c-130.667 229.333 -196 508 -196 836
c0 349.333 72.333 640 217 872c142 232 327.667 348 557 348c169.333 0 307 -61.333 413 -184l222 406l12 24c13.333 16.667 32.333 25 57 25c19.333 0 38.666 -8.33301 57.999 -25c18.667 -19.333 29.334 -42.333 32.001 -69zM1147 2068
c-84.667 98.667 -185.666 147.999 -302.999 147.999c-174.667 0 -315.334 -91.333 -422.001 -274c-109.333 -186 -164 -421 -164 -705c0 -237.333 39.667 -440.666 119 -609.999l311 598l316 581zM1384 1237c0 144.667 -11.999 278.333 -35.999 401
c-27.333 120.667 -68.333 227.334 -123 320.001c-144.667 -237.333 -288 -491.333 -430 -762c-120.667 -229.333 -235.334 -464 -344.001 -704c54 -71.333 111.333 -126 172 -164c60 -41.333 133.667 -62 221 -62c164 0 295 90.333 393 271
c98 177.333 147 410.666 147 699.999z" />
    <glyph glyph-name="Ugrave" unicode="&#xd9;" horiz-adv-x="1745" 
d="M1659 20c-8 -5.33301 -13.667 -9.33398 -17 -12.001c-13.333 -8 -31 -12 -53 -12l-229 16h-569c-186 0 -350 73.667 -492 221c-142 148 -213 317.333 -213 508c0 153.333 62.667 351.333 188 594c126 243.333 189 396.333 189 459c0 125.333 -57.333 245.333 -172 360
c5.33301 36 30 81.333 74 136c40.667 54.667 73.334 82 98.001 82c43.333 0 91 -60.333 143 -181c52 -120 78 -230.333 78 -331c0 -126 -38.333 -281.667 -115 -467c-166.667 -407.333 -250 -624.666 -250 -651.999c0 -122.667 39.667 -227.667 119 -315
c117.333 -131.333 301.666 -197 552.999 -197c96 0 172.667 3 230 9c54.667 5.33301 103.667 12 147 20v1913c0 22 -19 71 -57 147c-19.333 38.667 -29 77 -29 115h377c0 -57.333 -12.333 -110.666 -37 -159.999c-27.333 -48.667 -41 -82.667 -41 -102v-2060
c0 -8.66699 13.667 -22.334 41 -41.001c24.667 -22 37 -38.667 37 -50zM1192 2650c0 -40.667 -17.666 -61 -52.999 -61c-82 0 -187.333 68.333 -316 205c-130.667 133.333 -196 233 -196 299c0 18.667 23 41.667 69 69c46.667 24.667 87.667 37 123 37
c41.333 0 79.666 -42.333 114.999 -127c54.667 -128 103.667 -222 147 -282c5.33301 -8.66699 31.333 -34.667 78 -78c22 -22 33 -42.667 33 -62z" />
    <glyph glyph-name="Uacute" unicode="&#xda;" horiz-adv-x="1745" 
d="M1659 20c-8 -5.33301 -13.667 -9.33398 -17 -12.001c-13.333 -8 -31 -12 -53 -12l-229 16h-569c-186 0 -350 73.667 -492 221c-142 148 -213 317.333 -213 508c0 153.333 62.667 351.333 188 594c126 243.333 189 396.333 189 459c0 125.333 -57.333 245.333 -172 360
c5.33301 36 30 81.333 74 136c40.667 54.667 73.334 82 98.001 82c43.333 0 91 -60.333 143 -181c52 -120 78 -230.333 78 -331c0 -126 -38.333 -281.667 -115 -467c-166.667 -407.333 -250 -624.666 -250 -651.999c0 -122.667 39.667 -227.667 119 -315
c117.333 -131.333 301.666 -197 552.999 -197c96 0 172.667 3 230 9c54.667 5.33301 103.667 12 147 20v1913c0 22 -19 71 -57 147c-19.333 38.667 -29 77 -29 115h377c0 -57.333 -12.333 -110.666 -37 -159.999c-27.333 -48.667 -41 -82.667 -41 -102v-2060
c0 -8.66699 13.667 -22.334 41 -41.001c24.667 -22 37 -38.667 37 -50zM1331 3072c0 -60 -77.668 -150 -233.001 -270c-158.667 -122.667 -274.667 -184 -348 -184c-33.333 0 -50 13.667 -50 41c0 13.333 12.333 35 37 65c79.333 60 149 142 209 246
c95.333 164 158.333 246 189 246c35.333 0 76 -15 122 -45c46.667 -33.333 71.334 -66.333 74.001 -99z" />
    <glyph glyph-name="Ucircumflex" unicode="&#xdb;" horiz-adv-x="1745" 
d="M1659 20c-8 -5.33301 -13.667 -9.33398 -17 -12.001c-13.333 -8 -31 -12 -53 -12l-229 16h-569c-186 0 -350 73.667 -492 221c-142 148 -213 317.333 -213 508c0 153.333 62.667 351.333 188 594c126 243.333 189 396.333 189 459c0 125.333 -57.333 245.333 -172 360
c5.33301 36 30 81.333 74 136c40.667 54.667 73.334 82 98.001 82c43.333 0 91 -60.333 143 -181c52 -120 78 -230.333 78 -331c0 -126 -38.333 -281.667 -115 -467c-166.667 -407.333 -250 -624.666 -250 -651.999c0 -122.667 39.667 -227.667 119 -315
c117.333 -131.333 301.666 -197 552.999 -197c96 0 172.667 3 230 9c54.667 5.33301 103.667 12 147 20v1913c0 22 -19 71 -57 147c-19.333 38.667 -29 77 -29 115h377c0 -57.333 -12.333 -110.666 -37 -159.999c-27.333 -48.667 -41 -82.667 -41 -102v-2060
c0 -8.66699 13.667 -22.334 41 -41.001c24.667 -22 37 -38.667 37 -50zM1434 2712c0 -24.667 -12.335 -46.668 -37.002 -66.001c-27.333 -19.333 -54.666 -29 -81.999 -29c-155.333 0 -291.666 130 -408.999 390c-57.333 -93.333 -124.333 -178 -201 -254
c-90 -90.667 -163.667 -136 -221 -136c-32.667 0 -49 15.333 -49 46c0 54 20.333 93.333 61 118c98 54.667 185.333 131.334 262 230.001c126 163.333 210.667 245 254 245c46.667 0 89 -65.5 127 -196.5s121.333 -227.833 250 -290.5c30 -16.667 45 -35.667 45 -57z" />
    <glyph glyph-name="Udieresis" unicode="&#xdc;" horiz-adv-x="1745" 
d="M1659 20c-8 -5.33301 -13.667 -9.33398 -17 -12.001c-13.333 -8 -31 -12 -53 -12l-229 16h-569c-186 0 -350 73.667 -492 221c-142 148 -213 317.333 -213 508c0 153.333 62.667 351.333 188 594c126 243.333 189 396.333 189 459c0 125.333 -57.333 245.333 -172 360
c5.33301 36 30 81.333 74 136c40.667 54.667 73.334 82 98.001 82c43.333 0 91 -60.333 143 -181c52 -120 78 -230.333 78 -331c0 -126 -38.333 -281.667 -115 -467c-166.667 -407.333 -250 -624.666 -250 -651.999c0 -122.667 39.667 -227.667 119 -315
c117.333 -131.333 301.666 -197 552.999 -197c96 0 172.667 3 230 9c54.667 5.33301 103.667 12 147 20v1913c0 22 -19 71 -57 147c-19.333 38.667 -29 77 -29 115h377c0 -57.333 -12.333 -110.666 -37 -159.999c-27.333 -48.667 -41 -82.667 -41 -102v-2060
c0 -8.66699 13.667 -22.334 41 -41.001c24.667 -22 37 -38.667 37 -50zM1466 2892c0 -54.667 -17.667 -108.001 -53 -160.001s-80.333 -78 -135 -78s-102.5 23.167 -143.5 69.5s-61.5 98.166 -61.5 155.5c0 60.667 19 115.334 57 164.001c38.667 49.333 88 74 148 74
c49.333 0 93 -24.667 131 -74c38 -48.667 57 -99 57 -151zM827 2892c0 -63.333 -16.333 -118 -49 -164c-32.667 -49.333 -79 -74 -139 -74c-52 0 -98.333 23.333 -139 70c-44 43.333 -66 95 -66 155c0 57.333 22 112 66 164c40.667 49.333 87 74 139 74s97 -22 135 -66
c35.333 -46 53 -99 53 -159z" />
    <glyph glyph-name="Yacute.0" unicode="&#xdd;" horiz-adv-x="2081" 
d="M2044 2384l-56.9971 0.000976562c-120.667 0 -253.334 -112 -398.001 -336c-114.667 -174.667 -225.334 -398.667 -332.001 -672c-87.333 -221.333 -143 -392 -167 -512v-606c0 -2.66699 20.333 -45 61 -127c19.333 -38 29 -81.667 29 -131h-373
c0 52 5.33301 91.667 16 119c32.667 79.333 49 125.666 49 138.999v594l-667 1339c-30 63.333 -47.667 101.666 -53 114.999c-14 46.667 -21 93 -21 139h373c0 -43.333 -26 -102 -78 -176c-10.667 -13.333 -16 -28.333 -16 -45c0 -10.667 2.66699 -21.667 8 -33l446 -909
c16.667 -35.333 36 -68 58 -98c5.33301 -8.66699 14.666 -21 27.999 -37l119 295c98.667 242.667 195.667 447.334 291 614.001c142 248.667 281.333 422 418 520c24.667 0 75 -25.667 151 -77c76.667 -54.667 115 -93 115 -115zM1392 3076
c0 -60 -77.668 -150 -233.001 -270c-158.667 -122.667 -274.667 -184 -348 -184c-33.333 0 -50 13.667 -50 41c0 13.333 12.333 35 37 65c79.333 60 149 142 209 246c95.333 164 158.333 246 189 246c35.333 0 76 -15 122 -45c46.667 -33.333 71.334 -66.333 74.001 -99z
" />
    <glyph glyph-name="Thorn" unicode="&#xde;" 
d="M1516 1610c0 -216 -99.668 -426.334 -299.001 -631.001c-58 -57.333 -242.333 -207.666 -553 -450.999c-202.667 -155.333 -304 -280.666 -304 -375.999v-824c0 -16 -36.667 -48.667 -110 -98c-74 -52 -127.333 -78 -160 -78c0 11.333 12.333 51 37 119
c13.333 38 20 68 20 90v3523c0 16 -8 32.333 -24 49c-38 35.333 -57 57 -57 65c0 19.333 27 34.333 81 45c54.667 11.333 124.334 17 209.001 17v-656h299c262.667 0 471.667 -68 627 -204c156 -136.667 234 -333.334 234 -590.001zM1311 1593
c0 183.333 -65.667 328.333 -197 435c-134 103.333 -310 155 -528 155c-68.667 0 -123.5 -4 -164.5 -12s-61.5 -24.333 -61.5 -49v-1340c0 -40.667 13.667 -61 41 -61c123.333 0 302.333 105 537 315c248.667 221.333 373 407 373 557z" />
    <glyph glyph-name="germandbls" unicode="&#xdf;" horiz-adv-x="1597" 
d="M1511 393c0 -152.667 -57.334 -278.333 -172.001 -377c-117.333 -100.667 -263.333 -151 -438 -151c-106.667 0 -203.667 31.333 -291 94c-87.333 60 -131 135 -131 225c0 24.667 8.16699 48 24.5 70s36.833 33 61.5 33c44 0 66 -16.333 66 -49l-8 -74
c0 -60 21.667 -110.667 65 -152c41.333 -43.333 97.333 -65 168 -65c98.667 0 184.667 45 258 135c74 90 111 200.667 111 332c0 190.667 -90.333 328.334 -271 413.001l-393 140c0 51.333 22 77 66 77l37 -4c152.667 0 267.334 59 344.001 177
c73.333 117.333 110 315 110 593c0 202.667 -20.333 359.667 -61 471c-44 109.333 -108.333 164 -193 164c-117.333 0 -223.666 -200.667 -318.999 -602c-96 -404 -144 -824.333 -144 -1261l-16 -1586c0 -16 7 -36.333 21 -61c10.667 -24.667 16 -45 16 -61
c0 -30 -16.333 -56 -49 -78s-68.334 -33 -107.001 -33c-27.333 0 -57.333 11 -90 33c-35.333 22 -53 46.667 -53 74l20 520l25 1151c0 603.333 54.667 1101.67 164 1495c109.333 390 256.666 585 441.999 585c27.333 0 53.333 -9.33301 78 -28
c79.333 -62.667 142 -101 188 -115c104 -54.667 186 -139.334 246 -254c57.333 -117.333 86 -267.333 86 -450c0 -246 -46.333 -431.667 -139 -557c-92.667 -128.667 -245.667 -212 -459 -250c234.667 -30 416.334 -94.333 545.001 -193c128 -98 192 -225 192 -381z" />
    <glyph glyph-name="agrave" unicode="&#xe0;" horiz-adv-x="1266" 
d="M1237 37l-24.998 -25.001h-577c-158.667 0 -288.334 39.667 -389.001 119c-104 79.333 -156 183 -156 311c0 186 143.333 362.333 430 529c284 164 426 289.667 426 377c0 48.667 -19 92.334 -57 131.001c-41.333 35.333 -82.333 53 -123 53h-328
c-46 0 -88.333 -28.667 -127 -86c-5.33301 -8 -13.333 -23 -24 -45l-33 258v29c-2.66699 27.333 2.66602 47.666 15.999 60.999c16.667 13.333 59 20 127 20h496c65.333 0 124 -28.667 176 -86c49.333 -60 74 -137.667 74 -233v-1171c0 -30.667 9.33301 -65 28 -103
c44 -87.333 66 -133.666 66 -138.999zM946.002 249.999v655.001l-37 8c-98 0 -225 -53 -381 -159c-155.333 -109.333 -233 -210.333 -233 -303c0 -84.667 47.667 -150.334 143 -197.001c79.333 -38 171 -57 275 -57c65.333 0 121.333 5.33301 168 16
c43.333 8 65 20.333 65 37zM871.002 2056c0 -40.667 -17.666 -61 -52.999 -61c-82 0 -187.333 68.333 -316 205c-130.667 133.333 -196 233 -196 299c0 18.667 23 41.667 69 69c46.667 24.667 87.667 37 123 37c41.333 0 79.666 -42.333 114.999 -127
c54.667 -128 103.667 -222 147 -282c5.33301 -8.66699 31.333 -34.667 78 -78c22 -22 33 -42.667 33 -62z" />
    <glyph glyph-name="aacute" unicode="&#xe1;" horiz-adv-x="1266" 
d="M1237 37l-24.998 -25.001h-577c-158.667 0 -288.334 39.667 -389.001 119c-104 79.333 -156 183 -156 311c0 186 143.333 362.333 430 529c284 164 426 289.667 426 377c0 48.667 -19 92.334 -57 131.001c-41.333 35.333 -82.333 53 -123 53h-328
c-46 0 -88.333 -28.667 -127 -86c-5.33301 -8 -13.333 -23 -24 -45l-33 258v29c-2.66699 27.333 2.66602 47.666 15.999 60.999c16.667 13.333 59 20 127 20h496c65.333 0 124 -28.667 176 -86c49.333 -60 74 -137.667 74 -233v-1171c0 -30.667 9.33301 -65 28 -103
c44 -87.333 66 -133.666 66 -138.999zM946.002 249.999v655.001l-37 8c-98 0 -225 -53 -381 -159c-155.333 -109.333 -233 -210.333 -233 -303c0 -84.667 47.667 -150.334 143 -197.001c79.333 -38 171 -57 275 -57c65.333 0 121.333 5.33301 168 16
c43.333 8 65 20.333 65 37zM1112 2447c0 -60 -77.668 -150 -233.001 -270c-158.667 -122.667 -274.667 -184 -348 -184c-33.333 0 -50 13.667 -50 41c0 13.333 12.333 35 37 65c79.333 60 149 142 209 246c95.333 164 158.333 246 189 246c35.333 0 76 -15 122 -45
c46.667 -33.333 71.334 -66.333 74.001 -99z" />
    <glyph glyph-name="acircumflex" unicode="&#xe2;" horiz-adv-x="1266" 
d="M1237 37l-24.998 -25.001h-577c-158.667 0 -288.334 39.667 -389.001 119c-104 79.333 -156 183 -156 311c0 186 143.333 362.333 430 529c284 164 426 289.667 426 377c0 48.667 -19 92.334 -57 131.001c-41.333 35.333 -82.333 53 -123 53h-328
c-46 0 -88.333 -28.667 -127 -86c-5.33301 -8 -13.333 -23 -24 -45l-33 258v29c-2.66699 27.333 2.66602 47.666 15.999 60.999c16.667 13.333 59 20 127 20h496c65.333 0 124 -28.667 176 -86c49.333 -60 74 -137.667 74 -233v-1171c0 -30.667 9.33301 -65 28 -103
c44 -87.333 66 -133.666 66 -138.999zM946.002 249.999v655.001l-37 8c-98 0 -225 -53 -381 -159c-155.333 -109.333 -233 -210.333 -233 -303c0 -84.667 47.667 -150.334 143 -197.001c79.333 -38 171 -57 275 -57c65.333 0 121.333 5.33301 168 16
c43.333 8 65 20.333 65 37zM1235 2063c0 -24.667 -12.335 -46.667 -37.002 -66c-27.333 -19.333 -54.666 -29 -81.999 -29c-155.333 0 -291.666 130 -408.999 390c-57.333 -93.333 -124.333 -178 -201 -254c-90 -90.667 -163.667 -136 -221 -136
c-32.667 0 -49 15.333 -49 46c0 54 20.333 93.333 61 118c98 54.667 185.333 131.334 262 230c126 163.333 210.667 245 254 245c46.667 0 89 -65.5 127 -196.5s121.333 -227.833 250 -290.5c30 -16.667 45 -35.667 45 -57z" />
    <glyph glyph-name="atilde" unicode="&#xe3;" horiz-adv-x="1266" 
d="M1237 37l-24.998 -25.001h-577c-158.667 0 -288.334 39.667 -389.001 119c-104 79.333 -156 183 -156 311c0 186 143.333 362.333 430 529c284 164 426 289.667 426 377c0 48.667 -19 92.334 -57 131.001c-41.333 35.333 -82.333 53 -123 53h-328
c-46 0 -88.333 -28.667 -127 -86c-5.33301 -8 -13.333 -23 -24 -45l-33 258v29c-2.66699 27.333 2.66602 47.666 15.999 60.999c16.667 13.333 59 20 127 20h496c65.333 0 124 -28.667 176 -86c49.333 -60 74 -137.667 74 -233v-1171c0 -30.667 9.33301 -65 28 -103
c44 -87.333 66 -133.666 66 -138.999zM946.002 249.999v655.001l-37 8c-98 0 -225 -53 -381 -159c-155.333 -109.333 -233 -210.333 -233 -303c0 -84.667 47.667 -150.334 143 -197.001c79.333 -38 171 -57 275 -57c65.333 0 121.333 5.33301 168 16
c43.333 8 65 20.333 65 37zM1173 2421c0 -82 -25.999 -158.667 -77.999 -230c-60 -82 -131 -123 -213 -123c-46 0 -96.333 16.333 -151 49c-126 74 -206.667 111 -242 111c-46.667 0 -90.334 -16.333 -131.001 -49l-123 -102c-27.333 0 -41 13.333 -41 40
c0 74 37 148 111 222c70.667 70.667 147 106 229 106c35.333 0 98 -26 188 -78c90.667 -51.333 151 -77 181 -77c51.333 0 97.5 28.667 138.5 86s71.167 86 90.5 86c27.333 0 41 -13.667 41 -41z" />
    <glyph glyph-name="adieresis" unicode="&#xe4;" horiz-adv-x="1266" 
d="M1237 37l-24.998 -25.001h-577c-158.667 0 -288.334 39.667 -389.001 119c-104 79.333 -156 183 -156 311c0 186 143.333 362.333 430 529c284 164 426 289.667 426 377c0 48.667 -19 92.334 -57 131.001c-41.333 35.333 -82.333 53 -123 53h-328
c-46 0 -88.333 -28.667 -127 -86c-5.33301 -8 -13.333 -23 -24 -45l-33 258v29c-2.66699 27.333 2.66602 47.666 15.999 60.999c16.667 13.333 59 20 127 20h496c65.333 0 124 -28.667 176 -86c49.333 -60 74 -137.667 74 -233v-1171c0 -30.667 9.33301 -65 28 -103
c44 -87.333 66 -133.666 66 -138.999zM946.002 249.999v655.001l-37 8c-98 0 -225 -53 -381 -159c-155.333 -109.333 -233 -210.333 -233 -303c0 -84.667 47.667 -150.334 143 -197.001c79.333 -38 171 -57 275 -57c65.333 0 121.333 5.33301 168 16
c43.333 8 65 20.333 65 37zM1202 2265c0 -54.667 -17.667 -108 -53 -160s-80.333 -78 -135 -78s-102.5 23.167 -143.5 69.5s-61.5 98.166 -61.5 155.5c0 60.667 19 115.334 57 164c38.667 49.333 88 74 148 74c49.333 0 93 -24.667 131 -74c38 -48.667 57 -99 57 -151z
M563.002 2265c0 -63.333 -16.333 -118 -49 -164c-32.667 -49.333 -79 -74 -139 -74c-52 0 -98.333 23.333 -139 70c-44 43.333 -66 95 -66 155c0 57.333 22 112 66 164c40.667 49.333 87 74 139 74s97 -22 135 -66c35.333 -46 53 -99 53 -159z" />
    <glyph glyph-name="aring" unicode="&#xe5;" horiz-adv-x="1266" 
d="M1237 37l-24.998 -25.001h-577c-158.667 0 -288.334 39.667 -389.001 119c-104 79.333 -156 183 -156 311c0 186 143.333 362.333 430 529c284 164 426 289.667 426 377c0 48.667 -19 92.334 -57 131.001c-41.333 35.333 -82.333 53 -123 53h-328
c-46 0 -88.333 -28.667 -127 -86c-5.33301 -8 -13.333 -23 -24 -45l-33 258v29c-2.66699 27.333 2.66602 47.666 15.999 60.999c16.667 13.333 59 20 127 20h496c65.333 0 124 -28.667 176 -86c49.333 -60 74 -137.667 74 -233v-1171c0 -30.667 9.33301 -65 28 -103
c44 -87.333 66 -133.666 66 -138.999zM946.002 249.999v655.001l-37 8c-98 0 -225 -53 -381 -159c-155.333 -109.333 -233 -210.333 -233 -303c0 -84.667 47.667 -150.334 143 -197.001c79.333 -38 171 -57 275 -57c65.333 0 121.333 5.33301 168 16
c43.333 8 65 20.333 65 37zM997.002 2236c0 -76 -21.998 -144 -65.998 -204c-46 -63.333 -108.667 -95 -188 -95c-100.667 0 -185.334 33 -254.001 99c-70.667 62.667 -106 146 -106 250c0 81.333 27.333 155 82 221c51.333 62.667 116.666 94 195.999 94
c104 0 186 -28.667 246 -86s90 -150.333 90 -279zM899.004 2220c0 65.333 -12.333 120 -37 164c-24.667 40.667 -64.334 61 -119.001 61c-49.333 0 -91.666 -21.833 -126.999 -65.5s-53 -96.834 -53 -159.5c0 -49.333 15 -93 45 -131c27.333 -38 67 -57 119 -57
c40.667 0 80 20.333 118 61c36 38 54 80.333 54 127z" />
    <glyph glyph-name="ae" unicode="&#xe6;" horiz-adv-x="2458" 
d="M2306 524c0 -87.333 -62.667 -189.668 -188 -307.001c-144.667 -136.667 -299 -205 -463 -205c-226.667 0 -396 76.667 -508 230c5.33301 -32.667 21.666 -71 48.999 -115c27.333 -46.667 41 -76.667 41 -90l-12 -12c-14 -8.66699 -32 -13 -54 -13h-536
c-158.667 0 -288.334 39.667 -389.001 119c-104 79.333 -156 183 -156 311c0 186 143.333 362.333 430 529c284 164 426 289.667 426 377c0 48.667 -19 92.334 -57 131.001c-41.333 35.333 -82.333 53 -123 53h-328c-46 0 -88.333 -28.667 -127 -86
c-5.33301 -8 -13.333 -23 -24 -45l-33 258v29c-2.66699 27.333 2.66602 47.666 15.999 60.999c16.667 13.333 59 20 127 20h496c62.667 0 118.667 -24.333 168 -73c46 -52 73.333 -121.667 82 -209c57.333 92.667 128.333 165 213 217c84.667 49.333 184.334 74 299.001 74
c152.667 0 297.334 -65.667 434.001 -197c134 -134 201 -272 201 -414c-6 -13.333 -95 -78.666 -267 -195.999l-471 -312l-249 -167c0 -44 34 -90.667 102 -140c65.333 -48.667 140.333 -73 225 -73c144.667 0 252.667 35.333 324 106
c70.667 71.333 115.667 175 135.001 311l20 29c16.667 0 53.667 -30 111 -90s86 -97 86 -111zM2015 1188c0 52 -39.668 122.999 -119.001 212.999c-78.667 87.333 -155 131 -229 131c-144.667 0 -260.667 -57.333 -348 -172c-87.333 -117.333 -131 -269 -131 -455
c0 -65.333 5.33301 -118.666 16 -159.999c8.66699 -40.667 22.334 -61 41.001 -61zM945.999 249.997v655.001l-37 8c-98 0 -225 -53 -381 -159c-155.333 -109.333 -233 -210.333 -233 -303c0 -84.667 47.667 -150.334 143 -197.001c79.333 -38 171 -57 275 -57
c65.333 0 121.333 5.33301 168 16c43.333 8 65 20.333 65 37z" />
    <glyph glyph-name="ccedilla" unicode="&#xe7;" horiz-adv-x="1323" 
d="M1274 467c0 -79.333 -57.3359 -168.001 -172.003 -266.001c-114.667 -101.333 -233.667 -164.333 -357 -189l-57 -94l86 8c82 0 151.667 -21.833 209 -65.5s86 -106.5 86 -188.5c0 -112 -46.333 -210.333 -139 -295s-200.667 -127 -324 -127
c-57.333 0 -122.666 18 -195.999 54c-74 32.667 -111 68 -111 106c0 52 27.333 78 82 78l114.5 -98c35.667 -30 72.5 -45 110.5 -45c52 0 105.333 24.333 160 73c54.667 49.333 82 105.333 82 168c0 41.333 -15 77 -45 107c-32.667 30 -73.667 45 -123 45
c-32.667 0 -64 -7 -94 -21c-11.333 -5.33301 -25 -8 -41 -8c-11.333 0 -25 13.667 -41 41c-19.333 24.667 -29 45.334 -29 62.001c0 21.333 15 55.333 45 102c16.667 24.667 40 56 70 94c-158.667 22 -287 113.667 -385 275c-101.333 158 -152 360 -152 606
c0 251.333 60 461.666 180 630.999c120.667 166 279.334 249 476.001 249c136 0 251.833 -47.667 347.5 -143s143.5 -221 143.5 -377c0 -150 -30 -268.667 -90 -356c-60 -90 -144.667 -135 -254 -135c-79.333 0 -151.666 20.333 -216.999 61c-65.333 41.333 -98 81 -98 119
l41 119c32.667 82 55.667 123 69 123c14 0 38.667 -28.667 74 -86c32.667 -60 69.667 -90 111 -90c60 0 105 20.333 135 61c27.333 40.667 41 92.667 41 156c0 108.667 -31.333 190.334 -94 245.001c-63.333 52 -133 78 -209 78c-139.333 0 -246 -65.333 -320 -196
c-76.667 -134 -115 -294 -115 -480c0 -169.333 37 -315.333 111 -438c74 -125.333 158.667 -188 254 -188c106.667 0 199.667 42.333 279 127c76 82 114 176 114 282l17 25c27.333 0 72.333 -28.667 135 -86c60 -60 90 -101 90 -123z" />
    <glyph glyph-name="egrave" unicode="&#xe8;" horiz-adv-x="1454" 
d="M1393 524c0 -87.333 -62.999 -189.669 -188.999 -307.002c-144.667 -136.667 -299 -205 -463 -205c-212.667 0 -376.334 68.333 -491.001 205s-172 348.334 -172 635.001c0 276 57.333 500 172 672c112 169.333 275.667 254 491 254c153.333 0 298.333 -65.667 435 -197
c133.333 -134 200 -272 200 -414c-5.33301 -13.333 -94 -78.666 -266 -195.999l-471 -312l-250 -167c0 -44 34.333 -90.667 103 -140c65.333 -48.667 140.333 -73 225 -73c144.667 0 252.334 35.333 323.001 106c71.333 71.333 116.666 175 135.999 311l20 29
c16.667 0 53.667 -30 111 -90s86 -97 86 -111zM1102 1188c0 52 -39.668 122.999 -119.001 212.999c-79.333 87.333 -155.666 131 -228.999 131c-144.667 0 -260.667 -57.333 -348 -172c-88 -117.333 -132 -269 -132 -455c0 -65.333 5.66699 -118.666 17 -159.999
c8 -40.667 21.667 -61 41 -61zM913 2011c0 -40.667 -17.667 -61 -53 -61c-82 0 -187 68 -315 204c-131.333 134 -197 234 -197 300c0 18.667 23.333 41.667 70 69c46 24.667 87 37 123 37c40.667 0 78.667 -42.333 114 -127c54.667 -128 104 -222.333 148 -283
c5.33301 -8 31.333 -33.667 78 -77c21.333 -22 32 -42.667 32 -62z" />
    <glyph glyph-name="eacute" unicode="&#xe9;" horiz-adv-x="1454" 
d="M1393 524c0 -87.333 -62.999 -189.669 -188.999 -307.002c-144.667 -136.667 -299 -205 -463 -205c-212.667 0 -376.334 68.333 -491.001 205s-172 348.334 -172 635.001c0 276 57.333 500 172 672c112 169.333 275.667 254 491 254c153.333 0 298.333 -65.667 435 -197
c133.333 -134 200 -272 200 -414c-5.33301 -13.333 -94 -78.666 -266 -195.999l-471 -312l-250 -167c0 -44 34.333 -90.667 103 -140c65.333 -48.667 140.333 -73 225 -73c144.667 0 252.334 35.333 323.001 106c71.333 71.333 116.666 175 135.999 311l20 29
c16.667 0 53.667 -30 111 -90s86 -97 86 -111zM1102 1188c0 52 -39.668 122.999 -119.001 212.999c-79.333 87.333 -155.666 131 -228.999 131c-144.667 0 -260.667 -57.333 -348 -172c-88 -117.333 -132 -269 -132 -455c0 -65.333 5.66699 -118.666 17 -159.999
c8 -40.667 21.667 -61 41 -61zM1122 2404c0 -60 -77.667 -150 -233 -270c-158.667 -122.667 -274.667 -184 -348 -184c-32.667 0 -49 13.667 -49 41c0 13.333 12 35 36 65c79.333 60 149 142 209 246c96 164 159 246 189 246c35.333 0 76.333 -15 123 -45
c46 -32.667 70.333 -65.667 73 -99z" />
    <glyph glyph-name="ecircumflex" unicode="&#xea;" horiz-adv-x="1454" 
d="M1393 524c0 -87.333 -62.999 -189.669 -188.999 -307.002c-144.667 -136.667 -299 -205 -463 -205c-212.667 0 -376.334 68.333 -491.001 205s-172 348.334 -172 635.001c0 276 57.333 500 172 672c112 169.333 275.667 254 491 254c153.333 0 298.333 -65.667 435 -197
c133.333 -134 200 -272 200 -414c-5.33301 -13.333 -94 -78.666 -266 -195.999l-471 -312l-250 -167c0 -44 34.333 -90.667 103 -140c65.333 -48.667 140.333 -73 225 -73c144.667 0 252.334 35.333 323.001 106c71.333 71.333 116.666 175 135.999 311l20 29
c16.667 0 53.667 -30 111 -90s86 -97 86 -111zM1102 1188c0 52 -39.668 122.999 -119.001 212.999c-79.333 87.333 -155.666 131 -228.999 131c-144.667 0 -260.667 -57.333 -348 -172c-88 -117.333 -132 -269 -132 -455c0 -65.333 5.66699 -118.666 17 -159.999
c8 -40.667 21.667 -61 41 -61zM1225 2040c0 -24.667 -12.334 -46.667 -37.001 -66c-27.333 -18.667 -54.666 -28 -81.999 -28c-156 0 -292.667 129.667 -410 389c-57.333 -93.333 -124 -178 -200 -254c-90.667 -90 -164.667 -135 -222 -135c-32.667 0 -49 15 -49 45
c0 54.667 20.667 94 62 118c98 54.667 185.333 131.334 262 230c125.333 164 210 246 254 246c46 0 88.167 -65.667 126.5 -197s121.833 -228.333 250.5 -291c30 -16 45 -35 45 -57z" />
    <glyph glyph-name="edieresis" unicode="&#xeb;" horiz-adv-x="1454" 
d="M1409 524c0 -87.333 -62.668 -189.669 -188.001 -307.002c-144.667 -136.667 -299 -205 -463 -205c-213.333 0 -377.333 68.333 -492 205s-172 348.334 -172 635.001c0 276 57.333 500 172 672c112 169.333 276 254 492 254c152.667 0 297.334 -65.667 434.001 -197
c134 -134 201 -272 201 -414c-6 -13.333 -95 -78.666 -267 -195.999l-471 -312l-249 -167c0 -44 34 -90.667 102 -140c65.333 -48.667 140.333 -73 225 -73c144.667 0 252.667 35.333 324 106c70.667 71.333 115.667 175 135 311l20 29c16.667 0 53.667 -30 111 -90
s86 -97 86 -111zM1118 1188c0 52 -39.667 122.999 -119 212.999c-78.667 87.333 -155 131 -229 131c-144.667 0 -260.667 -57.333 -348 -172c-87.333 -117.333 -131 -269 -131 -455c0 -65.333 5.33301 -118.666 16 -159.999c8 -40.667 21.667 -61 41 -61zM1270 2245
c0 -54.667 -17.8311 -108 -53.498 -160s-80.834 -78 -135.501 -78s-102.334 23.167 -143.001 69.5s-61 98.166 -61 155.5c0 60 19 114.667 57 164s87 74 147 74c49.333 0 93 -24.667 131 -74c38.667 -49.333 58 -99.666 58 -151zM631.001 2245
c0 -63.333 -16.333 -118 -49 -164c-33.333 -49.333 -80 -74 -140 -74c-51.333 0 -97.666 23.333 -138.999 70c-43.333 43.333 -65 95 -65 155c0 57.333 21.667 112 65 164c41.333 49.333 87.666 74 138.999 74c52 0 97.333 -22 136 -66c35.333 -46 53 -99 53 -159z" />
    <glyph glyph-name="igrave" unicode="&#xec;" horiz-adv-x="827" 
d="M610 0l-377 -0.000976562c0 46.667 18 105.334 54 176.001c18.667 38 28 65.333 28 82v1241c0 14 -17.667 61.667 -53 143c-19.333 44 -29 85 -29 123h377c0 -46 -8 -88.333 -24 -127c-38.667 -90 -58 -136.333 -58 -139v-1241c0 -24.667 8.33301 -54.667 25 -90
c38 -82 57 -138 57 -168zM621 2060c0 -40.667 -17.666 -61 -52.999 -61c-82 0 -187.333 68.333 -316 205c-130.667 133.333 -196 233 -196 299c0 18.667 23 41.667 69 69c46.667 24.667 87.667 37 123 37c41.333 0 79.666 -42.333 114.999 -127
c54.667 -128 103.667 -222 147 -282c5.33301 -8.66699 31.333 -34.667 78 -78c22 -22 33 -42.667 33 -62z" />
    <glyph glyph-name="iacute" unicode="&#xed;" horiz-adv-x="827" 
d="M610 0l-377 -0.000976562c0 46.667 18 105.334 54 176.001c18.667 38 28 65.333 28 82v1241c0 14 -17.667 61.667 -53 143c-19.333 44 -29 85 -29 123h377c0 -46 -8 -88.333 -24 -127c-38.667 -90 -58 -136.333 -58 -139v-1241c0 -24.667 8.33301 -54.667 25 -90
c38 -82 57 -138 57 -168zM911 2435c0 -60 -77.668 -150 -233.001 -270c-158.667 -122.667 -274.667 -184 -348 -184c-33.333 0 -50 13.667 -50 41c0 13.333 12.333 35 37 65c79.333 60 149 142 209 246c95.333 164 158.333 246 189 246c35.333 0 76 -15 122 -45
c46.667 -33.333 71.334 -66.333 74.001 -99z" />
    <glyph glyph-name="icircumflex" unicode="&#xee;" horiz-adv-x="827" 
d="M610 0l-377 -0.000976562c0 46.667 18 105.334 54 176.001c18.667 38 28 65.333 28 82v1241c0 14 -17.667 61.667 -53 143c-19.333 44 -29 85 -29 123h377c0 -46 -8 -88.333 -24 -127c-38.667 -90 -58 -136.333 -58 -139v-1241c0 -24.667 8.33301 -54.667 25 -90
c38 -82 57 -138 57 -168zM915 2030c0 -24.667 -12.335 -46.668 -37.002 -66.001c-27.333 -19.333 -54.666 -29 -81.999 -29c-155.333 0 -291.666 130 -408.999 390c-57.333 -93.333 -124.333 -178 -201 -254c-90 -90.667 -163.667 -136 -221 -136
c-32.667 0 -49 15.333 -49 46c0 54 20.333 93.333 61 118c98 54.667 185.333 131.334 262 230.001c126 163.333 210.667 245 254 245c46.667 0 89 -65.5 127 -196.5s121.333 -227.833 250 -290.5c30 -16.667 45 -35.667 45 -57z" />
    <glyph glyph-name="idieresis" unicode="&#xef;" horiz-adv-x="827" 
d="M610 0l-377 -0.000976562c0 46.667 18 105.334 54 176.001c18.667 38 28 65.333 28 82v1241c0 14 -17.667 61.667 -53 143c-19.333 44 -29 85 -29 123h377c0 -46 -8 -88.333 -24 -127c-38.667 -90 -58 -136.333 -58 -139v-1241c0 -24.667 8.33301 -54.667 25 -90
c38 -82 57 -138 57 -168zM956 2269c0 -54.667 -17.667 -108.001 -53 -160.001s-80.333 -78 -135 -78s-102.5 23.167 -143.5 69.5s-61.5 98.166 -61.5 155.5c0 60.667 19 115.334 57 164.001c38.667 49.333 88 74 148 74c49.333 0 93 -24.667 131 -74
c38 -48.667 57 -99 57 -151zM317 2269c0 -63.333 -16.333 -118 -49 -164c-32.667 -49.333 -79 -74 -139 -74c-52 0 -98.333 23.333 -139 70c-44 43.333 -66 95 -66 155c0 57.333 22 112 66 164c40.667 49.333 87 74 139 74s97 -22 135 -66c35.333 -46 53 -99 53 -159z" />
    <glyph glyph-name="Yacute" unicode="&#xf0;" horiz-adv-x="1495" 
d="M1417 836c0 -221.333 -54.6641 -410 -163.997 -566c-122.667 -174.667 -283.667 -262 -483 -262c-210 0 -375.333 75 -496 225c-120 148 -180 354.333 -180 619c0 234.667 60 443.667 180 627c131.333 199.333 291.333 299 480 299c32.667 0 70.667 -11 114 -33
c14 -5.33301 34.667 -17.666 62 -36.999l-99 184c-48.667 87.333 -103 165.333 -163 233.999l-217 -209l-111 106l217 213c-40.667 41.333 -80.334 74.333 -119.001 99c-48.667 32.667 -106 57 -172 73c2.66699 71.333 7 141 13 209c5.33301 68.667 18.666 103 39.999 103
c46.667 -32.667 107 -82 181 -148c60 -52 128.333 -114.667 205 -188l266 258l110 -107l-266 -266c199.333 -212.667 349.666 -440.667 450.999 -684c100.667 -245.333 151 -495 151 -749zM1200 844c0 182.667 -39.668 344.998 -119.001 486.998c-82 142 -183 213 -303 213
c-125.333 0 -234.5 -75 -327.5 -225s-139.5 -329 -139.5 -537c0 -185.333 41 -321.666 123 -408.999c82 -90 194 -135 336 -135c136.667 0 243.334 54.333 320.001 163c73.333 106.667 110 254.334 110 443.001z" />
    <glyph glyph-name="ntilde" unicode="&#xf1;" horiz-adv-x="1413" 
d="M1323 1044c0 -232 -35.333 -444.669 -106 -638.002l-201 -480c-68.667 -169.333 -103 -359 -103 -569c-2.66699 -8 -4 -13.333 -4 -16c-5.33301 -11.333 -12 -17 -20 -17c-30 0 -69.667 32.667 -119 98c-52 63.333 -78 114 -78 152c0 120 90.333 405.333 271 856
c87.333 218.667 131 423.334 131 614.001c0 131.333 -39.667 243.333 -119 336c-92.667 109.333 -218.334 164 -377.001 164c-79.333 0 -131.333 -1.33301 -156 -4c-24 -2.66699 -43 -8 -57 -16v-1266c0 -22 8.33301 -48 25 -78c40.667 -73.333 61 -133.333 61 -180h-377
c0 54.667 16.333 116 49 184c16.667 36 25 60.667 25 74v1409c0 10.667 -13.667 25.667 -41 45s-41 33 -41 41c0 10.667 12.333 18.834 37 24.501s54.667 8.5 90 8.5l147 -8h299c180.667 0 336.334 -74 467.001 -222c131.333 -147.333 197 -318 197 -512zM1173 2370
c0 -82 -25.999 -158.667 -77.999 -230c-60 -82 -131 -123 -213 -123c-46 0 -96.333 16.333 -151 49c-126 74 -206.667 111 -242 111c-46.667 0 -90.334 -16.333 -131.001 -49l-123 -102c-27.333 0 -41 13.333 -41 40c0 74 37 148 111 222c70.667 70.667 147 106 229 106
c35.333 0 98 -26 188 -78c90.667 -51.333 151 -77 181 -77c51.333 0 97.5 28.667 138.5 86s71.167 86 90.5 86c27.333 0 41 -13.667 41 -41z" />
    <glyph glyph-name="ograve" unicode="&#xf2;" horiz-adv-x="1413" 
d="M1319 897c0 -256.667 -53.333 -468.332 -160 -634.999c-109.333 -166.667 -254 -250 -434 -250c-191.333 0 -344.333 83.333 -459 250c-117.333 166.667 -176 378.334 -176 635.001c0 251.333 57.333 461.666 172 630.999c114.667 166.667 269 250 463 250
c174.667 0 318 -82 430 -246c109.333 -166.667 164 -378.334 164 -635.001zM1106 905.002c0 188.667 -33.999 343 -101.999 463c-71.333 117.333 -164.333 176 -279 176c-122.667 0 -219.667 -60 -291 -180c-73.333 -122.667 -110 -275.667 -110 -459
c0 -180 35.333 -331.333 106 -454c71.333 -123.333 169.666 -185 294.999 -185c112 0 203.333 60 274 180c71.333 118 107 271 107 459zM924.001 2023c0 -40.667 -17.666 -61 -52.999 -61c-82 0 -187.333 68.333 -316 205c-130.667 133.333 -196 233 -196 299
c0 18.667 23 41.667 69 69c46.667 24.667 87.667 37 123 37c41.333 0 79.666 -42.333 114.999 -127c54.667 -128 103.667 -222 147 -282c5.33301 -8.66699 31.333 -34.667 78 -78c22 -22 33 -42.667 33 -62z" />
    <glyph glyph-name="oacute" unicode="&#xf3;" horiz-adv-x="1413" 
d="M1319 897c0 -256.667 -53.333 -468.332 -160 -634.999c-109.333 -166.667 -254 -250 -434 -250c-191.333 0 -344.333 83.333 -459 250c-117.333 166.667 -176 378.334 -176 635.001c0 251.333 57.333 461.666 172 630.999c114.667 166.667 269 250 463 250
c174.667 0 318 -82 430 -246c109.333 -166.667 164 -378.334 164 -635.001zM1106 905.002c0 188.667 -33.999 343 -101.999 463c-71.333 117.333 -164.333 176 -279 176c-122.667 0 -219.667 -60 -291 -180c-73.333 -122.667 -110 -275.667 -110 -459
c0 -180 35.333 -331.333 106 -454c71.333 -123.333 169.666 -185 294.999 -185c112 0 203.333 60 274 180c71.333 118 107 271 107 459zM1141 2447c0 -60 -77.668 -150 -233.001 -270c-158.667 -122.667 -274.667 -184 -348 -184c-33.333 0 -50 13.667 -50 41
c0 13.333 12.333 35 37 65c79.333 60 149 142 209 246c95.333 164 158.333 246 189 246c35.333 0 76 -15 122 -45c46.667 -33.333 71.334 -66.333 74.001 -99z" />
    <glyph glyph-name="ocircumflex" unicode="&#xf4;" horiz-adv-x="1413" 
d="M1319 897c0 -256.667 -53.333 -468.332 -160 -634.999c-109.333 -166.667 -254 -250 -434 -250c-191.333 0 -344.333 83.333 -459 250c-117.333 166.667 -176 378.334 -176 635.001c0 251.333 57.333 461.666 172 630.999c114.667 166.667 269 250 463 250
c174.667 0 318 -82 430 -246c109.333 -166.667 164 -378.334 164 -635.001zM1106 905.002c0 188.667 -33.999 343 -101.999 463c-71.333 117.333 -164.333 176 -279 176c-122.667 0 -219.667 -60 -291 -180c-73.333 -122.667 -110 -275.667 -110 -459
c0 -180 35.333 -331.333 106 -454c71.333 -123.333 169.666 -185 294.999 -185c112 0 203.333 60 274 180c71.333 118 107 271 107 459zM1231 2022c0 -24.667 -12.335 -46.667 -37.002 -66c-27.333 -19.333 -54.666 -29 -81.999 -29c-155.333 0 -291.666 130 -408.999 390
c-57.333 -93.333 -124.333 -178 -201 -254c-90 -90.667 -163.667 -136 -221 -136c-32.667 0 -49 15.333 -49 46c0 54 20.333 93.333 61 118c98 54.667 185.333 131.334 262 230c126 163.333 210.667 245 254 245c46.667 0 89 -65.5 127 -196.5s121.333 -227.833 250 -290.5
c30 -16.667 45 -35.667 45 -57z" />
    <glyph glyph-name="otilde" unicode="&#xf5;" horiz-adv-x="1413" 
d="M1319 897c0 -256.667 -53.333 -468.332 -160 -634.999c-109.333 -166.667 -254 -250 -434 -250c-191.333 0 -344.333 83.333 -459 250c-117.333 166.667 -176 378.334 -176 635.001c0 251.333 57.333 461.666 172 630.999c114.667 166.667 269 250 463 250
c174.667 0 318 -82 430 -246c109.333 -166.667 164 -378.334 164 -635.001zM1106 905.002c0 188.667 -33.999 343 -101.999 463c-71.333 117.333 -164.333 176 -279 176c-122.667 0 -219.667 -60 -291 -180c-73.333 -122.667 -110 -275.667 -110 -459
c0 -180 35.333 -331.333 106 -454c71.333 -123.333 169.666 -185 294.999 -185c112 0 203.333 60 274 180c71.333 118 107 271 107 459zM1202 2358c0 -82 -25.999 -158.667 -77.999 -230c-60 -82 -131 -123 -213 -123c-46 0 -96.333 16.333 -151 49
c-126 74 -206.667 111 -242 111c-46.667 0 -90.334 -16.333 -131.001 -49l-123 -102c-27.333 0 -41 13.333 -41 40c0 74 37 148 111 222c70.667 70.667 147 106 229 106c35.333 0 98 -26 188 -78c90.667 -51.333 151 -77 181 -77c51.333 0 97.5 28.667 138.5 86
s71.167 86 90.5 86c27.333 0 41 -13.667 41 -41z" />
    <glyph glyph-name="odieresis" unicode="&#xf6;" horiz-adv-x="1413" 
d="M1319 897c0 -256.667 -53.333 -468.332 -160 -634.999c-109.333 -166.667 -254 -250 -434 -250c-191.333 0 -344.333 83.333 -459 250c-117.333 166.667 -176 378.334 -176 635.001c0 251.333 57.333 461.666 172 630.999c114.667 166.667 269 250 463 250
c174.667 0 318 -82 430 -246c109.333 -166.667 164 -378.334 164 -635.001zM1106 905.002c0 188.667 -33.999 343 -101.999 463c-71.333 117.333 -164.333 176 -279 176c-122.667 0 -219.667 -60 -291 -180c-73.333 -122.667 -110 -275.667 -110 -459
c0 -180 35.333 -331.333 106 -454c71.333 -123.333 169.666 -185 294.999 -185c112 0 203.333 60 274 180c71.333 118 107 271 107 459zM1243 2253c0 -54.667 -17.667 -108 -53 -160s-80.333 -78 -135 -78s-102.5 23.167 -143.5 69.5s-61.5 98.166 -61.5 155.5
c0 60.667 19 115.334 57 164c38.667 49.333 88 74 148 74c49.333 0 93 -24.667 131 -74c38 -48.667 57 -99 57 -151zM604.001 2253c0 -63.333 -16.333 -118 -49 -164c-32.667 -49.333 -79 -74 -139 -74c-52 0 -98.333 23.333 -139 70c-44 43.333 -66 95 -66 155
c0 57.333 22 112 66 164c40.667 49.333 87 74 139 74s97 -22 135 -66c35.333 -46 53 -99 53 -159z" />
    <glyph glyph-name="divide" unicode="&#xf7;" horiz-adv-x="2003" 
d="M1241 1782c0 -57.333 -20.332 -106.667 -60.999 -148c-44 -43.333 -104.333 -65 -181 -65c-65.333 0 -119.833 17.667 -163.5 53s-65.5 87.333 -65.5 156c0 60 22 113 66 159c43.333 46.667 97.666 70 162.999 70c60.667 0 116.667 -21.667 168 -65
c49.333 -46.667 74 -100 74 -160zM1851 1253c0 -54.667 -53 -92.667 -159 -114c-109.333 -24.667 -262.333 -37 -459 -37l-598 4c-180 0 -305.667 12.333 -377 37c-74 24.667 -111 65.667 -111 123c0 32.667 78 49 234 49l987 12c174.667 0 299 -2.66699 373 -8
c73.333 -8 110 -30 110 -66zM1245 638.999c0 -57.333 -19.001 -105 -57.001 -143c-41.333 -41.333 -98.666 -62 -171.999 -62c-68.667 0 -126 17.667 -172 53c-46.667 36 -70 88 -70 156c0 54.667 24.667 105.167 74 151.5s106.666 69.5 171.999 69.5
c62.667 0 115.834 -20.5 159.501 -61.5s65.5 -95.5 65.5 -163.5z" />
    <glyph glyph-name="oslash" unicode="&#xf8;" horiz-adv-x="1413" 
d="M1376 1921c-24.667 -54.667 -62.668 -121.667 -114.001 -201l-119 -172c117.333 -155.333 176 -372.333 176 -651c0 -254 -54.667 -464.333 -164 -631c-109.333 -169.333 -252.666 -254 -429.999 -254c-136.667 0 -256.667 46.667 -360 140
c-24.667 -46.667 -46.667 -124.667 -66 -234c-19.333 -112 -45.333 -168 -78 -168c-24.667 0 -46.5 12.333 -65.5 37s-28.5 52 -28.5 82s12.333 77.667 37 143c22 66 57.333 148 106 246c-120 172 -180 385 -180 639c0 248.667 58.667 457.667 176 627
c114.667 169.333 267.667 254 459 254c122.667 0 230.667 -42.333 324 -127l86 151l82 160c8 35.333 31 53 69 53c52 0 82 -31.333 90 -94zM933.999 1454c-54.667 60 -124.333 90 -209 90c-122.667 0 -219.667 -60 -291 -180c-73.333 -122.667 -110 -275.667 -110 -459
c0 -150 25.667 -282.333 77 -397c76.667 150 162.667 309.667 258 479c93.333 169.333 185 325 275 467zM1106 905c0 186 -31.333 330.666 -94 433.999l-291 -467c-101.333 -169.333 -186 -327.666 -254 -474.999c70.667 -87.333 156.667 -131 258 -131
c112 0 203.333 60 274 180c71.333 120.667 107 273.667 107 459z" />
    <glyph glyph-name="ugrave" unicode="&#xf9;" horiz-adv-x="1368" 
d="M1274 20c-30 -16 -49 -23.999 -57 -23.999c-6 0 -37.667 2.66699 -95 8s-106.333 8 -147 8h-254c-196.667 0 -355 46.667 -475 140c-128.667 100.667 -193 235.667 -193 405c0 95.333 22 189.666 66 282.999c98 207.333 147 328.666 147 363.999
c0 90 -32.667 191 -98 303l74 115c54.667 76.667 92.667 115 114 115c38.667 0 70.167 -53.333 94.5 -160s36.5 -207.667 36.5 -303c0 -101.333 -20.333 -209.333 -61 -324l-143 -393c0 -210 169.333 -315 508 -315c65.333 0 111.666 2.66699 138.999 8
c24.667 2.66699 42.334 6.66699 53.001 12v1237c0 16.667 -12.333 53.667 -37 111c-27.333 57.333 -41 109 -41 155h369c0 -38 -11 -85.667 -33 -143s-33 -98.333 -33 -123v-1388c0 -6 7 -17 21 -33c13.333 -19.333 28.333 -38.666 45 -57.999zM920 2027
c0 -40.667 -17.666 -61 -52.999 -61c-82 0 -187.333 68.333 -316 205c-130.667 133.333 -196 233 -196 299c0 18.667 23 41.667 69 69c46.667 24.667 87.667 37 123 37c41.333 0 79.666 -42.333 114.999 -127c54.667 -128 103.667 -222 147 -282
c5.33301 -8.66699 31.333 -34.667 78 -78c22 -22 33 -42.667 33 -62z" />
    <glyph glyph-name="uacute" unicode="&#xfa;" horiz-adv-x="1368" 
d="M1274 20c-30 -16 -49 -23.999 -57 -23.999c-6 0 -37.667 2.66699 -95 8s-106.333 8 -147 8h-254c-196.667 0 -355 46.667 -475 140c-128.667 100.667 -193 235.667 -193 405c0 95.333 22 189.666 66 282.999c98 207.333 147 328.666 147 363.999
c0 90 -32.667 191 -98 303l74 115c54.667 76.667 92.667 115 114 115c38.667 0 70.167 -53.333 94.5 -160s36.5 -207.667 36.5 -303c0 -101.333 -20.333 -209.333 -61 -324l-143 -393c0 -210 169.333 -315 508 -315c65.333 0 111.666 2.66699 138.999 8
c24.667 2.66699 42.334 6.66699 53.001 12v1237c0 16.667 -12.333 53.667 -37 111c-27.333 57.333 -41 109 -41 155h369c0 -38 -11 -85.667 -33 -143s-33 -98.333 -33 -123v-1388c0 -6 7 -17 21 -33c13.333 -19.333 28.333 -38.666 45 -57.999zM1112 2459
c0 -60 -77.668 -150 -233.001 -270c-158.667 -122.667 -274.667 -184 -348 -184c-33.333 0 -50 13.667 -50 41c0 13.333 12.333 35 37 65c79.333 60 149 142 209 246c95.333 164 158.333 246 189 246c35.333 0 76 -15 122 -45c46.667 -33.333 71.334 -66.333 74.001 -99z
" />
    <glyph glyph-name="ucircumflex" unicode="&#xfb;" horiz-adv-x="1368" 
d="M1274 20c-30 -16 -49 -23.999 -57 -23.999c-6 0 -37.667 2.66699 -95 8s-106.333 8 -147 8h-254c-196.667 0 -355 46.667 -475 140c-128.667 100.667 -193 235.667 -193 405c0 95.333 22 189.666 66 282.999c98 207.333 147 328.666 147 363.999
c0 90 -32.667 191 -98 303l74 115c54.667 76.667 92.667 115 114 115c38.667 0 70.167 -53.333 94.5 -160s36.5 -207.667 36.5 -303c0 -101.333 -20.333 -209.333 -61 -324l-143 -393c0 -210 169.333 -315 508 -315c65.333 0 111.666 2.66699 138.999 8
c24.667 2.66699 42.334 6.66699 53.001 12v1237c0 16.667 -12.333 53.667 -37 111c-27.333 57.333 -41 109 -41 155h369c0 -38 -11 -85.667 -33 -143s-33 -98.333 -33 -123v-1388c0 -6 7 -17 21 -33c13.333 -19.333 28.333 -38.666 45 -57.999zM1235 2059
c0 -24.667 -12.335 -46.668 -37.002 -66.001c-27.333 -19.333 -54.666 -29 -81.999 -29c-155.333 0 -291.666 130 -408.999 390c-57.333 -93.333 -124.333 -178 -201 -254c-90 -90.667 -163.667 -136 -221 -136c-32.667 0 -49 15.333 -49 46c0 54 20.333 93.333 61 118
c98 54.667 185.333 131.334 262 230.001c126 163.333 210.667 245 254 245c46.667 0 89 -65.5 127 -196.5s121.333 -227.833 250 -290.5c30 -16.667 45 -35.667 45 -57z" />
    <glyph glyph-name="udieresis" unicode="&#xfc;" horiz-adv-x="1368" 
d="M1274 20c-30 -16 -49 -23.999 -57 -23.999c-6 0 -37.667 2.66699 -95 8s-106.333 8 -147 8h-254c-196.667 0 -355 46.667 -475 140c-128.667 100.667 -193 235.667 -193 405c0 95.333 22 189.666 66 282.999c98 207.333 147 328.666 147 363.999
c0 90 -32.667 191 -98 303l74 115c54.667 76.667 92.667 115 114 115c38.667 0 70.167 -53.333 94.5 -160s36.5 -207.667 36.5 -303c0 -101.333 -20.333 -209.333 -61 -324l-143 -393c0 -210 169.333 -315 508 -315c65.333 0 111.666 2.66699 138.999 8
c24.667 2.66699 42.334 6.66699 53.001 12v1237c0 16.667 -12.333 53.667 -37 111c-27.333 57.333 -41 109 -41 155h369c0 -38 -11 -85.667 -33 -143s-33 -98.333 -33 -123v-1388c0 -6 7 -17 21 -33c13.333 -19.333 28.333 -38.666 45 -57.999zM1255 2269
c0 -54.667 -17.667 -108.001 -53 -160.001s-80.333 -78 -135 -78s-102.5 23.167 -143.5 69.5s-61.5 98.166 -61.5 155.5c0 60.667 19 115.334 57 164.001c38.667 49.333 88 74 148 74c49.333 0 93 -24.667 131 -74c38 -48.667 57 -99 57 -151zM616 2269
c0 -63.333 -16.333 -118 -49 -164c-32.667 -49.333 -79 -74 -139 -74c-52 0 -98.333 23.333 -139 70c-44 43.333 -66 95 -66 155c0 57.333 22 112 66 164c40.667 49.333 87 74 139 74s97 -22 135 -66c35.333 -46 53 -99 53 -159z" />
    <glyph glyph-name="yacute" unicode="&#xfd;" horiz-adv-x="1413" 
d="M1356 1765c0 -38 -12.332 -74.665 -36.999 -109.998s-38.334 -58.666 -41.001 -69.999l-381 -1294l-111 -463c-40.667 -128.667 -85.667 -228.334 -135 -299.001c-52 -74 -149 -167 -291 -279c-60 -46 -110.333 -106 -151 -180l-238 185
c11.333 38 120.666 119.667 327.999 245c191.333 114.667 287 299 287 553c0 76.667 -11 152 -33 226l-336 966c-13.333 38.667 -38 77 -74 115c-35.333 38 -66.666 61.333 -93.999 70c0 35.333 48 96.666 144 183.999c46 43.333 77.333 66.333 94 69l463 -1302l294 1204
c3.33301 5.33301 5 11 5 17c0 21.333 -9.66699 43 -29 65c-27.333 27.333 -41 54.666 -41 81.999l12 16h365zM1141 2422c0 -60 -77.668 -150 -233.001 -270c-158.667 -122.667 -274.667 -184 -348 -184c-33.333 0 -50 13.667 -50 41c0 13.333 12.333 35 37 65
c79.333 60 149 142 209 246c95.333 164 158.333 246 189 246c35.333 0 76 -15 122 -45c46.667 -33.333 71.334 -66.333 74.001 -99z" />
    <glyph glyph-name="thorn" unicode="&#xfe;" horiz-adv-x="1368" 
d="M1290 1339c0 -245.333 -80.335 -463.665 -241.002 -654.998c-71.333 -84.667 -220.333 -213 -447 -385c-164 -125.333 -246 -229 -246 -311v-455c0 -19.333 -39.333 -53.333 -118 -102c-79.333 -52 -136.666 -78 -171.999 -78c0 38 10.667 77.667 32 119
c19.333 40.667 29 70.667 29 90v2863c0 19.333 -15 38.333 -45 57c-30 19.333 -45 38.666 -45 57.999c0 18.667 28.667 33.667 86 45c54.667 10.667 124.334 16 209.001 16v-668h299c169.333 0 322.333 -57.333 459 -172c133.333 -114.667 200 -255.334 200 -422.001z
M1102 1327c0 112 -59.999 203.667 -179.999 275c-120.667 68 -268.334 102 -443.001 102c-32.667 0 -66.667 -4 -102 -12c-5.33301 0 -16.333 -4.33301 -33 -13v-1077c0 -73.333 27.333 -110 82 -110c125.333 0 270 94 434 282c161.333 188.667 242 373 242 553z" />
    <glyph glyph-name="ydieresis" unicode="&#xff;" horiz-adv-x="1413" 
d="M1356 1765c0 -38 -12.332 -74.665 -36.999 -109.998s-38.334 -58.666 -41.001 -69.999l-381 -1294l-111 -463c-40.667 -128.667 -85.667 -228.334 -135 -299.001c-52 -74 -149 -167 -291 -279c-60 -46 -110.333 -106 -151 -180l-238 185
c11.333 38 120.666 119.667 327.999 245c191.333 114.667 287 299 287 553c0 76.667 -11 152 -33 226l-336 966c-13.333 38.667 -38 77 -74 115c-35.333 38 -66.666 61.333 -93.999 70c0 35.333 48 96.666 144 183.999c46 43.333 77.333 66.333 94 69l463 -1302l294 1204
c3.33301 5.33301 5 11 5 17c0 21.333 -9.66699 43 -29 65c-27.333 27.333 -41 54.666 -41 81.999l12 16h365zM1206 2249c0 -54.667 -17.667 -108 -53 -160s-80.333 -78 -135 -78s-102.5 23.167 -143.5 69.5s-61.5 98.166 -61.5 155.5c0 60.667 19 115.334 57 164
c38.667 49.333 88 74 148 74c49.333 0 93 -24.667 131 -74c38 -48.667 57 -99 57 -151zM567.001 2249c0 -63.333 -16.333 -118 -49 -164c-32.667 -49.333 -79 -74 -139 -74c-52 0 -98.333 23.333 -139 70c-44 43.333 -66 95 -66 155c0 57.333 22 112 66 164
c40.667 49.333 87 74 139 74s97 -22 135 -66c35.333 -46 53 -99 53 -159z" />
    <glyph glyph-name="dotlessi" unicode="&#x131;" horiz-adv-x="827" 
d="M610 0l-377 -0.000976562c0 46.667 18 105.334 54 176.001c18.667 38 28 65.333 28 82v1241c0 14 -17.667 61.667 -53 143c-19.333 44 -29 85 -29 123h377c0 -46 -8 -88.333 -24 -127c-38.667 -90 -58 -136.333 -58 -139v-1241c0 -24.667 8.33301 -54.667 25 -90
c38 -82 57 -138 57 -168z" />
    <glyph glyph-name="Lslash" unicode="&#x141;" horiz-adv-x="1208" 
d="M1987 -631c0 -73.333 -22 -136.002 -66 -188.002s-104 -78 -180 -78c-57.333 0 -188.333 77.667 -393 233c-290 221.333 -485.333 365 -586 431c-246 158 -441.333 237 -586 237l-61 -8c-16.667 10.667 -25 21.667 -25 33c0 30 17.667 79 53 147
c19.333 38 38.666 65.333 57.999 82v942l-242 168l61 86l181 -127v864c0 19.333 -12.333 53.666 -37 103c-27.333 48.667 -41 99 -41 151h377c0 -62.667 -13.667 -118.667 -41 -168c-30 -48.667 -45 -77.334 -45 -86v-1011l344 -242l-62 -86l-282 197v-791
c224 -79.333 437 -192.666 639 -339.999l434 -340c144.667 -114.667 263.334 -172 356.001 -172c24.667 0 48 1.33301 70 4c19.333 2.66699 38.333 6.66699 57 12c5.33301 -8 8 -13.333 8 -16c6 -13.333 9 -25.666 9 -36.999z" />
    <glyph glyph-name="lslash" unicode="&#x142;" horiz-adv-x="709" 
d="M741 1024l-53.001 -89.999l-209 119v-795c0 -24.667 15 -60 45 -106c27.333 -46.667 41 -97.334 41 -152.001h-377c0 49.333 8.33301 91.666 25 126.999c35.333 76.667 53 120.334 53 131.001v913l-282 160l53 90l229 -131v787c0 18.667 -12.333 39 -37 61
c-27.333 19.333 -41 37 -41 53c0 22 53.333 80.667 160 176c54.667 49.333 90.334 74 107.001 74c16 0 24 -15 24 -45v-1225z" />
    <glyph glyph-name="OE" unicode="&#x152;" horiz-adv-x="2798" 
d="M2769 426c0 -40.667 -21.999 -121.335 -65.999 -242.002c-13.333 -38 -36.333 -95.333 -69 -172h-1286c0 8.66699 15 53.667 45 135c16 46.667 24 90.667 24 132c0 26.667 -1.33301 48.334 -4 65.001c-65.333 -109.333 -141.666 -192.666 -228.999 -249.999
c-90 -57.333 -192.333 -86 -307 -86c-226.667 0 -412.667 114.667 -558 344c-144.667 229.333 -217 520.333 -217 873c0 349.333 72.333 640 217 872c142 232 328 348 558 348c114.667 0 218.334 -30 311.001 -90c90 -62.667 169 -152.667 237 -270
c0 104 -10.667 188.667 -32 254c-16.667 35.333 -31.667 72 -45 110h1179c30 -76 52 -133.333 66 -172c43.333 -117.333 65 -181.333 65 -192l-16 -12c-24.667 32.667 -46.667 57 -66 73c-60 52 -118.667 78 -176 78h-692c-32.667 0 -51.667 -5.33301 -57 -16
c-8.66699 -16.667 -13 -64.667 -13 -144v-581c0 -128.667 23.333 -193 70 -193c27.333 0 135.166 42.333 323.499 127s297.5 127 327.5 127c22 0 33 -15 33 -45v-328c0 -38 -11 -57 -33 -57c-2.66699 0 -16.334 15 -41.001 45s-65.667 45 -123 45
c-78.667 0 -190.334 -35.333 -335.001 -106c-148 -74 -222 -139.667 -222 -197v-528c0 -96 31.667 -144 95 -144h745c44 0 90.333 19.333 139 58zM1417 1233c0 286.667 -47.666 521.332 -142.999 703.999c-96 183.333 -228.333 275 -397 275
c-172.667 0 -313.334 -93 -422.001 -279c-109.333 -185.333 -164 -418.666 -164 -699.999c0 -284 54.667 -516 164 -696c106 -183.333 246.667 -275 422 -275c163.333 0 294.333 88.667 393 266c98 178 147 413 147 705z" />
    <glyph glyph-name="oe" unicode="&#x153;" horiz-adv-x="2523" 
d="M2462 508c0 -87.333 -63.001 -189.667 -189.001 -307c-144.667 -136.667 -299 -205 -463 -205c-147.333 0 -268.666 27.333 -363.999 82s-169 146 -221 274c-98.667 -224 -258.667 -336 -480 -336c-190.667 0 -343.334 84.667 -458.001 254
c-117.333 169.333 -176 381 -176 635c0 251.333 57.333 461.666 172 630.999c114.667 166.667 268.667 250 462 250c112 0 211.667 -35.667 299 -107c88 -70.667 155 -170.334 201 -299.001c54.667 120.667 129.667 215 225 283c96 65.333 209.333 98 340 98
c153.333 0 298.333 -65.333 435 -196c133.333 -134 200 -272 200 -414c-5.33301 -14 -94 -79.667 -266 -197l-471 -311l-250 -168c0 -43.333 34.333 -89.666 103 -138.999c65.333 -49.333 140.333 -74 225 -74c144.667 0 252.334 35.667 323.001 107
c71.333 70.667 116.666 174.334 136 311.001l20 29c16.667 0 53.667 -30.333 111 -91c57.333 -60 86 -96.667 86 -110zM2171 1171c0 52 -39.668 122.998 -119.001 212.998c-79.333 88 -155.666 132 -228.999 132c-144.667 0 -260.667 -57.667 -348 -173
c-88 -117.333 -132 -268.666 -132 -453.999c0 -65.333 5.66699 -118.666 17 -159.999c8 -40.667 21.667 -61 41 -61zM1130 912.997c0 188.667 -33.999 343 -101.999 463c-70.667 117.333 -165 176 -283 176c-122.667 0 -219.334 -60 -290.001 -180
c-74 -122.667 -111 -275.667 -111 -459c0 -180 35.667 -331.333 107 -454c70.667 -126 168.667 -189 294 -189c115.333 0 208.333 60.167 279 180.5s106 274.5 106 462.5z" />
    <glyph glyph-name="Scaron" unicode="&#x160;" horiz-adv-x="1577" 
d="M1491 348c0 -289.333 -165.333 -557 -496 -803l-983 -643c-16 -18.667 -26.667 -28 -32 -28c-44 0 -92 45 -144 135c-54.667 90 -82 154 -82 192c0 41.333 15 62 45 62c14 -2.66699 26.333 -5.33398 37 -8.00098c24.667 -6 49.334 -9 74.001 -9
c232 0 499.667 112 803 336c338.667 248.667 508 509.667 508 783c0 232 -95.667 406.667 -287 524l-533 278c-190.667 139.333 -286 351 -286 635c0 186 57.333 340.333 172 463s256.667 184 426 184c136.667 0 265 -39.5 385 -118.5s180 -160.833 180 -245.5
c0 -22 -24.667 -63 -74 -123c-52 -62.667 -90 -94 -114 -94c-8.66699 0 -13 5.33301 -13 16c0 2.66699 1.33301 8.33398 4 17.001c0 76 -41 148.333 -123 217c-84.667 65.333 -166.334 98 -245.001 98c-104 0 -191.333 -38.333 -262 -115
c-71.333 -76 -107 -175.667 -107 -299c0 -232 98.333 -405.333 295 -520l553 -274c199.333 -142 299 -362 299 -660zM1341 3195c0 -38.667 -10.998 -67.334 -32.998 -86l-77 -70l-316 -328c-73.333 -76 -128 -114 -164 -114c-16 0 -62.333 76.333 -139 229
c-79.333 150 -154.333 236 -225 258c-24.667 0 -39.667 20.667 -45 62c0 21.333 12.167 41.666 36.5 61c24.333 19.333 50.166 29 77.499 29c87.333 0 165.333 -33 234 -99c68 -65.333 128 -160.666 180 -286c79.333 122.667 155.666 218 228.999 286
c74 68.667 138.333 103 193 103c32.667 0 49 -15 49 -45z" />
    <glyph glyph-name="scaron" unicode="&#x161;" horiz-adv-x="1454" 
d="M1401 557c0 -128 -68.3311 -253.666 -204.998 -376.999c-136.667 -122.667 -288.334 -184 -455.001 -184c-169.333 0 -318 53.333 -446 160c-131.333 106 -197 239.667 -197 401c0 98.667 35.667 188.667 107 270c68 79.333 158 119 270 119
c68.667 0 115 -9.33301 139 -28c38.667 -30.667 58 -86.667 58 -168c0 -57.333 -1.33301 -90.333 -4 -99c-6 -18.667 -17 -29.667 -33 -33c-16.667 19.333 -29 33 -37 41c-32.667 30.667 -65.334 46 -98.001 46c-36 0 -70.333 -18 -103 -54
c-35.333 -38 -53 -77.667 -53 -119c0 -70.667 41 -133.334 123 -188.001c79.333 -57.333 161.333 -86 246 -86c92.667 0 192.334 32.667 299.001 98c103.333 66 155 138.333 155 217c0 128.667 -167.667 246.334 -503 353.001c-338.667 103.333 -508 241 -508 413
c0 131.333 57.333 238 172 320c112 79.333 255.333 119 430 119c117.333 0 230.666 -26 339.999 -78c106 -52 159 -110.667 159 -176c0 -54.667 -10.667 -108 -32 -160c-22 -54.667 -44 -84.667 -66 -90c-38 76.667 -84.333 136.667 -139 180c-74 60 -161.333 90 -262 90
c-82 0 -162.667 -20.333 -242 -61c-79.333 -44 -119 -92 -119 -144c0 -51.333 86 -107.333 258 -168c240.667 -84.667 402 -151.334 484 -200.001c174.667 -106.667 262 -244.667 262 -414zM1341 2575c0 -38.667 -10.998 -67.335 -32.998 -86.001l-77 -70l-316 -328
c-73.333 -76 -128 -114 -164 -114c-16 0 -62.333 76.333 -139 229c-79.333 150 -154.333 236 -225 258c-24.667 0 -39.667 20.667 -45 62c0 21.333 12.167 41.666 36.5 61c24.333 19.333 50.166 29 77.499 29c87.333 0 165.333 -33 234 -99
c68 -65.333 128 -160.666 180 -285.999c79.333 122.667 155.666 218 228.999 286c74 68.667 138.333 103 193 103c32.667 0 49 -15 49 -45z" />
    <glyph glyph-name="Ydieresis" unicode="&#x178;" horiz-adv-x="2081" 
d="M2044 2384l-56.9971 0.000976562c-120.667 0 -253.334 -112 -398.001 -336c-114.667 -174.667 -225.334 -398.667 -332.001 -672c-87.333 -221.333 -143 -392 -167 -512v-606c0 -2.66699 20.333 -45 61 -127c19.333 -38 29 -81.667 29 -131h-373
c0 52 5.33301 91.667 16 119c32.667 79.333 49 125.666 49 138.999v594l-667 1339c-30 63.333 -47.667 101.666 -53 114.999c-14 46.667 -21 93 -21 139h373c0 -43.333 -26 -102 -78 -176c-10.667 -13.333 -16 -28.333 -16 -45c0 -10.667 2.66699 -21.667 8 -33l446 -909
c16.667 -35.333 36 -68 58 -98c5.33301 -8.66699 14.666 -21 27.999 -37l119 295c98.667 242.667 195.667 447.334 291 614.001c142 248.667 281.333 422 418 520c24.667 0 75 -25.667 151 -77c76.667 -54.667 115 -93 115 -115zM1507 2978
c0 -57.333 -19.001 -113.334 -57.001 -168.001s-85.667 -82 -143 -82s-108 24.667 -152 74c-43.333 48.667 -65 103.334 -65 164c0 62.667 20.333 119.834 61 171.501s92.667 77.5 156 77.5c54.667 0 102.334 -24.333 143.001 -73c38 -49.333 57 -104 57 -164zM827.002 2978
c0 -60 -17.668 -116 -53.001 -168c-35.333 -54.667 -84.333 -82 -147 -82c-54.667 0 -104 24.667 -148 74c-46 46 -69 100.667 -69 164c0 62.667 21.667 120 65 172c44 51.333 94.667 77 152 77c54.667 0 102.334 -24.333 143.001 -73c38 -52 57 -106.667 57 -164z" />
    <glyph glyph-name="Zcaron" unicode="&#x17d;" horiz-adv-x="1745" 
d="M1638 172c0 -62.667 -13.6641 -102.333 -40.9971 -119c-43.333 -27.333 -136 -41 -278 -41h-1172c-10.667 0 -24.334 2.66699 -41.001 8c-5.33301 0 -13.333 3 -24 9c0 16 15 51.333 45 106l90 160l975 1786c30 52 45 84.667 45 98c0 27.333 -49 41 -147 41h-500
c-54.667 0 -112 -24.667 -172 -74c-38.667 -35.333 -66 -58.333 -82 -69c-5.33301 24.667 -8 42.334 -8 53c-8.66699 52 -13 83.333 -13 94c0 98.667 18 160 54 184c35.333 22 133.666 33 294.999 33h843c66 0 99 -13.667 99 -41c0 -24.667 -18 -72.334 -54 -143l-61 -111
l-930 -1798c-10.667 -22 -16 -39.667 -16 -53c0 -32.667 62.667 -49 188 -49h598c71.333 0 124.666 11 159.999 33c46.667 38 93 72 139 102zM1522 3207c0 -38.667 -10.998 -67.335 -32.998 -86.001l-77 -70l-316 -328c-73.333 -76 -128 -114 -164 -114
c-16 0 -62.333 76.333 -139 229c-79.333 150 -154.333 236 -225 258c-24.667 0 -39.667 20.667 -45 62c0 21.333 12.167 41.666 36.5 61c24.333 19.333 50.166 29 77.499 29c87.333 0 165.333 -33 234 -99c68 -65.333 128 -160.666 180 -285.999
c79.333 122.667 155.666 218 228.999 286c74 68.667 138.333 103 193 103c32.667 0 49 -15 49 -45z" />
    <glyph glyph-name="zcaron" unicode="&#x17e;" horiz-adv-x="1323" 
d="M1266 1708c0 -35.333 -34.3311 -113.001 -102.998 -233.001l-647 -1127l-29 -69c0 -33.333 63 -50 189 -50c125.333 0 234.666 24.667 327.999 74c30 16.667 65.333 42.667 106 78l8 -225c0 -57.333 -15 -93 -45 -107c-52 -24.667 -177.667 -37 -377 -37h-602
c-22 0 -33 8.33301 -33 25c0 5.33301 5.5 19 16.5 41s22.167 42.333 33.5 61l823 1344c0 22 -12.333 38.333 -37 49c-27.333 8 -86 12 -176 12c-136.667 0 -244.667 -15 -324 -45c-52 -19.333 -101 -54.666 -147 -105.999l-8 168c0 78.667 12.167 133 36.5 163
s76.166 45 155.499 45h746c57.333 0 86 -20.333 86 -61zM1337 2603c0 -38.667 -10.998 -67.335 -32.998 -86.001l-77 -70l-316 -328c-73.333 -76 -128 -114 -164 -114c-16 0 -62.333 76.333 -139 229c-79.333 150 -154.333 236 -225 258c-24.667 0 -39.667 20.667 -45 62
c0 21.333 12.167 41.666 36.5 61c24.333 19.333 50.166 29 77.499 29c87.333 0 165.333 -33 234 -99c68 -65.333 128 -160.666 180 -285.999c79.333 122.667 155.666 218 228.999 286c74 68.667 138.333 103 193 103c32.667 0 49 -15 49 -45z" />
    <glyph glyph-name="florin" unicode="&#x192;" horiz-adv-x="1839" 
d="M2073 1970c0 -65.333 -45.333 -97.999 -136 -97.999c-46 0 -88.333 99.667 -127 299c-38 196.667 -118.333 295 -241 295c-82 0 -151.667 -50.667 -209 -152c-76.667 -136.667 -162.667 -405.667 -258 -807h467c16 0 32.167 -5.33301 48.5 -16s24.5 -24.334 24.5 -41.001
c0 -38 -23 -57 -69 -57h-504l-143 -865c-74 -444.667 -169.667 -762.667 -287 -954c-142 -234.667 -352.333 -352 -631 -352c-92.667 0 -173 13.667 -241 41c-68.667 24.667 -103 58.667 -103 102c0 44 20.667 66 62 66c8 0 36.5 -16.5 85.5 -49.5s91.5 -49.5 127.5 -49.5
c147.333 0 270 65.667 368 197c139.333 182.667 244.666 494 315.999 934l155 938h-291c-48.667 0 -73 16.333 -73 49c0 40.667 21.667 61 65 61h332c95.333 358 199 635.333 311 832c109.333 194 221.333 291 336 291c128.667 0 254.334 -50.667 377.001 -152
c158.667 -130.667 238 -301.334 238 -512z" />
    <glyph glyph-name="circumflex" unicode="&#x2c6;" horiz-adv-x="1835" 
d="M1405 2077c0 -24.667 -12.335 -46.667 -37.002 -66c-27.333 -19.333 -54.666 -29 -81.999 -29c-155.333 0 -291.666 130 -408.999 390c-57.333 -93.333 -124.333 -178 -201 -254c-90 -90.667 -163.667 -136 -221 -136c-32.667 0 -49 15.333 -49 46
c0 54 20.333 93.333 61 118c98 54.667 185.333 131.334 262 230c126 163.333 210.667 245 254 245c46.667 0 89 -65.5 127 -196.5s121.333 -227.833 250 -290.5c30 -16.667 45 -35.667 45 -57z" />
    <glyph glyph-name="caron" unicode="&#x2c7;" horiz-adv-x="2179" 
d="M1626 2675c0 -38.667 -10.998 -67.334 -32.998 -86l-77 -70l-316 -328c-73.333 -76 -128 -114 -164 -114c-16 0 -62.333 76.333 -139 229c-79.333 150 -154.333 236 -225 258c-24.667 0 -39.667 20.667 -45 62c0 21.333 12.167 41.666 36.5 61
c24.333 19.333 50.166 29 77.499 29c87.333 0 165.333 -33 234 -99c68 -65.333 128 -160.666 180 -286c79.333 122.667 155.666 218 228.999 286c74 68.667 138.333 103 193 103c32.667 0 49 -15 49 -45z" />
    <glyph glyph-name="breve" unicode="&#x2d8;" horiz-adv-x="2179" 
d="M1507 2191c0 -103.333 -47.665 -207 -142.998 -311c-98 -106.667 -199 -160 -303 -160c-106.667 0 -198.334 38.333 -275.001 115c-76 76.667 -114 169.667 -114 279c0 60 5.33301 100.667 16 122c11.333 22 33.333 33 66 33c16 0 40.333 -53.333 73 -160
c33.333 -108.667 108.666 -163 225.999 -163c92.667 0 169 32.667 229 98l164 221c40.667 0 61 -24.667 61 -74z" />
    <glyph glyph-name="ring" unicode="&#x2da;" horiz-adv-x="2179" 
d="M1409 1982c0 -76 -21.998 -144 -65.998 -204c-46 -63.333 -108.667 -95 -188 -95c-100.667 0 -185.334 33 -254.001 99c-70.667 62.667 -106 146 -106 250c0 81.333 27.333 155 82 221c51.333 62.667 116.666 94 195.999 94c104 0 186 -28.667 246 -86
s90 -150.333 90 -279zM1311 1966c0 65.333 -12.333 120.001 -37 164.001c-24.667 40.667 -64.334 61 -119.001 61c-49.333 0 -91.666 -21.833 -126.999 -65.5s-53 -96.834 -53 -159.501c0 -49.333 15 -93 45 -131c27.333 -38 67 -57 119 -57c40.667 0 80 20.333 118 61
c36 38 54 80.333 54 127z" />
    <glyph glyph-name="tilde" unicode="&#x2dc;" horiz-adv-x="1704" 
d="M1364 2372c0 -82 -25.999 -158.667 -77.999 -230c-60 -82 -131 -123 -213 -123c-46 0 -96.333 16.333 -151 49c-126 74 -206.667 111 -242 111c-46.667 0 -90.334 -16.333 -131.001 -49l-123 -102c-27.333 0 -41 13.333 -41 40c0 74 37 148 111 222
c70.667 70.667 147 106 229 106c35.333 0 98 -26 188 -78c90.667 -51.333 151 -77 181 -77c51.333 0 97.5 28.667 138.5 86s71.167 86 90.5 86c27.333 0 41 -13.667 41 -41z" />
    <glyph glyph-name="afii10023" unicode="&#x401;" 
d="M1540 426c0 -40.667 -21.666 -121.333 -64.999 -242c-14 -38 -37.333 -95.333 -70 -172h-1286c0 24.667 6.66699 50.667 20 78c32.667 65.333 49 121.333 49 168v1933c0 63.333 -8.16699 114 -24.5 152l-44.5 106h1179c30 -76 52 -133.333 66 -172
c44 -117.333 66 -181.333 66 -192l-17 -12c-24.667 32.667 -46.334 57 -65.001 73c-60.667 52 -119.667 78 -177 78h-692c-32.667 0 -51.667 -5.33301 -57 -16c-8 -16.667 -12 -64.667 -12 -144v-581c0 -128.667 23 -193 69 -193c27.333 0 135.166 42.333 323.499 127
s297.5 127 327.5 127c22 0 33 -15 33 -45v-328c0 -38 -11 -57 -33 -57c-2.66699 0 -16.167 15 -40.5 45s-65.166 45 -122.499 45c-79.333 0 -191.333 -35.333 -336 -106c-147.333 -74 -221 -139.667 -221 -197v-528c0 -96 31.333 -144 94 -144h745
c44 0 90.667 19.333 140 58zM1288 2884c0 -54.667 -17.667 -108.001 -53 -160.001s-80.333 -78 -135 -78s-102.5 23.167 -143.5 69.5s-61.5 98.166 -61.5 155.5c0 60.667 19 115.334 57 164.001c38.667 49.333 88 74 148 74c49.333 0 93 -24.667 131 -74
c38 -48.667 57 -99 57 -151zM649.001 2884c0 -63.333 -16.333 -118 -49 -164c-32.667 -49.333 -79 -74 -139 -74c-52 0 -98.333 23.333 -139 70c-44 43.333 -66 95 -66 155c0 57.333 22 112 66 164c40.667 49.333 87 74 139 74s97 -22 135 -66c35.333 -46 53 -99 53 -159z
" />
    <glyph glyph-name="afii10053" unicode="&#x404;" horiz-adv-x="1301" 
d="M1829 -971c0 -54.667 -17.668 -130.999 -53.001 -228.999c-36 -101.333 -63.333 -154.666 -82 -159.999c-68.667 207.333 -247.667 458.666 -537 753.999c-401.333 409.333 -641.666 668.666 -720.999 777.999c-240 328 -360 664 -360 1008c0 390 76.333 704 229 942
c153.333 237.333 352.666 356 597.999 356c117.333 0 228 -43.667 332 -131s156 -178.666 156 -274c0 -36 -26 -82.667 -78 -140c-52 -60 -97 -91.333 -135 -94l-9 12v78c0 66 -27.167 131.667 -81.5 197s-121.166 98 -200.499 98c-150 0 -286.667 -97 -410 -291
c-125.333 -194 -188 -426 -188 -696c0 -333.333 132.333 -672 397 -1016c156 -202 403.333 -453 742 -753c267.333 -238 401 -384.333 401 -439zM243.999 1004c52 178.667 74 261.667 66 249c60.667 28.667 124.667 43 192 43c76 0 145.667 -7.16699 209 -21.5
s122.333 -21.5 177 -21.5c36.667 0 66 2.5 88 7.5s44 11.5 66 19.5v-184c-30.667 -8 -65.5 -14 -104.5 -18s-74.167 -6 -105.5 -6c-28 2 -56.667 5.66699 -86 11s-58.333 11 -87 17l-83 17.5c-26.667 5.66699 -51.334 8.5 -74.001 8.5
c-37.333 0 -71.166 -5.66699 -101.499 -17s-56.333 -24 -78 -38s-27.167 -44.5 -16.5 -91.5s-10 -38.833 -62 24.5z" />
    </font>
</defs>
</svg>
