<?xml version="1.0" standalone="no"?>
<!DOCTYPE svg PUBLIC "-//W3C//DTD SVG 1.1//EN" "http://www.w3.org/Graphics/SVG/1.1/DTD/svg11.dtd" >
<svg>
<metadata>
Created by FontForge 20090914 at Sat Jul 22 20:45:43 2017
 By www-data
Lazy Crazy (C) 1999 http://members.xoom.com/LazyCrazy/&#239;&#191;&#191;
</metadata>
<defs>
<font id="FloydianCyr" horiz-adv-x="467" >
  <font-face 
    font-family="FloydianCyr"
    font-weight="400"
    font-stretch="normal"
    units-per-em="1000"
    panose-1="0 0 0 0 0 0 0 0 0 0"
    ascent="800"
    descent="-200"
    x-height="453"
    cap-height="591"
    bbox="-104.001 -197 1074 865"
    underline-thickness="50"
    underline-position="-55"
    unicode-range="U+0020-U+F1D7"
  />
<missing-glyph horiz-adv-x="500" 
d="M63 0v829h375v-829h-375zM125 63h250v704h-250v-704z" />
    <glyph glyph-name=".notdef" horiz-adv-x="500" 
d="M63 0v829h375v-829h-375zM125 63h250v704h-250v-704z" />
    <glyph glyph-name="glyph287" unicode=" " horiz-adv-x="351" 
 />
    <glyph glyph-name="exclam" unicode="!" horiz-adv-x="439" 
d="M318 568c-8.66699 -40 -28.6689 -110.666 -60.002 -211.999c-7.33301 -20.667 -20.666 -68.334 -39.999 -143.001c-9.33301 -37.333 -21.333 -56 -36 -56c-11.333 0 -21.666 11.333 -30.999 34s-14 48 -14 76c0 8.66699 2 24 6 46s6 40.333 6 55s-1.5 33.5 -4.5 56.5
s-4.5 39.167 -4.5 48.5c0 38 15.667 71 47 99c28 25.333 57.333 38 88 38c8 0 16.333 -3 25 -9c12 -8 18 -19 18 -33zM219.998 75.001c0 -10.667 -3.83105 -20.167 -11.498 -28.5s-17.5 -12.5 -29.5 -12.5c-10.667 0 -20.334 4 -29.001 12s-13 17.667 -13 29
c0 6.66699 3.83301 15.167 11.5 25.5s17.5 15.5 29.5 15.5c11.333 0 21.166 -4.33301 29.499 -13s12.5 -18 12.5 -28z" />
    <glyph glyph-name="quotedbl" unicode="&#x22;" horiz-adv-x="410" 
d="M372 572c0 -12 -9.66602 -32 -28.999 -60c-29.333 -41.333 -68.666 -72.333 -117.999 -93h-17c-0.666992 4 -1.33398 7.16699 -2.00098 9.5l-1 3.5c0 10 9.33301 25.167 28 45.5s28 36.833 28 49.5c0 18 3.33301 34.333 10 49c11.333 22.667 29.666 34 54.999 34
c11.333 0 21.833 -3.66699 31.5 -11s14.5 -16.333 14.5 -27zM197.001 569c0 -10 -5.00098 -21.998 -15.001 -35.998l-20 -27c-38.667 -58 -81 -87 -127 -87c-0.666992 0 -1.66699 0.333008 -3 1s-2.66602 1 -3.99902 1l42 40c16.667 17.333 28.334 39.666 35.001 66.999
c4 19.333 8.33301 38.333 13 57c8 25.333 20.333 38 37 38c9.33301 0 18.666 -5.33301 27.999 -16s14 -23.334 14 -38.001z" />
    <glyph glyph-name="numbersign" unicode="#" horiz-adv-x="591" 
d="M552 386c0 -23.333 -14.1631 -38.667 -42.4961 -46s-42.5 -20 -42.5 -38c0 -22.667 6.33301 -48.667 19 -78s19 -48.666 19 -57.999c0 -8.66699 -4.33301 -20 -13 -34c-10 -17.333 -20.667 -26 -32 -26c-12 0 -22 10.333 -30 31c-6 15.333 -9 26.333 -9 33
c0 10.667 -7 24.167 -21 40.5s-27 24.5 -39 24.5c-10 0 -21.167 -7.33301 -33.5 -22s-18.5 -26 -18.5 -34c0 -4.66699 4.83301 -17.667 14.5 -39s14.5 -34 14.5 -38s-3.66699 -10.333 -11 -19c-10 -10.667 -21 -16 -33 -16c-20.667 0 -31 15.333 -31 46
c-8.66699 44 -20.667 66 -36 66c-5.33301 0 -15.5 -9.66699 -30.5 -29s-34.5 -29 -58.5 -29c-20 0 -34 14.333 -42 43c0 10.667 13.333 24.834 40 42.501s40 38.167 40 61.5c0 10 -2.5 19.667 -7.5 29s-11.167 14 -18.5 14c-4 0 -15.5 -6.66699 -34.5 -20
s-31.167 -20 -36.5 -20c-18 0 -27 12.333 -27 37c0 9.33301 9.16699 23.166 27.5 41.499s27.5 33.833 27.5 46.5c0 5.33301 -6.33301 22.333 -19 51s-19 49 -19 61c0 8.66699 3.16699 19.167 9.5 31.5s13.166 18.5 20.499 18.5c6 0 14 -8.33301 24 -25
c13.333 -22.667 23.666 -37.667 30.999 -45c15.333 -16.667 32.666 -25 51.999 -25c11.333 0 22.666 2.33301 33.999 7c14 6 21 14 21 24c0 4 -5.33301 13.5 -16 28.5s-16 29.167 -16 42.5c0 26.667 17 40 51 40c20 0 39.167 -15.667 57.5 -47s32.166 -47 41.499 -47
c8.66699 0 20.334 6.16699 35.001 18.5s26.667 18.5 36 18.5c10 0 19.333 -3.66699 28 -11s13 -15 13 -23c0 -16.667 -18.167 -32.834 -54.5 -48.501s-54.5 -31.5 -54.5 -47.5c0 -13.333 4.5 -25.333 13.5 -36s18.833 -16 29.5 -16s24.667 10.5 42 31.5s35 31.5 53 31.5
c21.333 0 32 -14.333 32 -43zM269.004 47.999h-64h64z" />
    <glyph glyph-name="dollar" unicode="$" horiz-adv-x="444" 
d="M387 412c0 -32.667 -17.667 -49.0039 -53 -49.0039c-30 0 -47 15.667 -51 47v62c-4.66699 -4.66699 -10.834 -17 -18.501 -37s-11.5 -32 -11.5 -36c0 -1.33301 -2.33301 -2 -7 -2c-2 0 -3.66699 -5.66699 -5 -17c0 0.666992 -0.166992 1.5 -0.5 2.5
s-0.833008 1.83301 -1.5 2.5c-2 -2.66699 -3 -5 -3 -7s1.33301 -5.33301 4 -10s5.33398 -7 8.00098 -7c0.666992 0 6 -9.16699 16 -27.5s16.167 -27.5 18.5 -27.5s13 -18.333 32 -55s28.5 -59 28.5 -67c0 -8.66699 -2.33301 -17.667 -7 -27s-9.66699 -14 -15 -14
c0.666992 0 -3 -4.5 -11 -13.5s-18 -13.5 -30 -13.5c-22 -8 -39.667 -12 -53 -12l-59 12c-4.66699 -22 -7 -40.333 -7 -55c0 -5.33301 -2.33301 -11.333 -7 -18s-8.66699 -9.66699 -12 -9c-2.66699 -2 -5 -4.66699 -7 -8h-8c-3.33301 4 -9 8.33301 -17 13v41
c4.66699 7.33301 7 17 7 29c0 2 1.66699 5.5 5 10.5s5 8.83301 5 11.5c-63.333 54 -95 101.333 -95 142c0 5.33301 2 13.666 6 24.999c5.33301 15.333 11.666 22.333 18.999 21c8.66699 6.66699 18.334 10 29.001 10c2 0 9 -2.33301 21 -7
c5.33301 -2 9.66602 -4.33301 12.999 -7c9.33301 -6 14.333 -13.333 15 -22c-0.666992 -12 -0.666992 -32.333 0 -61c0.666992 -11.333 5.33398 -21.666 14.001 -30.999c1.33301 2.66699 2 7.66699 2 15c0 2 5.83301 14.167 17.5 36.5s17.5 40.833 17.5 55.5
c0 2.66699 -1.33301 5.83398 -4 9.50098s-4 6.83398 -4 9.50098l-33 46c-46 78.667 -69 124.667 -69 138c0 4.66699 3.66699 13.167 11 25.5s13.333 18.5 18 18.5l7 8.5c4.66699 5.66699 10.667 8.5 18 8.5c14.667 9.33301 36 14 64 14c8 0 19.167 -1.66699 33.5 -5
s21.833 -5 22.5 -5c-0.666992 0 2 1 8 3c0.666992 9.33301 2.66699 20 6 32c2.66699 9.33301 4 19 4 29c11.333 20.667 20 31 26 31c4.66699 0 9 -4 13 -12l9 -36c-1.33301 -12 -6 -36.333 -14 -73c7.33301 -3.33301 12 -6.16602 14 -8.49902s4.33301 -3.5 7 -3.5
c16.667 -19.333 25 -29.666 25 -30.999c0 2 6.5 -8.66699 19.5 -32s19.5 -44.333 19.5 -63zM231 474.996v14c-20.667 -8.66699 -31 -20.667 -31 -36c0 -8 5 -20 15 -36c4 32 9.33301 51.333 16 58zM220 235.996c0 8.66699 -1.5 15.835 -4.5 21.502s-4.83301 9.5 -5.5 11.5
c-0.666992 -0.666992 -1.33398 -2.33398 -2.00098 -5.00098s0 -4.33398 2 -5.00098c-4.66699 -13.333 -11.334 -29.666 -20.001 -48.999c2.66699 -0.666992 4.33398 -2 5.00098 -4c-1.33301 -0.666992 -3.66602 -2.33398 -6.99902 -5.00098c21.333 8 32 19.667 32 35z" />
    <glyph glyph-name="percent" unicode="%" horiz-adv-x="464" 
d="M372 572c0 -8 -2.49805 -17.499 -7.49805 -28.499s-7.5 -20.5 -7.5 -28.5s-12.5 -29.5 -37.5 -64.5s-37.5 -63.167 -37.5 -84.5c0 -12.667 -13.333 -32.667 -40 -60c-32.667 -34 -57.334 -70.667 -74.001 -110c0 -4 -16 -29 -48 -75c-34.667 -48.667 -58 -73 -70 -73
c-8.66699 1.33301 -13 5.66602 -13 12.999c0 10.667 13.667 35.334 41 74.001c56 78 89.333 125 100 141c17.333 26 40.666 66.667 69.999 122c31.333 60 47 95.333 47 106c17.333 34.667 26 61.334 26 80.001c0 11.333 -7.66699 17 -23 17
c-2.66699 0 -6.66699 -1.16699 -12 -3.5s-12 -3.5 -20 -3.5c-44 -8 -66 -20.667 -66 -38c0 -8 5.5 -18.667 16.5 -32s16.5 -30.333 16.5 -51c0 -34.667 -12 -64.834 -36 -90.501s-47.667 -38.5 -71 -38.5c-16.667 0 -36.5 19.5 -59.5 58.5s-34.5 70.833 -34.5 95.5
c0 33.333 24 59.666 72 78.999c33.333 14 61.333 21 84 21h53c2.66699 0 15.167 3.66699 37.5 11s35.5 11 39.5 11c10 0 20.667 -3.33301 32 -10c14.667 -9.33301 22 -22 22 -38zM406.002 121.001c0 -30.667 -11.668 -54.333 -35.001 -71c-20 -14 -46.333 -21 -79 -21
c-61.333 0 -92 32 -92 96c0 39.333 9.33301 71.5 28 96.5s44.334 37.5 77.001 37.5c67.333 0 101 -46 101 -138zM183.001 472.002c0 12 -4.66699 22 -14 30s-20 12 -32 12s-21.833 -4.66699 -29.5 -14s-11.5 -20.333 -11.5 -33c0 -10 4.83301 -18.833 14.5 -26.5
s19.167 -11.5 28.5 -11.5c12 0 22.333 4.16699 31 12.5s13 18.5 13 30.5zM362.001 156.002c0 31.333 -6.33301 47 -19 47c3.33301 0 -1.66699 -2.66699 -15 -8s-33.666 -8 -60.999 -8c-12.667 -10 -19 -22.333 -19 -37s5.66699 -28 17 -40s24.666 -18 39.999 -18
c38 0 57 21.333 57 64z" />
    <glyph glyph-name="ampersand" unicode="&#x26;" horiz-adv-x="347" 
d="M210 667l-16.001 -63c-11.333 -42 -19 -64 -23 -66c-6.66699 6.66699 -12.667 17.667 -18 33c-5.33301 13.333 -8 23.333 -8 30c-8.66699 21.333 -13 36.333 -13 45c0 10.667 5.83301 20 17.5 28s24.834 12 39.501 12c14 0 21 -6.33301 21 -19zM308.999 263
c0 -10 -5.66602 -17.666 -16.999 -22.999c-32.667 -17.333 -59.334 -33 -80.001 -47c-7.33301 -5.33301 -23 -13 -47 -23c-29.333 -13.333 -49.666 -20 -60.999 -20c-12.667 0 -25 5.66699 -37 17c-14.667 13.333 -22 30.333 -22 51c0 17.333 10 37.5 30 60.5
s30 35.833 30 38.5c0 1.33301 -12.5 10.833 -37.5 28.5s-37.5 37.834 -37.5 60.501c29.333 78 91.666 117 186.999 117c46.667 0 70 -10 70 -30c0 -26 -12.667 -39 -38 -39c-6 0 -14.333 1 -25 3s-17 3 -19 3c-24.667 0 -45.834 -5 -63.501 -15s-26.5 -21.667 -26.5 -35
c0 -20 15.667 -30 47 -30c13.333 0 26.5 4 39.5 12s21.833 12 26.5 12c6.66699 0 14.667 -3.66699 24 -11s14 -14 14 -20s-9.66699 -12 -29 -18c-27.333 -8.66699 -45.333 -15.334 -54 -20.001c-19.333 -10.667 -29 -24.334 -29 -41.001c0 -9.33301 4.5 -20 13.5 -32
s18.833 -18 29.5 -18c11.333 0 22.833 9.5 34.5 28.5s21.834 28.5 30.501 28.5c7.33301 0 16.333 -3.66699 27 -11c13.333 -8 20 -17 20 -27zM256 92.001c0 -16 -4.5 -29.668 -13.5 -41.001s-21.167 -17 -36.5 -17c-13.333 0 -20 8 -20 24c0 7.33301 2.66699 20 8 38l21 71
c7.33301 -3.33301 16 -14.166 26 -32.499s15 -32.5 15 -42.5z" />
    <glyph glyph-name="quotesingle" unicode="'" horiz-adv-x="239" 
d="M197 609c0 -23.333 -11 -49 -33 -77c-28 -36 -64 -54 -108 -54c-0.666992 0 -4 0.333008 -10 1h-11c2.66699 10.667 13 19.5 31 26.5s27.333 18.5 28 34.5c0.666992 14 -2 39.667 -8 77c0 28 16.667 42 50 42c16 0 30.167 -4.33301 42.5 -13s18.5 -21 18.5 -37z" />
    <glyph glyph-name="parenleft" unicode="(" horiz-adv-x="352" 
d="M295 75c0 -10.667 -3.49902 -20.666 -10.499 -29.999s-14.167 -14 -21.5 -14c-8.66699 0 -18.334 5 -29.001 15c-14 12 -21.333 18.333 -22 19l-89 39c-9.33301 7.33301 -24.666 39.666 -45.999 96.999l-24 62c-8.66699 28 -13 55.667 -13 83c0 46 14.667 89.333 44 130
c40.667 56 100 84 178 84c20 0 30 -6.33301 30 -19s-12.667 -24.667 -38 -36l-88 -38c-26.667 -14 -43.334 -32.667 -50.001 -56c-4 -12.667 -6 -36 -6 -70c0 -30 1.33301 -50.667 4 -62c6.66699 -33.333 22.667 -62 48 -86c10.667 -10 39.667 -31.667 87 -65
c30.667 -21.333 46 -39 46 -53z" />
    <glyph glyph-name="parenright" unicode=")" horiz-adv-x="342" 
d="M304 306c0 -28.667 -9 -55.332 -27 -79.999c-9.33301 -12 -33.333 -37.333 -72 -76c-22 -21.333 -53 -55.666 -93 -102.999c-15.333 -17.333 -30 -26 -44 -26c-10.667 0 -16 6.33301 -16 19c0 3.33301 7.33301 20.666 22 51.999c18 38 35.667 69.333 53 94l52 62
c22 28 33 53.333 33 76c0 46.667 -21.667 93.667 -65 141c-18 19.333 -43.333 35.666 -76 48.999c-20.667 8 -31 23 -31 45c0 8.66699 2.66699 17 8 25s10.666 12 15.999 12c3.33301 0 14.333 -5.33301 33 -16c28 -16 51.667 -28.667 71 -38
c4.66699 -1.33301 21.334 -11 50.001 -29c32.667 -20 51.667 -34.333 57 -43c19.333 -29.333 29 -84 29 -164z" />
    <glyph glyph-name="asterisk" unicode="*" horiz-adv-x="503" 
d="M462 473c0 -10 -6.00293 -25.998 -18.0029 -47.998s-18 -34.333 -18 -37c0 -6.66699 -19.833 -19.834 -59.5 -39.501s-59.5 -36.167 -59.5 -49.5c0 -8 15.667 -22.667 47 -44s47 -35.666 47 -42.999c0 0.666992 3.33301 -2 10 -8s10 -14 10 -24
c0 -5.33301 -4 -12.666 -12 -21.999c-11.333 -13.333 -25.333 -20 -42 -20c-19.333 0 -41.666 17.333 -66.999 52s-40 52 -44 52c-10.667 0 -34 -20.667 -70 -62s-58.667 -62 -68 -62c-8 0 -15.667 3.16699 -23 9.5s-11 13.833 -11 22.5c0 9.33301 7.66699 28.166 23 56.499
s23 45.166 23 50.499c0 -0.666992 6.33301 6.66602 19 21.999s19 30 19 44c0 8.66699 -1.16699 15 -3.5 19s-3.5 6.66699 -3.5 8c0 4 -6.16699 12.833 -18.5 26.5s-19.666 20.5 -21.999 20.5s-13.833 9.83301 -34.5 29.5s-31 31.834 -31 36.501c0 3.33301 5 8.33301 15 15
c12.667 7.33301 25.667 11 39 11c4 0 7.66699 -0.666992 11 -2c0 -2 3.66699 -3 11 -3c10 -1.33301 19 -4.33301 27 -9c12.667 -7.33301 24.5 -20.5 35.5 -39.5s17.833 -30.167 20.5 -33.5c10.667 -12.667 23.667 -19 39 -19c24.667 0 49.667 10 75 30
c12.667 9.33301 32.334 28.666 59.001 57.999c20.667 22 36 34.667 46 38c19.333 -7.33301 29 -19.333 29 -36z" />
    <glyph glyph-name="plus" unicode="+" horiz-adv-x="542" 
d="M503 372c0 -52.667 -28.334 -78.999 -85.001 -78.999c-10 0 -21.5 0.833008 -34.5 2.5s-20.5 2.5 -22.5 2.5c-43.333 0 -67 -31.667 -71 -95c-1.33301 -20.667 -1.33301 -40 0 -58c0.666992 -8 5.33398 -31.333 14.001 -70c0 -16 -8.33301 -24 -25 -24
c-20 0 -37 15.333 -51 46c-12 26 -18 52 -18 78s2.83301 45.667 8.5 59s8.5 23 8.5 29c0 7.33301 -3.33301 14.166 -10 20.499s-12.667 9.5 -18 9.5l-40 -13c-26.667 -8.66699 -55.334 -13 -86.001 -13c-24 0 -36 12 -36 36c0 14.667 5 28 15 40s24 18 42 18h94
c6 0 11.167 3.33301 15.5 10s6.5 11.667 6.5 15c-16 78 -24 124 -24 138c0 10 3.16699 19 9.5 27s13.5 12 21.5 12c19.333 0 35.333 -17 48 -51l35 -93c17.333 -34 41 -51 71 -51c13.333 0 35.333 3.33301 66 10s45.334 10 44.001 10c14.667 -4.66699 22 -10 22 -16z" />
    <glyph glyph-name="comma" unicode="," horiz-adv-x="215" 
d="M166 76c0 -5.33301 -1.16602 -12.334 -3.49902 -21.001s-3.5 -15 -3.5 -19c0 -8.66699 -10.333 -26 -31 -52c-22.667 -28 -45.334 -50.333 -68.001 -67c-2 6 -3 8.33301 -3 7c0 4.66699 7.33301 18 22 40s22 34.667 22 38c0 8.66699 -10.167 15.334 -30.5 20.001
s-30.5 16.667 -30.5 36c0 20 6.66699 35.833 20 47.5s30 17.5 50 17.5c14.667 0 27.667 -4.33301 39 -13s17 -20 17 -34z" />
    <glyph glyph-name="hyphen" unicode="-" horiz-adv-x="640" 
d="M593 268c-8 -2.66699 -13.3359 -4 -16.0029 -4c-13.333 0 -29 2 -47 6c-15.333 3.33301 -29 4.33301 -41 3c4 -2.66699 7.66699 -5.66699 11 -9c-7.33301 -12.667 -22.333 -16.667 -45 -12c-28 0 -73.333 1.33301 -136 4c-22 1.33301 -47 4.66602 -75 9.99902
c-18 2.66699 -39 2.66699 -63 0l-45.5 -11c-30.333 -7.33301 -52.166 -11 -65.499 -11c-28 0 -42 17 -42 51c0 21.333 7.33301 40.333 22 57s32.334 25 53.001 25h185c14 -0.666992 31.667 -3.66699 53 -9c-10 -4.66699 -20 -7.83398 -30 -9.50098
s-18.667 -4.16699 -26 -7.5c6.66699 -1.33301 10.667 -2 12 -2c47.333 4 99 9.66699 155 17c-4 -1.33301 -11 -4.66602 -21 -9.99902c2.66699 -1.33301 4.33398 -2 5.00098 -2c6 0 19.167 2 39.5 6s33.5 6 39.5 6c-0.666992 -0.666992 -1.5 -1.83398 -2.5 -3.50098
s-1.83301 -3.16699 -2.5 -4.5c10 0 25 -1 45 -3c6 -0.666992 12 -2.66699 18 -6c-3.33301 -4.66699 -7 -7 -11 -7c-11.333 0 -21.333 -4.33301 -30 -13l8 -4c-6 2.66699 -10.667 3.66699 -14 3c-10 -2 -18.667 -3.33301 -26 -4c-0.666992 -1.33301 -2 -3 -4 -5
c6 -5.33301 19 -14.666 39 -27.999c-8.66699 0 -17 -1.66699 -25 -5c10.667 -6 25.667 -9.16699 45 -9.5s32 -3.16602 38 -8.49902z" />
    <glyph glyph-name="hyphen" unicode="&#x2010;" horiz-adv-x="640" 
d="M593 268c-8 -2.66699 -13.3359 -4 -16.0029 -4c-13.333 0 -29 2 -47 6c-15.333 3.33301 -29 4.33301 -41 3c4 -2.66699 7.66699 -5.66699 11 -9c-7.33301 -12.667 -22.333 -16.667 -45 -12c-28 0 -73.333 1.33301 -136 4c-22 1.33301 -47 4.66602 -75 9.99902
c-18 2.66699 -39 2.66699 -63 0l-45.5 -11c-30.333 -7.33301 -52.166 -11 -65.499 -11c-28 0 -42 17 -42 51c0 21.333 7.33301 40.333 22 57s32.334 25 53.001 25h185c14 -0.666992 31.667 -3.66699 53 -9c-10 -4.66699 -20 -7.83398 -30 -9.50098
s-18.667 -4.16699 -26 -7.5c6.66699 -1.33301 10.667 -2 12 -2c47.333 4 99 9.66699 155 17c-4 -1.33301 -11 -4.66602 -21 -9.99902c2.66699 -1.33301 4.33398 -2 5.00098 -2c6 0 19.167 2 39.5 6s33.5 6 39.5 6c-0.666992 -0.666992 -1.5 -1.83398 -2.5 -3.50098
s-1.83301 -3.16699 -2.5 -4.5c10 0 25 -1 45 -3c6 -0.666992 12 -2.66699 18 -6c-3.33301 -4.66699 -7 -7 -11 -7c-11.333 0 -21.333 -4.33301 -30 -13l8 -4c-6 2.66699 -10.667 3.66699 -14 3c-10 -2 -18.667 -3.33301 -26 -4c-0.666992 -1.33301 -2 -3 -4 -5
c6 -5.33301 19 -14.666 39 -27.999c-8.66699 0 -17 -1.66699 -25 -5c10.667 -6 25.667 -9.16699 45 -9.5s32 -3.16602 38 -8.49902z" />
    <glyph glyph-name="period" unicode="." horiz-adv-x="195" 
d="M149 66c0 -6 -3.99902 -17.667 -11.999 -35c-8.66699 -19.333 -16.334 -29 -23.001 -29c-42.667 21.333 -64 46 -64 74c0 7.33301 4 16 12 26c10.667 12.667 23.667 19 39 19c14 0 25.5 -5.33301 34.5 -16s13.5 -23.667 13.5 -39z" />
    <glyph glyph-name="slash" unicode="/" horiz-adv-x="449" 
d="M392 534c0 -6 -4.66797 -16.668 -14.001 -32.001l-18 -27l-24 -83c-18 -56 -37.333 -101.333 -58 -136c-19.333 -32 -48.666 -73 -87.999 -123c-55.333 -69.333 -95.666 -106.666 -120.999 -111.999v18c12 24.667 20.333 47 25 67c-8 3.33301 -11.333 5 -10 5
c-4 0 -21.667 -17 -53 -51c4.66699 10 24.667 37.667 60 83c42 54 82.333 112.667 121 176c28.667 47.333 57 111.333 85 192c13.333 40.667 28.666 61 45.999 61c7.33301 0 17.333 -4.33301 30 -13s19 -17 19 -25z" />
    <glyph glyph-name="zero" unicode="0" horiz-adv-x="454" 
d="M416 253c0 -46.667 -33.999 -97.001 -101.999 -151.001c-23.333 -18.667 -51.333 -36.667 -84 -54c-34.667 -18 -58.667 -27 -72 -27c-26.667 0 -53.667 14.333 -81 43c-31.333 32.667 -47 71 -47 115c0 5.33301 21.333 68.333 64 189c34.667 97.333 79.667 146 135 146
c29.333 0 54.666 -9.66699 75.999 -29c15.333 -13.333 29 -33 41 -59l21 -51l38 -73c7.33301 -15.333 11 -31.666 11 -48.999zM297.001 308.999c0 17.333 -8.83203 34.333 -26.499 51s-33.834 25 -48.501 25c-12 0 -31.333 -30.667 -58 -92c0 -2 -4.5 -16.333 -13.5 -43
s-13.5 -46 -13.5 -58c0 -21.333 7.33301 -32 22 -32c6 0 40.667 16.667 104 50c4 3.33301 10.667 18.333 20 45s14 44.667 14 54z" />
    <glyph glyph-name="one" unicode="1" horiz-adv-x="723" 
d="M661 147c-11.333 -8.66699 -32.335 -17.667 -63.002 -27c-74 -22.667 -117 -36 -129 -40c-6.66699 -2 -39.167 -8.16699 -97.5 -18.5s-88.833 -15.5 -91.5 -15.5c1.33301 0 -11.667 -3.66699 -39 -11s-52.666 -11 -75.999 -11c-14.667 0 -31 3.33301 -49 10
c-20 7.33301 -30 15.666 -30 24.999c0 8.66699 12.333 15.334 37 20.001c33.333 6.66699 55.666 12.667 66.999 18c24.667 12.667 37 33 37 61c0 5.33301 -1.66699 14.5 -5 27.5s-5 25.833 -5 38.5c0 -2 1.33301 7.5 4 28.5s4 39.167 4 54.5c0 20 5.16699 48.5 15.5 85.5
s15.5 58.5 15.5 64.5c0 11.333 -4.5 21.166 -13.5 29.499s-20.167 12.5 -33.5 12.5c-16 0 -37.333 -15.333 -64 -46c-30 -34.667 -49.667 -54 -59 -58c5.33301 6.66699 8 11 8 13c0 9.33301 -8.33301 15 -25 17l-38 4c4 8 18.667 18.667 44 32c28 15.333 48.667 32 62 50
l61 84c10.667 13.333 19.334 20 26.001 20c4.66699 0 11.334 -1.16699 20.001 -3.5s16.667 -3.5 24 -3.5c11.333 0 21 -4.33301 29 -13s12 -16.334 12 -23.001c0 -0.666992 -1.66699 -6.66699 -5 -18s-5 -21.666 -5 -30.999v-148l-27 -217
c4.66699 -30 18.334 -45 41.001 -45c5.33301 0 16.833 2.83301 34.5 8.5s28.167 8.83398 31.5 9.50098l197 29c-18.667 -6 -41.334 -15 -68.001 -27c4.66699 -1.33301 25.667 1 63 7c40 6.66699 64.667 10 74 10c4 0 9.33301 -1 16 -3z" />
    <glyph glyph-name="two" unicode="2" horiz-adv-x="742" 
d="M685 167c-20 -23.333 -54.6709 -37.334 -104.004 -42.001c-24 -2.66699 -97 -4 -219 -4c-9.33301 0 -57.166 -16.667 -143.499 -50s-137.833 -50 -154.5 -50c-24 0 -36 18 -36 54l359 409c0 18.667 -6 35.167 -18 49.5s-26.667 21.5 -44 21.5
c-6 0 -13.5 -1.33301 -22.5 -4s-16.5 -3.66699 -22.5 -3l-184 -61c-29.333 6 -44 24.333 -44 55c0 21.333 29.667 41.666 89 60.999c56.667 18 112.667 27 168 27c3.33301 0 13.833 1.66699 31.5 5s27.834 5 30.501 5c28 0 52.333 -13 73 -39
c18.667 -23.333 28 -45.666 28 -66.999c-5.33301 -33.333 -10.666 -63 -15.999 -89c-12.667 -62 -23.667 -100.667 -33 -116c-15.333 -24.667 -51.333 -52 -108 -82c-48 -25.333 -72 -46.333 -72 -63c0 -21.333 11.667 -32 35 -32c56.667 11.333 118 24.333 184 39
c30.667 11.333 61.334 17 92.001 17c3.33301 0 18 1.16699 44 3.5s38 3.83301 36 4.5l19 -1c-27.333 -2 -41 -10 -41 -24c0 -6 6.33301 -10 19 -12c-25.333 -5.33301 -50.333 -10.333 -75 -15c-14 -3.33301 -24.333 -9.66602 -31 -18.999h19c30.667 12.667 52.667 20 66 22
c-0.666992 -3.33301 -3 -9 -7 -17c4 -2 7.66699 -3 11 -3c8 0 31.667 6.66699 71 20z" />
    <glyph glyph-name="three" unicode="3" horiz-adv-x="439" 
d="M394 171c0 -25.333 -22.333 -54.499 -67 -87.499s-83 -49.5 -115 -49.5h-70c-4 0 -9.83301 -2.33301 -17.5 -7s-15.167 -7 -22.5 -7c-3.33301 0 -8 2.5 -14 7.5s-9 11.833 -9 20.5s4 18.667 12 30s16.333 17 25 17c4.66699 0 13 -2.5 25 -7.5s22 -7.5 30 -7.5
c16.667 0 34.167 10 52.5 30s27.5 41 27.5 63c0 19.333 -5.66699 38.666 -17 57.999c-14 22 -30.667 33 -50 33c-22.667 0 -42.667 -4 -60 -12s-25 -12 -23 -12c-4 0 -7.83301 2.5 -11.5 7.5s-5.5 9.16699 -5.5 12.5c0 12.667 13 24.667 39 36c38 16.667 61.667 29 71 37
c26 19.333 39 46 39 80c0 26.667 -15.667 40 -47 40c-22.667 0 -46 -10.833 -70 -32.5s-39.667 -32.5 -47 -32.5c-3.33301 0 -10 3.66699 -20 11c-12.667 9.33301 -19 18.666 -19 27.999c0 8.66699 17.333 24.667 52 48c40 27.333 79 41 117 41c42.667 0 75.667 -11 99 -33
c20 -18.667 30 -42.667 30 -72c0 -23.333 -6.66699 -43.666 -20 -60.999c-8 -10.667 -20.333 -22 -37 -34c-13.333 -9.33301 -20 -15.333 -20 -18c0 -6 7.66699 -10.667 23 -14c22.667 -4.66699 44 -14.667 64 -30s33.333 -27.333 40 -36c10.667 -13.333 16 -29 16 -47z" />
    <glyph glyph-name="four" unicode="4" horiz-adv-x="464" 
d="M426 390c0 -8 -6.33301 -14.0029 -19 -18.0029c-22 -7.33301 -34.667 -11.666 -38 -12.999c-15.333 -8.66699 -25.666 -22 -30.999 -40c-2 -10.667 -10.667 -47 -26 -109c-10.667 -40 -18.667 -81 -24 -123c-4 -30.667 -8 -49 -12 -55c-5.33301 -8 -18.333 -12 -39 -12
c-24.667 0 -37 9 -37 27c0 2.66699 9.66699 39.167 29 109.5s29 115.166 29 134.499c0 8.66699 -3 16.334 -9 23.001s-12 10 -18 10s-31.667 -6.83301 -77 -20.5s-69 -20.5 -71 -20.5c-16 0 -29.667 6.66699 -41 20s-17 31 -17 53c0 63.333 19 122.333 57 177
c31.333 45.333 56.666 68 75.999 68c11.333 0 18 -9.66699 20 -29l-36 -126c4 -28 19.667 -42 47 -42c23.333 0 43.833 7.83301 61.5 23.5s26.5 32.834 26.5 51.501c0 83.333 27.667 125 83 125c8.66699 0 13.667 -4.33301 15 -13
c1.33301 -31.333 1.33301 -54.666 0 -69.999c-3.33301 -44 -9.33301 -78 -18 -102c0 -8 11.5 -12.167 34.5 -12.5s34.5 -5.83301 34.5 -16.5z" />
    <glyph glyph-name="five" unicode="5" horiz-adv-x="566" 
d="M524 264c0 -50 -11 -97.334 -33 -142.001c-27.333 -55.333 -64.333 -83 -111 -83c-22.667 -6.66699 -40.667 -10 -54 -10h-211c-11.333 0 -21.5 6 -30.5 18s-13.5 23.667 -13.5 35c0 4 2 9 6 15s9.33301 9 16 9c-1.33301 0 8.83398 -1.83301 30.501 -5.5
s39.167 -5.5 52.5 -5.5c20 0 55.333 9.33301 106 28c60.667 23.333 102 48.333 124 75c19.333 24 29 53 29 87c0 38.667 -17.667 67.667 -53 87c-26.667 14 -59.334 21 -98.001 21c-40 0 -75.333 -5.33301 -106 -16s-47.334 -16 -50.001 -16
c-21.333 0 -39.666 15.333 -54.999 46c-15.333 28.667 -23 59.334 -23 92.001c-13.333 30.667 -20 58 -20 82c0 14 4.5 27 13.5 39s20.833 18 35.5 18c12 -4 28 -8.33301 48 -13c54 2 142.333 3.66699 265 5c59.333 -0.666992 89 -17.667 89 -51
c0 -17.333 -7.33301 -26 -22 -26c-4.66699 0 -19.167 2.66699 -43.5 8s-37.166 8 -38.499 8c-25.333 2 -44 2 -56 0c-1.33301 0 -16.5 -2.83301 -45.5 -8.5s-44.5 -8.5 -46.5 -8.5h-61c-15.333 0 -23 -8.66699 -23 -26c0 -10.667 5.5 -22.667 16.5 -36s23.5 -20 37.5 -20
c10.667 0 24.167 2 40.5 6s29.166 6 38.499 6c65.333 0 124.333 -28.333 177 -85c46 -48.667 69 -93 69 -133z" />
    <glyph glyph-name="six" unicode="6" horiz-adv-x="483" 
d="M444 171c0 -45.333 -20.333 -82.332 -61 -110.999c-34 -24 -69.333 -36 -106 -36c-45.333 0 -87.666 15.333 -126.999 46c-28.667 23.333 -53.667 53 -75 89c-16.667 27.333 -25 44.666 -25 51.999c-4.66699 8.66699 -11.334 46.667 -20.001 114l3 84l5 -5
c9.33301 20.667 21.333 45.667 36 75c46.667 81.333 118.334 122 215.001 122c22 0 36.667 -1 44 -3c13.333 -4 20 -12.333 20 -25c0 -22 -15.667 -35.333 -47 -40c-50.667 -8 -79.334 -13.667 -86.001 -17c-22.667 -10.667 -43.5 -29.667 -62.5 -57
s-29.167 -51.333 -30.5 -72c-2.66699 -42 -2.66699 -75.667 0 -101c4 -40 18 -76.667 42 -110c28 -38.667 62 -58 102 -58c30.667 0 57.334 13 80.001 39c18.667 20.667 28 39 28 55c0 36.667 -23.333 55 -70 55c-19.333 0 -37.333 -4.16699 -54 -12.5
s-28.334 -12.5 -35.001 -12.5c-8.66699 0 -16 6.33301 -22 19c-5.33301 10.667 -8 20.667 -8 30c0 28.667 19 43 57 43c131.333 0 197 -54.333 197 -163z" />
    <glyph glyph-name="seven" unicode="7" horiz-adv-x="669" 
d="M603 314c-8.66699 -12.667 -26.334 -19.0039 -53.001 -19.0039c-11.333 0 -27 1.33301 -47 4s-32.667 4 -38 4c-12 0 -24.333 -9.66699 -37 -29l-46 -71c-24 -33.333 -51.667 -61.666 -83 -84.999c-13.333 -10 -29.666 -24.667 -48.999 -44l-33 -33
c-14 -12 -28.333 -18.333 -43 -19c-20 -1.33301 -50.667 -14.666 -92 -39.999c11.333 24.667 40.333 62.667 87 114c52 56.667 78.667 86 80 88c13.333 28 31 62 53 102c-8 3.33301 -45.333 5 -112 5c-8.66699 0 -16.667 2.33301 -24 7c8 26 50.667 39 128 39
c31.333 0 58.333 6.33301 81 19c25.333 14.667 38 33 38 55c0 16.667 -6 31 -18 43c-14 14 -33.333 21 -58 21c-6.66699 0 -22.334 -1.16699 -47.001 -3.5s-43.667 -3.5 -57 -3.5c-7.33301 0 -26 -6.83301 -56 -20.5s-53 -20.5 -69 -20.5c-53.333 9.33301 -80 22.333 -80 39
c0 9.33301 7.33301 22.333 22 39c18 22 39 33 63 33h55c32 8 57.333 12 76 12h230c2.66699 0 8.5 1.66699 17.5 5s17.167 5 24.5 5c6.66699 0 13 -1.16699 19 -3.5s10.667 -3.5 14 -3.5c32.667 -15.333 49 -39.666 49 -72.999c0 -19.333 -9.33301 -39.666 -28 -60.999
l-79 -83c3.33301 -1.33301 22 -4 56 -8c28.667 -3.33301 47.334 -8 56.001 -14z" />
    <glyph glyph-name="eight" unicode="8" horiz-adv-x="396" 
d="M353 217c0 -16 -5.00098 -36.668 -15.001 -62.001c-6.66699 -22.667 -13 -45.667 -19 -69c-7.33301 -20.667 -17.666 -35.334 -30.999 -44.001c-16 -10.667 -40 -16 -72 -16c-46.667 0 -88.167 13.833 -124.5 41.5s-54.5 59.834 -54.5 96.501c0 26 7.66699 52 23 78
c6.66699 11.333 20.667 30.333 42 57c15.333 18.667 23 32.334 23 41.001c0 15.333 -16.167 37.333 -48.5 66s-48.5 54.334 -48.5 77.001c0 18.667 12 48.667 36 90c27.333 48 54.333 72 81 72c51.333 0 96 -11 134 -33c42.667 -24.667 64 -58.667 64 -102
c0 -36 -8.33301 -65.667 -25 -89c-12.667 -16.667 -30 -30.334 -52 -41.001l-41 -19c6 -8 21.667 -19 47 -33s43.333 -27 54 -39c18 -19.333 27 -43.333 27 -72zM250.999 488.999c0 42.667 -21.667 63.999 -65 63.999c-20.667 0 -38.667 -2.66699 -54 -8
c-18 -6.66699 -27 -15.667 -27 -27c0 -13.333 8.66699 -31.666 26 -54.999c20 -27.333 40.333 -41 61 -41c39.333 0 59 22.333 59 67zM267.999 217.998c0 14 -8.16895 28 -24.502 42s-31.166 21 -44.499 21c-8 0 -29.333 -34 -64 -102c0 -10.667 8 -23.5 24 -38.5
s28 -22.5 36 -22.5c12.667 0 28.334 15.333 47.001 46c17.333 27.333 26 45.333 26 54z" />
    <glyph glyph-name="nine" unicode="9" horiz-adv-x="474" 
d="M426 544l-44 -242.998c-3.33301 -6.66699 -8.33301 -20.334 -15 -41.001c-8 -25.333 -12 -42.666 -12 -51.999c0 2 -4.5 -13.167 -13.5 -45.5s-13.5 -55.833 -13.5 -70.5c0 -48 -24.667 -72 -74 -72c-26 0 -39 9.66699 -39 29c0 16.667 14 55.667 42 117
s42 110.666 42 147.999c0 -2 3 9.16699 9 33.5s9.66699 44.833 11 61.5c2 30.667 2 54 0 70c-3.33301 28.667 -23.666 44 -60.999 46c-40.667 2 -74.334 2 -101.001 0c-15.333 -1.33301 -29 -8.33301 -41 -21c-14.667 -15.333 -22 -36 -22 -62
c0 -26.667 7.16699 -51.667 21.5 -75s30.833 -35 49.5 -35c16 0 37.667 12.667 65 38c36 33.333 56 51.333 60 54c4.66699 -10.667 7 -18.334 7 -23.001c0 -22 -16.5 -46.667 -49.5 -74s-62.167 -41 -87.5 -41c-36.667 0 -68.667 15 -96 45c-26 28 -39 58.667 -39 92
c0 40 12 76.667 36 110c26.667 36.667 59.334 55 98.001 55h72c4.66699 0 20.667 -5.5 48 -16.5s47.333 -16.5 60 -16.5c8 0 21.167 2.33301 39.5 7s28.166 7 29.499 7c9.33301 0 15.333 -8.33301 18 -25z" />
    <glyph glyph-name="colon" unicode=":" horiz-adv-x="234" 
d="M176 428c0 -18 -12.001 -35 -36.001 -51c-20 -12.667 -34 -19 -42 -19c-9.33301 0 -21.666 13.667 -36.999 41c-14 24.667 -21 39.667 -21 45c0 6 5.66699 15 17 27c14.667 15.333 32 23 52 23c18 0 33.667 -7 47 -21s20 -29 20 -45zM187.999 236
c0 -16.667 -12.333 -32.666 -37 -47.999c-20 -12 -34 -18 -42 -18c-6 0 -14.333 4.66699 -25 14c-14.667 13.333 -22 30.666 -22 51.999c0 13.333 5.5 28.333 16.5 45s21.5 25 31.5 25c52 -26.667 78 -50 78 -70z" />
    <glyph glyph-name="semicolon" unicode=";" horiz-adv-x="273" 
d="M220 435c0 -21.333 -8.66797 -40.165 -26.001 -56.498s-35.666 -24.5 -54.999 -24.5c-22.667 0 -42 8 -58 24s-24 34 -24 54c0 23.333 8 43.166 24 59.499s35.333 24.5 58 24.5c22 0 41 -8.83301 57 -26.5s24 -35.834 24 -54.501zM194.999 213.001
c-3.33301 -26.667 -8 -52.666 -14 -77.999c-14 -60.667 -32.667 -113 -56 -157c-4.66699 3.33301 -7.66699 8 -9 14c-2 11.333 -3 37.333 -3 78v51c0 11.333 -14.167 25.166 -42.5 41.499s-42.5 31.5 -42.5 45.5c0 22 10.667 40.667 32 56c17.333 12.667 34 19 50 19
c22 0 41.667 -6.66699 59 -20s26 -30 26 -50z" />
    <glyph glyph-name="less" unicode="&#x3c;" horiz-adv-x="391" 
d="M319 489c-7.33301 -4 -38 -31.668 -92 -83.001c-60 -57.333 -90 -93.666 -90 -108.999c0 -12 14.333 -34 43 -66l132 -147c-6.66699 -5.33301 -14.667 -14 -24 -26c-86.667 86 -149 143.667 -187 173l-68 47c21.333 32 38.333 53.333 51 64l65 55
c83.333 76 127 114 131 114c0.666992 0 5 -2.66699 13 -8s16.667 -10 26 -14z" />
    <glyph glyph-name="equal" unicode="=" horiz-adv-x="488" 
d="M431 468c0 -46 -46.998 -69 -140.998 -69h-114l-83 -6c-27.333 -2 -41 8.33301 -41 31c0 11.333 5.5 23.833 16.5 37.5s23.167 20.5 36.5 20.5c3.33301 0 13.666 -3.16699 30.999 -9.5s35 -9.5 53 -9.5c19.333 0 61.166 4 125.499 12s95.833 12 94.5 12
c14.667 0 22 -6.33301 22 -19zM413.002 250c0 -11.333 -3.66895 -21.5 -11.002 -30.5s-17.333 -13.5 -30 -13.5c-7.33301 0 -18.166 2.5 -32.499 7.5s-27.166 7.5 -38.499 7.5c-26 0 -69.333 -5.5 -130 -16.5s-92.667 -16.5 -96 -16.5c-10.667 0 -21 5.33301 -31 16
c-12.667 13.333 -19 31.333 -19 54c0 26.667 11 40 33 40c8 0 35 -6.66699 81 -20l159 25c76.667 -12 115 -29.667 115 -53z" />
    <glyph glyph-name="greater" unicode="&#x3e;" horiz-adv-x="381" 
d="M329 293c-10.667 -20 -25.999 -39.3359 -45.999 -58.0029l-74 -62c-44.667 -37.333 -79.334 -69.333 -104.001 -96c-10 -10.667 -18.333 -16 -25 -16c2 0 -9 6.33301 -33 19l94 86c56 54 84 90.333 84 109c-7.33301 14 -16.666 28.667 -27.999 44
c-26.667 38.667 -61 79.334 -103 122.001c-4 2.66699 -11.333 10 -22 22c-13.333 12.667 -20 20.667 -20 24c3.33301 4.66699 10.666 13.334 21.999 26.001c97.333 -91.333 163.333 -150.666 198 -177.999z" />
    <glyph glyph-name="question" unicode="?" horiz-adv-x="444" 
d="M398 448c0 -33.333 -11.668 -62.3301 -35.001 -86.9971c-14.667 -15.333 -37.5 -31.333 -68.5 -48s-48.5 -27.834 -52.5 -33.501s-6.33301 -12.5 -7 -20.5c0 -6 0.5 -13 1.5 -21l1.5 -12c0 -28 -15.333 -42 -46 -42c-6.66699 0 -14.334 2.66699 -23.001 8
s-13 11.333 -13 18c0 6 6 20.5 18 43.5s18 37.833 18 44.5c0 21.333 17.833 52.166 53.5 92.499s53.5 62.5 53.5 66.5c0 15.333 -16.167 33.5 -48.5 54.5s-59.166 31.5 -80.499 31.5c-20 0 -39.333 -8.16699 -58 -24.5s-37 -24.5 -55 -24.5c-14.667 0 -22 7.33301 -22 22
s6 30.667 18 48c16.667 23.333 38.334 35.666 65.001 36.999c35.333 1.33301 66 1.33301 92 0c46 -2.66699 87.333 -17.334 124 -44.001c42.667 -29.333 64 -65.666 64 -108.999zM221.999 71.0029c0 -12.667 -4.66797 -23.333 -14.001 -32s-20.333 -13 -33 -13
c-13.333 0 -24.666 4.83301 -33.999 14.5s-14 21.167 -14 34.5c0 12 5.16699 22.667 15.5 32s20.833 14 31.5 14c32 0 48 -16.667 48 -50z" />
    <glyph glyph-name="at" unicode="@" horiz-adv-x="640" 
d="M576 29c-31.333 18 -53.6699 26.999 -67.0029 26.999c1.33301 0 -11.167 -4.5 -37.5 -13.5s-44.5 -13.5 -54.5 -13.5c-8.66699 0 -19 3.33301 -31 10s-19 10.334 -21 11.001c-6.66699 1.33301 -14.334 0.666016 -23.001 -2.00098c-11.333 -2.66699 -24.333 -4 -39 -4
c-21.333 0 -33 3 -35 9c-22 -12.667 -49 -19 -81 -19c-50 0 -91 24 -123 72c-24 36.667 -36 71 -36 103c0 50.667 15.667 109.167 47 175.5s47 117.5 47 153.5c0 24.667 15.667 48 47 70c28.667 20 54.667 30 78 30c65.333 0 114.333 -40 147 -120
c22.667 -56 34 -115.667 34 -179v-111c0 -10 -4 -15 -12 -15c-54.667 -10 -88 -15 -100 -15c-3.33301 0 -8 1.33301 -14 4s-11 4 -15 4c-7.33301 0 -18.5 6 -33.5 18s-26.5 18 -34.5 18s-12 -4.66699 -12 -14l-19 -5c-1.33301 0 -2.66602 0.333008 -3.99902 1
s-2.33301 1 -3 1c-2 8 -3 11 -3 9l7 29.5c4.66699 19.667 7 34.5 7 44.5c3.33301 12 8.33301 23 15 33c14 23.333 32.667 39.666 56 48.999c9.33301 -25.333 14 -37.333 14 -36c0 -1.33301 2.66699 -4.66602 8 -9.99902c4.66699 -12 7 -22.333 7 -31
c10 -48.667 20.667 -73 32 -73c8 0 12 7 12 21c0 4.66699 -6.66699 36.667 -20 96c-14.667 64.667 -25 102.334 -31 113.001c-41.333 -14 -78.833 -46.333 -112.5 -97s-50.5 -97.667 -50.5 -141c0 -10.667 7.66699 -30.667 23 -60c17.333 -34 33.333 -51 48 -51
c7.33301 0 20 4.66699 38 14c8.66699 1.33301 19.334 0.5 32.001 -2.5s22.334 -4.5 29.001 -4.5c19.333 0 34.833 3.16699 46.5 9.5s16.5 9.5 14.5 9.5c2.66699 0 13 -3.66699 31 -11s27 -12.333 27 -15c0 -6.66699 13.333 -10 40 -10c22.667 -11.333 42.334 -22 59.001 -32
c40 -23.333 62 -40 66 -50zM270.996 282.999c0 20 -7.33301 39.333 -22 58c-12.667 -14 -21.667 -30 -27 -48c-2 -13.333 -4.33301 -26.333 -7 -39c4.66699 6 16 11.667 34 17c2.66699 -4.66699 6.66699 -7 12 -7h7c2 8 3 14.333 3 19z" />
    <glyph glyph-name="A" unicode="A" horiz-adv-x="425" 
d="M365 65c-2.66699 9.33301 -11.665 24.667 -26.998 46l-11 -8c0 -0.666992 1.33301 -4.33398 4 -11.001c-5.33301 8.66699 -16 19.667 -32 33v-31c3.33301 -4 6.66602 -8.66699 9.99902 -14c-2 -0.666992 -4.33301 -1.66699 -7 -3c-6 8.66699 -11.667 18.334 -17 29.001
c-2 -3.33301 -2 -9 0 -17c-12.667 25.333 -19 51.333 -19 78c0 8.66699 3.16699 19 9.5 31s9.5 25 9.5 39c0 28.667 -16.667 55.667 -50 81c-28 20.667 -50.333 31 -67 31c-6 0 -11.333 -2.66699 -16 -8s-7 -10.333 -7 -15c0 -6.66699 3.83301 -17.5 11.5 -32.5
s11.5 -28.167 11.5 -39.5c0 -10 -3.66699 -29.833 -11 -59.5s-11 -48.834 -11 -57.501s1.66699 -19.334 5 -32.001s5 -22.667 5 -30c0 -12 -4.16699 -22.333 -12.5 -31s-19.5 -13 -33.5 -13c-20.667 0 -39.167 6.33301 -55.5 19s-24.5 25.334 -24.5 38.001
c0 6 7.66699 28.167 23 66.5s23 81.166 23 128.499c0 -3.33301 2.5 11.667 7.5 45s7.5 61 7.5 83s8.66699 53.333 26 94c23.333 55.333 53.666 97 90.999 125c27.333 20.667 44 31 50 31c5.33301 0 8.33301 -0.666992 9 -2c0.666992 -4 1 -7.66699 1 -11
c0.666992 -17.333 9.66699 -39.666 27 -66.999c9.33301 -14.667 19 -42 29 -82c25.333 -101.333 38 -157 38 -167c0 -6 -4 -26.833 -12 -62.5s-12 -68.5 -12 -98.5c0 -31.333 9 -66.666 27 -105.999zM277.002 430.001c0 23.333 -2.33203 41.5 -6.99902 54.5
s-7 17.833 -7 14.5c0 7.33301 -3.83301 17.833 -11.5 31.5s-15.834 23.5 -24.501 29.5l-39 -54l-34 -119v-16c22 22 44.333 33 67 33c6 0 13 -1.83301 21 -5.5s12.667 -5.5 14 -5.5c10 0 16 2.33301 18 7s3 14.667 3 30z" />
    <glyph glyph-name="B" unicode="B" horiz-adv-x="601" 
d="M547 196c0 -84.667 -75.333 -133.334 -226 -146.001c-55.333 -4.66699 -103 -19 -143 -43c-20.667 -12.667 -45.667 -33.667 -75 -63c-21.333 -21.333 -38 -32 -50 -32c-5.33301 0 -11.333 4.16699 -18 12.5s-10 18.833 -10 31.5c0 8 13.833 47.333 41.5 118
s41.5 113.667 41.5 129v136c0 6.66699 -6.5 29.334 -19.5 68.001s-19.5 65 -19.5 79c0 37.333 23.333 65.333 70 84c34 14 73 21 117 21h65c113.333 0 170 -30.333 170 -91c0 -37.333 -29 -75.333 -87 -114l-105 -59l5 -5c37.333 16.667 69.666 25 96.999 25
c10.667 0 20.334 -1.33301 29.001 -4s16 -4 22 -4c10 0 27 -13.333 51 -40c29.333 -32.667 44 -67 44 -103zM360 488c0 33.333 -13.667 50 -41 50c-40 0 -73 -12 -99 -36c-28 -26.667 -42 -63.334 -42 -110.001c0 -28.667 4.66699 -43 14 -43c5.33301 4 30 16 74 36l42 16
c17.333 6.66699 28.333 13.334 33 20.001c12.667 16.667 19 39 19 67zM494 152c2 27.333 1.99902 49.9961 -0.000976562 67.9961c-0.666992 6.66699 -5.5 17.334 -14.5 32.001s-16.5 23.334 -22.5 26.001c-4.66699 -10.667 -10 -16 -16 -16c-4 0 -10.667 2.33301 -20 7
c17.333 -16 31 -42 41 -78c0 -9.33301 -13 -33.666 -39 -72.999c8 8.66699 24.333 23.334 49 44.001h14c0 -8.66699 1 -16.667 3 -24c0.666992 4 2.33398 8.66699 5.00098 14zM410.999 205.996c0 15.333 -11.667 29.668 -35 43.001s-45 20 -65 20c-12 0 -30.333 -2 -55 -6
c-30.667 -4.66699 -51.667 -7.66699 -63 -9c3.33301 -8 10.333 -19.667 21 -35c7.33301 -10.667 11 -20.334 11 -29.001s-2.5 -15.667 -7.5 -21s-7.5 -7.66602 -7.5 -6.99902c0 -10.667 16 -20.334 48 -29.001c22 -2 47 -2 75 0c23.333 2 43 13.333 59 34
c12.667 16.667 19 29.667 19 39z" />
    <glyph glyph-name="C" unicode="C" horiz-adv-x="801" 
d="M736 235c-54 -67.333 -102.334 -116.667 -145.001 -148c-60 -44 -124 -66 -192 -66c-49.333 0 -111 19.167 -185 57.5s-122.333 76.5 -145 114.5c-10.667 17.333 -20 42 -28 74c-4 19.333 -8.33301 38.333 -13 57c0.666992 -0.666992 1.66699 -4 3 -10h2
c0.666992 -0.666992 1.33398 -1 2.00098 -1c9.33301 0 27.833 14 55.5 42s41.5 47.667 41.5 59c0 8 5.66699 22.667 17 44c16 31.333 38 56 66 74c38 25.333 84.333 35.666 139 30.999l138 13c56 -4.66699 83 -7 81 -7c20 0 38.333 -4.33301 55 -13
c24.667 -13.333 37 -33.666 37 -60.999c0 -20 -2 -40.333 -6 -61c-6.66699 -30.667 -16 -46 -28 -46c-11.333 0 -26 10 -44 30c-27.333 30 -45.666 48.667 -54.999 56c-25.333 20 -52.666 30 -81.999 30c-40 0 -80.667 -8.66699 -122 -26c-8.66699 -4 -32 -16.333 -70 -37
l-39 -18c-22.667 -12 -40.667 -25.667 -54 -41c-18.667 -21.333 -28 -45.333 -28 -72c0 -60.667 33 -106.667 99 -138c19.333 -4.66699 46 -12 80 -22c4.66699 -2 16 -10 34 -24c14.667 -11.333 30 -17 46 -17c44 0 96.667 22.333 158 67l107 83
c-2 -9.33301 -8.33301 -28 -19 -56c-8.66699 -24 -13 -37.667 -13 -41s0.666992 -5 2 -5s9.66602 14.333 24.999 43s27.333 45 36 49c-3.33301 -7.33301 -13 -25 -29 -53c2.66699 -1.33301 6.66699 -4.66602 12 -9.99902c13.333 11.333 33.666 27.666 60.999 48.999z
M141.999 444.999l-87 -104v17l24 51c12.667 24 28.667 42.667 48 56c-1.33301 -2 -4.33301 -7.66699 -9 -17c5.33301 0 13.333 -1 24 -3zM73.999 250.999c-0.666992 7.33301 -2.16699 13.499 -4.5 18.499s-3.5 9.16699 -3.5 12.5c0 8 2.66699 15.667 8 23
c-3.33301 -17.333 -4.33301 -28.666 -3 -33.999c2 -10 3 -16.667 3 -20z" />
    <glyph glyph-name="D" unicode="D" horiz-adv-x="698" 
d="M649 373c0 -15.333 -1.00098 -29.6631 -3.00098 -42.9961s-3 -20.666 -3 -21.999c0 -6 -9 -22.333 -27 -49c-24 -36 -50.667 -63.333 -80 -82c-24 -15.333 -51.667 -29.666 -83 -42.999c-28.667 -12 -47.334 -18 -56.001 -18c-4 -4.66699 -10.333 -7 -19 -7
c-4 0 -19.667 -6 -47 -18c-30 -12.667 -45 -22.667 -45 -30c0 -2 2.5 -9.33301 7.5 -22s7.5 -20.334 7.5 -23.001c0 -10 -6.66699 -20.333 -20 -31s-27.333 -16 -42 -16c-16.667 0 -25 5.66699 -25 17c0 3.33301 0.833008 9 2.5 17s2.5 14 2.5 18
c0 8.66699 -5.33301 13 -16 13c4 0 -18.667 -12.5 -68 -37.5s-91.666 -37.5 -126.999 -37.5c-42.667 -10.667 -64 -23 -64 -37c0 -2 2.83301 -7.33301 8.5 -16s8.5 -14.334 8.5 -17.001c0 -7.33301 -4.33301 -13.833 -13 -19.5s-16.667 -8.5 -24 -8.5
c-4.66699 0 -10.5 3.33301 -17.5 10s-10.5 15.334 -10.5 26.001c0 34 49.333 60.333 148 79c36 6.66699 65.667 17.667 89 33c11.333 7.33301 25.333 19.666 42 36.999c11.333 11.333 21 17 29 17c5.33301 0 11.833 4.33301 19.5 13s11.5 18 11.5 28l-9 50.5
c-6 33.667 -9.33301 58.167 -10 73.5c-0.666992 39.333 -0.666992 69.666 0 90.999c0.666992 14 1.66699 24.667 3 32s2 12 2 14c0 15.333 -6 29.833 -18 43.5s-18 23.5 -18 29.5c0 10 4.5 21 13.5 33s19.167 18 30.5 18c16.667 0 31.5 -6 44.5 -18s19.5 -25.333 19.5 -40
c0 -10 -6.33301 -23.5 -19 -40.5s-19 -30.167 -19 -39.5v-114c10 -48.667 15 -74.334 15 -77.001c0 2 -1.16699 -4.83301 -3.5 -20.5s-2.83301 -25.834 -1.5 -30.501c3.33301 -11.333 12.333 -17 27 -17c8 0 27 8.66699 57 26l119 66c10 5.33301 19.333 17 28 35
c4.66699 10 9 20 13 30l32 36c14.667 19.333 22 43 22 71c0 65.333 -39.333 112 -118 140c-42.667 15.333 -83 23 -121 23c-10.667 0 -30.667 -1.66699 -60 -5c-39.333 -4.66699 -65.666 -10.334 -78.999 -17.001h-18c0 0.666992 -0.333008 2 -1 4s-1 3.66699 -1 5
c0 9.33301 5.66699 19 17 29s20 15 26 15c1.33301 0 8.33301 -1.33301 21 -4s22 -4 28 -4h61c137.333 0 230.333 -14.333 279 -43c34.667 -20.667 52 -62.667 52 -126z" />
    <glyph glyph-name="E" unicode="E" horiz-adv-x="781" 
d="M576 620c-4 -4.66699 -15.3311 -12 -33.998 -22l-10 3c11.333 10 18.666 15 21.999 15c0.666992 0 1.66699 -0.5 3 -1.5s2.66602 -1.5 3.99902 -1.5c3.33301 0 8.33301 2.33301 15 7zM552.002 399c-6.66699 -1.33301 -12.668 -2.00098 -18.001 -2.00098
c-3.33301 0 -12.5 1.16699 -27.5 3.5s-31.833 3.5 -50.5 3.5c-39.333 0 -83.666 -13.333 -132.999 -40s-82 -40 -98 -40c-6 0 -11.667 2.33301 -17 7s-8 10.334 -8 17.001c0 10.667 13.667 25.167 41 43.5s48.333 27.5 63 27.5c-2 0 4.5 2.83301 19.5 8.5
s32.167 9.16699 51.5 10.5c26 2 56.667 2 92 0c12 0 26.333 -3 43 -9c21.333 -7.33301 35.333 -17.333 42 -30zM733.001 102.999c-10 -0.666992 -25.001 -4.3291 -45.001 -10.9961c4.66699 -2 16.667 -5.33301 36 -10c-50 0 -76.667 -0.666992 -80 -2
c2 -2.66699 4.33301 -4.33398 7 -5.00098c-40.667 0 -107.667 -1 -201 -3c-28.667 -0.666992 -73 -7.66699 -133 -21s-93 -20 -99 -20c-10.667 0 -24.167 1.33301 -40.5 4s-25.166 4 -26.499 4c-13.333 0 -31.333 15 -54 45c-24.667 32 -37 60.333 -37 85
c0 31.333 2 105.333 6 222c0.666992 24 -5.5 57.667 -18.5 101s-19.5 65.666 -19.5 66.999c0 10 4.66699 21.833 14 35.5s20 20.5 32 20.5c25.333 0 38 -10.667 38 -32c0 -5.33301 -0.666992 -11.666 -2 -18.999c4 -0.666992 9.33301 -1 16 -1
c33.333 0 67.166 7.5 101.499 22.5s57.5 22.5 69.5 22.5c-0.666992 0 16.666 -2 51.999 -6s62 -6 80 -6c12 0 24 2.66699 36 8l35 16c-14.667 -7.33301 -22 -14 -22 -20c0 -0.666992 0.666992 -1 2 -1c14.667 5.33301 40.334 15.666 77.001 30.999l-8.5 -6
c-5.66699 -4 -13.5 -11 -23.5 -21c4.66699 -6.66699 9.83398 -10.5 15.501 -11.5s11.834 -2.16699 18.501 -3.5c-40.667 -6 -73.667 -14 -99 -24c-17.333 -7.33301 -35.333 -10.333 -54 -9l-217 -36c-9.33301 -4.66699 -16.333 -8.66699 -21 -12
c-12 -8.66699 -18.333 -18 -19 -28c-2.66699 -34.667 -2.66699 -69.334 0 -104.001c0 -2 2.5 -11.333 7.5 -28s7.5 -28.667 7.5 -36c0 -5.33301 -2.5 -16.333 -7.5 -33s-7.5 -28.334 -7.5 -35.001c0 -8.66699 4.5 -22.667 13.5 -42s13.5 -37.666 13.5 -54.999
c0 -13.333 20.333 -21.666 61 -24.999c31.333 -1.33301 62.666 -3 93.999 -5l200 30c10 -0.666992 45.5 -7.33398 106.5 -20.001s92.833 -20.334 95.5 -23.001z" />
    <glyph glyph-name="F" unicode="F" horiz-adv-x="767" 
d="M706 641c0 -20.667 -17.6689 -41.333 -53.002 -62c11.333 10.667 17 23.667 17 39c0 26 -21.667 46.333 -65 61c-32.667 10.667 -66.667 16 -102 16c-53.333 0 -110 -1.66699 -170 -5c-18 -1.33301 -46 -7.33301 -84 -18c-48.667 -14 -73 -28 -73 -42v-83
c0 -30 27.667 -45 83 -45c18 0 30.5 2.66699 37.5 8s11.167 8 12.5 8c27.333 -4 74.333 -1.66699 141 7c-10 -3.33301 -28 -7.33301 -54 -12l-4 -4c6.66699 -1.33301 12.334 -1.33301 17.001 0c6.66699 1.33301 12 2 16 2c19.333 -2 31.666 -4.33301 36.999 -7
c-30 0 -51 -3.33301 -63 -10c8.66699 -5.33301 24.667 -7 48 -5l-140 -34c-36 -7.33301 -62.333 -13.666 -79 -18.999c-33.333 -11.333 -50 -23.666 -50 -36.999c0 -19.333 -0.666992 -51.333 -2 -96c-2 -34.667 -5 -64.334 -9 -89.001c-4 -22 -6 -31.667 -6 -29
c0 -12 7.66699 -27.5 23 -46.5s23 -35.833 23 -50.5c0 -16.667 -5.33301 -30.667 -16 -42s-25 -17 -43 -17c-18.667 0 -34 6 -46 18s-18 27 -18 45c0 16 6.5 33.333 19.5 52s19.5 36.667 19.5 54v61c6 106 10 165 12 177c0 1.33301 1.66699 6.83301 5 16.5s5 15.5 5 17.5
v131c0 2.66699 -3 9 -9 19s-10.667 15 -14 15c-8.66699 0 -20 -3.33301 -34 -10c-17.333 -8.66699 -26 -18.334 -26 -29.001c0 -2.66699 2.33301 -5.66699 7 -9c6.66699 -6 11.667 -11 15 -15c-13.333 3.33301 -26.666 7 -39.999 11c-9.33301 3.33301 -14 11.666 -14 24.999
c0 16 7 29.667 21 41l33 22c18 12 31.667 26.667 41 44c6.66699 10.667 15 16 25 16c6.66699 0 17.334 -6.33301 32.001 -19c46.667 8 123 19.333 229 34c28.667 2.66699 61 2.66699 97 0c1.33301 0 16.666 -3 45.999 -9c26.667 -5.33301 45 -8 55 -8
c14.667 0 33.334 -8 56.001 -24c27.333 -19.333 41 -40.666 41 -63.999z" />
    <glyph glyph-name="G" unicode="G" horiz-adv-x="664" 
d="M624 202c0 -3.33301 -3.66699 -24.834 -11 -64.501s-12.333 -64.167 -15 -73.5s-9.33398 -38.666 -20.001 -87.999c-4.66699 -23.333 -11 -38 -19 -44c-7.33301 5.33301 -14 18.666 -20 39.999c-6.66699 24.667 -13 41.334 -19 50.001c-11.333 16 -28 24 -50 24
c-6.66699 0 -26.334 -3.33301 -59.001 -10s-54 -10 -64 -10c-78.667 0 -147.334 20.333 -206.001 61c-64 44.667 -97.667 102.667 -101 174c-1.33301 28 -1.33301 51.667 0 71c2.66699 36 17.334 70.667 44.001 104c2 3.33301 22.333 24.333 61 63
c68 68.667 147.667 117.667 239 147c-16 -11.333 -26.333 -20.666 -31 -27.999c8.66699 -8.66699 22.334 -10.334 41.001 -5.00098c-0.666992 -0.666992 -6.5 -4.5 -17.5 -11.5s-14.167 -10.5 -9.5 -10.5l16.5 5c11 3.33301 23.167 5 36.5 5c5.33301 0 12 -1 20 -3v-7
c-7.33301 -12 -20 -25 -38 -39l-144 -116c-38 -31.333 -61.333 -54.666 -70 -69.999c-11.333 -20 -17 -51.333 -17 -94c0 -54.667 17.333 -97.667 52 -129c31.333 -28.667 72.333 -43 123 -43c24 0 46.167 2.66699 66.5 8s34.5 8 42.5 8s15.167 3.66699 21.5 11
s9.5 16.333 9.5 27s-3.33301 20 -10 28c-8.66699 9.33301 -20 14 -34 14c-4 0 -23.333 -2.83301 -58 -8.5s-53 -9.16699 -55 -10.5c0.666992 1.33301 1.5 2.66602 2.5 3.99902s1.5 2.33301 1.5 3c-8.66699 4 -21 6.33301 -37 7h-40c8.66699 4.66699 16.667 7.66699 24 9
s13.666 3.33301 18.999 6c-4.66699 1.33301 -10 2 -16 2c6.66699 6 29.334 15.333 68.001 28c42.667 14 74.334 21 95.001 21c-0.666992 0 2 -0.5 8 -1.5s16.333 -1.83301 31 -2.5c21.333 -0.666992 51 -1 89 -1c33.333 0 50 -16.667 50 -50zM564 176.999
c-6 4.66699 -9.5 9.49902 -10.5 14.499s-3.5 8.83301 -7.5 11.5c-7.33301 4.66699 -24 11.334 -50 20.001c-16.667 9.33301 -27 14 -31 14l-16 -7c-12.667 -4.66699 -25.334 -8 -38.001 -10c15.333 0.666992 28.333 2.5 39 5.5s15.334 4.5 14.001 4.5
c11.333 0 30.333 -8.33301 57 -25zM585 66.998c0 4.66699 -3 11.333 -9 20h-8c-1.33301 -20.667 -4.33301 -35.167 -9 -43.5s-7 -12.166 -7 -11.499c0 -1.33301 1 -3.33301 3 -6s3.33301 -7.33398 4 -14.001c17.333 28 26 46.333 26 55zM164 435.997
c-13.333 -4.66699 -26.333 -8.66699 -39 -12c-3.33301 -2 -11 -15.5 -23 -40.5s-18 -38.833 -18 -41.5c0 -3.33301 1.33301 -2.83301 4 1.5s4.33398 7.83301 5.00098 10.5c3.33301 -5.33301 5 -10.666 5 -15.999c0 -2 -0.5 -5.83301 -1.5 -11.5s-1.5 -10.834 -1.5 -15.501
c0 -21.333 10.667 -50 32 -86c-2.66699 25.333 -6.33398 48.333 -11.001 69c-4 18 -6 26.333 -6 25c0 0.666992 1.66699 3.33398 5 8.00098c14 -10.667 22.333 -21.334 25 -32.001c0 1.33301 -1.5 14.5 -4.5 39.5s-4.16699 38.5 -3.5 40.5c1.33301 6 7 16.667 17 32
s15 25 15 29zM118 338.997c-7.33301 7.33301 -11.001 14.001 -11.001 20.001c0 1.33301 0.833008 2.16602 2.5 2.49902s2.83398 0.833008 3.50098 1.5c-2.66699 -8 -1 -16 5 -24z" />
    <glyph glyph-name="H" unicode="H" horiz-adv-x="405" 
d="M333 145c-1.33301 3.33301 -4.33496 8.33594 -9.00195 15.0029c-2.66699 -8 -2.66699 -22.667 0 -44c-3.33301 10 -6.66602 18 -9.99902 24c-2.66699 -8.66699 -5 -27.334 -7 -56.001c0 16 -1 26.667 -3 32c-2 -5.33301 -6 -21.666 -12 -48.999
c-6.66699 4.66699 -10 13 -10 25c0 7.33301 1.33301 16.333 4 27s4 16.334 4 17.001c0 4.66699 -3.16699 9.66699 -9.5 15s-10.5 13 -12.5 23c2.66699 63.333 -5.66602 95 -24.999 95c4 0 -2.5 -2.83301 -19.5 -8.5s-41.167 -8.5 -72.5 -8.5c-16 0 -24 -39.667 -24 -119
c0 -8.66699 3 -19.667 9 -33s9 -25 9 -35s-3.16699 -19.833 -9.5 -29.5s-14.166 -14.5 -23.499 -14.5c-24 0 -43 16.333 -57 49c-12 28 -18 61 -18 99c0 -6 2.16699 15.167 6.5 63.5s6.5 123.166 6.5 224.499c0 82.667 14.333 124 43 124c16.667 0 29.5 -5.5 38.5 -16.5
s13.5 -23.5 13.5 -37.5c0 0.666992 -3 -7.83301 -9 -25.5s-9 -33.167 -9 -46.5v-70l-2.5 -16c-1.66699 -10.667 -2.5 -17.334 -2.5 -20.001c0 -21.333 11 -32 33 -32c26 0 52 12.833 78 38.5s39.333 53.167 40 82.5c1.33301 56.667 2 101.334 2 134.001
c4 7.33301 9 12.666 15 15.999c1.33301 -8.66699 -2.66699 -21.334 -12 -38.001v-15c11.333 3.33301 18.333 10.333 21 21c6 20 9.33301 30.667 10 32c10 -6 15 -17 15 -33c0 -7.33301 -1.33301 -20.333 -4 -39s-4 -33.334 -4 -44.001v-90c0 -26 2.33301 -55 7 -87
c5.33301 -42 8.66602 -71 9.99902 -87c2 -6.66699 2 -27.667 0 -63z" />
    <glyph glyph-name="I" unicode="I" horiz-adv-x="283" 
d="M253 497c0 -9.33301 -10.002 -31.8311 -30.002 -67.498s-30 -59.5 -30 -71.5v-174c6 -24.667 9 -43.334 9 -56.001c0 0.666992 -0.666992 -1.83301 -2 -7.5s-2 -12.834 -2 -21.501v-51c-4 -24 -9 -47.333 -15 -70c-4 11.333 -10.333 25.666 -19 42.999
c-4.66699 6 -11.167 9.5 -19.5 10.5s-13.166 2.5 -14.499 4.5l-25 148c-14 81.333 -21 130.666 -21 147.999c0 11.333 1.66699 25 5 41s5 24.333 5 25c0 10.667 -8.66699 25.834 -26 45.501s-26 35.167 -26 46.5c0 12.667 6.33301 27.334 19 44.001
c16.667 23.333 38.667 35 66 35c10.667 0 21.334 -2.66699 32.001 -8s20.667 -8 30 -8c23.333 0 39.833 -4 49.5 -12s14.5 -22.667 14.5 -44zM141.998 476.002c0 15.333 -7.66602 23.002 -22.999 23.002c-6.66699 0 -12.334 -5.33301 -17.001 -16c-4 -8 -6 -14.667 -6 -20
s2 -14.666 6 -27.999c6 -16.667 10.333 -33.334 13 -50.001c1.33301 -6 2 -12 2 -18c0 -8 -1.33301 -18.333 -4 -31s-4 -22.334 -4 -29.001c0 -21.333 9.33301 -45.333 28 -72l-10 92c0.666992 4.66699 2.66699 13.667 6 27c2.66699 10 4 19 4 27
c0 7.33301 -1 16.666 -3 27.999s-3.33301 21 -4 29c0 2.66699 2 7.16699 6 13.5s6 14.5 6 24.5z" />
    <glyph glyph-name="J" unicode="J" horiz-adv-x="1006" 
d="M968 613l-64.9961 0.00195312c0 -0.666992 0.666992 -2.33398 2 -5.00098c-46.667 0 -91 -6.83301 -133 -20.5s-68 -20.5 -78 -20.5c-21.333 0 -54 -28 -98 -84c-50.667 -63.333 -80 -126 -88 -188l-17 3c0 -14.667 1.16699 -23.334 3.5 -26.001s3.5 -5.66699 3.5 -9
c0 -13.333 -8.66699 -37.666 -26 -72.999c-21.333 -44 -46.666 -80 -75.999 -108c-38.667 -37.333 -80.667 -56 -126 -56c-10.667 0 -17 1 -19 3v7l-141 15c-4 2 -23.333 5 -58 9c5.33301 0.666992 12.666 1.66699 21.999 3v19c-12.667 6 -27 15.667 -43 29
c23.333 0 40.666 1.66699 51.999 5s15 5 11 5c52 -12.667 97.333 -19 136 -19c50.667 0 96 21 136 63c23.333 24.667 48 61.667 74 111c6 12 23.333 52.667 52 122c31.333 76 47 118.333 47 127c0 14.667 -6.66699 23.667 -20 27c-6.66699 2 -21 3 -43 3
c-19.333 0 -36 -1.16699 -50 -3.5s-24 -3.5 -30 -3.5c0.666992 0 -23.5 -7.66699 -72.5 -23s-77.5 -23 -85.5 -23c-20.667 0 -31 16.333 -31 49c0 30 16.667 51.333 50 64c17.333 6.66699 34.666 10 51.999 10l374 2c20 0 50 3.66699 90 11s63 11 69 11
c27.333 6.66699 42.333 10 45 10c12.667 -8.66699 26 -13 40 -13c-4.66699 -0.666992 -7.33398 -1.33398 -8.00098 -2.00098s-2.66699 -4.66699 -6 -12c7.33301 -2 25.666 -8.33301 54.999 -19zM804.004 635.002h-30l-113 -30c11.333 -0.666992 26 -1 44 -1
c58.667 0 91.667 10.333 99 31zM615.004 605.002h-63v-14h33c12 5.33301 22 10 30 14z" />
    <glyph glyph-name="K" unicode="K" horiz-adv-x="464" 
d="M423 560c-129.333 -131.333 -194.002 -214.332 -194.002 -248.999c0 -20.667 14 -60.334 42 -119.001s42 -108 42 -148c0 -2.66699 5.33301 -10.334 16 -23.001v-24c-1.33301 0 -3 0.333008 -5 1s-3.66699 1.33398 -5 2.00098c0 12 1.66699 20.667 5 26
c-12.667 8 -24.667 11.333 -36 10c-8.66699 28.667 -20.667 60 -36 94c-8.66699 16.667 -17 33.667 -25 51c-20 47.333 -38.667 71 -56 71c-5.33301 0 -18.333 -11 -39 -33c-25.333 -26.667 -38 -52 -38 -76c0 -4 -6.83301 -24.167 -20.5 -60.5s-20.5 -64.5 -20.5 -84.5
c0 -6 0.666992 -11.333 2 -16h-15v175l20 256c0.666992 12 -3.66602 40.333 -12.999 85c0 31.333 7 58 21 80c15.333 24.667 36.333 37 63 37c30 0 45 -7.66699 45 -23s-13.667 -52.666 -41 -111.999s-41 -103 -41 -131c0 1.33301 0.666992 -2.33398 2 -11.001
c1.33301 -7.33301 1.33301 -18.333 0 -33c0.666992 0 2 -0.333008 4 -1s3.33301 -1 4 -1c2 0 16.333 14.667 43 44c34.667 38 64.334 68.333 89.001 91c27.333 22 75 65 143 129h10l-5 -10c7.33301 0 13 1.66699 17 5c-4.66699 -11.333 -6 -17 -4 -17s5.5 2 10.5 6
s10.167 7 15.5 9zM274.998 -50.999c-2 6 -4.33301 11.667 -7 17c2 0 4.33301 0.666992 7 2v-19zM257.998 421.001c-2.66699 -1.33301 -5.66699 -3.66699 -9 -7zM417.998 574l-12 -9.99902c2.66699 3.33301 6.66699 6.66602 12 9.99902zM306.998 458.001l-23.001 -13
c-10.667 -6.66699 -17.667 -13.667 -21 -21c10.667 6.66699 25.334 18 44.001 34zM262.997 402.001l-9.99805 0.000976562c-4.66699 -8.66699 -11.334 -16 -20.001 -22c-14 -10 -25.667 -19.667 -35 -29c1.33301 0.666992 4.66602 1.66699 9.99902 3v-10
c0.666992 3.33301 19 22.666 55 57.999z" />
    <glyph glyph-name="L" unicode="L" horiz-adv-x="576" 
d="M530 147c-41.333 -24.667 -68.667 -37.001 -82 -37.001c-2 0 -4.66699 0.333008 -8 1h-7c-8 0 -20.333 -4 -37 -12c-3.33301 -2 -15.333 -12.667 -36 -32c-14.667 -14.667 -33.334 -23.334 -56.001 -26.001c-55.333 -6 -99.666 -18 -132.999 -36
c-18 -9.33301 -37 -24 -57 -44c-14 -14.667 -26.667 -22 -38 -22c-4 0 -10.333 6.66699 -19 20c-11.333 15.333 -17 30.666 -17 45.999c0 2.66699 3 16.167 9 40.5s8.66699 41.833 8 52.5l-10 118c1.33301 19.333 3 34 5 44c2 8 3 15.667 3 23c10.667 38 16 68.667 16 92
c0 15.333 -7.16699 35 -21.5 59s-21.5 40 -21.5 48c0 18.667 8.66699 36.334 26 53.001c22 21.333 50.333 32 85 32c18.667 0 35.5 -4.66699 50.5 -14s22.5 -20.666 22.5 -33.999c0 -6 -4 -18.333 -12 -37s-12 -33.334 -12 -44.001c0 -13.333 -6 -50.666 -18 -111.999
s-18 -91 -18 -89c-2 -12 -2 -33.667 0 -65s14 -50.666 36 -57.999c6.66699 -2 26.667 -3 60 -3c41.333 0 83.833 4.66699 127.5 14s77.5 21 101.5 35h53v-13zM289.999 76.999c-4.66699 2 -12.667 3 -24 3c-8 0 -18 -1 -30 -3c16.667 -4.66699 29 -7 37 -7
c6 0 11.667 2.33301 17 7z" />
    <glyph glyph-name="M" unicode="M" horiz-adv-x="605" 
d="M234 441l-34 -0.000976562v17c4 0.666992 8.66699 2.33398 14 5.00098c2 0 4.33301 -2.33301 7 -7c4 -6.66699 8.33301 -11.667 13 -15zM573 388.999c0 -24.667 -5.67188 -45.335 -17.0049 -62.002c-18 -27.333 -28.333 -44 -31 -50
c-11.333 -27.333 -17 -66.333 -17 -117c0 0.666992 -1.33301 -3.16602 -4 -11.499s-4 -18.5 -4 -30.5c0 -14.667 -16.333 -55 -49 -121c-28.667 -58.667 -47 -93.334 -55 -104.001c0 5.33301 -0.666992 10.333 -2 15c-6 -6 -17.333 -16.667 -34 -32
c5.33301 16.667 19 63.667 41 141c26 65.333 39 111.333 39 138v111c-3.33301 2 -7.66602 3 -12.999 3c-10.667 0 -20 -6.5 -28 -19.5l-24 -39.5c-5.33301 -7.33301 -15.166 -15.5 -29.499 -24.5s-21.5 -15.167 -21.5 -18.5c0 -1.33301 1.16699 -3.16602 3.5 -5.49902
s3.5 -4.83301 3.5 -7.5l-7 -21c-14 40 -32.667 86 -56 138c-4 4.66699 -9.66699 7.16699 -17 7.5s-12.333 1.16602 -15 2.49902c-6 3.33301 -14.667 14 -26 32c-9.33301 14.667 -21.666 22.334 -36.999 23.001c18.667 -27.333 29 -43.666 31 -48.999s3 -20.333 3 -45
c0 -46 -5.66699 -86.833 -17 -122.5s-17 -69.834 -17 -102.501c-32 8 -48.333 12 -49 12c-2 0 -12 -8.33301 -30 -25c-0.666992 2.66699 -1.66699 5.66699 -3 9c0 -2 4.5 7.33301 13.5 28s13.167 36.667 12.5 48c0.666992 28 0 73.333 -2 136c-3.33301 6 -8 16.333 -14 31
c-0.666992 32.667 -2.33398 67.667 -5.00098 105c-2 5.33301 -13.333 21.333 -34 48c-18 22.667 -27 40.334 -27 53.001c0 12 5.83301 22.5 17.5 31.5s21.834 13.5 30.501 13.5c31.333 0 54.666 -7.33301 69.999 -22c6 -6 14.333 -19.667 25 -41
c7.33301 -14.667 17.333 -22 30 -22s29.334 -1 50.001 -3c2.66699 -2 16.334 -18.667 41.001 -50c27.333 -34 42 -53.667 44 -59c2 -8.66699 6 -21.667 12 -39c18.667 14 32.334 39.667 41.001 77c11.333 44.667 21 73 29 85c17.333 26.667 48.333 40 93 40
c36.667 0 55 -28 55 -84z" />
    <glyph glyph-name="N" unicode="N" horiz-adv-x="576" 
d="M532 651l-33.998 -41c2 -1.33301 5.33301 -3 10 -5c-48 -59.333 -83 -110.333 -105 -153c-32 -62.667 -48 -125.334 -48 -188.001v-109c0 -89.333 -29 -134 -87 -134c-18.667 0 -30 14.333 -34 43c-6 44.667 -11.667 72.334 -17 83.001v10
c7.33301 -6 10.666 -11 9.99902 -15c0 -7.33301 0.666992 -13 2 -17c3.33301 6 5.66602 12.667 6.99902 20l-5 39c-11.333 0 -20 6 -26 18c-4 7.33301 -21.667 50.666 -53 129.999l10 -10c2.66699 8 4 10.333 4 7c-8 12 -14.667 18 -20 18c-6 0 -16.333 -17.333 -31 -52
c-16 -39.333 -24 -74 -24 -104c0 -13.333 4.83301 -40 14.5 -80s14.5 -59.333 14.5 -58c-6 -14 -18 -38.333 -36 -73l-24 89c-15.333 58.667 -23 97.334 -23 116.001c0 0.666992 -1.33301 9.5 -4 26.5s-4.33398 31.833 -5.00098 44.5c-1.33301 24 -1.33301 45 0 63
c7.33301 80.667 34.666 137.334 81.999 170.001h58c0 -10.667 3 -29 9 -55c8 -36 18.333 -67.667 31 -95c4.66699 -9.33301 11.334 -35 20.001 -77c6 -30.667 17.667 -52.667 35 -66c0.666992 1.33301 1.66699 5.33301 3 12c2 -10 4.33301 -19 7 -27
c8 9.33301 16 34.333 24 75c10.667 56.667 26 111 46 163c22.667 59.333 83.334 136.666 182.001 231.999h7zM261.002 223c-6.66699 10.667 -14 24.334 -22 41.001c6 -5.33301 10.333 -11 13 -17c4.66699 -8.66699 7.66699 -14.334 9 -17.001v-7z" />
    <glyph glyph-name="O" unicode="O" horiz-adv-x="479" 
d="M428 439c0 -66.667 -16.333 -142.002 -49 -226.002c-16 -41.333 -34.667 -77.666 -56 -108.999c-34.667 -50 -69.667 -75 -105 -75c-7.33301 0 -15.333 1.16699 -24 3.5s-14 3.5 -16 3.5c-4 0 -13.667 7 -29 21c-20 18.667 -41 43 -63 73
c-32.667 44.667 -49 81.334 -49 110.001c0 0.666992 3 12.5 9 35.5s9 39.167 9 48.5l23 97c16 66.667 26.667 103 32 109c13.333 16 42.333 42.667 87 80c54.667 46 90.667 69 108 69c13.333 0 33 -14.5 59 -43.5s39 -51.167 39 -66.5c16.667 -30.667 25 -74 25 -130z
M312 431.998c0 9.33301 -6.00098 24.9971 -18.001 46.9971c-6.66699 10.667 -13 21.334 -19 32.001c0 0.666992 0.833008 3.66699 2.5 9s2.5 9.66602 2.5 12.999c0 8.66699 -1.66699 18.334 -5 29.001c-2 -4.66699 -34.333 -70 -97 -196
c-21.333 -43.333 -32 -75.666 -32 -96.999c0 -23.333 5.5 -42.666 16.5 -57.999s23.167 -23 36.5 -23c26.667 0 44.334 14.333 53.001 43c3.33301 22 7 44.333 11 67c5.33301 20 15.333 47 30 81c12.667 28 19 45.667 19 53z" />
    <glyph glyph-name="P" unicode="P" horiz-adv-x="576" 
d="M522 510c0 -37.333 -19.999 -73.3369 -59.999 -108.004c-32.667 -28 -89.334 -62.667 -170.001 -104l-46 -23c-7.33301 -3.33301 -12.333 -7 -15 -11c-4 -9.33301 -6 -26.666 -6 -51.999c-4 -50.667 -8.33301 -97.334 -13 -140.001c-0.666992 -8 0 -20.333 2 -37
c2.66699 -19.333 4 -34.333 4 -45c0 -7.33301 -0.333008 -14.666 -1 -21.999v34h-14c0 8 1.66699 15.333 5 22h-13c0 8.66699 -3.66699 25.334 -11 50.001s-11 42.834 -11 54.501s-1.16699 24.667 -3.5 39s-3.5 23.5 -3.5 27.5c0 7.33301 2 14 6 20h-18l-121 -68
c22 28 46.333 49.333 73 64c24.667 14 39.667 25 45 33c10 16.667 15 50 15 100c0 34 8 80.667 24 140c-22.667 10.667 -34 22.667 -34 36c0 8.66699 13 19.667 39 33c24 12.667 41 19 51 19c2.66699 0 7.66699 2.33301 15 7s17 8.33398 29 11.001c18.667 4 43.667 6 75 6
c104.667 0 157 -28.667 157 -86zM452.001 534.996c-5.33301 2 -9.33301 4.33301 -12 7c12 -4.66699 16 -7 12 -7zM198.001 408.996c-0.666992 -7.33301 -1.66699 -13 -3 -17c0.666992 3.33301 1.66699 9 3 17zM414.001 394.996c-6 -4 -10.332 -7.33301 -12.999 -10
c3.33301 4 7.66602 7.33301 12.999 10zM203.002 -24.0039c-1.33301 8 -1.33301 14.333 0 19v-19zM481.002 486.996c0 14.667 -7.33301 25.999 -22 33.999c0 -0.666992 1.33301 -5.5 4 -14.5s4 -16.833 4 -23.5c0 -19.333 -8.33301 -36.666 -25 -51.999c8 4 17 14 27 30
c8 14 12 22.667 12 26zM431.002 498.995c0 3.33301 -6.33301 13 -19 29c-14.667 0 -27.334 1.16699 -38.001 3.5s-20.667 3.5 -30 3.5c-32.667 0 -55.667 -6.33301 -69 -19c-7.33301 -7.33301 -13.333 -20.333 -18 -39s-11.667 -30.667 -21 -36
c6.66699 -4.66699 10 -7.33398 10 -8.00098v-15c-5.33301 -45.333 -8.66602 -70 -9.99902 -74v-51c130 92.667 195 161.334 195 206.001zM193.002 389.995c-8.66699 -62 -12.667 -94.333 -12 -97c0 1.33301 2.66699 16 8 44c2.66699 17.333 4 35 4 53zM181.002 195.995
l-0.000976562 32c-1.33301 -1.33301 -4.66602 -4 -9.99902 -8c2.66699 -4 6 -12 10 -24z" />
    <glyph glyph-name="Q" unicode="Q" horiz-adv-x="615" 
d="M578 0c-22.667 34 -48.6689 51.001 -78.002 51.001c-27.333 0 -38.333 -0.333008 -33 -1c-26 3.33301 -47 14 -63 32c-14 16 -30 24 -48 24c-16 0 -30.333 -7 -43 -21c-19.333 -22 -32.666 -35.333 -39.999 -40c-21.333 -14 -51 -21 -89 -21
c-31.333 0 -63.666 16 -96.999 48c-39.333 36.667 -59 80.334 -59 131.001c0 51.333 15.667 109.166 47 173.499s47 115.5 47 153.5c0 14 10.667 32.333 32 55c26.667 28.667 57.667 43 93 43c29.333 0 61.5 -13.667 96.5 -41s52.5 -55.666 52.5 -84.999
c0 6.66699 5.33301 -10.833 16 -52.5s16 -80.834 16 -117.501v-119c-8 -6.66699 -13 -12.334 -15 -17.001c0 -5.33301 49.667 -47.333 149 -126c-6.66699 1.33301 -11.667 2 -15 2c-2.66699 0 -7.66699 -0.666992 -15 -2l46 -49v-21zM393.998 188.001
c0 2 -0.166992 4.33301 -0.5 7s-0.833008 4.66699 -1.5 6h-10v-13h12zM332.998 253.001c0 48 -17.667 116.331 -53 204.998c-2 -1.33301 -12 -6 -30 -14c-14.667 -6.66699 -29 -17.5 -43 -32.5s-30.667 -43.5 -50 -85.5c-21.333 -45.333 -32 -79.666 -32 -102.999
c0 -14 8.66699 -35.833 26 -65.5s30.333 -44.5 39 -44.5c14.667 0 44 15.667 88 47c-11.333 10.667 -24.333 25 -39 43c4.66699 2.66699 9.66699 5.33398 15 8.00098c1.33301 2 2 7.66699 2 17h43v23c5.33301 -2 10.5 -4.83301 15.5 -8.5s8.5 -5.5 10.5 -5.5
c5.33301 0 8 5.33301 8 16z" />
    <glyph glyph-name="R" unicode="R" horiz-adv-x="483" 
d="M454 510c0 -64 -27.9961 -109.666 -83.9961 -136.999l-100 -47c-24.667 -13.333 -37 -28.666 -37 -45.999c0 -19.333 16 -40.333 48 -63c33.333 -24.667 50.666 -40.667 51.999 -48c14 -64.667 33.667 -106.667 59 -126v-19c-4.66699 -2 -8.33398 -3 -11.001 -3
c-12.667 0 -24.334 6 -35.001 18c-0.666992 -2.66699 -1.33398 -5.5 -2.00098 -8.5s-1 -5.16699 -1 -6.5c-6 45.333 -37.333 91.666 -94 138.999c-50.667 42 -90 63 -118 63c-17.333 0 -26 -28 -26 -84c0 -17.333 0 -25.666 0 -24.999
c0.666992 -2.66699 6.66699 -6.33398 18 -11.001c-18 -26.667 -27 -56.334 -27 -89.001h-44v215l-24 210c9.33301 71.333 24.333 118.333 45 141c23.333 26.667 68.333 40 135 40h58c45.333 0 86 -8.66699 122 -26c44 -20.667 66 -49.667 66 -87zM362.004 497.001
c0 15.333 -14.6641 27.332 -43.9971 35.999c-21.333 6.66699 -42 10 -62 10c-38 0 -65.333 -8.66699 -82 -26s-27.334 -50 -32.001 -98v-80c1.33301 -10 5.66602 -15 12.999 -15c9.33301 0 23 9.66699 41 29c21.333 23.333 45.166 40.5 71.499 51.5s49.5 27.167 69.5 48.5
c16.667 18.667 25 33.334 25 44.001zM84.0068 394c0 -2 -0.666992 2.33301 -2 13h-20c4 -8 4.66699 -15.333 2 -22c4 -0.666992 7.33301 -2.33398 10 -5.00098c6.66699 8.66699 10 13.334 10 14.001zM96.0068 295z" />
    <glyph glyph-name="S" unicode="S" horiz-adv-x="464" 
d="M426 201c0 -42.667 -29.999 -84.6709 -89.999 -126.004c-42.667 -30 -100.334 -58.667 -173.001 -86l-111 -40h-10c8.66699 17.333 41.334 48 98.001 92c100 78 150 129.333 150 154c0 28 -10.667 53.667 -32 77c-15.333 16.667 -37.333 32.334 -66 47.001
c-18 9.33301 -36.333 18.333 -55 27c-60 32.667 -90 62.334 -90 89.001c0 24.667 13.333 49.334 40 74.001c32.667 30.667 76.667 46 132 46c26.667 0 58 -9.66699 94 -29c44 -23.333 66 -50.666 66 -81.999c0 -13.333 -5.83301 -24.166 -17.5 -32.499
s-24.834 -12.5 -39.501 -12.5c-24 0 -41.5 14.167 -52.5 42.5s-24.167 42.5 -39.5 42.5c-14 0 -25.667 -6.66699 -35 -20c-8 -10.667 -12 -19.334 -12 -26.001c0 -21.333 21 -42.333 63 -63c68 -33.333 107 -54 117 -62c42 -30 63 -67.333 63 -112zM358.001 295.996
c-2 -2 -3 -12 -3 -30c8 10 9 20 3 30zM341.001 110.996v12h-20c-0.666992 -2 -10.334 -12.333 -29.001 -31h11c6.66699 0 19.334 6.33301 38.001 19z" />
    <glyph glyph-name="T" unicode="T" horiz-adv-x="806" 
d="M758 654c-5.33301 -4 -13.668 -8 -25.001 -12c0.666992 0 3.33398 -1.66699 8.00098 -5c-45.333 0 -75.333 -7.33301 -90 -22c20 0 35.667 1.33301 47 4s16.666 4 15.999 4c6.66699 0 16.334 -2.66699 29.001 -8c-19.333 0 -44.333 -2.33301 -75 -7
c1.33301 -0.666992 5.33301 -3 12 -7c-42.667 -5.33301 -66 -8 -70 -8h-53c-25.333 0 -63.666 -7.66699 -114.999 -23c-75.333 -22.667 -113 -52 -113 -88v-259c0 0.666992 1.5 -9.83301 4.5 -31.5s4.5 -45.5 4.5 -71.5c0 -29.333 -7.33301 -52.666 -22 -69.999
s-33.334 -26 -56.001 -26c-10 0 -20.333 4.66699 -31 14c-16 14 -24 34.333 -24 61c0 18 9.33301 53.167 28 105.5s28 97.166 28 134.499c0 29.333 -2.66699 56.666 -8 81.999c-11.333 54 -31.666 81 -60.999 81c-12 0 -33.5 -11.333 -64.5 -34s-53.167 -34 -66.5 -34
c-20.667 0 -31 10 -31 30c0 16.667 15 38 45 64c45.333 38.667 108.333 61.334 189 68.001l311 58l132 14c-2.66699 -0.666992 -6 -2 -10 -4c5.33301 -2 15.666 -2.66699 30.999 -2c12.667 0 22.667 -2.66699 30 -8zM713.998 668z" />
    <glyph glyph-name="U" unicode="U" horiz-adv-x="574" 
d="M527 498c0 4 -8.83496 -30.168 -26.502 -102.501s-26.5 -126.833 -26.5 -163.5c0 -54 5 -95.333 15 -124l31 -74c-4 2.66699 -10.667 9 -20 19c-6 6.66699 -13 10 -21 10c-20 0 -30 -10.667 -30 -32c0 -7.33301 1 -14.666 3 -21.999l-25 64c-8 19.333 -20.667 29 -38 29
c-12.667 0 -36.5 -12.667 -71.5 -38s-66.5 -38 -94.5 -38c-62.667 0 -111.667 36.667 -147 110c-26 53.333 -39 103.333 -39 150c0 3.33301 -1.5 12.333 -4.5 27s-4.5 25 -4.5 31v73c0 -0.666992 1.16699 6.33301 3.5 21s3.5 27 3.5 37c0 1.33301 4 9.33301 12 24
s13 22.667 15 24c5.33301 2.66699 10.333 4 15 4c2.66699 0 6.5 -0.833008 11.5 -2.5s9.16699 -2.16699 12.5 -1.5c2 0.666992 12 6.66699 30 18s29 17 33 17c5.33301 0 10.333 -3.66699 15 -11s7 -15.333 7 -24l-22 -184c4.66699 -63.333 14.334 -107.333 29.001 -132
s37.334 -37 68.001 -37c95.333 0 143 54 143 162v94c0 1.33301 0.833008 4.83301 2.5 10.5s2.5 9.5 2.5 11.5v68c0 29.333 17.667 44 53 44c17.333 0 33 -8 47 -24c12 -14 18 -26.667 18 -38z" />
    <glyph glyph-name="V" unicode="V" horiz-adv-x="776" 
d="M731 865c-7.33301 -16 -16.999 -32.334 -28.999 -49.001c2.66699 -2.66699 6.66699 -4 12 -4c-4.66699 -8 -12.667 -23.333 -24 -46c4 -0.666992 8 0 12 2l-101 -112c-49.333 -58 -89.333 -125 -120 -201l-85 -192c-19.333 -46.667 -29 -92.667 -29 -138
c0 -18.667 3.33301 -36 10 -52s10 -23.333 10 -22c0 -6 -3 -12 -9 -18s-11.333 -9 -16 -9c-10 0 -21.5 4.66699 -34.5 14l-37.5 27c-70 51.333 -110.667 117.666 -122 198.999c-6 42.667 -21.333 84 -46 124c-1.33301 2.66699 -22 32 -62 88
c-21.333 29.333 -32 53.666 -32 72.999c0 16.667 14 33.334 42 50.001c22.667 14 38.334 21 47.001 21c18 0 29.333 -6.33301 34 -19c2 -4 5.66699 -24.667 11 -62s14.666 -74 27.999 -110l56 -138c6.66699 -21.333 10.334 -33.666 11.001 -36.999
c7.33301 -14.667 16.666 -22 27.999 -22c16.667 0 41.667 51 75 153c2 6.66699 10.333 26 25 58c19.333 42.667 37 77.334 53 104.001c45.333 76.667 68.333 115.667 69 117l161 177c-0.666992 -1.33301 -1 -3 -1 -5c0 -0.666992 0.333008 -2.33398 1 -5.00098
c7.33301 10 14.666 17.333 21.999 22c0 -9.33301 0.666992 -16 2 -20c9.33301 8.66699 22.333 19.334 39 32.001z" />
    <glyph glyph-name="W" unicode="W" horiz-adv-x="825" 
d="M765 599c0 -15.333 -11.335 -30.3389 -34.002 -45.0059c-39.333 -26 -67.666 -47.667 -84.999 -65c-29.333 -28.667 -65.666 -69.667 -108.999 -123l-85 -124c-4 -8 -10.333 -35.333 -19 -82c0 -0.666992 -5.83301 -11 -17.5 -31s-17.5 -32.333 -17.5 -37
c0 -8 -1.66699 -20 -5 -36c-5.33301 -23.333 -12 -35 -20 -35c-12 0 -25.5 21 -40.5 63s-29.5 63 -43.5 63c-14.667 0 -27.334 -38 -38.001 -114c-11.333 -88 -19.333 -136.333 -24 -145c-8 8.66699 -14.667 25.334 -20 50.001l-34 156c0 -1.33301 -5.5 29.334 -16.5 92.001
s-16.5 101 -16.5 115c0 16.667 -18 43.834 -54 81.501s-54 66.167 -54 85.5c0 11.333 5.66699 24.5 17 39.5s24.333 22.5 39 22.5c14 0 27 -14.333 39 -43l30 -85c2.66699 -6.66699 8 -27.667 16 -63c8.66699 -39.333 13 -64.333 13 -75
c0 0.666992 2.66699 -12.666 8 -39.999s8 -47 8 -59l13 -25c25.333 19.333 38 46.333 38 81c0 8 -0.833008 18.833 -2.5 32.5s-2.5 22.834 -2.5 27.501c0 5.33301 4.16699 17.166 12.5 35.499s15.5 27.5 21.5 27.5c6.66699 0 13.167 -4.83301 19.5 -14.5
s9.83301 -21.167 10.5 -34.5c0.666992 -22 1 -44.667 1 -68c0 1.33301 2.5 -12 7.5 -40s7.5 -46.667 7.5 -56c0 -6.66699 6.33301 -10 19 -10c20 0 42.333 46 67 138c8.66699 30.667 14.667 50.334 18 59.001c11.333 28.667 29.333 58.334 54 89.001
c48 59.333 100.667 110.333 158 153c50.667 36.667 87.334 55 110.001 55c7.33301 0 11 -5.33301 11 -16z" />
    <glyph glyph-name="X" unicode="X" horiz-adv-x="596" 
d="M559 561c0 -16.667 -6.66699 -30.332 -20 -40.999l-36 -23c-47.333 -33.333 -74 -52.666 -80 -57.999c-12 -9.33301 -33.667 -28.333 -65 -57l-38 -28c-15.333 -12.667 -23 -26 -23 -40c0 -18.667 17.333 -42.334 52 -71.001l97 -78
c34.667 -31.333 52 -59.666 52 -84.999c0 -32.667 -11.667 -49 -35 -49c-22.667 0 -49.667 16 -81 48l-79 89c-29.333 32 -53.666 48 -72.999 48c-39.333 0 -59 -36.333 -59 -109c0 -14 0.666992 -27.333 2 -40c0 -9.33301 -4.33301 -19 -13 -29
c-11.333 -11.333 -25 -17 -41 -17c-17.333 0 -32.333 6 -45 18s-19 25.333 -19 40c0 66 18.333 122.667 55 170l30 32c12.667 14 19 26 19 36c0 7.33301 -21.833 47.666 -65.5 120.999s-65.5 111.333 -65.5 114c0 11.333 6.16699 22.333 18.5 33s22.833 16 31.5 16
c12 0 23.667 -3.33301 35 -10c9.33301 -6 15.666 -12.167 18.999 -18.5s5 -13.833 5 -22.5c0 -7.33301 -1.16699 -15.666 -3.5 -24.999l-3.5 -14c0.666992 -10.667 15 -38.334 43 -83.001c30 -49.333 52.667 -74 68 -74c12 0 21.333 4.33301 28 13l29 44
c20 27.333 46 55.666 78 84.999s66.333 53.333 103 72c30 15.333 51 23 63 23c11.333 0 17 -10 17 -30z" />
    <glyph glyph-name="Y" unicode="Y" horiz-adv-x="542" 
d="M493 543c0 -8 -10.665 -19.0029 -31.998 -33.0029c-26 -18 -43.333 -33 -52 -45c-14.667 -15.333 -40 -46 -76 -92c-10.667 -15.333 -20.667 -38.333 -30 -69c-12 -39.333 -18 -80.333 -18 -123v-114c0 -10 12 -37.333 36 -82s36 -71 36 -79
c0 -27.333 -12.667 -51.666 -38 -72.999c-21.333 -18 -41.333 -27 -60 -27c-10 0 -24.667 8.33301 -44 25c-24.667 21.333 -37 46.333 -37 75c0 2.66699 1.33301 7.83398 4 15.501s4 15.834 4 24.501c0 -0.666992 5 11.333 15 36s15.333 42.667 16 54
c2 43.333 2 77.333 0 102c0 3.33301 -1.33301 14 -4 32c-2 13.333 -3 25 -3 35c0 19.333 -6.33301 43.333 -19 72c-2 4.66699 -17.333 35 -46 91c-11.333 22 -34.333 43 -69 63c-27.333 15.333 -41 38.333 -41 69c0 14.667 5.66699 28.667 17 42c14 18 33.333 27 58 27
c30.667 0 55 -20 73 -60c5.33301 -12 16.666 -49.333 33.999 -112c10.667 -40 23 -60 37 -60c9.33301 0 19.666 15 30.999 45c15.333 40.667 30.666 70 45.999 88c54.667 66 96.334 99 125.001 99c8.66699 0 17 -2.5 25 -7.5s12 -11.167 12 -18.5z" />
    <glyph glyph-name="Z" unicode="Z" horiz-adv-x="737" 
d="M689 98c0 -11.333 -5.66406 -22.3369 -16.9971 -33.0039c-14 -12.667 -32.333 -19 -55 -19c-0.666992 0 -10.834 2.83301 -30.501 8.5s-41.834 9.16699 -66.501 10.5l-114 -7l-256 -38c-14 0 -29 2.66699 -45 8c-20.667 6 -31 14 -31 24c0 2 19 21.833 57 59.5
s61.333 59.834 70 66.501s30.334 24.667 65.001 54c38 32 57 48.667 57 50c0 12.667 -6 19 -18 19c-61.333 -15.333 -94.333 -23 -99 -23c-9.33301 0 -14 4.66699 -14 14c0 24.667 19.667 37 59 37c9.33301 0 20.666 -0.833008 33.999 -2.5s20.333 -2.5 21 -2.5
c21.333 0 37.666 12.333 48.999 37c14.667 32 24.334 49.667 29.001 53c44 34.667 69.667 55.334 77 62.001c10.667 10 16 18.667 16 26c0 15.333 -23 23 -69 23c6 0 -3.5 3.5 -28.5 10.5s-54.5 10.5 -88.5 10.5c-11.333 0 -22.666 -0.333008 -33.999 -1l-186 -12
c-4.66699 4.66699 -7.33398 7 -8.00098 7l-13 -2c8 2 12.833 3.83301 14.5 5.5s3.16699 5.5 4.5 11.5c-13.333 0 -23 -1 -29 -3c13.333 4.66699 22.333 11.334 27 20.001c-6 0 -18 1.33301 -36 4c8.66699 3.33301 15.667 5 21 5l63 -9l5 4l-12 12c4 0.666992 12 4 24 10
c-8.66699 4.66699 -22.667 7 -42 7c-2 0 -5.33301 1.5 -10 4.5s-11.334 5.83301 -20.001 8.5c4.66699 1.33301 9 2 13 2l116 -10l152 8c100.667 11.333 152.334 17 155.001 17c24 0 46.333 -8.66699 67 -26c18 -16.667 27 -32.667 27 -48c0 -16 -8 -35.333 -24 -58l-48 -60
c-30.667 -39.333 -57.334 -67.666 -80.001 -84.999c-16 -12 -25 -20.667 -27 -26h20c22.667 6.66699 42 10 58 10c8.66699 0 16.667 -2 24 -6c-4.66699 -16.667 -17.334 -26.5 -38.001 -29.5s-41 -5.16699 -61 -6.5c-24 -4.66699 -40.333 -16 -49 -34
c-10 -20.667 -32 -44 -66 -70c-27.333 -21.333 -41 -42.333 -41 -63c0 -18 9 -27 27 -27c0.666992 0 22.334 4.16699 65.001 12.5s64.667 12.5 66 12.5c12 0 32.667 2.5 62 7.5s56.333 7.5 81 7.5c86.667 0 130 -16 130 -48z" />
    <glyph glyph-name="bracketleft" unicode="[" horiz-adv-x="283" 
d="M220 58c-16 4.66699 -32.335 4.66602 -49.002 -0.000976562c6.66699 -3.33301 16.334 -8.66602 29.001 -15.999c-2 -2 -5.33301 -3 -10 -3c-4 -2.66699 -8.66699 -6 -14 -10c2.66699 -4 6 -7.33301 10 -10c-51.333 20.667 -78.333 32 -81 34c-35.333 20 -53 45 -53 75
c0 4 -2.33301 12.833 -7 26.5s-7 24.167 -7 31.5c2 46 3.33301 122 4 228c0 1.33301 -1.66699 10.666 -5 27.999s-5 27 -5 29c0 24 13 50 39 78s53.333 42 82 42c16 0 30.333 -6.66699 43 -20s19 -25.666 19 -36.999c0 -12.667 -5.33301 -19 -16 -19c-4 0 -10.833 1 -20.5 3
s-16.5 3 -20.5 3c-22.667 0 -41 -11.667 -55 -35c-9.33301 -16 -14 -28.667 -14 -38v-255c0 -70 34 -105 102 -105h18c6.66699 0.666992 10.334 1 11.001 1h-8l-4 -5l12 -12v-14z" />
    <glyph glyph-name="backslash" unicode="\" horiz-adv-x="557" 
d="M522 50c-4.66699 2 -7.66992 2.99902 -9.00293 2.99902c-2 -6 -3 -10.667 -3 -14c0 -2.66699 0.833008 -5.16699 2.5 -7.5s2.5 -4.16602 2.5 -5.49902c0 -2 -1 -5 -3 -9c-8 6.66699 -17.333 15.334 -28 26.001c-2.66699 -6.66699 -2 -15.334 2 -26.001l-14 14
c-2 -1.33301 -3.66699 -3.66602 -5 -6.99902c-3.33301 4 -10 10.333 -20 19c-0.666992 -4 -0.666992 -8.66699 0 -14c-4.66699 0 -8.66699 0.666992 -12 2l-4 -5c8.66699 -8.66699 15 -16 19 -22v-7l-12 5c-3.33301 -2.66699 -6.66602 -5 -9.99902 -7
c-57.333 50 -105 102 -143 156l-75 118c-2 -2 -3 -3.66699 -3 -5c0 -2 1.83301 -6 5.5 -12s6.83398 -14 9.50098 -24l-131 164c-24 29.333 -36.333 44.666 -37 45.999c-17.333 24 -26 43.667 -26 59c0 13.333 6.66699 27 20 41c14.667 16.667 33 25 55 25
c16.667 0 31.667 -8.33301 45 -25c0.666992 -1.33301 18.667 -28 54 -80c32.667 -48.667 69.334 -96.667 110.001 -144l105 -120c33.333 -40.667 68.333 -88.667 105 -144zM381.997 164.999c0 17.333 -16 40.666 -48 69.999c-29.333 26.667 -51.333 42 -66 46
c3.33301 -6.66699 7.33301 -13.334 12 -20.001v-7c-6 -2 -14 -3 -24 -3c-2 -8 -3 -10.333 -3 -7c0 -4 2.66699 -7.33301 8 -10c9.33301 -4.66699 18.333 -11 27 -19c12 -16 32 -38.667 60 -68l-49 88c7.33301 -3.33301 19.333 -15.666 36 -36.999
c20 -25.333 33.333 -49.666 40 -72.999l-1 13c-0.666992 2.66699 -1 5.33398 -1 8.00098c0 3.33301 1.5 6.66602 4.5 9.99902s4.5 6.33301 4.5 9z" />
    <glyph glyph-name="bracketright" unicode="]" horiz-adv-x="264" 
d="M222 390c0 -4 -1.16602 -13.167 -3.49902 -27.5s-3.5 -23.833 -3.5 -28.5v-196c0 -21.333 -20 -45.333 -60 -72c-37.333 -24.667 -67.333 -37 -90 -37c-10 0 -18.333 5 -25 15s-10 20.333 -10 31c0 13.333 11 25.333 33 36l65 31c22.667 14.667 34 32.667 34 54v189
c0 -2.66699 -1.33301 3.83301 -4 19.5s-4 32.5 -4 50.5c0 47.333 -20.667 71 -62 71c-10.667 0 -21.334 -1.66699 -32.001 -5c-6.66699 0 -12.5 3.5 -17.5 10.5s-7.5 14.833 -7.5 23.5c0 29.333 16 44 48 44c72.667 0 109 -33.333 109 -100c0 -2 5 -17 15 -45
s15 -49.333 15 -64z" />
    <glyph glyph-name="asciicircum" unicode="^" horiz-adv-x="498" 
d="M438 632c-3.33301 -7.33301 -10 -19.332 -20 -35.999c-32.667 28 -64.667 52.333 -96 73c-24 16 -37.667 24 -41 24c-8 0 -55 -27.667 -141 -83c-16.667 11.333 -25 18.666 -25 21.999c0 2.66699 13.667 17.667 41 45c36 36 69.333 79.333 100 130
c32.667 -22 56.667 -42.333 72 -61l18 -27c26 -27.333 50.333 -49.333 73 -66c12.667 -8.66699 19 -15.667 19 -21z" />
    <glyph glyph-name="underscore" unicode="_" horiz-adv-x="713" 
d="M692 -8c-1.33301 -7.33301 -2.00391 -14.3311 -2.00391 -20.998c-238 1.33301 -373.667 2 -407 2c-16.667 0 -33.167 -1.16699 -49.5 -3.5s-31.166 -3.5 -44.499 -3.5s-27.666 1.33301 -42.999 4s-26.666 4 -33.999 4c-16 0 -34.333 3.66699 -55 11
c-25.333 9.33301 -38 20.666 -38 33.999c0 16.667 7 25 21 25c0.666992 0 15.834 -4.16699 45.501 -12.5s48.5 -12.5 56.5 -12.5h155c58.667 0 95 -2 109 -6s27 -6 39 -6c17.333 0 85 8 203 24c8.66699 0 18.167 -4.33301 28.5 -13s15.5 -17.334 15.5 -26.001z" />
    <glyph glyph-name="grave" unicode="`" horiz-adv-x="195" 
d="M146 533c0 -12.667 -4 -19 -12 -19c-69.333 50.667 -104 84 -104 100s6.66699 29.333 20 40c10 8 19.333 12 28 12c21.333 0 39 -19 53 -57c10 -28 15 -53.333 15 -76z" />
    <glyph glyph-name="a" unicode="a" horiz-adv-x="352" 
d="M302 -5c-4 8.66699 -10.335 20.666 -19.002 35.999c-2.66699 -0.666992 -6 -3 -10 -7c-4 4.66699 -11.333 11.667 -22 21c-2 -6 -3 -9.33301 -3 -10c0 -6 3.33301 -14.667 10 -26c-0.666992 0 -1.5 -0.166992 -2.5 -0.5s-1.83301 -0.833008 -2.5 -1.5
c-3.33301 6 -9.66602 15.667 -18.999 29c-0.666992 -5.33301 0 -11.666 2 -18.999c-4 8.66699 -7.66699 17.334 -11 26.001c0 -1.33301 0 6.33398 0 23.001c0 19.333 2.16699 31.666 6.5 36.999s6.5 15.333 6.5 30c0 23.333 -13 44.666 -39 63.999c-22 16 -40.333 24 -55 24
c-5.33301 0 -9.83301 -2.66699 -13.5 -8s-5.5 -9.66602 -5.5 -12.999c0 -4.66699 3.33301 -12.834 10 -24.501s10 -22.167 10 -31.5c0 0.666992 -0.666992 -2 -2 -8c-1.33301 -8 -2.66602 -20 -3.99902 -36c-1.33301 -22.667 -2 -54 -2 -94c0 -23.333 -14.333 -35 -43 -35
c-12.667 0 -25.667 4.83301 -39 14.5s-20 21.167 -20 34.5c0 4.66699 5.66699 20.5 17 47.5s17 55.167 17 84.5c0 53.333 9 109.333 27 168c27.333 92 69.333 143.667 126 155c2 -4.66699 3 -12 3 -22c0 2.66699 9.16699 -15.166 27.5 -53.499s27.5 -70.5 27.5 -96.5
c0 2 3.16699 -8.83301 9.5 -32.5s9.5 -43.167 9.5 -58.5c0 -4.66699 -2.83301 -21.334 -8.5 -50.001s-8.5 -53.667 -8.5 -75c0 -23.333 2.33301 -42.333 7 -57c4 -12 8.33301 -23.667 13 -35zM230.998 289.999c0 48.667 -13.668 82.666 -41.001 101.999
c-6 -9.33301 -12.333 -18.666 -19 -27.999c-10 -17.333 -23 -58 -39 -122c24 18 42.333 27 55 27c2.66699 0 7.83398 -1.66699 15.501 -5s12.5 -5 14.5 -5c9.33301 0 14 10.333 14 31z" />
    <glyph glyph-name="b" unicode="b" horiz-adv-x="474" 
d="M449 143c0 -28.667 -11.3311 -53.667 -33.998 -75c-28 -26 -66.667 -39 -116 -39c-1.33301 0 -17.333 -2.83301 -48 -8.5s-47 -8.5 -49 -8.5c-9.33301 0 -35.5 -16.667 -78.5 -50s-65.167 -50 -66.5 -50c-8.66699 0 -15.334 6 -20.001 18
c-1.33301 6.66699 -3 13.334 -5 20.001c0.666992 2 13 32.333 37 91c13.333 32.667 23 64 29 94c5.33301 24.667 5.66602 66.667 0.999023 126c-5.33301 16.667 -11 33 -17 49c-10.667 33.333 -16 52.666 -16 57.999c0 58 66 87 198 87c94.667 0 142 -25 142 -75
c0 -26 -23 -55 -69 -87l-88 -51c3.33301 -1.33301 4.66602 -2 3.99902 -2c4 0 14.833 3.16699 32.5 9.5s32.834 9.5 45.501 9.5c34 0 63 -14 87 -42c20.667 -24 31 -48.667 31 -74zM302.002 373c0 26 -11.333 39 -34 39c-31.333 0 -57.333 -9.33301 -78 -28
c-24 -21.333 -36 -51 -36 -89c0 -6.66699 2.66699 -18 8 -34h9c10.667 12 29.167 22.5 55.5 31.5s43.5 16.5 51.5 22.5c16 12 24 31.333 24 58zM406.002 133c0 34 -8.99902 58.335 -26.999 73.002c-2 -2.66699 -6.66699 -7.66699 -14 -15
c-4.66699 3.33301 -9.33398 5.66602 -14.001 6.99902c6 -6.66699 12.667 -18 20 -34s11 -25.333 11 -28c0 -12.667 -9.66699 -31.334 -29 -56.001l24 22c8 7.33301 14.333 11 19 11c0.666992 0 1.5 -0.333008 2.5 -1s1.83301 -1 2.5 -1c0 -7.33301 1 -13 3 -17
c1.33301 16 2 29 2 39zM341.003 147.002c0 15.333 -12.333 28.332 -37 38.999c-18.667 8 -34.334 12 -47.001 12c-3.33301 0 -33.666 -4 -90.999 -12c2.66699 -6 8.33398 -16 17.001 -30c6 -9.33301 9 -17 9 -23c0 -3.33301 -1.66699 -8.33301 -5 -15l-6 -12
c21.333 -11.333 32.666 -17 33.999 -17c17.333 -2.66699 38.333 -2.66699 63 0c11.333 1.33301 24 7 38 17c16.667 12.667 25 26.334 25 41.001z" />
    <glyph glyph-name="c" unicode="c" horiz-adv-x="649" 
d="M603 193l-77.002 -80c-28.667 -28.667 -55.334 -49.334 -80.001 -62.001c-32 -16.667 -67.667 -25 -107 -25c-52 0 -105.333 15.333 -160 46c-76 42.667 -122.333 105.667 -139 189c20.667 -0.666992 38.667 11.5 54 36.5l45 76.5c19.333 33.333 41.333 56.333 66 69
c16.667 8.66699 87.334 17 212.001 25c26.667 0 51 -3 73 -9c39.333 -10 59 -27.333 59 -52c0 -15.333 -2 -32.333 -6 -51c-6 -24.667 -13.333 -37 -22 -37c-9.33301 0 -21.333 8 -36 24c-21.333 24 -35.666 39 -42.999 45c-20 16 -41.667 24 -65 24
c-40 0 -89.333 -14.333 -148 -43c-69.333 -34.667 -104 -72.334 -104 -113.001c0 -43.333 16.333 -74.666 49 -93.999c6.66699 -4 33 -13.667 79 -29c12.667 -4 27 -12 43 -24c12.667 -9.33301 25 -14 37 -14c16.667 0 42.334 8 77.001 24c50 22.667 94 54.667 132 96v-8
l-24 -72c0.666992 -0.666992 1.16699 -1.5 1.5 -2.5s0.5 -1.83301 0.5 -2.5c7.33301 8.66699 14.833 21.334 22.5 38.001s16.167 30 25.5 40l-24 -46c2.66699 -1.33301 6 -2 10 -2c4.66699 0 11 3 19 9c12.667 11.333 22.667 19.333 30 24zM126.998 366l-67.001 -85v12
c16 41.333 35.333 70.333 58 87c-1.33301 -1.33301 -4 -6 -8 -14c4.66699 -1.33301 10.334 -1.33301 17.001 0zM73.9971 210c-0.666992 18 -0.666992 31.666 0 40.999c-3.33301 -4.66699 -5 -9 -5 -13c0 -1.33301 0.666992 -4.66602 2 -9.99902s2.33301 -11.333 3 -18z" />
    <glyph glyph-name="d" unicode="d" horiz-adv-x="640" 
d="M600 343c0 -64.667 -36.333 -121.667 -109 -171c-12 -8 -47.667 -22 -107 -42c-50 -16 -75 -28.667 -75 -38c0 -2.66699 1.5 -7.16699 4.5 -13.5s4.5 -13.5 4.5 -21.5c0 -9.33301 -5.16699 -18.333 -15.5 -27s-21.166 -13 -32.499 -13c-13.333 0 -20 5 -20 15
c0 3.33301 0.833008 8.16602 2.5 14.499s2.5 10.166 2.5 11.499c0 8 -4 12 -12 12c-3.33301 0 -14.333 -5.66699 -33 -17c-24 -14 -49.333 -25.333 -76 -34l-64 -14c-23.333 -5.33301 -35 -13.666 -35 -24.999c0 -4 2 -8.5 6 -13.5s6 -9.16699 6 -12.5
c0 -6 -3.16699 -11.167 -9.5 -15.5s-12.5 -6.5 -18.5 -6.5c-15.333 0 -23 9.33301 -23 28c0 19.333 12.667 33.333 38 42l88 22c40 12.667 72.333 31.334 97 56.001l30 16c12.667 7.33301 19 18 19 32c0 -1.33301 -2.5 11.667 -7.5 39s-7.5 46.666 -7.5 57.999v94
c0 28 -4.33301 45.833 -13 53.5s-13 15.834 -13 24.501c0 7.33301 3 14.666 9 21.999c7.33301 10 17 15 29 15c33.333 0 50 -17.667 50 -53c0 -7.33301 -2.66699 -13.333 -8 -18c-7.33301 -5.33301 -12.333 -11.666 -15 -18.999c-5.33301 -14 -8 -36 -8 -66
c0 -25.333 0.833008 -42.166 2.5 -50.499s2.5 -36.5 2.5 -84.5c0 -18 8 -27 24 -27c16.667 6.66699 33.334 14 50.001 22c38 18 69.333 35.667 94 53c4.66699 3.33301 17 21.333 37 54c23.333 38 35 65.333 35 82c0 9.33301 -1.33301 18.166 -4 26.499s-4 15.833 -4 22.5
c0 21.333 -25.333 41 -76 59c-42 15.333 -77.333 23 -106 23c-11.333 0 -29.333 -1.33301 -54 -4s-36.667 -4 -36 -4s-3.33301 -2 -12 -6s-15.334 -6 -20.001 -6c-5.33301 2.66699 -8 5 -8 7c0 6.66699 4.33301 14.5 13 23.5s18 13.5 28 13.5c4 0 8.66699 -0.833008 14 -2.5
s9.66602 -2.5 12.999 -2.5h83c100 0 168 -14.333 204 -43c24 -18.667 36 -49 36 -91z" />
    <glyph glyph-name="e" unicode="e" horiz-adv-x="635" 
d="M450 319c-10.667 -1.33301 -22.999 -0.999023 -36.999 1.00098c-16.667 2.66699 -31 4 -43 4c-28 0 -61.333 -10.333 -100 -31s-65.334 -31 -80.001 -31s-22 6 -22 18c0 8.66699 13.667 20.667 41 36c25.333 14 41 21 47 21l16 6.5
c10.667 4.33301 22.334 6.83301 35.001 7.5c33.333 2 61.666 2 84.999 0c8.66699 -2.66699 16.667 -5.33398 24 -8.00098c16.667 -7.33301 28 -15.333 34 -24zM598.001 84.001c-8.66699 -0.666992 -21.667 -3.66699 -39 -9c6.66699 -3.33301 15.334 -6 26.001 -8
c-10 -2 -16.333 -2.66699 -19 -2c-5.33301 1.33301 -10.333 2 -15 2c-16.667 0 -25.334 -2.33301 -26.001 -7c-5.33301 2.66699 -21 3.66699 -47 3c-60 -1.33301 -96.667 -2 -110 -2c-20 0 -54.667 -5.83301 -104 -17.5s-76.666 -17.5 -81.999 -17.5
c-34 0 -62.667 9.66699 -86 29c-26 20.667 -39 48.334 -39 83.001v208l-27 103c12 30 24.667 45 38 45c20.667 0 31 -8 31 -24c0 -5.33301 -1.66699 -11 -5 -17c5.33301 -2 9 -3 11 -3c20.667 0 48 6.5 82 19.5s55.333 19.5 64 19.5c32.667 -6.66699 63 -10 91 -10
c22 0 44.333 6.66699 67 20c-7.33301 -4 -14 -9 -20 -15c0.666992 -1.33301 2.33398 -2 5.00098 -2l7.5 3.5c5 2.33301 10.833 3.5 17.5 3.5c-5.33301 0 6.66699 5.66699 36 17c-9.33301 -4.66699 -19 -12 -29 -22l5 -5c7.33301 7.33301 11.5 11.166 12.5 11.499
s5.83301 1.5 14.5 3.5c2.66699 0.666992 6.33398 1.66699 11.001 3c-8.66699 -5.33301 -21.334 -11.333 -38.001 -18c4.66699 -2.66699 11.667 -4 21 -4c-11.333 -5.33301 -46 -13.833 -104 -25.5s-94.667 -17.5 -110 -17.5c-40.667 0 -69.334 -7 -86.001 -21
s-25 -37 -25 -69c0 -28.667 2.16699 -51.334 6.5 -68.001s6.5 -25.667 6.5 -27s-2.16699 -9.16602 -6.5 -23.499s-6.5 -24.5 -6.5 -30.5c0 -8 2.66699 -17.333 8 -28l10 -18c2 -9.33301 3.83301 -18.5 5.5 -27.5s9.5 -15.167 23.5 -18.5c17.333 -4 49.666 -6 96.999 -6
l167 23c20 -0.666992 40 -5 60 -13c18 -6.66699 45.333 -10 82 -10c1.33301 -1.33301 7.33301 -5 18 -11z" />
    <glyph glyph-name="f" unicode="f" horiz-adv-x="620" 
d="M580 406c0 -13.333 -4.16602 -23.9971 -12.499 -31.9971s-16.833 -15.667 -25.5 -23c8 14 12 25 12 33c0 20 -14 35 -42 45c-19.333 6 -51 10.667 -95 14c-29.333 0 -77.333 -0.666992 -144 -2c-14 -0.666992 -31.167 -4.83398 -51.5 -12.501
s-33.166 -11.5 -38.499 -11.5c-18 0 -27 -19.667 -27 -59c0 -32 6.33301 -52 19 -60c9.33301 -6.66699 30.333 -10 63 -10c26 13.333 72.333 20 139 20c-15.333 -3.33301 -32.333 -7.66602 -51 -12.999c5.33301 -2.66699 15.333 -3.5 30 -2.5s25 0.5 31 -1.5
c-28.667 0 -45.667 -4.33301 -51 -13c3.33301 0 13.666 -0.666992 30.999 -2c-10 -1.33301 -23 -4.33301 -39 -9c-12.667 -3.33301 -23 -5 -31 -5c-12.667 0 -37 -6 -73 -18c-44.667 -14 -67 -28.333 -67 -43v-66c0 -24.667 -2 -47.667 -6 -69l-6 -32c0 -8 6 -19.667 18 -35
s18 -31.333 18 -48c0 -12 -4.83301 -21.833 -14.5 -29.5s-20.834 -11.5 -33.501 -11.5c-32.667 0 -49 17.667 -49 53c0 11.333 4.83301 23.666 14.5 36.999s14.5 23.666 14.5 30.999v66c0 -2 1.66699 7 5 27c4 23.333 7 48.666 9 75.999c3.33301 37.333 5 76.333 5 117v47
c-2.66699 20.667 -10.667 31 -24 31c-7.33301 0 -16.166 -3 -26.499 -9s-15.5 -12.333 -15.5 -19c0 -5.33301 5.33301 -11.333 16 -18c-0.666992 0 -1.66699 -0.333008 -3 -1s-2.33301 -1 -3 -1c-8.66699 0 -16.834 3.16699 -24.501 9.5s-11.5 12.5 -11.5 18.5
c0 7.33301 15.5 25.833 46.5 55.5s47.5 44.5 49.5 44.5s7 -2.83301 15 -8.5s13 -8.5 15 -8.5c-4 0 21.667 4.33301 77 13s101.333 13 138 13s73 -4 109 -12c60 -14 90 -36 90 -66z" />
    <glyph glyph-name="g" unicode="g" horiz-adv-x="591" 
d="M547 377c0 -20 -9.33203 -30 -27.999 -30c-14 0 -42.333 5 -85 15s-63.334 15 -62.001 15h-99c-26 0 -54.667 -14.333 -86 -43s-47 -57 -47 -85v-65c0 -24 14.333 -47.333 43 -70s61 -34 97 -34c74.667 0 112 15 112 45c0 21.333 -12 32 -36 32
c-9.33301 0 -26 -2.33301 -50 -7c-31.333 -6.66699 -47.333 -10 -48 -10c2 2 5.33301 4.33301 10 7c-5.33301 2.66699 -25.333 5.33398 -60 8.00098c6 0.666992 17 4 33 10c-4 1.33301 -7.33301 2 -10 2c7.33301 5.33301 26.666 13.166 57.999 23.499s53.333 15.5 66 15.5
c57.333 0 95.333 -1.66699 114 -5c13.333 -2 22.333 -6.33301 27 -13c2.66699 -4 4.16699 -10.333 4.5 -19s1.16602 -15 2.49902 -19l-44 -201c-4 -2 -7 -3.66699 -9 -5c-5.33301 5.33301 -10.833 17.166 -16.5 35.499s-11.167 30.833 -16.5 37.5
c-9.33301 12.667 -23.333 19 -42 19c-16 0 -34 -2.5 -54 -7.5s-32.333 -7.5 -37 -7.5c-16 0 -44 5 -84 15c-48.667 12.667 -81 26.334 -97 41.001c-11.333 10 -23.666 24.333 -36.999 43c-20.667 28.667 -31 53 -31 73v78c0 2.66699 1.16699 6.66699 3.5 12s3.5 13 3.5 23
c0 28 23.667 55.667 71 83c57.333 32.667 131 49 221 49c10.667 0 30 -2.66699 58 -8s48 -8 60 -8c16 -5.33301 27.333 -8 34 -8s17.334 -3 32.001 -9c19.333 -8 29 -17.333 29 -28zM94.001 288c-0.666992 -0.666992 -1.66699 -2.33301 -3 -5
c0.666992 1.33301 1.66699 3 3 5zM452.001 145.001c-22 28.667 -48 42.999 -78 42.999l-12 -3.5c-8 -2.33301 -18.333 -4.16602 -31 -5.49902c40 0 67.333 -2.33301 82 -7c7.33301 -2.66699 13 -7.5 17 -14.5s11.333 -11.167 22 -12.5zM472.001 54
c0.666992 2.66699 -3.66699 8.00098 -13 16.001c-0.666992 -0.666992 -2 -1.66699 -4 -3c3.33301 -8.66699 5 -15.334 5 -20.001s-2.66699 -8.16699 -8 -10.5s-8 -5.83301 -8 -10.5c1.33301 0 3.33301 -5.66699 6 -17c8 12.667 15.333 27.667 22 45zM135 349.001
c-22 -8 -38.999 -21.666 -50.999 -40.999c-8.66699 -14 -13 -25 -13 -33c0 -1.33301 0.333008 -2.33301 1 -3v-3c1.33301 6.66699 4.66602 11.334 9.99902 14.001v-39c-2.66699 -1.33301 -4 -4 -4 -8c0 -4.66699 3.33301 -13.334 10 -26.001c10 -18 15.667 -28.333 17 -31
c-1.33301 18 -6 43.333 -14 76c0 -2 1.66699 0.333008 5 7c4 -2.66699 9.66699 -10 17 -22c0 19.333 -0.333008 35.166 -1 47.499s-1 17.166 -1 14.499l4 6c5.33301 6.66699 12 20.334 20 41.001z" />
    <glyph glyph-name="h" unicode="h" horiz-adv-x="327" 
d="M277 51c0.666992 -5.33301 -0.00195312 -14.3291 -2.00195 -26.9961c-4.66699 5.33301 -7.66699 10.333 -9 15c-2 -6.66699 -3 -16.667 -3 -30c-0.666992 4 -2.33398 6.66699 -5.00098 8c-3.33301 -13.333 -5 -27 -5 -41c0 12 -0.666992 20 -2 24
c-1.33301 -8 -4.66602 -21 -9.99902 -39l-12 83c-7.33301 52.667 -15.333 79 -24 79c-4 0 -8.83301 -2.5 -14.5 -7.5s-13.167 -8.16699 -22.5 -9.5s-18.666 -0.833008 -27.999 1.5s-15 2.83301 -17 1.5c-8.66699 -4.66699 -13 -16 -13 -34v-66c0 -2.66699 2 -8.66699 6 -18
s6 -19 6 -29c0 -24.667 -10 -37 -30 -37c-18 0 -32.333 17.667 -43 53c-8 25.333 -12 46 -12 62c0 16.667 3 42.5 9 77.5s9 67.5 9 97.5l-2.5 28.5c-1.66699 19 -2.5 35.5 -2.5 49.5c0 53.333 11 80 33 80c26 0 39 -13 39 -39c0 -6 -2 -14.333 -6 -25s-6 -19.334 -6 -26.001
v-77c0 -2.66699 -0.833008 -5.83398 -2.5 -9.50098s-2.5 -6.5 -2.5 -8.5c0 -7.33301 3.5 -13.833 10.5 -19.5s12.833 -8.5 17.5 -8.5c61.333 10.667 92 55 92 133v51c0 8 1.83301 15.667 5.5 23s6.83398 11 9.50098 11c0.666992 -0.666992 1 -1.66699 1 -3
c0 -0.666992 -1.5 -5 -4.5 -13s-4.83301 -15.667 -5.5 -23c0.666992 -0.666992 1.66699 -2.33398 3 -5.00098c11.333 11.333 17 19.333 17 24c0 0.666992 -0.333008 1.66699 -1 3v3c0 3.33301 2 7.66602 6 12.999c7.33301 -6 11 -17.333 11 -34
c0 -8.66699 -2.33301 -29.667 -7 -63c-4 -30 -5.33301 -54 -4 -72c4.66699 -32 11.667 -84.333 21 -157z" />
    <glyph glyph-name="i" unicode="i" horiz-adv-x="244" 
d="M195 397c0 -14 -7.50098 -32.4961 -22.501 -55.4961s-22.833 -49.833 -23.5 -80.5c0 -0.666992 0.5 -7.33398 1.5 -20.001s1.5 -29 1.5 -49c0 -50 -3.33301 -122 -10 -216c-15.333 23.333 -27.333 37.666 -36 42.999c-3.33301 1.33301 -6.66602 3 -9.99902 5
c-10 44.667 -15 82.667 -15 114c-4.66699 19.333 -7 35.666 -7 48.999c-2.66699 4 -6.66699 22.333 -12 55c-0.666992 8 0.333008 21.167 3 39.5s4 28.166 4 29.499c0 12.667 -6.83301 26 -20.5 40s-20.5 26 -20.5 36c0 10.667 5 22.667 15 36c14 18 31.667 27 53 27
c8 0 17.833 -2.66699 29.5 -8s26.167 -8 43.5 -8s26 -12.333 26 -37zM106.999 376.004c0 12.667 -6.33301 19.001 -19 19.001c-11.333 0 -17 -9.66699 -17 -29l9 -34c6 -22.667 9 -37.667 9 -45c0 -18 -1.33301 -30.333 -4 -37s-4 -9.33398 -4 -8.00098
c0 -1.33301 8 -22.333 24 -63c0 16 -3 41 -9 75l4.5 16.5c3 11 4.5 20.167 4.5 27.5c0 37.333 0.666992 63.333 2 78z" />
    <glyph glyph-name="j" unicode="j" horiz-adv-x="835" 
d="M782 448l-33.999 -0.00292969c-24 -6.66699 -44.667 -10 -62 -10c4.66699 0 -0.333008 2 -15 6s-37 6 -67 6h-52c-22.667 -6 -49 -30.333 -79 -73c-33.333 -47.333 -53 -94 -59 -140h-15c0 -14.667 2.33301 -21.667 7 -21c0 -29.333 -17.667 -67.333 -53 -114
c-42 -54 -86 -81 -132 -81c-98 14.667 -156 24.334 -174 29.001h20v15c-6.66699 4 -18.667 12 -36 24c14.667 0 27.5 1.33301 38.5 4s15.5 4 13.5 4c40.667 -10 76 -15 106 -15c33.333 0 63.666 10.333 90.999 31c22.667 17.333 51 58.5 85 123.5s51 111.5 51 139.5
l9.5 14.5c6.33301 9.66699 9.5 18.834 9.5 27.501c0 14 -6.33301 21.667 -19 23h-61c-22.667 -2.66699 -54.334 -10.667 -95.001 -24c-38 -12 -60 -18 -66 -18c-14 0 -21 14.333 -21 43c0 20.667 11.333 36.334 34 47.001c16.667 8 35.334 12 56.001 12h286
c48 0 93.667 -4.66699 137 -14l57 -15l-5 -5v-7c11.333 -6 26 -10 44 -12zM639.001 488.997c-8.66699 2 -14.998 3 -18.998 3l-40 -4c-26.667 -2.66699 -41.667 -4 -45 -4c17.333 -4 35.666 -6 54.999 -6s35.666 3.66699 48.999 11zM491.003 481.997h-46.001v-7h32
c4.66699 2.66699 9.33398 5 14.001 7z" />
    <glyph glyph-name="k" unicode="k" horiz-adv-x="391" 
d="M346 438c-86.667 -102 -130.669 -153.671 -132.002 -155.004c-16 -20 -24 -35.667 -24 -47c0 -12.667 11 -43 33 -91s33 -88 33 -120c0 -4.66699 4 -10 12 -16v-22c-2 6.66699 -4.33301 13.5 -7 20.5s-11 10.167 -25 9.5c-2 12.667 -13.333 42.334 -34 89.001
c-25.333 56.667 -45 85 -59 85c-16 0 -34.667 -22.5 -56 -67.5s-32 -82.833 -32 -113.5l-3 -10.5c-2 -7 -3.66699 -14.833 -5 -23.5h-9v140l17 203c-6.66699 20 -10 43.333 -10 70c0 24.667 5.83301 45.834 17.5 63.501s28.834 26.5 51.501 26.5c21.333 0 32 -5 32 -15
c0 6 -21.333 -55 -64 -183v-49c5.33301 -1.33301 7.66602 -2 6.99902 -2c1.33301 0 15 14.333 41 43c28.667 32 50.334 54 65.001 66c29.333 24 58 49.333 86 76c17.333 16.667 29 26 35 28c-0.666992 -1.33301 -2 -3.66602 -4 -6.99902
c5.33301 -1.33301 11 -0.666016 17 2.00098c-6 -6 -9 -10 -9 -12c0.666992 -1.33301 1.66699 -2 3 -2s5.33301 2.33301 12 7s10.334 7 11.001 7zM226.998 -54.0039c-2.66699 6 -6 11 -10 15h8c0 -2.66699 0.666992 -7.66699 2 -15zM238.998 345.996l-8 0.000976562
c-2.66699 -6.66699 -9 -13 -19 -19c7.33301 3.33301 16.333 9.66602 27 18.999zM214.998 309.997h-7c-6.66699 -11.333 -21.334 -24.333 -44.001 -39c4 -1.33301 7 -3.66602 9 -6.99902c2 4.66699 8.83301 13.167 20.5 25.5s18.834 19.166 21.501 20.499z" />
    <glyph glyph-name="l" unicode="l" horiz-adv-x="483" 
d="M433 115c0 -9.33301 -13.6689 -17.335 -41.002 -24.002c-16 -4 -32.333 -7.66699 -49 -11c-16 -5.33301 -30.167 -14.333 -42.5 -27s-28.166 -20.667 -47.499 -24c-46 -8 -81.667 -19 -107 -33c-12 -6.66699 -26 -18 -42 -34c-10.667 -10.667 -22 -16 -34 -16
c-2.66699 0 -8 6.83301 -16 20.5s-12 24.834 -12 33.501c0 0.666992 2.5 10.5 7.5 29.5s7.5 29.167 7.5 30.5c1.33301 6 0.666016 21.667 -2.00098 47c-3.33301 30 -5 49 -5 57c0 14 2.66699 35.333 8 64s8 49.667 8 63c0 14 -5.66699 30.333 -17 49s-17 32.334 -17 41.001
c0 17.333 8.83301 32.333 26.5 45s39.5 19 65.5 19c36 0 54 -12.667 54 -38l-13.5 -39c-9 -26 -13.5 -51.667 -13.5 -77c0 -22.667 -3.16699 -44.667 -9.5 -66s-9.5 -43 -9.5 -65c0 -38.667 6.66699 -62 20 -70c5.33301 -3.33301 24 -5 56 -5
c30.667 0 64.334 3.5 101.001 10.5s64.334 15.5 83.001 25.5h39c0 -0.666992 0.333008 -1.66699 1 -3s1 -2.33301 1 -3zM240.998 54.998c-4.66699 2 -19 3 -43 3c16 -4.66699 30.333 -5.66699 43 -3z" />
    <glyph glyph-name="m" unicode="m" horiz-adv-x="508" 
d="M190 361l-26 0.000976562v14l12 3c5.33301 -4.66699 10 -10.334 14 -17.001zM464 322.001c0 -22.667 -6.33398 -42 -19.001 -58c-15.333 -19.333 -23.333 -30.666 -24 -33.999c-2 -7.33301 -5 -33 -9 -77c-4.66699 -40.667 -10.667 -71.667 -18 -93
c0 -0.666992 -10.667 -18.334 -32 -53.001c-18 -30 -28.333 -55 -31 -75c-2 -1.33301 -4.33301 -3 -7 -5c0 2 -1 5.33301 -3 10c-3.33301 -3.33301 -8.83301 -8.5 -16.5 -15.5s-11.834 -10.833 -12.501 -11.5l63 223v90c-2.66699 1.33301 -6 2.33301 -10 3
c-9.33301 0 -17.666 -6.66699 -24.999 -20c-11.333 -20 -17.333 -30.667 -18 -32c-12.667 -8.66699 -25.667 -18.334 -39 -29.001c2.66699 -2.66699 3.66699 -10.667 3 -24c-11.333 12.667 -26.666 48.334 -45.999 107.001c-1.33301 1.33301 -6.33301 2.66602 -15 3.99902
s-15.5 5.16602 -20.5 11.499s-9.5 12.833 -13.5 19.5c-6.66699 8.66699 -15.334 13.667 -26.001 15l23 -38c2 -5.33301 3 -21 3 -47s-4.83301 -54.833 -14.5 -86.5s-14.5 -59.167 -14.5 -82.5c-20 6.66699 -32.333 10 -37 10c-4 0 -9.33301 -3.33301 -16 -10
s-10.667 -10 -12 -10c-0.666992 0 -1 1 -1 3c0 3.33301 3.83301 11.666 11.5 24.999s11.5 24.333 11.5 33c2 47.333 2 82 0 104c-0.666992 12 -3 20.667 -7 26s-6 8.66602 -6 9.99902c0 16.667 -0.666992 41 -2 73c-0.666992 5.33301 -1.33398 9.33301 -2.00098 12
s-9.66699 15.334 -27 38.001c-15.333 20.667 -23 35.334 -23 44.001c0 11.333 5.33301 20.333 16 27c8.66699 5.33301 17.334 8 26.001 8c26.667 0 44.667 -6.33301 54 -19l19.5 -35.5c7 -12.333 22.167 -18.5 45.5 -18.5c8.66699 0 22.834 -11.667 42.501 -35
s37.167 -51.333 52.5 -84c16 11.333 27.333 32.333 34 63c8 36.667 15 59.334 21 68.001c14 21.333 39.667 32 77 32c14 0 24.833 -7.16699 32.5 -21.5s11.5 -29.166 11.5 -44.499z" />
    <glyph glyph-name="n" unicode="n" horiz-adv-x="479" 
d="M435 523c-62 -76.667 -101.332 -141.334 -117.999 -194.001c-5.33301 -26.667 -10.333 -53.334 -15 -80.001c-8 -15.333 -12 -26.666 -12 -33.999v-87c0 -71.333 -22.333 -107 -67 -107c-4.66699 0 -9.33398 2.33301 -14.001 7s-7 8.33398 -7 11.001
c-3.33301 14.667 -9.66602 45 -18.999 91c1.33301 -2 3.66602 -9 6.99902 -21c4.66699 6 7 10.667 7 14c-6 17.333 -12 33.666 -18 48.999c-15.333 36.667 -30 65.667 -44 87v7l5 -5c0.666992 1.33301 1.5 2.83301 2.5 4.5s1.83301 2.83398 2.5 3.50098
c-12 8 -18.333 12 -19 12c-4 0 -12 -12.333 -24 -37c-14 -30 -21 -59.667 -21 -89c0 -8 1.33301 -18.833 4 -32.5s4 -22.167 4 -25.5c9.33301 -25.333 14 -42 14 -50c0 -0.666992 -3 -7 -9 -19c-7.33301 -14 -13 -27.667 -17 -41c-10.667 26 -21 67.333 -31 124
c-9.33301 54.667 -14 96.334 -14 125.001c0 32 5.33301 62 16 90c14 36.667 34.667 59.667 62 69h35c0 -25.333 7.5 -58.333 22.5 -99s22.5 -68.334 22.5 -83.001c0 -17.333 9 -35 27 -53c2 2 3 4.66699 3 8c0 4 -2.33301 10.333 -7 19c-6 12 -10.333 21.333 -13 28
c10.667 -17.333 16.667 -29.666 18 -36.999c2 -11.333 4.33301 -20 7 -26c6 6 13 27.667 21 65c11.333 48.667 23.833 90.167 37.5 124.5s39.5 72.166 77.5 113.499l67 68h7z" />
    <glyph glyph-name="o" unicode="o" horiz-adv-x="400" 
d="M346 353c0 -86 -26 -171.333 -78 -256c-30 -48.667 -60.667 -73 -92 -73c-52 0 -100 56 -144 168l47 212c8.66699 14.667 33.667 40.667 75 78c46 40.667 77 61 93 61c13.333 0 31 -13 53 -39c30.667 -38 46 -88.333 46 -151zM251 345c0 4 -2.66699 12.333 -8 25
c-6.66699 16 -12.667 42.667 -18 80c-6 -14.667 -12 -23.334 -18 -26.001c0 -4 -14.167 -35.167 -42.5 -93.5s-42.5 -97.166 -42.5 -116.499c0 -15.333 4.33301 -29.5 13 -42.5s18.334 -19.5 29.001 -19.5c21.333 0 34.666 8.33301 39.999 25c3.33301 21.333 7 43 11 65
c4 16 11.333 37 22 63c9.33301 22 14 35.333 14 40z" />
    <glyph glyph-name="p" unicode="p" horiz-adv-x="479" 
d="M431 419c0 -26.667 -12.3359 -52.0029 -37.0029 -76.0029c-19.333 -19.333 -32.333 -29 -39 -29c-5.33301 -5.33301 -31 -21.333 -77 -48l-63 -32c-16.667 -11.333 -25 -28 -25 -50c-1.33301 -36.667 -2 -103 -2 -199c-2.66699 8 -5 15.667 -7 23
c-4.66699 11.333 -9 17.333 -13 18c0 9.33301 -2.83301 23 -8.5 41s-8.5 32.5 -8.5 43.5s-1.33301 22.167 -4 33.5s-4 18.333 -4 21c0 4.66699 1.33301 9.33398 4 14.001c-0.666992 0.666992 -1.66699 1.5 -3 2.5s-2.66602 1.83301 -3.99902 2.5l-105 -59
c25.333 25.333 56 50 92 74c14 9.33301 20.667 24.333 20 45c-2.66699 28 -2.66699 51.333 0 70c1.33301 9.33301 7 36.333 17 81c0 2.66699 -4.5 6.16699 -13.5 10.5s-13.5 11.5 -13.5 21.5c0 4.66699 8 11.834 24 21.501s28 14.5 36 14.5
c4.66699 0 14.334 3.83301 29.001 11.5s25.334 11.834 32.001 12.501c26.667 2.66699 55 2.66699 85 0c23.333 -2 43 -8.33301 59 -19c19.333 -12.667 29 -29 29 -49zM374.997 435.997c-1.33301 0.666992 -3.33301 1.83203 -6 3.49902s-4.66699 2.83398 -6 3.50098
c2 -0.666992 4 -1.66699 6 -3zM167.997 333.995c0 -0.666992 -0.166992 -1.66797 -0.5 -3.00098s-0.833008 -2.66602 -1.5 -3.99902c1.33301 2 2 4.33301 2 7zM395.997 397.994c0 4 -6.33203 15.999 -18.999 35.999c5.33301 -11.333 8 -22.333 8 -33
c0 -16 -7.33301 -31.667 -22 -47c7.33301 4.66699 14.666 12.334 21.999 23.001s11 17.667 11 21zM354.998 408.993c0 19.333 -22.333 28.999 -67 28.999c-26 0 -44.333 -5.33301 -55 -16c-6.66699 -6 -12.167 -16.333 -16.5 -31s-9.83301 -24 -16.5 -28
c6.66699 -5.33301 10 -13.333 10 -24c-2 -16.667 -5.33301 -37 -10 -61v-34c46.667 28.667 85.667 61.334 117 98.001c25.333 30.667 38 53 38 67zM165.998 321.992c-4.66699 -24.667 -8.66699 -48 -12 -70c2 -1.33301 3 -3 3 -5c6 48 9 73 9 75zM156.998 171.992v16l-10 -2
c4 -5.33301 7.33301 -10 10 -14z" />
    <glyph glyph-name="q" unicode="q" horiz-adv-x="503" 
d="M474 2c-6 23.333 -21.333 37.666 -46 42.999c-8 2 -28.333 3 -61 3c-8 0 -18.167 7 -30.5 21s-25.833 21 -40.5 21c-10 0 -20.667 -5.66699 -32 -17c-16.667 -16.667 -29 -27.334 -37 -32.001c-18.667 -11.333 -42 -17 -70 -17c-30 0 -56.667 12.333 -80 37
c-18 19.333 -27 33 -27 41c0 -2.66699 -3.33301 2.5 -10 15.5s-10 29.5 -10 49.5c0 37.333 12.5 82.833 37.5 136.5s37.5 84.834 37.5 93.501c0 33.333 10.333 60 31 80s45.334 30 74.001 30c43.333 0 78 -24 104 -72c22.667 -41.333 35.667 -92.666 39 -153.999
c2.66699 -44 2.66699 -77.333 0 -100c-0.666992 -3.33301 -2.83398 -6.83301 -6.50098 -10.5s-5.5 -6.5 -5.5 -8.5c0 -4 17 -19.333 51 -46c41.333 -32 63.666 -49.667 66.999 -53c-10 0 -18 -1 -24 -3c0.666992 -0.666992 9 -8 25 -22
c10.667 -9.33301 15.334 -17.333 14.001 -24v-12zM329 155c-3.33301 3.33301 -4.99805 6.66699 -4.99805 10h-12c3.33301 -2 5.66602 -4.16699 6.99902 -6.5s4.66602 -3.5 9.99902 -3.5zM275.002 208.001c0 12.667 -12.001 67 -36.001 163h-8c-42.667 -28 -75 -61 -97 -99
c-18 -31.333 -27 -61.333 -27 -90c0 -16 8 -34.5 24 -55.5s27.333 -31.5 34 -31.5c8 0 30 11.667 66 35c-8.66699 9.33301 -19 22.333 -31 39c8.66699 2 13.334 4.5 14.001 7.5s1 6.83301 1 11.5h34v20c3.33301 -2 7.33301 -6 12 -12h12z" />
    <glyph glyph-name="r" unicode="r" horiz-adv-x="420" 
d="M369 417c0 -40 -15.333 -71.6689 -46 -95.002c-11.333 -8.66699 -39.666 -23 -84.999 -43c-30.667 -12.667 -46 -27 -46 -43c0 -14.667 12 -30.667 36 -48c26 -19.333 40.333 -33.666 43 -42.999c10.667 -36 26.667 -70 48 -102v-12
c-6.66699 -1.33301 -10.334 -2 -11.001 -2c-8.66699 0 -17 4.66699 -25 14c-1.33301 -2 -1.33301 -4.33301 0 -7l-53 77c-42 50 -80.667 75 -116 75c-15.333 0 -23 -21.667 -23 -65c0 -14 0.333008 -21.833 1 -23.5s4.33398 -3.5 11.001 -5.5
c-14 -25.333 -21 -48.666 -21 -69.999h-35v186l-19 149c7.33301 58 19.666 96 36.999 114c22 22.667 65.667 34 131 34c44.667 0 82.667 -6.33301 114 -19c39.333 -16 59 -39.667 59 -71zM295 404.998c0 6.66699 -4.49512 13.167 -13.4951 19.5s-14.833 9.5 -17.5 9.5
s-9.33398 1.16699 -20.001 3.5s-22.334 3.5 -35.001 3.5c-26.667 0 -46.667 -5 -60 -15c-16.667 -13.333 -26.334 -37.333 -29.001 -72c-2 -28.667 -2.33301 -50 -1 -64c1.33301 -11.333 1.66602 -18.333 0.999023 -21h20c19.333 21.333 53.666 47 102.999 77
c34.667 22 52 41.667 52 59zM71.0049 326.998c0 2 -0.666992 5 -2 9h-12c2 -4.66699 5.33301 -12 10 -22c2.66699 8 4 12.333 4 13z" />
    <glyph glyph-name="s" unicode="s" horiz-adv-x="376" 
d="M338 144c0 -30 -20.835 -61.8301 -62.502 -95.4971s-92.5 -60.5 -152.5 -80.5c-23.333 -7.33301 -50.333 -16.333 -81 -27h-11c15.333 21.333 55 57 119 107c52.667 41.333 79 71.666 79 90.999c0 30.667 -16.667 59 -50 85c-10 7.33301 -41.333 26 -94 56
c-33.333 18.667 -50 35 -50 49c0 21.333 10.333 41.666 31 60.999c26.667 24.667 62 37 106 37c24.667 0 52.5 -9.66699 83.5 -29s46.5 -39 46.5 -59c0 -8 -4.66699 -16.333 -14 -25s-21.666 -13 -36.999 -13c-14.667 0 -26.667 11.667 -36 35s-20.666 35 -33.999 35
c-10 0 -18.5 -4.83301 -25.5 -14.5s-10.5 -18.167 -10.5 -25.5c0 -16.667 16.667 -33.334 50 -50.001c54 -26 85 -42 93 -48c33.333 -24 50 -53.667 50 -89zM287.998 220.003c0 -14.667 -1 -23.667 -3 -27c0 7.33301 1 16.333 3 27zM270.998 70.0029l-0.000976562 10h-18
c-1.33301 -6 -8.66602 -14.333 -21.999 -25c2 0 4 -0.333008 6 -1s3.66699 -1 5 -1c4 0 8.33301 2 13 6c8 6 13.333 9.66699 16 11z" />
    <glyph glyph-name="t" unicode="t" horiz-adv-x="654" 
d="M610 479c-2.66699 -2.66699 -8.33203 -6.66309 -16.999 -11.9961c6.66699 -1.33301 11.334 -2 14.001 -2h-13c-26 0 -49 -5 -69 -15c9.33301 -2.66699 21.166 -3 35.499 -1s27.5 1.66699 39.5 -1c-36.667 -2.66699 -56.667 -4.33398 -60 -5.00098c4 -2.66699 7 -5 9 -7
c-0.666992 0 -6 -0.666992 -16 -2c-14 -1.33301 -34.667 -2 -62 -2c-23.333 0 -57.666 -6 -102.999 -18c-66.667 -18.667 -100 -43 -100 -73v-206c0 2.66699 2 -6.5 6 -27.5s6 -39.5 6 -55.5c0 -52 -22.333 -78 -67 -78c-9.33301 0 -18 4.66699 -26 14
c-10.667 11.333 -16 26.666 -16 45.999c0 11.333 2.83301 24.833 8.5 40.5s8.5 27.167 8.5 34.5c0 -1.33301 2.83301 5 8.5 19s8.5 27 8.5 39c6.66699 13.333 10 34 10 62c0 14 -1.33301 27.667 -4 41s-4 24.333 -4 33c0 12 -4.5 23.833 -13.5 35.5s-20.167 17.5 -33.5 17.5
c-12.667 0 -30.334 -8.33301 -53.001 -25s-39.667 -25 -51 -25c-10.667 0 -17.334 1 -20.001 3s-4 7.66699 -4 17c0 30 34.333 57.667 103 83c58 22 95 31.667 111 29l183 35c15.333 2.66699 64.333 8 147 16c-2.66699 -0.666992 -6.66699 -2.33398 -12 -5.00098
c10 -0.666992 25.333 -2.33398 46 -5.00098z" />
    <glyph glyph-name="u" unicode="u" horiz-adv-x="483" 
d="M433 403c-10.667 -35.333 -24.333 -93.6689 -41 -175.002c-2 -13.333 -2 -35.333 0 -66c2 -35.333 7.33301 -63.333 16 -84l20 -47c-17.333 14.667 -28.666 22 -33.999 22c-14 0 -21 -6.66699 -21 -20c0 -4.66699 0.666992 -11 2 -19
c-13.333 48.667 -31.666 73 -54.999 73c-9.33301 0 -27 -10.5 -53 -31.5s-52 -31.5 -78 -31.5c-48.667 0 -87.334 29.333 -116.001 88c-22 46.667 -34.667 101.334 -38 164.001c-1.33301 22.667 -1.33301 43.667 0 63c2.66699 48 12.667 75.667 30 83l34 2
c0.666992 0.666992 8 5.33398 22 14.001c10 6.66699 17.667 10 23 10c11.333 0 17 -8 17 -24c0 -6.66699 -2.66699 -28.5 -8 -65.5s-8 -64.167 -8 -81.5c0 -90.667 25.667 -136 77 -136c39.333 0 69 12.333 89 37c17.333 22 25.666 50.667 24.999 86
c-1.33301 53.333 -0.666016 103.333 2.00098 150c1.33301 26 13.666 39 36.999 39c14.667 0 28 -4.83301 40 -14.5s18 -21.5 18 -35.5z" />
    <glyph glyph-name="v" unicode="v" horiz-adv-x="635" 
d="M593 683c-3.33301 -10.667 -7.49707 -19.335 -12.4971 -26.002l-7.5 -10c0 -1.33301 2.66699 -3 8 -5c-0.666992 -1.33301 -7 -12.666 -19 -33.999c1.33301 -0.666992 3 -1 5 -1s4 0.333008 6 1c-54.667 -56.667 -97.334 -107 -128.001 -151c-22 -32 -38 -61.667 -48 -89
c-4.66699 -15.333 -9.66699 -30.666 -15 -45.999l-46 -96c-21.333 -52 -32 -96.667 -32 -134c0 -13.333 2.33301 -24.833 7 -34.5s7 -16.834 7 -21.501c0 -14 -7 -21 -21 -21c-14.667 0 -37.334 13.667 -68.001 41c-44 38.667 -71.333 89.334 -82 152.001
c-6.66699 38.667 -28 83.334 -64 134.001c-34 47.333 -51 78 -51 92c0 11.333 9.66699 23.333 29 36s33.333 19 42 19c16 0 27 -12.333 33 -37l26 -116c6 -20.667 15.667 -45.5 29 -74.5s20.333 -44.5 21 -46.5l6 -18c4.66699 -12 10.334 -18 17.001 -18
c8 0 15.333 5.66699 22 17c10 16 23.333 49 40 99c8.66699 25.333 29 68.333 61 129c33.333 63.333 58.666 103.666 75.999 120.999c43.333 42.667 80 83 110 121c-1.33301 -2.66699 -2 -6 -2 -10l20 20v-12c3.33301 -2 4.66602 -3 3.99902 -3c2.66699 0 6.5 2.66699 11.5 8
s10.167 10 15.5 14z" />
    <glyph glyph-name="w" unicode="w" horiz-adv-x="664" 
d="M609 448c0 -13.333 -10.333 -26.6699 -31 -40.0029c-31.333 -19.333 -54.666 -37.333 -69.999 -54c-34 -37.333 -64.667 -74.666 -92 -111.999c-38 -52 -58.667 -86.333 -62 -103c-6 -27.333 -15.333 -52.666 -28 -75.999c-6.66699 -13.333 -13 -27 -19 -41
c-4 -8 -9.66699 -12 -17 -12c-12.667 0 -24.334 12.5 -35.001 37.5s-18.667 37.5 -24 37.5c-8.66699 0 -20.667 -14.667 -36 -44l-29 -59c-6.66699 6.66699 -10 14.667 -10 24c-29.333 64 -44 125.667 -44 185c0 24 -14.5 50.5 -43.5 79.5s-43.5 52.167 -43.5 69.5
c0 9.33301 4.83301 20 14.5 32s18.5 18 26.5 18c24.667 0 47.667 -47.667 69 -143c8.66699 -36.667 14.334 -77 17.001 -121c1.33301 -22.667 5.66602 -34 12.999 -34c24 0 36 14.667 36 44c0 6.66699 -0.666992 16 -2 28s-2 20 -2 24s3 13 9 27
c7.33301 16.667 14.333 25 21 25c4 0 8.66699 -4.16699 14 -12.5s8 -16.5 8 -24.5v-53c0 -12.667 2 -29 6 -49c5.33301 -26.667 12 -40 20 -40c19.333 0 36.333 37 51 111c11.333 36.667 30 74.667 56 114c21.333 32.667 57.833 69.834 109.5 111.501s88.5 62.5 110.5 62.5
c4.66699 0 7 -4 7 -12z" />
    <glyph glyph-name="x" unicode="x" horiz-adv-x="498" 
d="M459 448c0 -11.333 -35.498 -42.3359 -106.498 -93.0029s-106.5 -85 -106.5 -103c0 -16 27 -45 81 -87s81 -74.667 81 -98c0 -25.333 -9.66699 -38 -29 -38c-24.667 0 -57.667 24.333 -99 73s-70 73 -86 73c-24.667 0 -39.334 -13.333 -44.001 -40l-6 -75
c-5.33301 -26.667 -21.333 -40 -48 -40c-11.333 0 -21 4.66699 -29 14s-12 17.333 -12 24c0 32.667 3.33301 59.667 10 81s19.334 44.333 38.001 69l22.5 20.5c7.66699 7 11.5 15.5 11.5 25.5c0 8.66699 -17.5 41.834 -52.5 99.501s-52.5 86.834 -52.5 87.501
c0 7.33301 4.5 16 13.5 26s18.833 15 29.5 15c21.333 0 34.333 -9.66699 39 -29c0.666992 -3.33301 1 -17.333 1 -42c0 -10.667 12.167 -34.667 36.5 -72s41.166 -56 50.499 -56c10 0 22.667 11.667 38 35c22.667 32.667 45.667 59 69 79c61.333 52 104.666 78 129.999 78
c4 0 8.33301 -2.66699 13 -8s7 -11.666 7 -18.999z" />
    <glyph glyph-name="y" unicode="y" horiz-adv-x="444" 
d="M398 463l-57.998 -52c-42.667 -38 -71.834 -74.833 -87.501 -110.5s-23.5 -96.167 -23.5 -181.5c0 -38.667 9.66699 -73.667 29 -105s29 -52 29 -62c0 -16 -7.66699 -33 -23 -51c-17.333 -20 -35 -30 -53 -30c-13.333 0 -27.666 7.66699 -42.999 23s-23 33.333 -23 54
c0 10.667 5.16699 29 15.5 55s15.5 57.667 15.5 95c0 28.667 -1.33301 51.667 -4 69s-4 30.666 -4 39.999c0 12.667 -10.667 39.334 -32 80.001c-18.667 36 -29.667 55.667 -33 59l-44 29c-19.333 12.667 -29 31 -29 55c0 10.667 4.33301 21.667 13 33
c12 14 27.333 21 46 21c18 0 33 -8.66699 45 -26c10 -14 15 -27 15 -39c0 -4 7.66699 -24.667 23 -62c16 -39.333 27.333 -59 34 -59c7.33301 0 15.333 12 24 36c11.333 32 25 56.333 41 73l57 62c11.333 10 24.666 15 39.999 15c5.33301 0 11.666 -2 18.999 -6
s11 -9 11 -15z" />
    <glyph glyph-name="z" unicode="z" horiz-adv-x="615" 
d="M563 77c0 -8.66699 -4.66504 -16.665 -13.998 -23.998c-11.333 -9.33301 -26 -14 -44 -14c-2 0 -10.833 2.33301 -26.5 7s-34.167 7 -55.5 7c-18 0 -49.667 -2.33301 -95 -7s-69.666 -7 -72.999 -7c-68 -12.667 -109 -19 -123 -19c-10.667 0 -23 2 -37 6
c-17.333 4.66699 -26 10 -26 16s4 11.333 12 16c12.667 8 20.667 13.667 24 17l100 99c19.333 16 38.666 30.667 57.999 44c5.33301 4 8 8 8 12c0 9.33301 -6 14 -18 14c-0.666992 0 -12.667 -2.66699 -36 -8s-36 -8 -38 -8c-8.66699 0 -13 4 -13 12c0 17.333 18 26 54 26
c8.66699 0 19.667 -0.666992 33 -2c20.667 0 34.667 8.33301 42 25c10 24.667 18.667 39.667 26 45c47.333 36 71 59.333 71 70c0 13.333 -51 24.666 -153 33.999c-23.333 2 -44.333 2 -63 0c-32.667 -2 -68.334 -6 -107.001 -12c0 1.33301 -3 4 -9 8
c1.33301 0.666992 3.66602 3 6.99902 7c-8.66699 2 -17 2 -25 0c3.33301 1.33301 10.666 6 21.999 14c-6 3.33301 -15.667 5.66602 -29 6.99902c3.33301 1.33301 8 3.33301 14 6c-1.33301 0 3.83398 -1.5 15.501 -4.5s26.167 -4.16699 43.5 -3.5
c-1.33301 2.66699 -4.33301 6.66699 -9 12c4 1.33301 9.33301 3 16 5c-6 5.33301 -11.667 8.66602 -17 9.99902c-12 1.33301 -24 3 -36 5h225c70.667 11.333 107.334 17 110.001 17c22 0 41.833 -6 59.5 -18s26.5 -25 26.5 -39c0 -24.667 -22.667 -61 -68 -109l-74 -72
c4 -2.66699 7.33301 -4 10 -4l49 9c-2 0 5 -1 21 -3c-4 -16 -23 -25 -57 -27s-55 -11.667 -63 -29s-25.333 -36.666 -52 -57.999c-21.333 -16.667 -32 -34.667 -32 -54c0 -13.333 7.66699 -20 23 -20c-2.66699 0 19.666 5.16699 66.999 15.5s85.333 15.5 114 15.5h79
c11.333 0 24 -3 38 -9c16.667 -8 25 -18 25 -30z" />
    <glyph glyph-name="braceleft" unicode="{" horiz-adv-x="391" 
d="M326 76c-30 0 -46.001 -0.330078 -48.001 -0.99707c2 -1.33301 6.5 -4 13.5 -8l15.5 -9c-3.33301 -1.33301 -8.66602 -3 -15.999 -5c-4 -0.666992 -6 -2.33398 -6 -5.00098c0 -2 1 -5 3 -9c-38 8.66699 -69 23 -93 43c-27.333 22.667 -41 49.334 -41 80.001
c0 1.33301 -1.5 6.5 -4.5 15.5s-4.5 15.833 -4.5 20.5v58c-9.33301 7.33301 -25.333 13 -48 17c-24.667 4 -45.334 11.333 -62.001 22c8 10 26 15.167 54 15.5s48.667 8.16602 62 23.499c0 18 -0.666992 48 -2 90c-0.666992 10.667 -2.33398 23 -5.00098 37s-4 23 -4 27
c0 23.333 12 48.666 36 75.999c26.667 29.333 55.334 44 86.001 44c11.333 0 24 -6 38 -18s21 -24 21 -36c0 -15.333 -6 -23 -18 -23c-4 0 -10.5 1.16699 -19.5 3.5s-15.167 3.5 -18.5 3.5c-45.333 0 -68 -34 -68 -102c0 -34 -8.5 -65.5 -25.5 -94.5
s-25.5 -43.833 -25.5 -44.5c0 -2.66699 7.66699 -15.334 23 -38.001l24 -36c6.66699 -16 13.334 -39.667 20.001 -71c3.33301 -18.667 11.5 -31 24.5 -37s42.5 -9 88.5 -9c-2.66699 0 -6.66699 -0.666992 -12 -2c2 -2.66699 6 -7.66699 12 -15v-13z" />
    <glyph glyph-name="bar" unicode="|" horiz-adv-x="220" 
d="M156 171c0 -78.667 -27.667 -118 -83 -118c-22 0 -33 13 -33 39c0 -8 3.33301 9.5 10 52.5s10 101.167 10 174.5c0 46 -3.83301 90 -11.5 132s-11.5 67.333 -11.5 76c0 48 20 72 60 72c32.667 0 49 -9 49 -27c0 2.66699 -7 -38 -21 -122l5 -177l5 15
c14 -42 21 -81 21 -117z" />
    <glyph glyph-name="braceright" unicode="}" horiz-adv-x="396" 
d="M333 329c-14.667 -10.667 -30.002 -16 -46.002 -16c-4 0 -9.33301 0.5 -16 1.5s-11 1.5 -13 1.5c-16 0 -24 -25.333 -24 -76v-66c1.33301 -7.33301 2 -14 2 -20c0 -32 -16 -56 -48 -72c-57.333 -28.667 -91.333 -43 -102 -43c-6 0 -12.667 3.33301 -20 10
c-9.33301 8.66699 -14 20 -14 34c0 17.333 14 31.333 42 42c36 13.333 60.333 27.833 73 43.5s19 58.834 19 129.501c0 2 4 3.66699 12 5c1.33301 5.33301 2 11 2 17c0 8 -2.83301 16.667 -8.5 26s-8.5 21 -8.5 35c0 9.33301 -1.66699 28.666 -5 57.999
c-4.66699 39.333 -10 63.333 -16 72c-12 17.333 -27.333 26 -46 26c-5.33301 0 -12.166 -0.833008 -20.499 -2.5s-14.166 -2.5 -17.499 -2.5c-14 0 -21 11.333 -21 34c0 28 16 42 48 42c37.333 0 65.333 -9.33301 84 -28c14 -13.333 22.667 -31 26 -53l2 -33
c6 -16.667 11.667 -33.334 17 -50.001c1.33301 -3.33301 2 -33.666 2 -90.999c0 -4 6 -7.33301 18 -10c9.33301 -2.66699 16.333 -4 21 -4l18.5 -4c12.333 -2.66699 25.5 -4.66699 39.5 -6z" />
    <glyph glyph-name="asciitilde" unicode="~" horiz-adv-x="493" 
d="M447 250c0 -4 -3.50098 -14.834 -10.501 -32.501s-11.5 -26.5 -13.5 -26.5c-12.667 -8 -23.667 -12 -33 -12c-18.667 0 -47.334 12 -86.001 36c-20.667 13.333 -45.667 28 -75 44c-44.667 28 -69.667 42 -75 42c-20.667 8.66699 -38 13 -52 13
c-1.33301 0 -5.66602 -1 -12.999 -3s-12.666 -3 -15.999 -3s-10 -10.667 -20 -32c-10.667 -23.333 -16.667 -35.333 -18 -36c0 14 -1.66699 24 -5 30c0 13.333 4.66699 27 14 41c12.667 18.667 30.334 28 53.001 28c23.333 0 58.833 -15.833 106.5 -47.5l71.5 -47.5
c2.66699 0 8.16699 -4.33301 16.5 -13s16.833 -13 25.5 -13l17 -8.5c11.333 -5.66699 25.333 -8.5 42 -8.5c23.333 0 35 5 35 15c3.33301 4 6.66602 8.66699 9.99902 14c6.66699 12 10.667 26.333 12 43c1.33301 0.666992 2.83301 1.33398 4.5 2.00098s3.16699 1 4.5 1
c1.33301 -11.333 3 -20 5 -26z" />
    <glyph glyph-name="ch128" horiz-adv-x="764" 
d="M629 572l-34.002 0.000976562c-4 23.333 -13.833 44 -29.5 62s-42.167 27 -79.5 27h-142v-283c26.667 12 53.334 21.667 80.001 29l33 6l32 2c54 3.33301 108.333 -12.334 163 -47.001c48.667 -32 73 -83.667 73 -155c0 -60.667 -17.333 -112 -52 -154
c-37.333 -44 -85.666 -66 -144.999 -66c-78 0 -121 20.333 -129 61l-1 5v10c0 10 4 21.667 12 35c8.66699 10.667 21 16 37 16c22 0 37.333 -9.33301 46 -28v-4l1 -4l-1 -9v-7l-2 -7v-5c0 -13.333 8.33301 -21.333 25 -24l7 -1h6c64 0 96 58.667 96 176
c0 108.667 -46.333 163 -139 163c-12 0 -20 -0.666992 -24 -2l-25 -3l-30 -7l-47 -15l-16 -6v-337h-145v34c39.333 4 59 31 59 81v546h-102c-60 0 -96.333 -29.667 -109 -89h-34v136l165 -7h301l150 7v-136z" />
    <glyph glyph-name="ch129" horiz-adv-x="543" 
d="M530 708l-0.000976562 -170h-34l-4 14c-1.33301 7.33301 -3 12.333 -5 15l-14 26c-6 11.333 -11.667 19.333 -17 24c-29.333 32.667 -76.666 49 -141.999 49h-117v-551c0 -54 19.667 -81 59 -81v-34h-204v34c39.333 4 59 31 59 81v470c0 54 -19.667 81 -59 81v34z" />
    <glyph glyph-name="ch141" horiz-adv-x="704" 
d="M256 700l-0.000976562 -34.002c-28.667 -3.33301 -47.334 -19.666 -56.001 -48.999l-3 -17v-166h12c54.667 0 92.334 8.66699 113.001 26c24 20 44 45 60 75l6 11l5 11l11 26l15 28c14.667 26.667 31.334 49 50.001 67c24 22 51.667 32 83 30l28 -2
c12 -0.666992 23 -3.66699 33 -9v-155h-34c-3.33301 34 -17.333 53.333 -42 58l-5 1h-4c-12 0 -24.667 -5 -38 -15l-15 -16l-15 -19l-8 -12l-18 -24l-30 -34l-41 -35l-22 -12l-26 -11v-6c66 -8 114 -30.333 144 -67c35.333 -44 58.333 -84 69 -120l3 -10l4 -10l11 -29
l13 -30c32 -73.333 74.667 -110 128 -110h8l9 1v-45h-7l-7 -2l-46 -2c-49.333 -2 -88.5 9.16699 -117.5 33.5s-54.5 61.833 -76.5 112.5l-15 35l-15 39c-1.33301 6 -3 10 -5 12l-4 12c-19.333 58.667 -44.5 99.667 -75.5 123s-77.167 35 -138.5 35v-280
c0 -26 3.33301 -44.667 10 -56c8.66699 -14 25 -22.333 49 -25v-34h-204v34c22 2 37.333 10.333 46 25s13 33.334 13 56.001v470c0 46.667 -19.667 73.667 -59 81v34h204z" />
    <glyph glyph-name="ch142" horiz-adv-x="781" 
d="M629 572h-34.002l-2 6l-1 5l-3 16c-3.33301 17.333 -17.666 33.333 -42.999 48c-15.333 8.66699 -35.333 13 -60 13h-142v-262h4c12.667 12.667 23.667 21.667 33 27l35 20l23 9l33 8c14 3.33301 27.667 5 41 5c49.333 0 86.166 -8.5 110.499 -25.5
s40.833 -36.167 49.5 -57.5c6 -13.333 9.33301 -27 10 -41l2 -31v-197c0 -23.333 2 -40 6 -50c6 -15.333 18.667 -25.666 38 -30.999v-34h-174v34c20 0 32.333 8.66699 37 26s7 35.666 7 54.999v209c0 35.333 -7.66699 60.833 -23 76.5s-40.666 23.5 -75.999 23.5
c-33.333 0 -67.333 -10.667 -102 -32l-28 -22l-26 -28v-227c0 -49.333 19.667 -76.333 59 -81v-34h-204v34c39.333 4 59 31 59 81v545h-102c-61.333 0 -97.666 -29.333 -108.999 -88h-34v136l212 -9h211l193 9v-136z" />
    <glyph glyph-name="ch144" horiz-adv-x="447" 
d="M144 700l0.000976562 -184h154v-31h-154v-135h6l11 8l12 8c33.333 18 66 27 98 27c61.333 0 103.666 -26.333 126.999 -79c15.333 -35.333 23 -89 23 -161c0 -156 -31.667 -258.333 -95 -307c-16.667 -12.667 -34 -21 -52 -25l-36 -4c-36 0 -62.667 11.667 -80 35l-7 16
l-1 12v7l2 7c5.33301 19.333 17.333 29 36 29c12 0 22.667 -4 32 -12c5.33301 -6 9 -15.333 11 -28v-4l-1 -3l-1 -7l1 -6l2 -4c2.66699 -5.33301 10 -9 22 -11c26.667 0 46.667 14.333 60 43c6 14 12.333 40 19 78l2 39l1 40v21l1 14v76
c0 54.667 -4.33301 95.334 -13 122.001c-15.333 44 -44.666 66 -87.999 66l-20 -2l-22 -5l-14 -4l-17 -8c-5.33301 -2.66699 -11.666 -7.66699 -18.999 -15v-212c0 -22.667 2 -38.334 6 -47.001c6 -12.667 18.667 -21 38 -25v-29h-162v29c17.333 0 29.666 7 36.999 21
c5.33301 14.667 8 31.667 8 51v384h-59v31h59v83c0 22 -2.33301 38 -7 48c-6.66699 13.333 -19.334 21.333 -38.001 24v29h118z" />
    <glyph glyph-name="ch157" horiz-adv-x="445" 
d="M241 279l6 12.001l4 9l5 10c14 28.667 28.333 49 43 61c18 15.333 41 23 69 23h9l9 -1v-106h-29l-3 5l-2 4c-7.33301 14 -17 21 -29 21l-10 -2l-8 -6c-4 -2.66699 -8 -7.33398 -12 -14.001l-13 -20l-6 -11l-7 -11l-15 -16c-6 -6 -12.667 -11 -20 -15l27 -9l18 -10
c12 -6.66699 21.333 -13.334 28 -20.001l5 -6l5 -4l22 -28l16 -26l16 -43c6 -16.667 12.167 -28.5 18.5 -35.5s21.166 -14.5 44.499 -22.5v-20l-28 -4l-31 -1c-23.333 -0.666992 -43 5.33301 -59 18c-14 15.333 -25.667 33 -35 53l-10 22l-11 27l-2 3l-1 4l-13 26l-16 25
c-10 15.333 -28.667 23 -56 23h-27v-93c0 -22.667 2 -38.334 6 -47.001c6 -12.667 18.667 -21 38 -25v-29h-161v29c20 2 32 9.66699 36 23l6 21l2 28v182c0 22.667 -2.33301 39.334 -7 50.001s-17 18.334 -37 23.001v29h161v-29c-17.333 -4 -29.666 -12 -36.999 -24
c-4.66699 -14 -7 -30.333 -7 -49v-58c27.333 0 47 3 59 9c14.667 7.33301 27.667 22.333 39 45z" />
    <glyph glyph-name="ch158" horiz-adv-x="449" 
d="M143 700l0.00195312 -183.999h154v-31h-154v-143h9c39.333 36 81.333 53 126 51l20 -1c9.33301 -0.666992 17.333 -3 24 -7c38 -15.333 57 -54.666 57 -117.999v-182c0 -12.667 3.33301 -25.334 10 -38.001c4 -8.66699 15.333 -14.667 34 -18v-29h-161v29
c16.667 2 28.334 8.66699 35.001 20l6 16l3 18v187c0 54 -20.333 81 -61 81c-20.667 0 -40.334 -7 -59.001 -21s-33 -31 -43 -51v-178c0 -22.667 2.66699 -39.834 8 -51.501s17.666 -18.5 36.999 -20.5v-29h-163v29c18 2 30.333 9.33301 37 22l6 20l2 30v384h-58v31h58v103
c0 14.667 -2.83301 25.5 -8.5 32.5s-13.834 12.833 -24.501 17.5l-5 1l-6 1v29h117z" />
    <glyph glyph-name="nonbreakingspace" unicode="&#xa0;" 
 />
    <glyph glyph-name="exclamdown" unicode="&#xa1;" horiz-adv-x="338" 
d="M126 700l0.00195312 -211.999c0 -50.667 4.66699 -92.667 14 -126c11.333 -39.333 31.666 -76.333 60.999 -111c16.667 55.333 25 136.333 25 243v206h77v-203c0 -105.333 -9.66699 -191.333 -29 -258c-24.667 -84.667 -69.334 -164.334 -134.001 -239.001h-105
c54 52 97 108 129 168c-44 52.667 -74.167 101.667 -90.5 147s-24.5 103 -24.5 173v212h77zM84.002 802.001l42.999 -0.000976562c4.66699 -26 21 -39.667 49 -41c13.333 -0.666992 25.333 4 36 14c6.66699 6 11.334 15 14.001 27h43
c-8.66699 -49.333 -39.667 -74.666 -93 -75.999c-24.667 -0.666992 -46 7 -64 23c-14 12 -23.333 29.667 -28 53z" />
    <glyph glyph-name="cent" unicode="&#xa2;" horiz-adv-x="338" 
d="M126 700l0.00195312 -211.999c0 -50.667 4.66699 -92.667 14 -126c11.333 -39.333 31.666 -76.333 60.999 -111c16.667 55.333 25 136.333 25 243v206h77v-203c0 -105.333 -9.66699 -191.333 -29 -258c-24.667 -84.667 -69.334 -164.334 -134.001 -239.001h-105
c54 52 97 108 129 168c-44 52.667 -74.167 101.667 -90.5 147s-24.5 103 -24.5 173v212h77zM84.002 802.001l42.999 -0.000976562c4.66699 -26 21 -39.667 49 -41c13.333 -0.666992 25.333 4 36 14c6.66699 6 11.334 15 14.001 27h43
c-8.66699 -49.333 -39.667 -74.666 -93 -75.999c-24.667 -0.666992 -46 7 -64 23c-14 12 -23.333 29.667 -28 53z" />
    <glyph glyph-name="sterling" unicode="&#xa3;" horiz-adv-x="205" 
d="M88 700h77v-471c0 -64 -17.167 -118.167 -51.5 -162.5s-82.5 -72.5 -144.5 -84.5v78c39.333 7.33301 69.333 27.333 90 60c19.333 29.333 29 65 29 107v473z" />
    <glyph glyph-name="currency" unicode="&#xa4;" horiz-adv-x="452" 
d="M1 230c-1.33301 50 14.667 96.334 48 139.001l-43 43l38 38l43 -43l27 18c30 20 67.333 30 112 30c51.333 0 97.666 -16 138.999 -48l43 42l40 -37l-45 -44c30.667 -36.667 46.667 -82.667 48 -138c0.666992 -18.667 -2 -38 -8 -58c-3.33301 -12 -10.666 -30 -21.999 -54
l-18 -27l42 -43l-37 -40l-44 45c-36.667 -30.667 -82.667 -46.667 -138 -48c-18.667 -0.666992 -38 2 -58 8c-12 3.33301 -30 10.666 -54 21.999l-27 18l-43 -43l-38 38l43 43c-30.667 40.667 -46.667 87 -48 139zM52 230.001c0 -48 17 -89 51 -123s75 -51 123 -51
s89 17 123 51s51 75 51 123s-17 89 -51 123s-75 51 -123 51s-89 -17 -123 -51s-51 -75 -51 -123z" />
    <glyph glyph-name="yen" unicode="&#xa5;" horiz-adv-x="266" 
d="M40 700h139v62h77v-139h-139v-623h-77v700z" />
    <glyph glyph-name="brokenbar" unicode="&#xa6;" horiz-adv-x="87" 
d="M20 815h47v-349h-47v349zM20 243h47v-349h-47v349z" />
    <glyph glyph-name="section" unicode="&#xa7;" horiz-adv-x="272" 
d="M142 700l102.001 -0.00292969c-36.667 -28.667 -55.667 -67.667 -57 -117c-0.666992 -24.667 8.33301 -53 27 -85l36 -63c12 -23.333 18 -52 18 -86c0 -43.333 -10 -81 -30 -113l-100 -2l-3 -2c24 -33.333 36.333 -73.333 37 -120c0.666992 -42 -10 -80 -32 -114h-102
c38 30.667 57 72.334 57 125.001c0 14.667 -3.33301 29.667 -10 45c-4 8.66699 -11.667 22.667 -23 42c-18.667 30.667 -30.667 53.334 -36 68.001c-7.33301 20.667 -11.333 45.667 -12 75c-0.666992 41.333 9 79 29 113l100 2l2 3c-23.333 34 -35 72.333 -35 115
c0 22.667 3.33301 45 10 67c5.33301 16.667 12.666 32.334 21.999 47.001zM148.001 463.997l-5.00098 0.000976562c-33.333 -25.333 -50.666 -62 -51.999 -110c-0.666992 -26.667 10.333 -60.334 33 -101.001c3.33301 -5.33301 6.66602 -11 9.99902 -17
c36.667 26 55.667 62.667 57 110c0.666992 36.667 -13.666 76 -42.999 118z" />
    <glyph glyph-name="dieresis" unicode="&#xa8;" horiz-adv-x="786" 
d="M576 620c-4 -4.66699 -15.3311 -12 -33.998 -22l-10 3c11.333 10 18.666 15 21.999 15c0.666992 0 1.66699 -0.5 3 -1.5s2.66602 -1.5 3.99902 -1.5c3.33301 0 8.33301 2.33301 15 7zM552.002 399c-6.66699 -1.33301 -12.668 -2.00098 -18.001 -2.00098
c-3.33301 0 -12.5 1.16699 -27.5 3.5s-31.833 3.5 -50.5 3.5c-39.333 0 -83.666 -13.333 -132.999 -40s-82 -40 -98 -40c-6 0 -11.667 2.33301 -17 7s-8 10.334 -8 17.001c0 10.667 13.667 25.167 41 43.5s48.333 27.5 63 27.5c-2 0 4.5 2.83301 19.5 8.5
s32.167 9.16699 51.5 10.5c26 2 56.667 2 92 0c12 0 26.333 -3 43 -9c21.333 -7.33301 35.333 -17.333 42 -30zM733.001 102.999c-10 -0.666992 -25.001 -4.3291 -45.001 -10.9961c4.66699 -2 16.667 -5.33301 36 -10c-50 0 -76.667 -0.666992 -80 -2
c2 -2.66699 4.33301 -4.33398 7 -5.00098c-40.667 0 -107.667 -1 -201 -3c-28.667 -0.666992 -73 -7.66699 -133 -21s-93 -20 -99 -20c-10.667 0 -24.167 1.33301 -40.5 4s-25.166 4 -26.499 4c-13.333 0 -31.333 15 -54 45c-24.667 32 -37 60.333 -37 85
c0 31.333 2 105.333 6 222c0.666992 24 -5.5 57.667 -18.5 101s-19.5 65.666 -19.5 66.999c0 10 4.66699 21.833 14 35.5s20 20.5 32 20.5c25.333 0 38 -10.667 38 -32c0 -5.33301 -0.666992 -11.666 -2 -18.999c4 -0.666992 9.33301 -1 16 -1
c33.333 0 67.166 7.5 101.499 22.5s57.5 22.5 69.5 22.5c-0.666992 0 16.666 -2 51.999 -6s62 -6 80 -6c12 0 24 2.66699 36 8l35 16c-14.667 -7.33301 -22 -14 -22 -20c0 -0.666992 0.666992 -1 2 -1c14.667 5.33301 40.334 15.666 77.001 30.999l-8.5 -6
c-5.66699 -4 -13.5 -11 -23.5 -21c4.66699 -6.66699 9.83398 -10.5 15.501 -11.5s11.834 -2.16699 18.501 -3.5c-40.667 -6 -73.667 -14 -99 -24c-17.333 -7.33301 -35.333 -10.333 -54 -9l-217 -36c-9.33301 -4.66699 -16.333 -8.66699 -21 -12
c-12 -8.66699 -18.333 -18 -19 -28c-2.66699 -34.667 -2.66699 -69.334 0 -104.001c0 -2 2.5 -11.333 7.5 -28s7.5 -28.667 7.5 -36c0 -5.33301 -2.5 -16.333 -7.5 -33s-7.5 -28.334 -7.5 -35.001c0 -8.66699 4.5 -22.667 13.5 -42s13.5 -37.666 13.5 -54.999
c0 -13.333 20.333 -21.666 61 -24.999c31.333 -1.33301 62.666 -3 93.999 -5l200 30c10 -0.666992 45.5 -7.33398 106.5 -20.001s92.833 -20.334 95.5 -23.001zM419 675.004c0 -8 -5.66895 -15.167 -17.002 -21.5s-21.666 -9.5 -30.999 -9.5c-5.33301 0 -14 3 -26 9
c-15.333 8 -23 16 -23 24c0 4 5.33301 13.333 16 28c12.667 17.333 24.334 26 35.001 26c8 0 17.667 -7.16699 29 -21.5s17 -25.833 17 -34.5zM228.998 677.004c0 -5.33301 -6.83203 -13.667 -20.499 -25s-25.5 -17 -35.5 -17c-6.66699 0 -14.834 4.5 -24.501 13.5
s-14.5 19.167 -14.5 30.5c0 13.333 5.5 25 16.5 35s22.5 15 34.5 15c6.66699 0 15.667 -6.33301 27 -19s17 -23.667 17 -33z" />
    <glyph glyph-name="copyright" unicode="&#xa9;" horiz-adv-x="682" 
d="M-9 350c0 98 33.8301 180.665 101.497 247.998s150.5 101.333 248.5 102c97.333 0.666992 179.833 -33.166 247.5 -101.499s101.834 -151.166 102.501 -248.499s-33.166 -180 -101.499 -248s-151.166 -102 -248.499 -102s-180 34 -248 102s-102 150.667 -102 248z
M56.9971 349.998c-0.666992 -81.333 26.168 -151.167 80.501 -209.5s122.166 -87.5 203.499 -87.5c80.667 0 148.334 29.667 203.001 89c54 57.333 81 126.666 81 207.999c0 80.667 -27.333 150.334 -82 209.001s-122 88 -202 88c-81.333 0 -148.833 -29 -202.5 -87
s-80.834 -128 -81.501 -210zM442.999 394.997h-65.999v115c0 28.667 -12 43 -36 43s-36 -14.333 -36 -43v-319c0 -27.333 12 -42 36 -44c24 0 36 14.667 36 44v114h66v-111c0 -67.333 -34 -101.333 -102 -102s-102 33.333 -102 102v313c0 67.333 34 101 102 101
c33.333 0 58.666 -9 75.999 -27s26 -42.667 26 -74v-112z" />
    <glyph glyph-name="ordfeminine" unicode="&#xaa;" horiz-adv-x="315" 
d="M190 700l110.001 0.000976562c-115.333 -95.333 -173 -212 -173 -350c0 -56.667 5.66699 -100.667 17 -132h191l-45 -72h-114c25.333 -48 66.666 -96.667 123.999 -146h-110c-36 40 -68.333 88.667 -97 146h-78v72h52c-10.667 41.333 -16.334 85.666 -17.001 132.999
c-1.33301 124 45.334 240.333 140.001 349z" />
    <glyph glyph-name="guillemotleft" unicode="&#xab;" horiz-adv-x="326" 
d="M88 210l98 -210h-62l-98 210l98 210h62zM199 210l98 -210h-62l-98 210l98 210h62z" />
    <glyph glyph-name="logicalnot" unicode="&#xac;" horiz-adv-x="445" 
d="M40 218h365v-192h-72v120h-293v72z" />
    <glyph glyph-name="minus" unicode="&#xad;" horiz-adv-x="223" 
d="M12 218h199v-72h-199v72z" />
    <glyph glyph-name="minus" unicode="&#x2212;" horiz-adv-x="223" 
d="M12 218h199v-72h-199v72z" />
    <glyph glyph-name="registered" unicode="&#xae;" horiz-adv-x="718" 
d="M304 257v350.999c51.333 -12.667 94.666 -37.667 129.999 -75c38.667 -40 58.334 -85.333 59.001 -136s-20 -98 -62 -142c15.333 -2 28.5 -8.16699 39.5 -18.5s16.5 -23.166 16.5 -38.499v-90h-60v75c0 16 -6.66699 24.667 -20 26h-43v-101h-60v101h-45l-32 48h77z
M364 523.999v-267c44.667 33.333 67.667 77 69 131c1.33301 56 -21.667 101.333 -69 136zM20 349.999c0 98 33.8301 180.665 101.497 247.998s150.5 101.333 248.5 102c97.333 0.666992 179.833 -33.166 247.5 -101.499s101.834 -151.166 102.501 -248.499
s-33.166 -180 -101.499 -248s-151.166 -102 -248.499 -102s-180 34 -248 102s-102 150.667 -102 248zM85.9971 349.997c-0.666992 -81.333 26.168 -151.167 80.501 -209.5s122.166 -87.5 203.499 -87.5c80.667 0 148.334 29.667 203.001 89c54 57.333 81 126.666 81 207.999
c0 80.667 -27.333 150.334 -82 209.001s-122 88 -202 88c-81.333 0 -148.833 -29 -202.5 -87s-80.834 -128 -81.501 -210z" />
    <glyph glyph-name="overscore" unicode="&#xaf;" horiz-adv-x="1000" 
 />
    <glyph glyph-name="degree" unicode="&#xb0;" horiz-adv-x="340" 
d="M70 614c0 26 10 48.168 30 66.501s43.333 27.5 70 27.5c39.333 0 70.333 -20 93 -60c4.66699 -10 7 -21.333 7 -34v-4c0 -28 -9.66699 -51.833 -29 -71.5s-43 -29.5 -71 -29.5c-27.333 0 -50.833 9.66699 -70.5 29s-29.5 42.666 -29.5 69.999v6zM170 545.001
c16.667 0 30.3359 5.66602 41.0029 16.999c10 8.66699 17 21.334 21 38.001l1 4v4c0 16.667 -6.33301 31.334 -19 44.001s-27.334 19 -44.001 19s-31.667 -6.33301 -45 -19c-4.66699 -5.33301 -8.83398 -12 -12.501 -20s-5.5 -15 -5.5 -21v-3
c0 -16.667 6.66699 -31.334 20 -44.001s27.666 -19 42.999 -19z" />
    <glyph glyph-name="plusminus" unicode="&#xb1;" horiz-adv-x="654" 
d="M508 555c0 -48.667 -30.667 -72.999 -92 -72.999c-10 0 -24.667 0.666992 -44 2c-51.333 4 -77 -38.667 -77 -128c0 -24 2.33301 -45.5 7 -64.5s7 -29.5 7 -31.5c0 -15.333 -8 -23 -24 -23c-16.667 0 -32.5 12 -47.5 36s-22.5 53.333 -22.5 88
c0 24.667 2.66699 44.167 8 58.5s8 23.5 8 27.5c0 21.333 -9.66699 32 -29 32c4 0 -8.66699 -4.33301 -38 -13s-56.666 -13 -81.999 -13c-26.667 0 -40 13.333 -40 40c0 14 6 27 18 39c10.667 10 21 15 31 15h109c10 10 15 19 15 27c0 7.33301 -4.16699 27.166 -12.5 59.499
s-12.5 58.5 -12.5 78.5c0 10 3.5 18.667 10.5 26s15.833 11 26.5 11c15.333 0 29.333 -16.667 42 -50l36 -94c18 -33.333 41.333 -50 70 -50c14 0 34.167 2.83301 60.5 8.5s42.166 8.5 47.499 8.5c16.667 0 25 -5.66699 25 -17zM595 96.001
c-5.33301 -2.66699 -11.668 -4.00195 -19.001 -4.00195c-2 0 -8.5 0.833008 -19.5 2.5s-23.833 2.5 -38.5 2.5l-9 4c-6 2.66699 -13.667 3.66699 -23 3c2 -0.666992 7.66699 -4.66699 17 -12c-4.66699 -6.66699 -11.334 -10.667 -20.001 -12h-26
c-72.667 0 -115.167 0.333008 -127.5 1s-50.5 5.33398 -114.5 14.001c-30 -2 -58.5 -6.33301 -85.5 -13s-46.833 -10 -59.5 -10c-26.667 0 -40 17 -40 51c0 22.667 9 43 27 61c14 14 26.333 21.333 37 22c38 1.33301 78.667 1.33301 122 0c76 -3.33301 116.667 -5 122 -5
c1.33301 -2 3 -3.66699 5 -5c-10.667 -2.66699 -30 -8.33398 -58 -17.001c5.33301 -1.33301 9.33301 -2 12 -2l155 14c-2 0.666992 -8.33301 -1.66602 -19 -6.99902c4 -1.33301 6.66699 -2 8 -2l77 11c-0.666992 -0.666992 -1.5 -1.66699 -2.5 -3
s-1.83301 -2.66602 -2.5 -3.99902c4.66699 -1.33301 24.667 -3 60 -5c1.33301 -2 1.33301 -6 0 -12c-16.667 -1.33301 -30.334 -3.66602 -41.001 -6.99902c4 -2.66699 7.33301 -4.33398 10 -5.00098h-13c-7.33301 -1.33301 -17.666 -5.33301 -30.999 -12
c8 -5.33301 21 -13.333 39 -24c-5.33301 -1.33301 -12.666 -5.33301 -21.999 -12c44.667 -2.66699 71.334 -7 80.001 -13z" />
    <glyph glyph-name="twosuperior" unicode="&#xb2;" horiz-adv-x="283" 
d="M253 497c0 -9.33301 -10.002 -31.8311 -30.002 -67.498s-30 -59.5 -30 -71.5v-174c6 -24.667 9 -43.334 9 -56.001c0 0.666992 -0.666992 -1.83301 -2 -7.5s-2 -12.834 -2 -21.501v-51c-4 -24 -9 -47.333 -15 -70c-4 11.333 -10.333 25.666 -19 42.999
c-4.66699 6 -11.167 9.5 -19.5 10.5s-13.166 2.5 -14.499 4.5l-25 148c-14 81.333 -21 130.666 -21 147.999c0 11.333 1.66699 25 5 41s5 24.333 5 25c0 10.667 -8.66699 25.834 -26 45.501s-26 35.167 -26 46.5c0 12.667 6.33301 27.334 19 44.001
c16.667 23.333 38.667 35 66 35c10.667 0 21.334 -2.66699 32.001 -8s20.667 -8 30 -8c23.333 0 39.833 -4 49.5 -12s14.5 -22.667 14.5 -44zM141.998 476.002c0 15.333 -7.66602 23.002 -22.999 23.002c-6.66699 0 -12.334 -5.33301 -17.001 -16c-4 -8 -6 -14.667 -6 -20
s2 -14.666 6 -27.999c6 -16.667 10.333 -33.334 13 -50.001c1.33301 -6 2 -12 2 -18c0 -8 -1.33301 -18.333 -4 -31s-4 -22.334 -4 -29.001c0 -21.333 9.33301 -45.333 28 -72l-10 92c0.666992 4.66699 2.66699 13.667 6 27c2.66699 10 4 19 4 27
c0 7.33301 -1 16.666 -3 27.999s-3.33301 21 -4 29c0 2.66699 2 7.16699 6 13.5s6 14.5 6 24.5z" />
    <glyph glyph-name="threesuperior" unicode="&#xb3;" horiz-adv-x="244" 
d="M195 397c0 -14 -7.50098 -32.4961 -22.501 -55.4961s-22.833 -49.833 -23.5 -80.5c0 -0.666992 0.5 -7.33398 1.5 -20.001s1.5 -29 1.5 -49c0 -50 -3.33301 -122 -10 -216c-15.333 23.333 -27.333 37.666 -36 42.999c-3.33301 1.33301 -6.66602 3 -9.99902 5
c-10 44.667 -15 82.667 -15 114c-4.66699 19.333 -7 35.666 -7 48.999c-2.66699 4 -6.66699 22.333 -12 55c-0.666992 8 0.333008 21.167 3 39.5s4 28.166 4 29.499c0 12.667 -6.83301 26 -20.5 40s-20.5 26 -20.5 36c0 10.667 5 22.667 15 36c14 18 31.667 27 53 27
c8 0 17.833 -2.66699 29.5 -8s26.167 -8 43.5 -8s26 -12.333 26 -37zM106.999 376.004c0 12.667 -6.33301 19.001 -19 19.001c-11.333 0 -17 -9.66699 -17 -29l9 -34c6 -22.667 9 -37.667 9 -45c0 -18 -1.33301 -30.333 -4 -37s-4 -9.33398 -4 -8.00098
c0 -1.33301 8 -22.333 24 -63c0 16 -3 41 -9 75l4.5 16.5c3 11 4.5 20.167 4.5 27.5c0 37.333 0.666992 63.333 2 78z" />
    <glyph glyph-name="acute" unicode="&#xb4;" horiz-adv-x="340" 
d="M184 385l42.001 2.99902c10 0.666992 22.667 7 38 19c5.33301 4 10.666 10.667 15.999 20l14 34l2 7l2 8h29v-122h-183v-253c0 -47.333 16.333 -71.333 49 -72v-29h-167v29c18 0 30 7.5 36 22.5s9 31.5 9 49.5v182c0 20 -2.66699 36.667 -8 50
c-4 10.667 -16.333 18.334 -37 23.001v29h158z" />
    <glyph glyph-name="mu1" unicode="&#xb5;" horiz-adv-x="407" 
d="M343 79c2.66699 -30 14.335 -45.333 35.002 -46l10 1c5.33301 0 9.33301 1.33301 12 4l7 -11l-5 -6l-5 -5c-14.667 -14.667 -32.667 -22 -54 -22c-16.667 0 -30.334 4.66699 -41.001 14c-6.66699 8 -13.334 19.333 -20.001 34l-6 27v19
c-26.667 -67.333 -62.334 -99 -107.001 -95l-23 2c-23.333 2 -42.666 11.333 -57.999 28c-5.33301 5.33301 -12.333 17 -21 35l1 -33l6 -36l5 -21l7 -23l3 -11l4 -11l6 -27l3 -27c0 -28.667 -10 -48.334 -30 -59.001l-14 -2l-10 -1l-10 1l-10 2
c-5.33301 2 -11.5 7.83301 -18.5 17.5s-10.167 22.834 -9.5 39.501l1 29l4 23l2 13l4 13l8 37l8 58l3 48l2 48v250h73v-210c0 -64.667 17 -105 51 -121l14 -4l13 -1l9 1c4.66699 0.666992 8 2 10 4c22.667 10.667 40 35.667 52 75c9.33301 30 14 61.333 14 94v162h73z" />
    <glyph glyph-name="paragraph" unicode="&#xb6;" horiz-adv-x="605" 
d="M244 429h-18l-17 1c-42.667 2.66699 -76.5 17.167 -101.5 43.5s-37.5 60.833 -37.5 103.5c0 41.333 17 72.333 51 93c27.333 16.667 63.333 25 108 25h306v-39h-55v-853h-60v853h-116v-853h-60v626z" />
    <glyph glyph-name="middot" unicode="&#xb7;" horiz-adv-x="1000" 
 />
    <glyph glyph-name="cedilla" unicode="&#xb8;" horiz-adv-x="645" 
d="M392 559c0 -8 -5.66895 -15.167 -17.002 -21.5s-21.666 -9.5 -30.999 -9.5c-5.33301 0 -14 3 -26 9c-15.333 8 -23 16 -23 24c0 4 5.33301 13.333 16 28c12.667 17.333 24.334 26 35.001 26c8 0 17.667 -7.16699 29 -21.5s17 -25.833 17 -34.5zM201.998 561
c0 -5.33301 -6.83203 -13.667 -20.499 -25s-25.5 -17 -35.5 -17c-6.66699 0 -14.834 4.5 -24.501 13.5s-14.5 19.167 -14.5 30.5c0 13.333 5.5 25 16.5 35s22.5 15 34.5 15c6.66699 0 15.667 -6.33301 27 -19s17 -23.667 17 -33zM449.999 318.999
c-10.667 -1.33301 -22.999 -0.999023 -36.999 1.00098c-16.667 2.66699 -31 4 -43 4c-28 0 -61.333 -10.333 -100 -31s-65.334 -31 -80.001 -31s-22 6 -22 18c0 8.66699 13.667 20.667 41 36c25.333 14 41 21 47 21l16 6.5c10.667 4.33301 22.334 6.83301 35.001 7.5
c33.333 2 61.666 2 84.999 0c8.66699 -2.66699 16.667 -5.33398 24 -8.00098c16.667 -7.33301 28 -15.333 34 -24zM598 84c-8.66699 -0.666992 -21.667 -3.66699 -39 -9c6.66699 -3.33301 15.334 -6 26.001 -8c-10 -2 -16.333 -2.66699 -19 -2
c-5.33301 1.33301 -10.333 2 -15 2c-16.667 0 -25.334 -2.33301 -26.001 -7c-5.33301 2.66699 -21 3.66699 -47 3c-60 -1.33301 -96.667 -2 -110 -2c-20 0 -54.667 -5.83301 -104 -17.5s-76.666 -17.5 -81.999 -17.5c-34 0 -62.667 9.66699 -86 29
c-26 20.667 -39 48.334 -39 83.001v208l-27 103c12 30 24.667 45 38 45c20.667 0 31 -8 31 -24c0 -5.33301 -1.66699 -11 -5 -17c5.33301 -2 9 -3 11 -3c20.667 0 48 6.5 82 19.5s55.333 19.5 64 19.5c32.667 -6.66699 63 -10 91 -10c22 0 44.333 6.66699 67 20
c-7.33301 -4 -14 -9 -20 -15c0.666992 -1.33301 2.33398 -2 5.00098 -2l7.5 3.5c5 2.33301 10.833 3.5 17.5 3.5c-5.33301 0 6.66699 5.66699 36 17c-9.33301 -4.66699 -19 -12 -29 -22l5 -5c7.33301 7.33301 11.5 11.166 12.5 11.499s5.83301 1.5 14.5 3.5
c2.66699 0.666992 6.33398 1.66699 11.001 3c-8.66699 -5.33301 -21.334 -11.333 -38.001 -18c4.66699 -2.66699 11.667 -4 21 -4c-11.333 -5.33301 -46 -13.833 -104 -25.5s-94.667 -17.5 -110 -17.5c-40.667 0 -69.334 -7 -86.001 -21s-25 -37 -25 -69
c0 -28.667 2.16699 -51.334 6.5 -68.001s6.5 -25.667 6.5 -27s-2.16699 -9.16602 -6.5 -23.499s-6.5 -24.5 -6.5 -30.5c0 -8 2.66699 -17.333 8 -28l10 -18c2 -9.33301 3.83301 -18.5 5.5 -27.5s9.5 -15.167 23.5 -18.5c17.333 -4 49.666 -6 96.999 -6l167 23
c20 -0.666992 40 -5 60 -13c18 -6.66699 45.333 -10 82 -10c1.33301 -1.33301 7.33301 -5 18 -11z" />
    <glyph glyph-name="onesuperior" unicode="&#xb9;" horiz-adv-x="625" 
d="M563 345c0 -7.33301 -0.999023 -18.999 -2.99902 -34.999s-3 -25 -3 -27c-24.667 -72 -51.334 -108 -80.001 -108c-4 0 -10.833 1.83301 -20.5 5.5s-14.5 7.16699 -14.5 10.5c0 -1.33301 -6.83301 6.66699 -20.5 24s-20.5 32 -20.5 44c0 3.33301 2.83301 14.833 8.5 34.5
s8.5 37.167 8.5 52.5s14 35.666 42 60.999c26 24 43.333 36 52 36c7.33301 0 16.333 -6.66699 27 -20c16 -19.333 24 -45.333 24 -78zM537.001 651.001c-8 -10.667 -19.333 -23.332 -34 -37.999c1.33301 -2 3.66602 -4.66699 6.99902 -8l-74 -106
c-39.333 -57.333 -59 -101.666 -59 -132.999c0 -0.666992 -2.83301 -17.334 -8.5 -50.001s-8.5 -49.334 -8.5 -50.001v-127c-10 -48 -17.667 -76.667 -23 -86c-11.333 -21.333 -33 -32 -65 -32c-24 0 -36 20 -36 60c0 16.667 -1.66699 30 -5 40
c-4.66699 14 -7.66699 26 -9 36c6 -6 9 -11 9 -15c1.33301 -8.66699 2.33301 -14.334 3 -17.001c4.66699 8 7 16 7 24c0 -2 -0.666992 3 -2 15c-1.33301 6.66699 -0.666016 13.334 2.00098 20.001h-24l-60 148c0.666992 -1.33301 3.66699 -4 9 -8
c0.666992 1.33301 1.5 2.83301 2.5 4.5s1.83301 2.83398 2.5 3.50098c-12 10 -19 15 -21 15c-6 0 -16 -16.667 -30 -50c-16 -38 -24 -72.667 -24 -104c0 -16 4.33301 -41.333 13 -76s13 -55 13 -61c0 -1.33301 -4.33301 -12.5 -13 -33.5s-15.334 -35.167 -20.001 -42.5
c-38 136.667 -57 240.334 -57 311.001c0 35.333 5.33301 70 16 104c15.333 48.667 38.666 80 69.999 94h53c14.667 -66.667 28.334 -118.334 41.001 -155.001c8.66699 -24 13 -37.667 13 -41c0 -10 3.66699 -25.333 11 -46c9.33301 -24.667 20 -41.667 32 -51
c0.666992 1.33301 1.66699 5.33301 3 12c0.666992 -9.33301 3.66699 -18.333 9 -27c6.66699 11.333 10 23 10 35c2.66699 5.33301 9 28.666 19 69.999c20 90 48 161.667 84 215c22.667 33.333 68.334 83.333 137.001 150h7zM563.001 99.0029
c0 -6 -0.332031 -10 -0.999023 -12c-13.333 3.33301 -30 5 -50 5c-25.333 0 -52.333 -2.33301 -81 -7c-9.33301 0 -18.333 2.33301 -27 7c-11.333 6 -17 13.667 -17 23c0 4 1.66699 8.33301 5 13c18.667 -10 34.667 -15 48 -15c6 0 12.333 1 19 3s11.667 2.66699 15 2
c1.33301 0 4.16602 -2 8.49902 -6s9.16602 -6 14.499 -6c8.66699 0 19.834 2.5 33.501 7.5l20.5 7.5c6.66699 0 10.667 -7.33301 12 -22zM268.002 215.003c-5.33301 10 -13.334 27 -24.001 51c4 -6 8.33301 -12 13 -18c2.66699 -4.66699 6.33398 -15.667 11.001 -33z
M236.001 293.003v7v-7zM515.001 340.003c0 4 -5 14.333 -15 31v24c-3.33301 -11.333 -15.333 -34 -36 -68c0 -8.66699 -2.83301 -18.667 -8.5 -30s-8.5 -19 -8.5 -23c0 -22.667 8.33301 -34 25 -34c6.66699 0 16 16.333 28 49c10 28.667 15 45.667 15 51z" />
    <glyph glyph-name="ordmasculine" unicode="&#xba;" horiz-adv-x="423" 
d="M382 188c-4 -10.667 -6.1709 -23.1709 -6.50391 -37.5039s-1.16602 -23.5 -2.49902 -27.5c-4 -11.333 -9 -20.333 -15 -27s-9 -9.66699 -9 -9c0 -8.66699 -16.333 -25.667 -49 -51c-5.33301 0 -9.5 -1.16699 -12.5 -3.5l-4.5 -3.5c-3.33301 0 -8.33301 -1.33301 -15 -4
s-16.334 -4 -29.001 -4c-24.667 0 -52 10 -82 30c0 21.333 -26.667 47 -80 77c-0.666992 2.66699 -2 6 -4 10s-11.333 8 -28 12c0 11.333 0.333008 16 1 14c-0.666992 2 -5 5.33301 -13 10c4.66699 4 17.667 11.333 39 22v7c-8 6.66699 -12 11 -12 13c0 6 4 21.833 12 47.5
s12 38.834 12 39.501c0 28.667 13.667 66.667 41 114c35.333 61.333 78.333 92 129 92c20 0 42.333 -10.667 67 -32s37 -40 37 -56c-6 -28 -9 -43.667 -9 -47c0 -17.333 -5 -30.666 -15 -39.999c-6 -6 -14.333 -10 -25 -12l-16 -3c0 -1.33301 -6.66699 0.333984 -20 5.00098
c0 6.66699 -8 17.667 -24 33s-26.333 23 -31 23c-4 0 -10 -6 -18 -18s-12 -19.333 -12 -22c0 -16 -7.5 -36.167 -22.5 -60.5s-22.5 -40.166 -22.5 -47.499s7 -11 21 -11c8.66699 0 18.334 6.33301 29.001 19c13.333 0 25 2.33301 35 7c2 0 11.833 -2.83301 29.5 -8.5
s26.834 -8.5 27.501 -8.5c6.66699 0 16 3.5 28 10.5s20.333 13.167 25 18.5c-2.66699 -10 -9 -18 -19 -24l-29 -17c4.66699 -4 11.334 -7.33301 20.001 -10c-14 -4 -40 -14.833 -78 -32.5s-59 -29.5 -63 -35.5c9.33301 -10 19 -19.667 29 -29c14.667 -14 26.667 -21 36 -21
c5.33301 0 11.333 3.5 18 10.5s11.334 10.5 14.001 10.5c8.66699 0 15 2.33301 19 7c7.33301 0 22 10.667 44 32c20 20 32 33.667 36 41h12c0 -3.33301 0.666992 -5.66602 2 -6.99902c1.33301 1.33301 2.33301 2.66602 3 3.99902z" />
    <glyph glyph-name="guillemotright" unicode="&#xbb;" horiz-adv-x="513" 
d="M469 264c-6.66699 -17.333 -21.6689 -37 -45.002 -59c-10 -10 -35.333 -31.667 -76 -65c-36 -29.333 -68 -58 -96 -86c-16.667 -16.667 -26.667 -25 -30 -25c-6.66699 4.66699 -18 11 -34 19c8.66699 12 43.334 44.667 104.001 98c48 42.667 72 75 72 97
c0 8.66699 -15 31.667 -45 69c-34 43.333 -77 91 -129 143c8 7.33301 16.333 16.333 25 27c46.667 -46.667 83.334 -82 110.001 -106c55.333 -50 103.333 -87.333 144 -112zM318.998 247c-50 -26 -135.666 -99.668 -256.999 -221.001c-4.66699 6 -12.667 15 -24 27
c7.33301 7.33301 28 29.333 62 66c40 44.667 62.667 71 68 79c9.33301 15.333 20.333 31 33 47c7.33301 10 11 16.333 11 19c0 8 -20 34.667 -60 80c-44 50.667 -83.667 87.667 -119 111c2.66699 2.66699 8.83398 7.33398 18.501 14.001s15.167 10 16.5 10
c10.667 -8 54.667 -45.667 132 -113c49.333 -44 75.666 -68.667 78.999 -74c5.33301 -9.33301 18.666 -24.333 39.999 -45z" />
    <glyph glyph-name="onequarter" unicode="&#xbc;" horiz-adv-x="835" 
d="M782 448l-33.999 -0.00292969c-24 -6.66699 -44.667 -10 -62 -10c4.66699 0 -0.333008 2 -15 6s-37 6 -67 6h-52c-22.667 -6 -49 -30.333 -79 -73c-33.333 -47.333 -53 -94 -59 -140h-15c0 -14.667 2.33301 -21.667 7 -21c0 -29.333 -17.667 -67.333 -53 -114
c-42 -54 -86 -81 -132 -81c-98 14.667 -156 24.334 -174 29.001h20v15c-6.66699 4 -18.667 12 -36 24c14.667 0 27.5 1.33301 38.5 4s15.5 4 13.5 4c40.667 -10 76 -15 106 -15c33.333 0 63.666 10.333 90.999 31c22.667 17.333 51 58.5 85 123.5s51 111.5 51 139.5
l9.5 14.5c6.33301 9.66699 9.5 18.834 9.5 27.501c0 14 -6.33301 21.667 -19 23h-61c-22.667 -2.66699 -54.334 -10.667 -95.001 -24c-38 -12 -60 -18 -66 -18c-14 0 -21 14.333 -21 43c0 20.667 11.333 36.334 34 47.001c16.667 8 35.334 12 56.001 12h286
c48 0 93.667 -4.66699 137 -14l57 -15l-5 -5v-7c11.333 -6 26 -10 44 -12zM639.001 488.997c-8.66699 2 -14.998 3 -18.998 3l-40 -4c-26.667 -2.66699 -41.667 -4 -45 -4c17.333 -4 35.666 -6 54.999 -6s35.666 3.66699 48.999 11zM491.003 481.997h-46.001v-7h32
c4.66699 2.66699 9.33398 5 14.001 7z" />
    <glyph glyph-name="onehalf" unicode="&#xbd;" horiz-adv-x="464" 
d="M426 201c0 -42.667 -29.999 -84.6709 -89.999 -126.004c-42.667 -30 -100.334 -58.667 -173.001 -86l-111 -40h-10c8.66699 17.333 41.334 48 98.001 92c100 78 150 129.333 150 154c0 28 -10.667 53.667 -32 77c-15.333 16.667 -37.333 32.334 -66 47.001
c-18 9.33301 -36.333 18.333 -55 27c-60 32.667 -90 62.334 -90 89.001c0 24.667 13.333 49.334 40 74.001c32.667 30.667 76.667 46 132 46c26.667 0 58 -9.66699 94 -29c44 -23.333 66 -50.666 66 -81.999c0 -13.333 -5.83301 -24.166 -17.5 -32.499
s-24.834 -12.5 -39.501 -12.5c-24 0 -41.5 14.167 -52.5 42.5s-24.167 42.5 -39.5 42.5c-14 0 -25.667 -6.66699 -35 -20c-8 -10.667 -12 -19.334 -12 -26.001c0 -21.333 21 -42.333 63 -63c68 -33.333 107 -54 117 -62c42 -30 63 -67.333 63 -112zM358.001 295.996
c-2 -2 -3 -12 -3 -30c8 10 9 20 3 30zM341.001 110.996v12h-20c-0.666992 -2 -10.334 -12.333 -29.001 -31h11c6.66699 0 19.334 6.33301 38.001 19z" />
    <glyph glyph-name="threequarters" unicode="&#xbe;" horiz-adv-x="376" 
d="M338 144c0 -30 -20.835 -61.8301 -62.502 -95.4971s-92.5 -60.5 -152.5 -80.5c-23.333 -7.33301 -50.333 -16.333 -81 -27h-11c15.333 21.333 55 57 119 107c52.667 41.333 79 71.666 79 90.999c0 30.667 -16.667 59 -50 85c-10 7.33301 -41.333 26 -94 56
c-33.333 18.667 -50 35 -50 49c0 21.333 10.333 41.666 31 60.999c26.667 24.667 62 37 106 37c24.667 0 52.5 -9.66699 83.5 -29s46.5 -39 46.5 -59c0 -8 -4.66699 -16.333 -14 -25s-21.666 -13 -36.999 -13c-14.667 0 -26.667 11.667 -36 35s-20.666 35 -33.999 35
c-10 0 -18.5 -4.83301 -25.5 -14.5s-10.5 -18.167 -10.5 -25.5c0 -16.667 16.667 -33.334 50 -50.001c54 -26 85 -42 93 -48c33.333 -24 50 -53.667 50 -89zM287.998 220.003c0 -14.667 -1 -23.667 -3 -27c0 7.33301 1 16.333 3 27zM270.998 70.0029l-0.000976562 10h-18
c-1.33301 -6 -8.66602 -14.333 -21.999 -25c2 0 4 -0.333008 6 -1s3.66699 -1 5 -1c4 0 8.33301 2 13 6c8 6 13.333 9.66699 16 11z" />
    <glyph glyph-name="questiondown" unicode="&#xbf;" horiz-adv-x="224" 
d="M153 385v-284c0 -44.667 15 -68.667 45 -72v-29h-162v29c18.667 2 30.667 9.66699 36 23c2 5.33301 4 12.333 6 21l2 28v182c0 24 -2.33301 40.333 -7 49c-4 11.333 -16.333 19.333 -37 24v29h117zM35 621c26 0 42.334 -14.3311 49.001 -42.998v-5l-1 -7l-1 -6
c-1.33301 -8 -6.33301 -15.833 -15 -23.5s-19.334 -11.834 -32.001 -12.501c-11.333 -0.666992 -22 3.66602 -32 12.999s-15 21.333 -15 36v4c0 12.667 4.66699 23.167 14 31.5s20.333 12.5 33 12.5zM123.001 578.002c3.33301 28.667 19.668 42.999 49.001 42.999
c13.333 0 24.666 -4.66699 33.999 -14s14 -20.666 14 -33.999c0 -12.667 -5 -24.667 -15 -36c-10.667 -8.66699 -21.667 -13 -33 -13c-13.333 0 -23.666 3.66699 -30.999 11c-6.66699 5.33301 -11.334 12 -14.001 20l-4 11v12z" />
    <glyph glyph-name="Agrave" unicode="&#xc0;" horiz-adv-x="410" 
d="M365 65c-2.66699 9.33301 -11.665 24.667 -26.998 46l-11 -8c0 -0.666992 1.33301 -4.33398 4 -11.001c-5.33301 8.66699 -16 19.667 -32 33v-31c3.33301 -4 6.66602 -8.66699 9.99902 -14c-2 -0.666992 -4.33301 -1.66699 -7 -3c-6 8.66699 -11.667 18.334 -17 29.001
c-2 -3.33301 -2 -9 0 -17c-12.667 25.333 -19 51.333 -19 78c0 8.66699 3.16699 19 9.5 31s9.5 25 9.5 39c0 28.667 -16.667 55.667 -50 81c-28 20.667 -50.333 31 -67 31c-6 0 -11.333 -2.66699 -16 -8s-7 -10.333 -7 -15c0 -6.66699 3.83301 -17.5 11.5 -32.5
s11.5 -28.167 11.5 -39.5c0 -10 -3.66699 -29.833 -11 -59.5s-11 -48.834 -11 -57.501s1.66699 -19.334 5 -32.001s5 -22.667 5 -30c0 -12 -4.16699 -22.333 -12.5 -31s-19.5 -13 -33.5 -13c-20.667 0 -39.167 6.33301 -55.5 19s-24.5 25.334 -24.5 38.001
c0 6 7.66699 28.167 23 66.5s23 81.166 23 128.499c0 -3.33301 2.5 11.667 7.5 45s7.5 61 7.5 83s8.66699 53.333 26 94c23.333 55.333 53.666 97 90.999 125c27.333 20.667 44 31 50 31c5.33301 0 8.33301 -0.666992 9 -2c0.666992 -4 1 -7.66699 1 -11
c0.666992 -17.333 9.66699 -39.666 27 -66.999c9.33301 -14.667 19 -42 29 -82c25.333 -101.333 38 -157 38 -167c0 -6 -4 -26.833 -12 -62.5s-12 -68.5 -12 -98.5c0 -31.333 9 -66.666 27 -105.999zM277.002 430.001c0 23.333 -2.33203 41.5 -6.99902 54.5
s-7 17.833 -7 14.5c0 7.33301 -3.83301 17.833 -11.5 31.5s-15.834 23.5 -24.501 29.5l-39 -54l-34 -119v-16c22 22 44.333 33 67 33c6 0 13 -1.83301 21 -5.5s12.667 -5.5 14 -5.5c10 0 16 2.33301 18 7s3 14.667 3 30z" />
    <glyph glyph-name="Aacute" unicode="&#xc1;" horiz-adv-x="869" 
d="M823 695c-6.66699 -3.33301 -14.668 -7.99805 -24.001 -13.998l12 -3c-37.333 3.33301 -69 -3 -95 -19c6 -2 12.667 -3 20 -3c11.333 0 21.166 1.66699 29.499 5s11.833 5 10.5 5c10.667 -2.66699 21.667 -6 33 -10c-8.66699 -2.66699 -21.5 -4 -38.5 -4
s-28.5 -1 -34.5 -3c2 -0.666992 5.33301 -3 10 -7l-63 -7h-63c-35.333 0 -88 -13.667 -158 -41l-104 -44c-81.333 -22.667 -128.333 -38.667 -141 -48c-27.333 -18.667 -41 -56 -41 -112c0 -19.333 5 -36 15 -50s24.333 -21.667 43 -23
c28.667 -2.66699 47.334 -2.66699 56.001 0c-2.66699 0 10.833 5 40.5 15s53.834 15 72.501 15c42.667 0 78.667 -19 108 -57c24 -31.333 36 -61.333 36 -90c0 -43.333 -20 -78.333 -60 -105c-36 -24.667 -77.667 -37 -125 -37c-6 0 -29 -4 -69 -12
c-46 -8.66699 -75.333 -16 -88 -22c-16.667 -8 -45 -30 -85 -66c-35.333 -30.667 -58 -46 -68 -46c-4 0 -9 3.33301 -15 10c-8 9.33301 -12 21.333 -12 36c0 7.33301 13.833 46.166 41.5 116.499s41.5 114.833 41.5 133.5v126c0 12 -6.5 36.5 -19.5 73.5
s-19.5 62.5 -19.5 76.5c0 34 22.333 63.333 67 88c40.667 22 108 44.667 202 68l143 28c94.667 18 148 27 160 27l136 14c-3.33301 -0.666992 -8 -2 -14 -4c12 -0.666992 30.333 -2.33398 55 -5.00098zM492.999 189.002c0 46.667 -12 76.334 -36 89.001
c-4 -10.667 -10.333 -16 -19 -16c-0.666992 0 -6.33398 2.33301 -17.001 7c12.667 -12 23.334 -27.667 32.001 -47c6 -14.667 9 -24.334 9 -29.001c0 -10.667 -5 -23.667 -15 -39l-24 -36c28 31.333 47.333 47 58 47c-0.666992 0 1 -1 5 -3c0 -6 1 -14 3 -24
c2.66699 10 4 27 4 51zM410.999 205.002c0 17.333 -13.332 32.998 -39.999 46.998c-22.667 11.333 -43.334 17 -62.001 17l-116 -15c2 -5.33301 8.33301 -16.333 19 -33c8.66699 -12.667 13 -23.667 13 -33c0 -7.33301 -2.5 -13.666 -7.5 -18.999s-7.5 -8.33301 -7.5 -9
c0 -18 28.333 -27 85 -27c34 0 61.833 6.83301 83.5 20.5s32.5 30.834 32.5 51.501z" />
    <glyph glyph-name="Acircumflex" unicode="&#xc2;" horiz-adv-x="581" 
d="M547 196c0 -84.667 -75.333 -133.334 -226 -146.001c-55.333 -4.66699 -103 -19 -143 -43c-20.667 -12.667 -45.667 -33.667 -75 -63c-21.333 -21.333 -38 -32 -50 -32c-5.33301 0 -11.333 4.16699 -18 12.5s-10 18.833 -10 31.5c0 8 13.833 47.333 41.5 118
s41.5 113.667 41.5 129v136c0 6.66699 -6.5 29.334 -19.5 68.001s-19.5 65 -19.5 79c0 37.333 23.333 65.333 70 84c34 14 73 21 117 21h65c113.333 0 170 -30.333 170 -91c0 -37.333 -29 -75.333 -87 -114l-105 -59l5 -5c37.333 16.667 69.666 25 96.999 25
c10.667 0 20.334 -1.33301 29.001 -4s16 -4 22 -4c10 0 27 -13.333 51 -40c29.333 -32.667 44 -67 44 -103zM360 488c0 33.333 -13.667 50 -41 50c-40 0 -73 -12 -99 -36c-28 -26.667 -42 -63.334 -42 -110.001c0 -28.667 4.66699 -43 14 -43c5.33301 4 30 16 74 36l42 16
c17.333 6.66699 28.333 13.334 33 20.001c12.667 16.667 19 39 19 67zM494 152c2 27.333 1.99902 49.9961 -0.000976562 67.9961c-0.666992 6.66699 -5.5 17.334 -14.5 32.001s-16.5 23.334 -22.5 26.001c-4.66699 -10.667 -10 -16 -16 -16c-4 0 -10.667 2.33301 -20 7
c17.333 -16 31 -42 41 -78c0 -9.33301 -13 -33.666 -39 -72.999c8 8.66699 24.333 23.334 49 44.001h14c0 -8.66699 1 -16.667 3 -24c0.666992 4 2.33398 8.66699 5.00098 14zM410.999 205.996c0 15.333 -11.667 29.668 -35 43.001s-45 20 -65 20c-12 0 -30.333 -2 -55 -6
c-30.667 -4.66699 -51.667 -7.66699 -63 -9c3.33301 -8 10.333 -19.667 21 -35c7.33301 -10.667 11 -20.334 11 -29.001s-2.5 -15.667 -7.5 -21s-7.5 -7.66602 -7.5 -6.99902c0 -10.667 16 -20.334 48 -29.001c22 -2 47 -2 75 0c23.333 2 43 13.333 59 34
c12.667 16.667 19 29.667 19 39z" />
    <glyph glyph-name="Atilde" unicode="&#xc3;" horiz-adv-x="1006" 
d="M968 613l-64.9961 0.00195312c0 -0.666992 0.666992 -2.33398 2 -5.00098c-46.667 0 -91 -6.83301 -133 -20.5s-68 -20.5 -78 -20.5c-21.333 0 -54 -28 -98 -84c-50.667 -63.333 -80 -126 -88 -188l-17 3c0 -14.667 1.16699 -23.334 3.5 -26.001s3.5 -5.66699 3.5 -9
c0 -13.333 -8.66699 -37.666 -26 -72.999c-21.333 -44 -46.666 -80 -75.999 -108c-38.667 -37.333 -80.667 -56 -126 -56c-10.667 0 -17 1 -19 3v7l-141 15c-4 2 -23.333 5 -58 9c5.33301 0.666992 12.666 1.66699 21.999 3v19c-12.667 6 -27 15.667 -43 29
c23.333 0 40.666 1.66699 51.999 5s15 5 11 5c52 -12.667 97.333 -19 136 -19c50.667 0 96 21 136 63c23.333 24.667 48 61.667 74 111c6 12 23.333 52.667 52 122c31.333 76 47 118.333 47 127c0 14.667 -6.66699 23.667 -20 27c-6.66699 2 -21 3 -43 3
c-19.333 0 -36 -1.16699 -50 -3.5s-24 -3.5 -30 -3.5c0.666992 0 -23.5 -7.66699 -72.5 -23s-77.5 -23 -85.5 -23c-20.667 0 -31 16.333 -31 49c0 30 16.667 51.333 50 64c17.333 6.66699 34.666 10 51.999 10l374 2c20 0 50 3.66699 90 11s63 11 69 11
c27.333 6.66699 42.333 10 45 10c12.667 -8.66699 26 -13 40 -13c-4.66699 -0.666992 -7.33398 -1.33398 -8.00098 -2.00098s-2.66699 -4.66699 -6 -12c7.33301 -2 25.666 -8.33301 54.999 -19zM804.004 635.002h-30l-113 -30c11.333 -0.666992 26 -1 44 -1
c58.667 0 91.667 10.333 99 31zM615.004 605.002h-63v-14h33c12 5.33301 22 10 30 14z" />
    <glyph glyph-name="Adieresis" unicode="&#xc4;" horiz-adv-x="708" 
d="M659 373c0 -15.333 -1.16504 -29.665 -3.49805 -42.998s-3.5 -20.666 -3.5 -21.999c0 -6 -9 -22.333 -27 -49c-23.333 -36 -49.666 -63.333 -78.999 -82c-23.333 -15.333 -51 -29.666 -83 -42.999c-28.667 -12 -47.334 -18 -56.001 -18c-4.66699 -4.66699 -11 -7 -19 -7
c-4 0 -19.667 -6 -47 -18c-30 -12.667 -45 -22.667 -45 -30c0 -2 2.5 -9.33301 7.5 -22s7.5 -20.334 7.5 -23.001c0 -10 -6.66699 -20.333 -20 -31s-27.333 -16 -42 -16c-16.667 0 -25 5.66699 -25 17c0 3.33301 0.833008 9 2.5 17s2.5 14 2.5 18
c0 8.66699 -5.66699 13 -17 13c4 0 -18.5 -12.5 -67.5 -37.5s-91.167 -37.5 -126.5 -37.5c-42.667 -10.667 -64 -23 -64 -37c0 -2 2.83301 -7.33301 8.5 -16s8.5 -14.334 8.5 -17.001c0 -7.33301 -4.33301 -13.833 -13 -19.5s-16.667 -8.5 -24 -8.5
c-5.33301 0 -11.5 3.33301 -18.5 10s-10.5 15.334 -10.5 26.001c0 34 49.667 60.333 149 79c36 6.66699 65.667 17.667 89 33c11.333 7.33301 25.333 19.666 42 36.999c11.333 11.333 21 17 29 17c5.33301 0 11.833 4.33301 19.5 13s11.5 18 11.5 28l-9 50.5
c-6 33.667 -9.33301 58.167 -10 73.5c-0.666992 39.333 -0.666992 69.666 0 90.999c0 14 0.666992 24.667 2 32s2 12 2 14c0 15.333 -6 29.833 -18 43.5s-18 23.5 -18 29.5c0 10 4.66699 21 14 33s19.666 18 30.999 18c16.667 0 31.5 -6 44.5 -18s19.5 -25.333 19.5 -40
c0 -10 -6.33301 -23.5 -19 -40.5s-19 -30.167 -19 -39.5v-114c9.33301 -48.667 14 -74.334 14 -77.001c0 2 -1.16699 -4.83301 -3.5 -20.5s-2.83301 -25.834 -1.5 -30.501c2.66699 -11.333 12 -17 28 -17c8 0 27 8.66699 57 26l119 66
c9.33301 4.66699 18.666 16.334 27.999 35.001c4.66699 10 9 20 13 30l31 36c14.667 19.333 22 43 22 71c0 65.333 -39.333 112 -118 140c-42.667 15.333 -83 23 -121 23c-10 0 -29.667 -1.66699 -59 -5c-39.333 -5.33301 -66 -11 -80 -17h-17c-1.33301 4 -2 7 -2 9
c0 9.33301 5.66699 19 17 29s19.666 15 24.999 15c1.33301 0 8.5 -1.33301 21.5 -4s22.5 -4 28.5 -4h61c136.667 0 229.334 -14.333 278.001 -43c35.333 -20.667 53 -62.667 53 -126z" />
    <glyph glyph-name="Aring" unicode="&#xc5;" horiz-adv-x="786" 
d="M576 620c-4 -4.66699 -15.3311 -12 -33.998 -22l-10 3c11.333 10 18.666 15 21.999 15c0.666992 0 1.66699 -0.5 3 -1.5s2.66602 -1.5 3.99902 -1.5c3.33301 0 8.33301 2.33301 15 7zM552.002 399c-6.66699 -1.33301 -12.668 -2.00098 -18.001 -2.00098
c-3.33301 0 -12.5 1.16699 -27.5 3.5s-31.833 3.5 -50.5 3.5c-39.333 0 -83.666 -13.333 -132.999 -40s-82 -40 -98 -40c-6 0 -11.667 2.33301 -17 7s-8 10.334 -8 17.001c0 10.667 13.667 25.167 41 43.5s48.333 27.5 63 27.5c-2 0 4.5 2.83301 19.5 8.5
s32.167 9.16699 51.5 10.5c26 2 56.667 2 92 0c12 0 26.333 -3 43 -9c21.333 -7.33301 35.333 -17.333 42 -30zM733.001 102.999c-10 -0.666992 -25.001 -4.3291 -45.001 -10.9961c4.66699 -2 16.667 -5.33301 36 -10c-50 0 -76.667 -0.666992 -80 -2
c2 -2.66699 4.33301 -4.33398 7 -5.00098c-40.667 0 -107.667 -1 -201 -3c-28.667 -0.666992 -73 -7.66699 -133 -21s-93 -20 -99 -20c-10.667 0 -24.167 1.33301 -40.5 4s-25.166 4 -26.499 4c-13.333 0 -31.333 15 -54 45c-24.667 32 -37 60.333 -37 85
c0 31.333 2 105.333 6 222c0.666992 24 -5.5 57.667 -18.5 101s-19.5 65.666 -19.5 66.999c0 10 4.66699 21.833 14 35.5s20 20.5 32 20.5c25.333 0 38 -10.667 38 -32c0 -5.33301 -0.666992 -11.666 -2 -18.999c4 -0.666992 9.33301 -1 16 -1
c33.333 0 67.166 7.5 101.499 22.5s57.5 22.5 69.5 22.5c-0.666992 0 16.666 -2 51.999 -6s62 -6 80 -6c12 0 24 2.66699 36 8l35 16c-14.667 -7.33301 -22 -14 -22 -20c0 -0.666992 0.666992 -1 2 -1c14.667 5.33301 40.334 15.666 77.001 30.999l-8.5 -6
c-5.66699 -4 -13.5 -11 -23.5 -21c4.66699 -6.66699 9.83398 -10.5 15.501 -11.5s11.834 -2.16699 18.501 -3.5c-40.667 -6 -73.667 -14 -99 -24c-17.333 -7.33301 -35.333 -10.333 -54 -9l-217 -36c-9.33301 -4.66699 -16.333 -8.66699 -21 -12
c-12 -8.66699 -18.333 -18 -19 -28c-2.66699 -34.667 -2.66699 -69.334 0 -104.001c0 -2 2.5 -11.333 7.5 -28s7.5 -28.667 7.5 -36c0 -5.33301 -2.5 -16.333 -7.5 -33s-7.5 -28.334 -7.5 -35.001c0 -8.66699 4.5 -22.667 13.5 -42s13.5 -37.666 13.5 -54.999
c0 -13.333 20.333 -21.666 61 -24.999c31.333 -1.33301 62.666 -3 93.999 -5l200 30c10 -0.666992 45.5 -7.33398 106.5 -20.001s92.833 -20.334 95.5 -23.001z" />
    <glyph glyph-name="AE" unicode="&#xc6;" horiz-adv-x="913" 
d="M856 833c0 -8 -7.33203 -19.333 -21.999 -34c-17.333 -17.333 -35.666 -26 -54.999 -26c-10 -4.66699 -48.667 -36.334 -116 -95.001c-32.667 -31.333 -70.667 -71.666 -114 -120.999c-28 -32 -45.667 -58.667 -53 -80c-5.33301 -16 -10.333 -32 -15 -48
c-4.66699 -3.33301 -12.667 -25.333 -24 -66c-3.33301 -16 -5 -36.667 -5 -62c-6 -16.667 -6.66699 -26.667 -2 -30c-4 -8 -6 -11.667 -6 -11c2 0 4.66699 -0.333008 8 -1c-5.33301 -5.33301 -6 -15 -2 -29v-7c1.33301 0 3 0.666992 5 2
c-0.666992 -6.66699 2.83301 -17.167 10.5 -31.5l11.5 -21.5c0 -6.66699 14.333 -23 43 -49c0.666992 0 3 -5.33301 7 -16s7.33301 -18.334 10 -23.001c7.33301 -13.333 15.333 -23.333 24 -30c6 -5.33301 9 -8.5 9 -9.5s14.167 -12.5 42.5 -34.5s42.5 -41.333 42.5 -58
c0.666992 -6 5.66699 -25.667 15 -59c-89.333 71.333 -147 121.333 -173 150c-18 18.667 -50 62.334 -96 131.001c-14 -11.333 -21 -28 -21 -50c0 -7.33301 0.666992 -15.833 2 -25.5s2 -15.167 2 -16.5c0 -6 -5.16699 -18.333 -15.5 -37s-19.166 -28 -26.499 -28
c-15.333 0 -23 13 -23 39c0 6 0.5 16.5 1.5 31.5s1.5 26.167 1.5 33.5c0 16 -2 28 -6 36c-23.333 -17.333 -35 -31.666 -35 -42.999c0 -2 0.333008 -5.5 1 -10.5s1 -9.16699 1 -12.5c0 -20.667 -13.833 -49.334 -41.5 -86.001s-56.834 -67 -87.501 -91
c-21.333 -17.333 -32 -28.333 -32 -33c-0.666992 -0.666992 -5.33398 -7.33398 -14.001 -20.001c-30 24 -45.333 36 -46 36l-4.5 -1c-3 -0.666992 -6.5 -1 -10.5 -1s-8.66699 0.333008 -14 1c61.333 42 92 75.667 92 101c0 0.666992 18 31.5 54 92.5s54 95.5 54 103.5
c0 32.667 -4.66699 88.667 -14 168s-14 147.666 -14 204.999c0 8.66699 -1.33301 20.167 -4 34.5s-4 22.5 -4 24.5c0 4.66699 -14.167 25.334 -42.5 62.001s-42.5 64.667 -42.5 84c5.33301 10 8 18 8 24c16 24 33 36 51 36c8 0 15.667 -3.66699 23 -11
s11 -15.666 11 -24.999c0 -4 2.5 -12.333 7.5 -25s7.5 -23 7.5 -31c10.667 -31.333 16 -62.333 16 -93c0 6.66699 2.5 -10.833 7.5 -52.5s7.5 -82.834 7.5 -123.501c0 -8 2.33301 -21 7 -39c5.33301 -22.667 11 -34 17 -34c2 0 6.33301 -3.33301 13 -10
c6.66699 9.33301 13.334 54 20.001 134c6 69.333 19.667 104 41 104c8.66699 -2.66699 13 -5 13 -7c3.33301 -3.33301 7.66602 -12.333 12.999 -27c0 -2 -1 -12.667 -3 -32c-2 -23.333 -3 -44.666 -3 -63.999c0 -40 1.66699 -66.333 5 -79s9.66602 -19 18.999 -19
c6 0 17.667 12.167 35 36.5s26 42.5 26 54.5s11.667 39 35 81c32 58.667 71.333 107 118 145c36 30 76 58.333 120 85c54 32.667 92.333 49 115 49c9.33301 0 14 -5 14 -15z" />
    <glyph glyph-name="Ccedilla" unicode="&#xc7;" horiz-adv-x="552" 
d="M505 170c0 -75.333 -84.6641 -146 -253.997 -212c-33.333 -12.667 -62 -22.667 -86 -30c-20 -6 -31.667 -9.66699 -35 -11h-10c24.667 36.667 75.667 84 153 142c64 48 96 84 96 108c0 26.667 -14 47 -42 61c-18.667 9.33301 -37.667 14 -57 14l-160 -19
c-8 0 -15.167 1.16699 -21.5 3.5s-9.83301 3.5 -10.5 3.5c-8 0 -12 6.33301 -12 19c0 24.667 54.333 60.334 163 107.001c41.333 17.333 64.666 28.666 69.999 33.999c14.667 12 22 34.667 22 68c0 35.333 -14.333 53 -43 53c-14 -2.66699 -27.333 -6 -40 -10
c-30 -9.33301 -54.667 -20.666 -74 -33.999c-12.667 -8.66699 -19 -21.334 -19 -38.001c-2 -2.66699 -5 -5.16699 -9 -7.5s-6 -4.83301 -6 -7.5c-5.33301 -1.33301 -31.333 -15.666 -78 -42.999c-5.33301 8 -10.666 21.5 -15.999 40.5s-8 33.833 -8 44.5
c0 30 14 54.333 42 73c25.333 16 54 24 86 24l59 10h64l46 -2c33.333 -2.66699 60.333 -9.66699 81 -21c28.667 -16 43 -39 43 -69c0 -35.333 -28.667 -73 -86 -113c-11.333 -7.33301 -49.333 -29 -114 -65c1.33301 -1.33301 2.66602 -2 3.99902 -2
c-2.66699 0 9.66602 4.33301 36.999 13s50.666 13 69.999 13c42 0 77.667 -17.333 107 -52c25.333 -30.667 38 -62.334 38 -95.001z" />
    <glyph glyph-name="Egrave" unicode="&#xc8;" horiz-adv-x="581" 
d="M527 498c0 4 -8.83496 -30.168 -26.502 -102.501s-26.5 -126.833 -26.5 -163.5c0 -54 5 -95.333 15 -124l31 -74c-4 2.66699 -10.667 9 -20 19c-6 6.66699 -13 10 -21 10c-20 0 -30 -10.667 -30 -32c0 -7.33301 1 -14.666 3 -21.999l-25 64c-8 19.333 -20.667 29 -38 29
c-12.667 0 -36.5 -12.667 -71.5 -38s-66.5 -38 -94.5 -38c-62.667 0 -111.667 36.667 -147 110c-26 53.333 -39 103.333 -39 150c0 3.33301 -1.5 12.333 -4.5 27s-4.5 25 -4.5 31v73c0 -0.666992 1.16699 6.33301 3.5 21s3.5 27 3.5 37c0 1.33301 4 9.33301 12 24
s13 22.667 15 24c5.33301 2.66699 10.333 4 15 4c2.66699 0 6.5 -0.833008 11.5 -2.5s9.16699 -2.16699 12.5 -1.5c2 0.666992 12 6.66699 30 18s29 17 33 17c5.33301 0 10.333 -3.66699 15 -11s7 -15.333 7 -24l-22 -184c4.66699 -63.333 14.334 -107.333 29.001 -132
s37.334 -37 68.001 -37c95.333 0 143 54 143 162v94c0 1.33301 0.833008 4.83301 2.5 10.5s2.5 9.5 2.5 11.5v68c0 29.333 17.667 44 53 44c17.333 0 33 -8 47 -24c12 -14 18 -26.667 18 -38z" />
    <glyph glyph-name="Eacute" unicode="&#xc9;" horiz-adv-x="601" 
d="M515 797l-14.9961 -25.0039c0 -0.666992 2.5 -4 7.5 -10s7.5 -10 7.5 -12c0 -5.33301 -6.66699 -19.666 -20 -42.999s-23.666 -37.666 -30.999 -42.999c-3.33301 -2.66699 -11.333 -5 -24 -7s-21.834 -5.83301 -27.501 -11.5s-11.834 -19.167 -18.501 -40.5
c-9.33301 -8 -20.666 -20 -33.999 -36c-8.66699 2.66699 -15.334 3.33398 -20.001 2.00098c-4.66699 -2 -10.334 -2.33301 -17.001 -1c-0.666992 0 -1.33398 0.666992 -2.00098 2s-1.66699 2 -3 2c-9.33301 -2.66699 -26 -10 -50 -22v11c0 3.33301 -5.66699 9.33301 -17 18
c1.33301 2 5 9.33301 11 22c2.66699 6 7 10 13 12c-4 0 -12.667 5 -26 15c14.667 2.66699 22 8.33398 22 17.001c0 6 -3.33301 10.667 -10 14c16.667 12 40.667 32.333 72 61c5.33301 -8 8.66602 -12 9.99902 -12c2.66699 0 12.334 4.33301 29.001 13s27 13 31 13
c57.333 30 94.666 50.333 111.999 61zM532.004 488.996c0 2.66699 -8.33203 -28.999 -24.999 -94.999c-16.667 -68 -26 -114.667 -28 -140c-1.33301 -22.667 -1.33301 -43 0 -61c4 -52 10.667 -87.667 20 -107c15.333 -31.333 24 -51.333 26 -60
c-4 2.66699 -11 9.33398 -21 20.001c-6 6.66699 -13 10 -21 10c-19.333 0 -29 -9.66699 -29 -29c0 -6.66699 1 -13.334 3 -20.001c-2 2.66699 -9.66699 21 -23 55c-8.66699 22 -22 33 -40 33c-12 0 -35.833 -12.5 -71.5 -37.5s-67.167 -37.5 -94.5 -37.5
c-68 0 -119.667 42.333 -155 127c-27.333 65.333 -41 142.333 -41 231c0 26 3 53 9 81c7.33301 34.667 16.666 54.334 27.999 59.001c4.66699 2 11 2 19 0c7.33301 -2.66699 13 -3.33398 17 -2.00098s14.333 7.33301 31 18s27.334 16 32.001 16
c8.66699 0 16.667 -11.333 24 -34l-24 -188c1.33301 -4 4.16602 -20.333 8.49902 -49s6.5 -44.334 6.5 -47.001c0 -14 8 -28.667 24 -44c17.333 -17.333 37 -26 59 -26c95.333 0 143 53.333 143 160v99c0 2.66699 0.833008 5.66699 2.5 9s2.5 6 2.5 8
c1.33301 11.333 1.66602 25.333 0.999023 42c-1.33301 23.333 -2 34.666 -2 33.999c0 8 4 16 12 24c10.667 10 24.334 15 41.001 15c18.667 0 34.667 -8 48 -24c12 -13.333 18 -26.666 18 -39.999zM341.005 692.997h-12.001c-3.33301 -6 -6 -11.667 -8 -17h12
c2.66699 7.33301 5.33398 13 8.00098 17z" />
    <glyph glyph-name="Ecircumflex" unicode="&#xca;" horiz-adv-x="488" 
d="M423 560c-129.333 -131.333 -194.002 -214.332 -194.002 -248.999c0 -20.667 14 -60.334 42 -119.001s42 -108 42 -148c0 -2.66699 5.33301 -10.334 16 -23.001v-24c-1.33301 0 -3 0.333008 -5 1s-3.66699 1.33398 -5 2.00098c0 12 1.66699 20.667 5 26
c-12.667 8 -24.667 11.333 -36 10c-8.66699 28.667 -20.667 60 -36 94c-8.66699 16.667 -17 33.667 -25 51c-20 47.333 -38.667 71 -56 71c-5.33301 0 -18.333 -11 -39 -33c-25.333 -26.667 -38 -52 -38 -76c0 -4 -6.83301 -24.167 -20.5 -60.5s-20.5 -64.5 -20.5 -84.5
c0 -6 0.666992 -11.333 2 -16h-15v175l20 256c0.666992 12 -3.66602 40.333 -12.999 85c0 31.333 7 58 21 80c15.333 24.667 36.333 37 63 37c30 0 45 -7.66699 45 -23s-13.667 -52.666 -41 -111.999s-41 -103 -41 -131c0 1.33301 0.666992 -2.33398 2 -11.001
c1.33301 -7.33301 1.33301 -18.333 0 -33c0.666992 0 2 -0.333008 4 -1s3.33301 -1 4 -1c2 0 16.333 14.667 43 44c34.667 38 64.334 68.333 89.001 91c27.333 22 75 65 143 129h10l-5 -10c7.33301 0 13 1.66699 17 5c-4.66699 -11.333 -6 -17 -4 -17s5.5 2 10.5 6
s10.167 7 15.5 9zM274.998 -50.999c-2 6 -4.33301 11.667 -7 17c2 0 4.33301 0.666992 7 2v-19zM257.998 421.001c-2.66699 -1.33301 -5.66699 -3.66699 -9 -7zM417.998 574l-12 -9.99902c2.66699 3.33301 6.66699 6.66602 12 9.99902zM306.998 458.001l-23.001 -13
c-10.667 -6.66699 -17.667 -13.667 -21 -21c10.667 6.66699 25.334 18 44.001 34zM262.997 402.001l-9.99805 0.000976562c-4.66699 -8.66699 -11.334 -16 -20.001 -22c-14 -10 -25.667 -19.667 -35 -29c1.33301 0.666992 4.66602 1.66699 9.99902 3v-10
c0.666992 3.33301 19 22.666 55 57.999z" />
    <glyph glyph-name="Edieresis" unicode="&#xcb;" horiz-adv-x="596" 
d="M377 256c-2.66699 7.33301 -8.33398 18 -17.001 32v12c2.66699 -9.33301 8.33398 -24 17.001 -44zM549 92c-4.66699 -4.66699 -6.99414 -9.66895 -6.99414 -15.002c-20.667 -40 -45.334 -60 -74.001 -60c-0.666992 0 -5.33398 1 -14.001 3s-15 3.33301 -19 4h-19
c0 2 0.333008 4.5 1 7.5s1 5.5 1 7.5c-4.66699 36 -7 63 -7 81c0 12.667 -9 44.334 -27 95.001h8c0 55.333 -9.66699 92.666 -29 111.999c-2.66699 -4.66699 -4.33398 -9.66699 -5.00098 -15c0 10.667 -1 21.334 -3 32.001
c-4.66699 -4.66699 -10.334 -13.334 -17.001 -26.001s-10 -21.667 -10 -27c0 -0.666992 -3.66699 -8.66699 -11 -24c-8.66699 -19.333 -16 -39 -22 -59c-10 -31.333 -23 -58.666 -39 -81.999c-6 -11.333 -15.667 -27.666 -29 -48.999l-12 -12
c-6.66699 -6.66699 -10 -11.334 -10 -14.001c-7.33301 -10 -18 -21.333 -32 -34c-33.333 -30.667 -79.333 -65.667 -138 -105l-4 3c5.33301 4.66699 18 15 38 31c-0.666992 2.66699 -3 5.33398 -7 8.00098c18.667 22 34.667 39 48 51c4.66699 4 7 8 7 12l32 31
c25.333 25.333 45.333 49.666 60 72.999c21.333 34 32 66.667 32 98l25.5 101.5c17 67.667 25.5 109.167 25.5 124.5c0 12.667 10.667 26 32 40c11.333 6 22.666 12.333 33.999 19l41 -12c6 -6 8.33301 -36 7 -90c0 -8 1.66699 -15.333 5 -22s5 -9.66699 5 -9
c0 -0.666992 -2.33301 -4 -7 -10c-2 5.33301 -3 9.66602 -3 12.999c0 2.66699 1 6.33398 3 11.001l-5 5l-10 -15v-41h13c4 0 10.167 -13.833 18.5 -41.5s12.5 -45.167 12.5 -52.5l14 -59l-7 7c-3.33301 -3.33301 -5.66602 -6.33301 -6.99902 -9
c4.66699 -4 11 -10.333 19 -19c5.33301 4 16.666 17.667 33.999 41c0.666992 -2.66699 9.66699 -20.667 27 -54s27.666 -51.666 30.999 -54.999z" />
    <glyph glyph-name="Igrave" unicode="&#xcc;" horiz-adv-x="625" 
d="M234 441l-34 -0.000976562v17c4 0.666992 8.66699 2.33398 14 5.00098c2 0 4.33301 -2.33301 7 -7c4 -6.66699 8.33301 -11.667 13 -15zM573 388.999c0 -24.667 -5.67188 -45.335 -17.0049 -62.002c-18 -27.333 -28.333 -44 -31 -50
c-11.333 -27.333 -17 -66.333 -17 -117c0 0.666992 -1.33301 -3.16602 -4 -11.499s-4 -18.5 -4 -30.5c0 -14.667 -16.333 -55 -49 -121c-28.667 -58.667 -47 -93.334 -55 -104.001c0 5.33301 -0.666992 10.333 -2 15c-6 -6 -17.333 -16.667 -34 -32
c5.33301 16.667 19 63.667 41 141c26 65.333 39 111.333 39 138v111c-3.33301 2 -7.66602 3 -12.999 3c-10.667 0 -20 -6.5 -28 -19.5l-24 -39.5c-5.33301 -7.33301 -15.166 -15.5 -29.499 -24.5s-21.5 -15.167 -21.5 -18.5c0 -1.33301 1.16699 -3.16602 3.5 -5.49902
s3.5 -4.83301 3.5 -7.5l-7 -21c-14 40 -32.667 86 -56 138c-4 4.66699 -9.66699 7.16699 -17 7.5s-12.333 1.16602 -15 2.49902c-6 3.33301 -14.667 14 -26 32c-9.33301 14.667 -21.666 22.334 -36.999 23.001c18.667 -27.333 29 -43.666 31 -48.999s3 -20.333 3 -45
c0 -46 -5.66699 -86.833 -17 -122.5s-17 -69.834 -17 -102.501c-32 8 -48.333 12 -49 12c-2 0 -12 -8.33301 -30 -25c-0.666992 2.66699 -1.66699 5.66699 -3 9c0 -2 4.5 7.33301 13.5 28s13.167 36.667 12.5 48c0.666992 28 0 73.333 -2 136c-3.33301 6 -8 16.333 -14 31
c-0.666992 32.667 -2.33398 67.667 -5.00098 105c-2 5.33301 -13.333 21.333 -34 48c-18 22.667 -27 40.334 -27 53.001c0 12 5.83301 22.5 17.5 31.5s21.834 13.5 30.501 13.5c31.333 0 54.666 -7.33301 69.999 -22c6 -6 14.333 -19.667 25 -41
c7.33301 -14.667 17.333 -22 30 -22s29.334 -1 50.001 -3c2.66699 -2 16.334 -18.667 41.001 -50c27.333 -34 42 -53.667 44 -59c2 -8.66699 6 -21.667 12 -39c18.667 14 32.334 39.667 41.001 77c11.333 44.667 21 73 29 85c17.333 26.667 48.333 40 93 40
c36.667 0 55 -28 55 -84z" />
    <glyph glyph-name="Iacute" unicode="&#xcd;" horiz-adv-x="410" 
d="M333 145c-1.33301 3.33301 -4.33496 8.33594 -9.00195 15.0029c-2.66699 -8 -2.66699 -22.667 0 -44c-3.33301 10 -6.66602 18 -9.99902 24c-2.66699 -8.66699 -5 -27.334 -7 -56.001c0 16 -1 26.667 -3 32c-2 -5.33301 -6 -21.666 -12 -48.999
c-6.66699 4.66699 -10 13 -10 25c0 7.33301 1.33301 16.333 4 27s4 16.334 4 17.001c0 4.66699 -3.16699 9.66699 -9.5 15s-10.5 13 -12.5 23c2.66699 63.333 -5.66602 95 -24.999 95c4 0 -2.5 -2.83301 -19.5 -8.5s-41.167 -8.5 -72.5 -8.5c-16 0 -24 -39.667 -24 -119
c0 -8.66699 3 -19.667 9 -33s9 -25 9 -35s-3.16699 -19.833 -9.5 -29.5s-14.166 -14.5 -23.499 -14.5c-24 0 -43 16.333 -57 49c-12 28 -18 61 -18 99c0 -6 2.16699 15.167 6.5 63.5s6.5 123.166 6.5 224.499c0 82.667 14.333 124 43 124c16.667 0 29.5 -5.5 38.5 -16.5
s13.5 -23.5 13.5 -37.5c0 0.666992 -3 -7.83301 -9 -25.5s-9 -33.167 -9 -46.5v-70l-2.5 -16c-1.66699 -10.667 -2.5 -17.334 -2.5 -20.001c0 -21.333 11 -32 33 -32c26 0 52 12.833 78 38.5s39.333 53.167 40 82.5c1.33301 56.667 2 101.334 2 134.001
c4 7.33301 9 12.666 15 15.999c1.33301 -8.66699 -2.66699 -21.334 -12 -38.001v-15c11.333 3.33301 18.333 10.333 21 21c6 20 9.33301 30.667 10 32c10 -6 15 -17 15 -33c0 -7.33301 -1.33301 -20.333 -4 -39s-4 -33.334 -4 -44.001v-90c0 -26 2.33301 -55 7 -87
c5.33301 -42 8.66602 -71 9.99902 -87c2 -6.66699 2 -27.667 0 -63z" />
    <glyph glyph-name="Icircumflex" unicode="&#xce;" horiz-adv-x="483" 
d="M428 439c0 -66.667 -16.333 -142.002 -49 -226.002c-16 -41.333 -34.667 -77.666 -56 -108.999c-34.667 -50 -69.667 -75 -105 -75c-7.33301 0 -15.333 1.16699 -24 3.5s-14 3.5 -16 3.5c-4 0 -13.667 7 -29 21c-20 18.667 -41 43 -63 73
c-32.667 44.667 -49 81.334 -49 110.001c0 0.666992 3 12.5 9 35.5s9 39.167 9 48.5l23 97c16 66.667 26.667 103 32 109c13.333 16 42.333 42.667 87 80c54.667 46 90.667 69 108 69c13.333 0 33 -14.5 59 -43.5s39 -51.167 39 -66.5c16.667 -30.667 25 -74 25 -130z
M312 431.998c0 9.33301 -6.00098 24.9971 -18.001 46.9971c-6.66699 10.667 -13 21.334 -19 32.001c0 0.666992 0.833008 3.66699 2.5 9s2.5 9.66602 2.5 12.999c0 8.66699 -1.66699 18.334 -5 29.001c-2 -4.66699 -34.333 -70 -97 -196
c-21.333 -43.333 -32 -75.666 -32 -96.999c0 -23.333 5.5 -42.666 16.5 -57.999s23.167 -23 36.5 -23c26.667 0 44.334 14.333 53.001 43c3.33301 22 7 44.333 11 67c5.33301 20 15.333 47 30 81c12.667 28 19 45.667 19 53z" />
    <glyph glyph-name="Idieresis" unicode="&#xcf;" horiz-adv-x="732" 
d="M683 581c-2 -3.33301 -8.66602 -8.00195 -19.999 -14.002c2.66699 -1.33301 6.66699 -3 12 -5c-2.66699 1.33301 -4.33398 2 -5.00098 2c-32 0 -59.333 -7.33301 -82 -22c8 -2 15.333 -3 22 -3s13.5 1.5 20.5 4.5s12.167 4.5 15.5 4.5c10 0 19 -3.33301 27 -10
c-32.667 0 -54.667 -1.66699 -66 -5c4 -3.33301 6.66699 -6 8 -8c-14.667 -2.66699 -65 -6.33398 -151 -11.001c-36 -2.66699 -54 -34.667 -54 -96c0 -4.66699 0.333008 -14.334 1 -29.001l17 -287c-4 6.66699 -7.33301 12 -10 16
c-1.33301 -5.33301 -1.33301 -19.666 0 -42.999c-1.33301 10 -5.33301 17.333 -12 22c0 4 -1.66699 -14 -5 -54c0 17.333 -0.666992 28 -2 32c-2.66699 -4.66699 -4.66699 -11.667 -6 -21c-1.33301 -11.333 -3.33301 -20.666 -6 -27.999c-8.66699 6.66699 -13 11.667 -13 15
c6.66699 32 10 50 10 54c0 -1.33301 -2.5 2 -7.5 10s-8.83301 18.667 -11.5 32c-4.66699 19.333 -7 42.333 -7 69v152c2.66699 6 5.66699 19 9 39c1.33301 22.667 1.33301 46 0 70c-0.666992 4 -2 9.66699 -4 17c-48 -25.333 -77.333 -39.666 -88 -42.999
c-6 -2 -21.333 -3 -46 -3c-4.66699 0 -7 -7 -7 -21v-66c0 -0.666992 -0.833008 -9 -2.5 -25s-2.5 -24.667 -2.5 -26c0 -10.667 2 -23.5 6 -38.5s6 -24.833 6 -29.5c0.666992 -20 1 -37 1 -51s-0.333008 -31 -1 -51c0 -6 -1.5 -12.667 -4.5 -20s-4.5 -14 -4.5 -20
c0 -2 2.66699 -9.33301 8 -22s8 -26.334 8 -41.001c0 -31.333 -9.33301 -47 -28 -47c-27.333 0 -47.333 18 -60 54c-10.667 28 -16 62.333 -16 103c0 16.667 3.16699 47.5 9.5 92.5s9.5 87.5 9.5 127.5c0 10 -0.666992 19.667 -2 29s-2 17 -2 23l-5 5
c-46.667 -37.333 -75 -56 -85 -56c-19.333 0 -29 10.333 -29 31c0 2.66699 1.16699 7.33398 3.5 14.001s3.5 13 3.5 19c0 2.66699 9.83301 11.834 29.5 27.501s38.167 27.167 55.5 34.5c21.333 9.33301 34 22 38 38c2.66699 12 13 18 31 18c5.33301 0 12.333 -3.5 21 -10.5
s15.667 -10.5 21 -10.5c62.667 17.333 104 26 124 26c-0.666992 0 18.833 5.16699 58.5 15.5s68.5 16.5 86.5 18.5l115 12h21c4 -3.33301 11.333 -5 22 -5s19 -1.66699 25 -5z" />
    <glyph glyph-name="Eth" unicode="&#xd0;" horiz-adv-x="571" 
d="M522 510c0 -37.333 -19.999 -73.3369 -59.999 -108.004c-32.667 -28 -89.334 -62.667 -170.001 -104l-46 -23c-7.33301 -3.33301 -12.333 -7 -15 -11c-4 -9.33301 -6 -26.666 -6 -51.999c-4 -50.667 -8.33301 -97.334 -13 -140.001c-0.666992 -8 0 -20.333 2 -37
c2.66699 -19.333 4 -34.333 4 -45c0 -7.33301 -0.333008 -14.666 -1 -21.999v34h-14c0 8 1.66699 15.333 5 22h-13c0 8.66699 -3.66699 25.334 -11 50.001s-11 42.834 -11 54.501s-1.16699 24.667 -3.5 39s-3.5 23.5 -3.5 27.5c0 7.33301 2 14 6 20h-18l-121 -68
c22 28 46.333 49.333 73 64c24.667 14 39.667 25 45 33c10 16.667 15 50 15 100c0 34 8 80.667 24 140c-22.667 10.667 -34 22.667 -34 36c0 8.66699 13 19.667 39 33c24 12.667 41 19 51 19c2.66699 0 7.66699 2.33301 15 7s17 8.33398 29 11.001c18.667 4 43.667 6 75 6
c104.667 0 157 -28.667 157 -86zM452.001 534.996c-5.33301 2 -9.33301 4.33301 -12 7c12 -4.66699 16 -7 12 -7zM198.001 408.996c-0.666992 -7.33301 -1.66699 -13 -3 -17c0.666992 3.33301 1.66699 9 3 17zM414.001 394.996c-6 -4 -10.332 -7.33301 -12.999 -10
c3.33301 4 7.66602 7.33301 12.999 10zM203.002 -24.0039c-1.33301 8 -1.33301 14.333 0 19v-19zM481.002 486.996c0 14.667 -7.33301 25.999 -22 33.999c0 -0.666992 1.33301 -5.5 4 -14.5s4 -16.833 4 -23.5c0 -19.333 -8.33301 -36.666 -25 -51.999c8 4 17 14 27 30
c8 14 12 22.667 12 26zM431.002 498.995c0 3.33301 -6.33301 13 -19 29c-14.667 0 -27.334 1.16699 -38.001 3.5s-20.667 3.5 -30 3.5c-32.667 0 -55.667 -6.33301 -69 -19c-7.33301 -7.33301 -13.333 -20.333 -18 -39s-11.667 -30.667 -21 -36
c6.66699 -4.66699 10 -7.33398 10 -8.00098v-15c-5.33301 -45.333 -8.66602 -70 -9.99902 -74v-51c130 92.667 195 161.334 195 206.001zM193.002 389.995c-8.66699 -62 -12.667 -94.333 -12 -97c0 1.33301 2.66699 16 8 44c2.66699 17.333 4 35 4 53zM181.002 195.995
l-0.000976562 32c-1.33301 -1.33301 -4.66602 -4 -9.99902 -8c2.66699 -4 6 -12 10 -24z" />
    <glyph glyph-name="Ntilde" unicode="&#xd1;" horiz-adv-x="781" 
d="M736 235c-54 -67.333 -102.334 -116.667 -145.001 -148c-60 -44 -124 -66 -192 -66c-49.333 0 -111 19.167 -185 57.5s-122.333 76.5 -145 114.5c-10.667 17.333 -20 42 -28 74c-4 19.333 -8.33301 38.333 -13 57c0.666992 -0.666992 1.66699 -4 3 -10h2
c0.666992 -0.666992 1.33398 -1 2.00098 -1c9.33301 0 27.833 14 55.5 42s41.5 47.667 41.5 59c0 8 5.66699 22.667 17 44c16 31.333 38 56 66 74c38 25.333 84.333 35.666 139 30.999l138 13c56 -4.66699 83 -7 81 -7c20 0 38.333 -4.33301 55 -13
c24.667 -13.333 37 -33.666 37 -60.999c0 -20 -2 -40.333 -6 -61c-6.66699 -30.667 -16 -46 -28 -46c-11.333 0 -26 10 -44 30c-27.333 30 -45.666 48.667 -54.999 56c-25.333 20 -52.666 30 -81.999 30c-40 0 -80.667 -8.66699 -122 -26c-8.66699 -4 -32 -16.333 -70 -37
l-39 -18c-22.667 -12 -40.667 -25.667 -54 -41c-18.667 -21.333 -28 -45.333 -28 -72c0 -60.667 33 -106.667 99 -138c19.333 -4.66699 46 -12 80 -22c4.66699 -2 16 -10 34 -24c14.667 -11.333 30 -17 46 -17c44 0 96.667 22.333 158 67l107 83
c-2 -9.33301 -8.33301 -28 -19 -56c-8.66699 -24 -13 -37.667 -13 -41s0.666992 -5 2 -5s9.66602 14.333 24.999 43s27.333 45 36 49c-3.33301 -7.33301 -13 -25 -29 -53c2.66699 -1.33301 6.66699 -4.66602 12 -9.99902c13.333 11.333 33.666 27.666 60.999 48.999z
M141.999 444.999l-87 -104v17l24 51c12.667 24 28.667 42.667 48 56c-1.33301 -2 -4.33301 -7.66699 -9 -17c5.33301 0 13.333 -1 24 -3zM73.999 250.999c-0.666992 7.33301 -2.16699 13.499 -4.5 18.499s-3.5 9.16699 -3.5 12.5c0 8 2.66699 15.667 8 23
c-3.33301 -17.333 -4.33301 -28.666 -3 -33.999c2 -10 3 -16.667 3 -20z" />
    <glyph glyph-name="Ograve" unicode="&#xd2;" horiz-adv-x="791" 
d="M758 654c-5.33301 -4 -13.668 -8 -25.001 -12c0.666992 0 3.33398 -1.66699 8.00098 -5c-45.333 0 -75.333 -7.33301 -90 -22c20 0 35.667 1.33301 47 4s16.666 4 15.999 4c6.66699 0 16.334 -2.66699 29.001 -8c-19.333 0 -44.333 -2.33301 -75 -7
c1.33301 -0.666992 5.33301 -3 12 -7c-42.667 -5.33301 -66 -8 -70 -8h-53c-25.333 0 -63.666 -7.66699 -114.999 -23c-75.333 -22.667 -113 -52 -113 -88v-259c0 0.666992 1.5 -9.83301 4.5 -31.5s4.5 -45.5 4.5 -71.5c0 -29.333 -7.33301 -52.666 -22 -69.999
s-33.334 -26 -56.001 -26c-10 0 -20.333 4.66699 -31 14c-16 14 -24 34.333 -24 61c0 18 9.33301 53.167 28 105.5s28 97.166 28 134.499c0 29.333 -2.66699 56.666 -8 81.999c-11.333 54 -31.666 81 -60.999 81c-12 0 -33.5 -11.333 -64.5 -34s-53.167 -34 -66.5 -34
c-20.667 0 -31 10 -31 30c0 16.667 15 38 45 64c45.333 38.667 108.333 61.334 189 68.001l311 58l132 14c-2.66699 -0.666992 -6 -2 -10 -4c5.33301 -2 15.666 -2.66699 30.999 -2c12.667 0 22.667 -2.66699 30 -8zM713.998 668z" />
    <glyph glyph-name="Oacute" unicode="&#xd3;" horiz-adv-x="596" 
d="M552 693c0 1.33301 -10.1709 -25.166 -30.5039 -79.499s-30.5 -87.5 -30.5 -99.5c-16 -74.667 -24 -132 -24 -172c0 -6 -9 -38.5 -27 -97.5s-27 -89.833 -27 -92.5c0 -10 -7.66699 -23.667 -23 -41c-27.333 -30 -70.333 -56.667 -129 -80
c-0.666992 2 -0.666992 4.66699 0 8c-6.66699 1.33301 -11 2 -13 2l-186 -20c5.33301 3.33301 11 5 17 5v15c-3.33301 4.66699 -8.66602 8 -15.999 10c-10.667 2.66699 -22.334 8 -35.001 16l52 16c35.333 9.33301 79.333 14 132 14c30 0 62 16.667 96 50
c31.333 30.667 47 55.334 47 74.001l32 74v13c-6 2 -10 3 -12 3c-11.333 0 -34.666 -10.667 -69.999 -32s-64 -32 -86 -32c-7.33301 0 -15.833 1.16699 -25.5 3.5s-15.5 3.5 -17.5 3.5c-10 0 -28 11 -54 33c-28.667 24.667 -43 47 -43 67c-18 42.667 -27 76.334 -27 101.001
c-8 58 -12 100.667 -12 128l3.5 34.5c2.33301 23 3.5 36.833 3.5 41.5l4 15c2.66699 10 4 18.667 4 26c15.333 36 27.333 55.333 36 58c4.66699 2 14.667 0.666992 30 -4c10 0 22.833 4.66699 38.5 14s26.834 14 33.501 14c12.667 0 19 -11 19 -33
c0 2 -6.5 -28.833 -19.5 -92.5s-19.5 -101.834 -19.5 -114.501c0 -2.66699 1.33301 -12.334 4 -29.001s4 -34.667 4 -54c0 -16.667 9.33301 -32.667 28 -48s38.334 -23 59.001 -23c8.66699 0 20.167 1.16699 34.5 3.5s23.833 3.5 28.5 3.5c18.667 0 34.334 10.667 47.001 32
c9.33301 15.333 14 26.333 14 33c10.667 22.667 16 43.667 16 63c0 3.33301 4.16699 33.666 12.5 90.999s12.5 93.333 12.5 108c0 12 5.66699 21.5 17 28.5s23.333 10.5 36 10.5c18.667 0 35 -9 49 -27c11.333 -15.333 17 -29 17 -41z" />
    <glyph glyph-name="Ocircumflex" unicode="&#xd4;" horiz-adv-x="742" 
d="M696 637c0 -43.333 -21.6699 -82.3359 -65.0029 -117.003c-25.333 -19.333 -68.666 -43.666 -129.999 -72.999c-53.333 -24.667 -85 -43.667 -95 -57c-1.33301 -2 -3.66602 -11.667 -6.99902 -29c-3.33301 -19.333 -5 -36 -5 -50c0 -20.667 0.666992 -48.334 2 -83.001
c2 -11.333 3.66699 -22.666 5 -33.999c3.33301 -26 5 -48.667 5 -68c0 -36 -9.66699 -63 -29 -81c-14 -12.667 -30.333 -19 -49 -19c-12 0 -23.667 6.33301 -35 19c-14 15.333 -21 33.666 -21 54.999c0 16.667 9.33301 51.834 28 105.501s28 99.167 28 136.5
c6.66699 4.66699 10 10.667 10 18c0 1.33301 -0.333008 3.33301 -1 6s-1 5 -1 7l-180 -15c-48 4.66699 -77.333 9.33398 -88 14.001c-24 9.33301 -36 29 -36 59c0 36 20.667 69 62 99c-2.66699 0 25.333 20.667 84 62s99 62 121 62c12 4.66699 23.333 7 34 7
c4 0 16 5.33301 36 16c25.333 12.667 48 22.334 68 29.001c32.667 10.667 66.334 16 101.001 16c105.333 0 158 -28.333 158 -85zM626.997 660.997c-5.33301 2 -9.33301 4.33203 -12 6.99902c2.66699 -1.33301 6.66699 -3.66602 12 -6.99902zM587.997 520.996
c-0.666992 -1.33301 -4 -4 -10 -8zM354.997 437.996c0 -8.66699 -0.667969 -15 -2.00098 -19c0.666992 4 1.33398 10.333 2.00098 19zM654.996 611.996c0 12 -7 24.9971 -21 38.9971c4 -15.333 6 -29.333 6 -42c0 -19.333 -7.66699 -36.666 -23 -51.999
c5.33301 2.66699 13 10.834 23 24.501s15 23.834 15 30.501zM603.996 625.993c0 2 -1.33105 4.66797 -3.99805 8.00098c-4.66699 5.33301 -8.66699 12 -12 20c-14 -0.666992 -27.333 0.333008 -40 3s-22.334 4 -29.001 4c-32 0 -55 -7 -69 -21c-8.66699 -8 -16 -22 -22 -42
c-4.66699 -17.333 -10.334 -27.666 -17.001 -30.999c6 -4.66699 9.33301 -7.33398 10 -8.00098v-14c0 -28.667 -3.33301 -53 -10 -73v-53c75.333 47.333 130 96 164 146c19.333 27.333 29 47.666 29 60.999zM345.998 544.994
c-5.33301 -1.33301 -10.3291 3.66797 -14.9961 15.001c-3.33301 8.66699 -5 15 -5 19c-2 -2 -3.66699 -3 -5 -3c-0.666992 4 -2.33398 7.33301 -5.00098 10c-6.66699 3.33301 -16 5 -28 5l-76 -36c-50 -28 -75 -53.333 -75 -76l3 -9c1.33301 1.33301 3 2 5 2
c-0.666992 -3.33301 -0.666992 -6.66602 0 -9.99902c0.666992 0.666992 2 1.66699 4 3c0 -3.33301 2.5 -7.5 7.5 -12.5s8.83301 -11.167 11.5 -18.5c3.33301 -3.33301 12.166 -6.83301 26.499 -10.5s23.5 -5.16699 27.5 -4.5
c1.33301 -0.666992 0.666016 -2.33398 -2.00098 -5.00098c3.33301 0 8.33301 -0.833008 15 -2.5s12 -2.5 16 -2.5h7c1.33301 -0.666992 0.666016 -2.33398 -2.00098 -5.00098c13.333 -0.666992 29.333 -3 48 -7h34c0 64 2.66699 113.333 8 148z" />
    <glyph glyph-name="Otilde" unicode="&#xd5;" horiz-adv-x="601" 
d="M559 561c0 -16.667 -6.66699 -30.332 -20 -40.999l-36 -23c-47.333 -33.333 -74 -52.666 -80 -57.999c-12 -9.33301 -33.667 -28.333 -65 -57l-38 -28c-15.333 -12.667 -23 -26 -23 -40c0 -18.667 17.333 -42.334 52 -71.001l97 -78
c34.667 -31.333 52 -59.666 52 -84.999c0 -32.667 -11.667 -49 -35 -49c-22.667 0 -49.667 16 -81 48l-79 89c-29.333 32 -53.666 48 -72.999 48c-39.333 0 -59 -36.333 -59 -109c0 -14 0.666992 -27.333 2 -40c0 -9.33301 -4.33301 -19 -13 -29
c-11.333 -11.333 -25 -17 -41 -17c-17.333 0 -32.333 6 -45 18s-19 25.333 -19 40c0 66 18.333 122.667 55 170l30 32c12.667 14 19 26 19 36c0 7.33301 -21.833 47.666 -65.5 120.999s-65.5 111.333 -65.5 114c0 11.333 6.16699 22.333 18.5 33s22.833 16 31.5 16
c12 0 23.667 -3.33301 35 -10c9.33301 -6 15.666 -12.167 18.999 -18.5s5 -13.833 5 -22.5c0 -7.33301 -1.16699 -15.666 -3.5 -24.999l-3.5 -14c0.666992 -10.667 15 -38.334 43 -83.001c30 -49.333 52.667 -74 68 -74c12 0 21.333 4.33301 28 13l29 44
c20 27.333 46 55.666 78 84.999s66.333 53.333 103 72c30 15.333 51 23 63 23c11.333 0 17 -10 17 -30z" />
    <glyph glyph-name="Odieresis" unicode="&#xd6;" horiz-adv-x="635" 
d="M583 166c0 -4 -8.66797 -49.667 -26.001 -137c-16 -80.667 -29 -125 -39 -133c-7.33301 6.66699 -12 14.334 -14 23.001c-4 17.333 -8.33301 31.333 -13 42c-21.333 49.333 -32 77.333 -32 84c-23.333 64 -45.666 96 -66.999 96c-12.667 0 -36.667 -12.667 -72 -38
s-66.666 -38 -93.999 -38c-70 0 -122.333 43.667 -157 131c-26 64 -39 138.333 -39 223c0 53.333 5.66699 92 17 116c8 17.333 19.667 27 35 29h28l25 16c16 10.667 26 16 30 16c6 0 11.333 -3.33301 16 -10s7 -14 7 -22c0 -7.33301 -3.33301 -34 -10 -80
c-5.33301 -42.667 -8.66602 -66.667 -9.99902 -72c-1.33301 -18.667 -1.33301 -40.667 0 -66c5.33301 -26.667 8 -41 8 -43c0 -25.333 9.33301 -47.5 28 -66.5s38 -28.5 58 -28.5c96 0 144 52.667 144 158v99c0 2 0.833008 5.33301 2.5 10s2.5 7.66699 2.5 9v66
c0 32.667 18 49 54 49c18 0 33.667 -8 47 -24c11.333 -14 17 -27.333 17 -40l-26 -101.5c-17.333 -67.667 -26 -121.834 -26 -162.501c0 -26 0.666992 -41.667 2 -47c1.33301 -7.33301 5 -11 11 -11c1.33301 0 6.16602 0.5 14.499 1.5s16.166 1.5 23.499 1.5
c36.667 0 55 -16.667 55 -50zM519.999 141c3.33301 0 5 1 5 3c0 4 -5.83301 11 -17.5 21s-19.5 15.333 -23.5 16c10.667 -26.667 22.667 -40 36 -40z" />
    <glyph glyph-name="multiply" unicode="&#xd7;" horiz-adv-x="366" 
d="M313 161c0 -10.667 -8.33008 -51.334 -24.9971 -122.001c-4 -4.66699 -12.667 -9 -26 -13c-10.667 -3.33301 -18.667 -5 -24 -5c-4 0 -9.66699 3.33301 -17 10c-9.33301 8 -14 17 -14 27c0 12 3.33301 26.167 10 42.5s10 26.5 10 30.5c-3.33301 11.333 -5 38.333 -5 81
c0 20.667 -4 33 -12 37c-113.333 1.33301 -170 30.333 -170 87s-1.66699 104.334 -5 143.001c-0.666992 7.33301 -2 13.833 -4 19.5s-3 9.16699 -3 10.5v51c2 7.33301 5.33301 16.666 10 27.999c4 -2 8.16699 -10.5 12.5 -25.5s12.166 -24.167 23.499 -27.5v15
c-0.666992 0.666992 -5.33398 13.334 -14.001 38.001c10 -3.33301 16 -13.333 18 -30c0.666992 -4.66699 1 -22.667 1 -54v-66c0 -23.333 11.667 -48.666 35 -75.999c25.333 -30 53.333 -45 84 -45c16 0 26.333 9.66699 31 29l-7 138c-10 30 -15 45.333 -15 46
c0 14 4.83301 26 14.5 36s21.5 15 35.5 15c28.667 0 43 -26 43 -78c0 -12.667 -1 -35 -3 -67c-2.66699 -26.667 -3.33398 -45.334 -2.00098 -56.001c12 -120 18 -193 18 -219z" />
    <glyph glyph-name="Oslash" unicode="&#xd8;" horiz-adv-x="684" 
d="M615 574c-1.33301 -4 -3.66699 -13.667 -7 -29c-0.666992 -5.33301 -5 -12 -13 -20l-5 5c0 2 8.33301 16.667 25 44zM432.999 358l-3.50195 -10.499c-2.33301 -7 -3.5 -14.833 -3.5 -23.5c0 -5.33301 -9.66699 -27.333 -29 -66c-22 -43.333 -39 -65 -51 -65
c-5.33301 0 -11.666 2.33301 -18.999 7s-11 10 -11 16c0 18 9 42 27 72c22.667 38 37.334 67.667 44.001 89c8.66699 28 13 53 13 75c0 11.333 -1.5 24.666 -4.5 39.999s-4.5 26 -4.5 32c0 7.33301 1 14.333 3 21c11.333 -6 21 -19.333 29 -40
c6.66699 -16.667 10 -30 10 -40v-107zM626.997 557.001c-10 -23.333 -21.332 -53.3301 -33.999 -89.9971c2 2 9.33301 10.333 22 25c-5.33301 -10 -10.333 -20 -15 -30c-6.66699 -12.667 -10 -26 -10 -40c0 -2.66699 2.16699 -24.334 6.5 -65.001s6.5 -61.667 6.5 -63
c0 -16.667 -4.66699 -34.667 -14 -54c-13.333 -26.667 -20.5 -41.667 -21.5 -45s-3.83301 -28 -8.5 -74c-0.666992 -5.33301 -2.33398 -11 -5.00098 -17c4 0 8.5 0.833008 13.5 2.5s8.83301 2.5 11.5 2.5c6.66699 0 13.334 -3.83301 20.001 -11.5s10 -18.167 10 -31.5
c0 -12.667 -8.33301 -23.667 -25 -33c-13.333 -8 -23.666 -12 -30.999 -12c2 0 -18.833 6.66699 -62.5 20s-88.834 19 -135.501 17c-63.333 -2.66699 -116.333 -4.33398 -159 -5.00098c-56.667 -0.666992 -100 14.333 -130 45c-27.333 28 -41 66 -41 114
c0 5.33301 6.66699 35 20 89c13.333 56.667 20.666 102.334 21.999 137.001c5.33301 120.667 5.33301 187 0 199c0.666992 0.666992 2 1.33398 4 2.00098c1.33301 -0.666992 2.33301 -1.33398 3 -2.00098c2 51.333 3 78 3 80c1.33301 -7.33301 4.33301 -19.333 9 -36
c4 9.33301 7.33301 25.333 10 48c2.66699 -2.66699 10.667 -33.667 24 -93s20 -92 20 -98c0 -4 -1.33301 -18.5 -4 -43.5s-4 -37.667 -4 -38s-3.66699 -18.5 -11 -54.5s-11 -60.333 -11 -73c0 -86 3.33301 -134.333 10 -145s18.667 -15.334 36 -14.001
c5.33301 0 17.5 -4.5 36.5 -13.5s33.5 -13.5 43.5 -13.5c4.66699 0 16.5 2.33301 35.5 7s30.167 7 33.5 7c2.66699 0 14.667 -2.33301 36 -7s32.666 -7 33.999 -7h97c18.667 0 33.334 19 44.001 57c7.33301 27.333 11 51.666 11 72.999c12 98 19.333 152.333 22 163
c1.33301 5.33301 8 19.333 20 42c6.66699 13.333 11.334 38 14.001 74c1.33301 -6.66699 2.33301 -13 3 -19c2 -9.33301 5.33301 -14 10 -14c9.33301 0 19.666 12.667 30.999 38z" />
    <glyph glyph-name="Ugrave" unicode="&#xd9;" horiz-adv-x="728" 
d="M615 574c-1.33301 -4 -3.66699 -13.667 -7 -29c-0.666992 -5.33301 -5 -12 -13 -20l-5 5c0 2 8.33301 16.667 25 44zM432.999 358l-3.50195 -10.499c-2.33301 -7 -3.5 -14.833 -3.5 -23.5c0 -5.33301 -9.66699 -27.333 -29 -66c-22 -43.333 -39 -65 -51 -65
c-5.33301 0 -11.666 2.33301 -18.999 7s-11 10 -11 16c0 18 9 42 27 72c22.667 38 37.334 67.667 44.001 89c8.66699 28 13 53 13 75c0 11.333 -1.5 24.666 -4.5 39.999s-4.5 26 -4.5 32c0 7.33301 1 14.333 3 21c11.333 -6 21 -19.333 29 -40
c6.66699 -16.667 10 -30 10 -40v-107zM664.997 75.001l-47.999 -215.996c-2 -0.666992 -5.33301 -1.66699 -10 -3c-6 9.33301 -11.333 22.666 -16 39.999l-6 26c-26.667 37.333 -40 66 -40 86c0 4.66699 0.666992 9 2 13c-58.667 27.333 -122.667 39.666 -192 36.999
c-32 -1.33301 -85 -3 -159 -5c-56.667 -0.666992 -100 14.333 -130 45c-27.333 28 -41 66 -41 114c0 5.33301 6.66699 35 20 89c13.333 56.667 20.666 102.334 21.999 137.001c5.33301 120.667 5.33301 187 0 199c0.666992 0.666992 2 1.33398 4 2.00098
c1.33301 -0.666992 2.33301 -1.33398 3 -2.00098c2 51.333 3 78 3 80c1.33301 -7.33301 4.33301 -19.333 9 -36c4 9.33301 7.33301 25.333 10 48c2.66699 -2.66699 10.667 -33.667 24 -93s20 -92 20 -98c0 -4 -1.33301 -18.5 -4 -43.5s-4 -37.667 -4 -38
s-3.66699 -18.5 -11 -54.5s-11 -60.333 -11 -73c0 -86 3.33301 -134.333 10 -145s18.667 -15.334 36 -14.001c5.33301 0 17.5 -4.5 36.5 -13.5s33.5 -13.5 43.5 -13.5c4.66699 0 16.5 2.33301 35.5 7s30.167 7 33.5 7c2.66699 0 14.667 -2.33301 36 -7s32.666 -7 33.999 -7
h97c18.667 0 33.334 19 44.001 57c7.33301 27.333 11 51.666 11 72.999c12 98 19.333 152.333 22 163c1.33301 5.33301 8 19.333 20 42c6.66699 13.333 11.334 38 14.001 74c1.33301 -6.66699 2.33301 -13 3 -19c2 -9.33301 5.33301 -14 10 -14
c9.33301 0 19.666 12.667 30.999 38c-10 -23.333 -21.333 -53.333 -34 -90c2 2 9.33301 10.333 22 25c-5.33301 -10 -10.333 -20 -15 -30c-6.66699 -12.667 -10 -26 -10 -40c0 -2.66699 2.16699 -24.334 6.5 -65.001s6.5 -61.667 6.5 -63c0 -12 -7.66699 -36.5 -23 -73.5
s-23 -67.833 -23 -92.5c0 -1.33301 0.333008 -3 1 -5s1 -3.66699 1 -5c36 5.33301 57.667 8 65 8c23.333 0 37 -17 41 -51zM630.998 -27.9951c0 2.66699 -0.666016 5.99902 -1.99902 9.99902c-2 0 -6 1 -12 3c0 -15.333 -0.666992 -24 -2 -26
c-5.33301 -7.33301 -9.33301 -14.666 -12 -21.999c3.33301 -2 5.66602 -7 6.99902 -15v10h7c-1.33301 2.66699 0.666992 8 6 16s8 16 8 24z" />
    <glyph glyph-name="Uacute" unicode="&#xda;" horiz-adv-x="571" 
d="M539 120c0 -56 -53.001 -84.0039 -159.001 -84.0039c-24.667 0 -39 0.333008 -43 1c-30.667 4.66699 -68 17.334 -112 38.001c-34.667 16.667 -52 28.667 -52 36c0 12 5.66699 20.833 17 26.5s17 10.167 17 13.5c0 0.666992 -2.83301 10.334 -8.5 29.001s-8.5 34 -8.5 46
c0 59.333 -3.16699 103.166 -9.5 131.499s-9.5 39.833 -9.5 34.5c0 15.333 5 24.333 15 27c0 -3.33301 -3.33301 13.5 -10 50.5s-10 65.167 -10 84.5c0 8.66699 0.666992 15.334 2 20.001h-14l-123 -70c23.333 28.667 48 50.667 74 66c14.667 9.33301 29.667 18.333 45 27
c10.667 10 16 28 16 54l10 5c0 -1.33301 0.666992 -4.66602 2 -9.99902c13.333 24.667 20 38.667 20 42c7.33301 0.666992 19.333 5.66699 36 15c0 -4.66699 1.33301 -23.667 4 -57c-6 -33.333 -9 -58 -9 -74c0 -72 2.66699 -123.667 8 -155c5.33301 -28.667 15 -49 29 -61
c4.66699 -4 22.334 -13.667 53.001 -29c67.333 -33.333 115 -60.666 143 -81.999c51.333 -40 77 -81.667 77 -125zM432.999 236.996c-4.66699 3.33301 -9.66699 5.66602 -15 6.99902c2.66699 -1.33301 7.66699 -3.66602 15 -6.99902zM468.999 98.9961
c-2 -2.66699 -6 -5.99902 -12 -9.99902c2.66699 3.33301 6.66699 6.66602 12 9.99902zM180.999 554.997v30.999c-2 -1.33301 -5.33301 -4.66602 -10 -9.99902c2.66699 -2.66699 6 -9.66699 10 -21zM497.999 145.996c0 9.33301 -5.66797 20.668 -17.001 34.001
c-8.66699 10.667 -16 17.667 -22 21l15 -17c6 -9.33301 9 -22.333 9 -39c0 -14 -2 -27 -6 -39c4.66699 5.33301 9.33398 11.166 14.001 17.499s7 13.833 7 22.5zM446.998 131.998c0 24.667 -20.334 58.332 -61.001 100.999s-85 78 -133 106v-51
c0.666992 -2 2.5 -14.333 5.5 -37s4.5 -36.334 4.5 -41.001c0 -7.33301 -3.33301 -13.666 -10 -18.999c7.33301 -3.33301 13.333 -13.666 18 -30.999c6 -20 13 -34 21 -42c14.667 -14 38 -21 70 -21c5.33301 0 18 1.5 38 4.5s30.333 4.5 31 4.5
c2.66699 6 6.33398 11.333 11.001 16c3.33301 2.66699 5 6 5 10zM214.997 222.996c-4.66699 55.333 -11.333 94 -20 116c8 -40 14.667 -78.667 20 -116z" />
    <glyph glyph-name="Ucircumflex" unicode="&#xdb;" horiz-adv-x="596" 
d="M557 563c0 -18 -10.1689 -42.3291 -30.502 -72.9961s-30.5 -54.334 -30.5 -71.001v-175c4.66699 -16.667 7 -35.334 7 -56.001c0 -40.667 -1 -68.667 -3 -84c0 -3.33301 -2 -14 -6 -32c-5.33301 -20 -9.66602 -32 -12.999 -36c-1.33301 18 -8 32 -20 42
c-16 14 -25.667 24.333 -29 31c-10.667 19.333 -16 50 -16 92c0 10.667 -4.83301 39.167 -14.5 85.5s-14.5 80.5 -14.5 102.5c0 13.333 1.5 27.166 4.5 41.499s4.5 23.833 4.5 28.5c0 7.33301 -8.33301 21.166 -25 41.499s-25 35.833 -25 46.5
c0 14.667 6.66699 30.667 20 48c16.667 22 38.334 33 65.001 33c84 -14 126 -35.667 126 -65zM400.998 112.004c0 -55.333 -52.6689 -83.002 -158.002 -83.002c-36 0 -65 3.33301 -87 10c-9.33301 2.66699 -35.666 13.667 -78.999 33l-21 10
c-14 7.33301 -21 14.666 -21 21.999c0 10.667 5.66699 19.334 17 26.001s17 11.334 17 14.001c0 -0.666992 -2.83301 8.33301 -8.5 27s-8.5 34.334 -8.5 47.001c0 34 -1.66699 65.333 -5 94c-2.66699 20 -6 38 -10 54c-3.33301 14 -5 20.333 -5 19c0 14 4.33301 22 13 24
c-1.33301 10 1.66699 41 9 93c8.66699 60 19.334 94.333 32.001 103c-2.66699 6 -4 12 -4 18l12 -3c0 8 1.66699 19.333 5 34c0 -28 -2.66699 -58 -8 -90l8 -130c2 -8.66699 3.33301 -23 4 -43c0.666992 -14.667 3 -24.667 7 -30s31.333 -21 82 -47
c58.667 -30 105 -58 139 -84c46.667 -36 70 -75.333 70 -118zM294.996 230.002c-2.66699 2 -7.66699 4.33301 -15 7c2 -0.666992 7 -3 15 -7zM330.996 92.002c-4 -5.33301 -8 -8.66699 -12 -10c0.666992 0.666992 4.66699 4 12 10zM443.996 532.001
c0 17.333 -7.33301 25.9971 -22 25.9971c-6 0 -11.5 -4.83301 -16.5 -14.5s-7.5 -17.167 -7.5 -22.5l11.5 -43c7.66699 -28.667 11.5 -47.667 11.5 -57c0 -8 -1.66699 -19.333 -5 -34s-5 -21.667 -5 -21c0 -20.667 9.66699 -45 29 -73l-9 88c0 10 1.33301 20.5 4 31.5
s4 19.833 4 26.5c0 10.667 -1 22.334 -3 35.001s-3 20.334 -3 23.001c0 3.33301 1.83301 8.33301 5.5 15s5.5 13.334 5.5 20.001zM359.996 138.998c0 5.33301 -4.5 14.667 -13.5 28s-17.5 22 -25.5 26c16.667 -18.667 25 -37 25 -55c0 -11.333 -2.66699 -24.333 -8 -39
c14.667 18.667 22 32 22 40zM59.9961 396.999v32.001c-1.33301 -6.66699 -4.66602 -15.667 -9.99902 -27c3.33301 -0.666992 6.66602 -2.33398 9.99902 -5.00098zM308.996 125c0 25.333 -21.334 59.999 -64.001 103.999c-39.333 40.667 -82.666 75 -129.999 103v-51l10 -77
c0 -8 -3.33301 -14.667 -10 -20c7.33301 -3.33301 13.333 -13.666 18 -30.999c6 -20 13 -34 21 -42c14.667 -14 38 -21 70 -21c15.333 0 38 3 68 9c1.33301 1.33301 5 6 11 14c4 4.66699 6 8.66699 6 12zM76.9951 214.999c-4 49.333 -10.668 89.001 -20.001 119.001
c4.66699 -24.667 11.334 -64.334 20.001 -119.001z" />
    <glyph glyph-name="Udieresis" unicode="&#xdc;" horiz-adv-x="464" 
d="M401 112c0 -55.333 -52.6689 -83.002 -158.002 -83.002c-36 0 -65 3.33301 -87 10c-9.33301 2.66699 -35.666 13.667 -78.999 33l-21 10c-14 7.33301 -21 14.666 -21 21.999c0 10.667 5.66699 19.334 17 26.001s17 11.334 17 14.001
c0 -0.666992 -2.83301 8.33301 -8.5 27s-8.5 34.334 -8.5 47.001c0 34 -1.66699 65.333 -5 94c-2.66699 20 -6 38 -10 54c-3.33301 14 -5 20.333 -5 19c0 14 4.33301 22 13 24c-1.33301 10 1.66699 41 9 93c8.66699 60 19.334 94.333 32.001 103c-2.66699 6 -4 12 -4 18
l12 -3c0 8 1.66699 19.333 5 34c0 -28 -2.66699 -58 -8 -90l8 -130c2 -8.66699 3.33301 -23 4 -43c0.666992 -14.667 3 -24.667 7 -30s31.333 -21 82 -47c58.667 -30 105 -58 139 -84c46.667 -36 70 -75.333 70 -118zM294.998 229.998c-2.66699 2 -7.66699 4.33301 -15 7
c2 -0.666992 7 -3 15 -7zM330.998 91.998c-4 -5.33301 -8 -8.66699 -12 -10c0.666992 0.666992 4.66699 4 12 10zM359.998 138.997c0 5.33301 -4.5 14.667 -13.5 28s-17.5 22 -25.5 26c16.667 -18.667 25 -37 25 -55c0 -11.333 -2.66699 -24.333 -8 -39
c14.667 18.667 22 32 22 40zM59.998 396.998v32.001c-1.33301 -6.66699 -4.66602 -15.667 -9.99902 -27c3.33301 -0.666992 6.66602 -2.33398 9.99902 -5.00098zM308.998 124.999c0 25.333 -21.334 59.999 -64.001 103.999c-39.333 40.667 -82.666 75 -129.999 103v-51
l10 -77c0 -8 -3.33301 -14.667 -10 -20c7.33301 -3.33301 13.333 -13.666 18 -30.999c6 -20 13 -34 21 -42c14.667 -14 38 -21 70 -21c15.333 0 38 3 68 9c1.33301 1.33301 5 6 11 14c4 4.66699 6 8.66699 6 12zM76.9971 214.998c-4 49.333 -10.668 89.001 -20.001 119.001
c4.66699 -24.667 11.334 -64.334 20.001 -119.001z" />
    <glyph glyph-name="Yacute" unicode="&#xdd;" horiz-adv-x="527" 
d="M467 230c-5.33301 -5.33301 -8.00488 -11.666 -8.00488 -18.999s-8.66699 -13.333 -26 -18c0 -2 0.666992 -8.33301 2 -19c-4.66699 3.33301 -7.66699 5 -9 5c-2.66699 0 -5.5 -1.33301 -8.5 -4s-4.16699 -5.33398 -3.5 -8.00098c-2.66699 0 -6.66699 -0.833008 -12 -2.5
s-10 -2.5 -14 -2.5c-6 0 -14.333 -10.667 -25 -32c-15.333 -30 -26.333 -49.667 -33 -59c-16 -21.333 -32.667 -32 -50 -32c-16 -12.667 -37 -19 -63 -19c-8.66699 0 -20.667 2.66699 -36 8s-25.666 8 -30.999 8s-21.666 13.333 -48.999 40c-29.333 28 -44 48 -44 60
c-6 22 -13.333 46 -22 72c4 0.666992 6.83301 1.33398 8.5 2.00098s3.16699 1 4.5 1c5.33301 -2 10 -3 14 -3c0 -0.666992 -0.166992 -1.5 -0.5 -2.5s-0.833008 -1.83301 -1.5 -2.5c32 -32 53.667 -48 65 -48c64.667 -30.667 99.667 -46 105 -46
c4.66699 0 12.334 4.66699 23.001 14c17.333 13.333 33.666 32.666 48.999 57.999c-4 3.33301 -18.5 8.5 -43.5 15.5s-44.5 10.833 -58.5 11.5c1.33301 2 4.66602 5.33301 9.99902 10c-8 8 -18.667 12 -32 12c-1.33301 1.33301 -7.66602 5.33301 -18.999 12v7
c18.667 -7.33301 35 -12 49 -14c0.666992 0 11.834 4.83301 33.501 14.5s35.167 14.5 40.5 14.5c2 0 7.16699 -1.83301 15.5 -5.5s13.833 -6.83398 16.5 -9.50098h14c-4 8 -6 14 -6 18c0 2 1 4.66699 3 8s3 7 3 11s-5 13.333 -15 28c-18 26.667 -33 50.334 -45 71.001
l-43 74c-6.66699 9.33301 -12.334 14 -17.001 14c-2 0 -32.333 -24.667 -91 -74c-13.333 0 -28.666 6 -45.999 18s-26 23.667 -26 35c-13.333 34.667 -20 52.334 -20 53.001c4.66699 9.33301 7 18.166 7 26.499s11.333 24.166 34 47.499c28.667 30.667 60 46 94 46
c1.33301 0 9.33301 -1.16699 24 -3.5s23.334 -3.5 26.001 -3.5s16.167 -8 40.5 -24s36.5 -26.333 36.5 -31c0 3.33301 15.833 -17.667 47.5 -63s47.5 -77.666 47.5 -96.999l8 -19c7.33301 -16.667 14.333 -35.667 21 -57c5.33301 -18.667 9 -37 11 -55
c0.666992 -6.66699 4.33398 -11 11.001 -13c-5.33301 -5.33301 -9.33301 -10.333 -12 -15c26 -9.33301 41.333 -14 46 -14zM192.995 208z" />
    <glyph glyph-name="Thorn" unicode="&#xde;" horiz-adv-x="669" 
d="M612 332c-2 -3.33301 -4.66797 -22.002 -8.00098 -56.002c-4 -31.333 -6 -48.5 -6 -51.5s-2.5 -12.667 -7.5 -29s-7.5 -28.166 -7.5 -35.499c-17.333 -32 -26 -52 -26 -60c-24 -31.333 -35.667 -48 -35 -50l-21 -14c-14.667 -8 -29.334 -12 -44.001 -12
c-20 0 -46 11 -78 33c-38 25.333 -70 58 -96 98c-5.33301 8.66699 -11 13.667 -17 15c-2 0.666992 -3 7.33398 -3 20.001c0 -1.33301 -1.16699 5.66699 -3.5 21s-3.5 29 -3.5 41c-7.33301 14 -14.333 21 -21 21c-1.33301 0 -5.66602 -2.83301 -12.999 -8.5
s-16.333 -8.5 -27 -8.5h-58c-12 -14 -18 -27.333 -18 -40c0 3.33301 2.66699 -7.33398 8 -32.001c0.666992 -4 -0.833008 -10.667 -4.5 -20s-5.5 -18.333 -5.5 -27c0 -8 3.33301 -19.667 10 -35s10 -25.666 10 -30.999c0 -0.666992 -1.16699 -3.5 -3.5 -8.5
s-3.5 -11.167 -3.5 -18.5c0 -2 -3.33301 -5.83301 -10 -11.5s-13.667 -8.5 -21 -8.5c-10.667 4.66699 -20.667 7 -30 7c-5.33301 0 -13.666 17.333 -24.999 52c-9.33301 30 -14.666 50.667 -15.999 62c0.666992 10 0.666992 33.333 0 70c2.66699 4 7.33398 28 14.001 72
c6.66699 48.667 10 88.334 10 119.001c0 21.333 -3.33301 40.333 -10 57c0 20 2.33301 41.667 7 65c7.33301 40.667 19.666 61 36.999 61c34 0 51 -19.667 51 -59c0 -4 -1.16699 -9 -3.5 -15s-3.5 -11 -3.5 -15c0 1.33301 -1.33301 -4 -4 -16s-5 -26.667 -7 -44
c-2.66699 -25.333 -4 -54 -4 -86c0 -9.33301 3.66699 -17.5 11 -24.5s14.333 -10.5 21 -10.5c10 0 29 8.33301 57 25c36 21.333 54 44 54 68c5.33301 4 7 10.333 5 19c2.66699 6.66699 3 11 1 13c-2 3.33301 -3 4.66602 -3 3.99902c0 22 7.66699 43.667 23 65
s23 35.333 23 42c6 4 25.333 25 58 63c34 42 59.667 63 77 63c4.66699 0 8.16699 -1.16699 10.5 -3.5s7.16602 -3.5 14.499 -3.5c16 0 48 -31.667 96 -95c2 0 9 -16 21 -48c12.667 -34 19 -57.667 19 -71c2.66699 -14.667 5.66699 -30 9 -46v-82zM492.999 436.998
c0 3.33301 -1.5 5.99902 -4.5 7.99902l-4.5 3c0.666992 1.33301 1.33398 3 2.00098 5c-2.66699 -0.666992 -5 3.33301 -7 12c0 -0.666992 -1.66699 -1.66699 -5 -3c0 5.33301 -11.333 19.333 -34 42c-0.666992 0.666992 -0.666992 7.33398 0 20.001s-4 25.334 -14 38.001
c0 -4.66699 -6.83301 -30.667 -20.5 -78s-21.5 -72.333 -23.5 -75c0 -19.333 -2.33301 -35.333 -7 -48c-4.66699 -30 -10.334 -64 -17.001 -102c4 -15.333 8 -31.666 12 -48.999c7.33301 -4.66699 16 -14.334 26 -29.001c2 0.666992 5.16699 0.166992 9.5 -1.5
s7.83301 -2.5 10.5 -2.5c7.33301 0 14.5 2 21.5 6s14.167 8.33301 21.5 13c0 1.33301 -0.666992 3.66602 -2 6.99902c5.33301 0 11 6.66699 17 20c0 38 -3.33301 63.667 -10 77c7.33301 4 11 18.667 11 44c0 8.66699 3 26.5 9 53.5s9 40.167 9 39.5z" />
    <glyph glyph-name="germandbls" unicode="&#xdf;" horiz-adv-x="522" 
d="M467 188l-68.002 40.002h-12c0 -2 0.333008 -4.66699 1 -8s1 -6 1 -8c0 0.666992 -1.16699 -5 -3.5 -17s-3.5 -29.333 -3.5 -52c0 0.666992 -4.16699 -15.833 -12.5 -49.5s-12.166 -52.834 -11.499 -57.501h-7c-1.33301 -4.66699 -1.33301 -12 0 -22
c0 0.666992 -5 1.66699 -15 3v-8c4.66699 145.333 -0.333008 232 -15 260c-49.333 -20 -99.666 -59.333 -150.999 -118c-46.667 -54 -72 -95.667 -76 -125c0 4.66699 -1 9 -3 13c-10 -10 -15.333 -15 -16 -15c-4 -0.666992 -8.33301 -1.66699 -13 -3h-15
c0 2 -0.333008 4.33301 -1 7s-1 4.66699 -1 6c0 6 7.66699 20 23 42s23 38.667 23 50c0 8 6 21 18 39c16 24 37.333 46.333 64 67c10.667 8 17 15 19 21s4.66699 9.66699 8 11l78 39c-78.667 41.333 -128 68.666 -148 81.999c-68 46.667 -102 90.667 -102 132
c0 36 16.667 61.333 50 76c24.667 10 61.667 15 111 15c48.667 0 98.334 -12 149.001 -36c11.333 -4.66699 22.666 -9.66699 33.999 -15c16 -8 24 -15.667 24 -23c0 -12 -4.83301 -20.667 -14.5 -26s-14.5 -12.333 -14.5 -21s2.33301 -20.667 7 -36
c4.66699 -17.333 7.33398 -34 8.00098 -50c3.33301 -19.333 5 -53 5 -101c0 -20.667 4.33301 -36 13 -46c5.33301 -6 13.666 -11.333 24.999 -16c8.66699 -2.66699 13 -6 13 -10zM298.998 344.002c0 29.333 -3 60.666 -9 93.999c0 70 -34 105 -102 105
c-14.667 0 -30.667 -1.66699 -48 -5c-2 -4.66699 -5.5 -9.66699 -10.5 -15s-7.5 -9 -7.5 -11c0 -23.333 21 -56.666 63 -99.999c35.333 -36.667 72 -67.667 110 -93c4.66699 10 6 18.333 4 25zM100.998 450.002c-10 24 -14.999 38.3311 -14.999 42.998c0 2 1.66699 12 5 30
c-2.66699 -1.33301 -7.33398 -4.66602 -14.001 -9.99902c1.33301 -1.33301 2 -2.66602 2 -3.99902c-3.33301 0 -6.66602 -1 -9.99902 -3c5.33301 -15.333 11.666 -28.333 18.999 -39c4.66699 -5.33301 9 -11 13 -17z" />
    <glyph glyph-name="agrave" unicode="&#xe0;" horiz-adv-x="352" 
d="M302 -5c-4 8.66699 -10.335 20.666 -19.002 35.999c-2.66699 -0.666992 -6 -3 -10 -7c-4 4.66699 -11.333 11.667 -22 21c-2 -6 -3 -9.33301 -3 -10c0 -6 3.33301 -14.667 10 -26c-0.666992 0 -1.5 -0.166992 -2.5 -0.5s-1.83301 -0.833008 -2.5 -1.5
c-3.33301 6 -9.66602 15.667 -18.999 29c-0.666992 -5.33301 0 -11.666 2 -18.999c-4 8.66699 -7.66699 17.334 -11 26.001c0 -1.33301 0 6.33398 0 23.001c0 19.333 2.16699 31.666 6.5 36.999s6.5 15.333 6.5 30c0 23.333 -13 44.666 -39 63.999c-22 16 -40.333 24 -55 24
c-5.33301 0 -9.83301 -2.66699 -13.5 -8s-5.5 -9.66602 -5.5 -12.999c0 -4.66699 3.33301 -12.834 10 -24.501s10 -22.167 10 -31.5c0 0.666992 -0.666992 -2 -2 -8c-1.33301 -8 -2.66602 -20 -3.99902 -36c-1.33301 -22.667 -2 -54 -2 -94c0 -23.333 -14.333 -35 -43 -35
c-12.667 0 -25.667 4.83301 -39 14.5s-20 21.167 -20 34.5c0 4.66699 5.66699 20.5 17 47.5s17 55.167 17 84.5c0 53.333 9 109.333 27 168c27.333 92 69.333 143.667 126 155c2 -4.66699 3 -12 3 -22c0 2.66699 9.16699 -15.166 27.5 -53.499s27.5 -70.5 27.5 -96.5
c0 2 3.16699 -8.83301 9.5 -32.5s9.5 -43.167 9.5 -58.5c0 -4.66699 -2.83301 -21.334 -8.5 -50.001s-8.5 -53.667 -8.5 -75c0 -23.333 2.33301 -42.333 7 -57c4 -12 8.33301 -23.667 13 -35zM230.998 289.999c0 48.667 -13.668 82.666 -41.001 101.999
c-6 -9.33301 -12.333 -18.666 -19 -27.999c-10 -17.333 -23 -58 -39 -122c24 18 42.333 27 55 27c2.66699 0 7.83398 -1.66699 15.501 -5s12.5 -5 14.5 -5c9.33301 0 14 10.333 14 31z" />
    <glyph glyph-name="aacute" unicode="&#xe1;" horiz-adv-x="703" 
d="M666 533c-4 -5.33301 -10 -9.33203 -18 -11.999c1.33301 -0.666992 5.66602 -1.66699 12.999 -3c-18 -2.66699 -42.333 -5.66699 -73 -9c-1.33301 -2 -3 -3.66699 -5 -5c7.33301 -2 13.666 -3 18.999 -3c6 0 11.833 1 17.5 3s9.16699 3 10.5 3
c5.33301 -0.666992 14 -2.66699 26 -6c-14.667 0 -34 -1.33301 -58 -4c4 -4 6.33301 -6.66699 7 -8c-110 -5.33301 -196.333 -22.333 -259 -51c-15.333 -6.66699 -44.666 -14.334 -87.999 -23.001c-35.333 -7.33301 -60.333 -17 -75 -29c-21.333 -18 -32 -47.333 -32 -88
c0 -38.667 25.667 -58 77 -58c10.667 0 27.334 4 50.001 12s41.667 12 57 12c34 0 62.333 -14.667 85 -44c19.333 -24 29 -47.667 29 -71c0 -36 -14.333 -64.167 -43 -84.5s-64.334 -30.5 -107.001 -30.5c-48 0 -90 -10 -126 -30c-19.333 -11.333 -43 -30.333 -71 -57
c-20.667 -20 -36.667 -30 -48 -30c-6.66699 0 -14 12.667 -22 38l67 192v114c0 3.33301 -5.5 21.5 -16.5 54.5s-16.5 53.833 -16.5 62.5c0 22 20.333 43.667 61 65c48 24.667 116.667 43.334 206 56.001c52.667 10.667 113.334 22 182.001 34
c30.667 1.33301 68.667 4.33301 114 9c-0.666992 0 -3.66699 -1.33301 -9 -4c10 -0.666992 25.333 -2.33398 46 -5.00098zM406 138.001c0 36.667 -9.66602 60.665 -28.999 71.998c-4.66699 -9.33301 -9.33398 -14 -14.001 -14c1.33301 0 -2.66699 2.33301 -12 7
c20.667 -33.333 31 -54.666 31 -63.999c0 -8.66699 -10.333 -27.667 -31 -57c21.333 24 36.333 36 45 36c0.666992 0 1.5 -0.333008 2.5 -1s1.83301 -1 2.5 -1c0 -5.33301 1 -11.666 3 -18.999c0 4 0.333008 9.33301 1 16s1 15 1 25zM341.001 151.999
c0 14.667 -11.333 27.3311 -34 37.998c-18.667 8.66699 -35.334 13 -50.001 13c-5.33301 0 -21.166 -2.16699 -47.499 -6.5s-40.833 -7.16602 -43.5 -8.49902c17.333 -26.667 26 -43.334 26 -50.001c0 -5.33301 -1.83301 -10.333 -5.5 -15l-5.5 -7
c0 -4 5.16699 -8.5 15.5 -13.5s18.833 -7.83301 25.5 -8.5c26.667 -2 47 -2 61 0c16 2.66699 30.333 11.334 43 26.001c10 12.667 15 23.334 15 32.001z" />
    <glyph glyph-name="acircumflex" unicode="&#xe2;" horiz-adv-x="480" 
d="M449 143c0 -28.667 -11.3311 -53.667 -33.998 -75c-28 -26 -66.667 -39 -116 -39c-1.33301 0 -17.333 -2.83301 -48 -8.5s-47 -8.5 -49 -8.5c-9.33301 0 -35.5 -16.667 -78.5 -50s-65.167 -50 -66.5 -50c-8.66699 0 -15.334 6 -20.001 18
c-1.33301 6.66699 -3 13.334 -5 20.001c0.666992 2 13 32.333 37 91c13.333 32.667 23 64 29 94c5.33301 24.667 5.66602 66.667 0.999023 126c-5.33301 16.667 -11 33 -17 49c-10.667 33.333 -16 52.666 -16 57.999c0 58 66 87 198 87c94.667 0 142 -25 142 -75
c0 -26 -23 -55 -69 -87l-88 -51c3.33301 -1.33301 4.66602 -2 3.99902 -2c4 0 14.833 3.16699 32.5 9.5s32.834 9.5 45.501 9.5c34 0 63 -14 87 -42c20.667 -24 31 -48.667 31 -74zM302.002 373c0 26 -11.333 39 -34 39c-31.333 0 -57.333 -9.33301 -78 -28
c-24 -21.333 -36 -51 -36 -89c0 -6.66699 2.66699 -18 8 -34h9c10.667 12 29.167 22.5 55.5 31.5s43.5 16.5 51.5 22.5c16 12 24 31.333 24 58zM406.002 133c0 34 -8.99902 58.335 -26.999 73.002c-2 -2.66699 -6.66699 -7.66699 -14 -15
c-4.66699 3.33301 -9.33398 5.66602 -14.001 6.99902c6 -6.66699 12.667 -18 20 -34s11 -25.333 11 -28c0 -12.667 -9.66699 -31.334 -29 -56.001l24 22c8 7.33301 14.333 11 19 11c0.666992 0 1.5 -0.333008 2.5 -1s1.83301 -1 2.5 -1c0 -7.33301 1 -13 3 -17
c1.33301 16 2 29 2 39zM341.003 147.002c0 15.333 -12.333 28.332 -37 38.999c-18.667 8 -34.334 12 -47.001 12c-3.33301 0 -33.666 -4 -90.999 -12c2.66699 -6 8.33398 -16 17.001 -30c6 -9.33301 9 -17 9 -23c0 -3.33301 -1.66699 -8.33301 -5 -15l-6 -12
c21.333 -11.333 32.666 -17 33.999 -17c17.333 -2.66699 38.333 -2.66699 63 0c11.333 1.33301 24 7 38 17c16.667 12.667 25 26.334 25 41.001z" />
    <glyph glyph-name="atilde" unicode="&#xe3;" horiz-adv-x="835" 
d="M782 448l-33.999 -0.00292969c-24 -6.66699 -44.667 -10 -62 -10c4.66699 0 -0.333008 2 -15 6s-37 6 -67 6h-52c-22.667 -6 -49 -30.333 -79 -73c-33.333 -47.333 -53 -94 -59 -140h-15c0 -14.667 2.33301 -21.667 7 -21c0 -29.333 -17.667 -67.333 -53 -114
c-42 -54 -86 -81 -132 -81c-98 14.667 -156 24.334 -174 29.001h20v15c-6.66699 4 -18.667 12 -36 24c14.667 0 27.5 1.33301 38.5 4s15.5 4 13.5 4c40.667 -10 76 -15 106 -15c33.333 0 63.666 10.333 90.999 31c22.667 17.333 51 58.5 85 123.5s51 111.5 51 139.5
l9.5 14.5c6.33301 9.66699 9.5 18.834 9.5 27.501c0 14 -6.33301 21.667 -19 23h-61c-22.667 -2.66699 -54.334 -10.667 -95.001 -24c-38 -12 -60 -18 -66 -18c-14 0 -21 14.333 -21 43c0 20.667 11.333 36.334 34 47.001c16.667 8 35.334 12 56.001 12h286
c48 0 93.667 -4.66699 137 -14l57 -15l-5 -5v-7c11.333 -6 26 -10 44 -12zM639.001 488.997c-8.66699 2 -14.998 3 -18.998 3l-40 -4c-26.667 -2.66699 -41.667 -4 -45 -4c17.333 -4 35.666 -6 54.999 -6s35.666 3.66699 48.999 11zM491.003 481.997h-46.001v-7h32
c4.66699 2.66699 9.33398 5 14.001 7z" />
    </font>
</defs>
</svg>
